<svg width="294" height="294" viewBox="0 0 294 294" fill="none" xmlns="http://www.w3.org/2000/svg">
<g clip-path="url(#clip0_653_3320)">
<path d="M0 0H294V294H0V0Z" fill="#FFFFFA"/>
<path d="M239.542 161.4C239.594 161.401 239.646 161.408 239.698 161.404C240.241 161.367 240.872 161.025 241.378 160.82C244.47 159.566 247.972 157.547 251.106 159.994C252.169 160.824 252.882 161.983 252.999 163.338C253.147 165.061 252.28 166.748 251.175 168.016C249.013 170.495 245.838 171.92 243.371 174.067C241.555 175.392 239.193 177.754 238.795 180.079C238.783 180.15 238.779 180.223 238.771 180.295C238.714 180.941 238.754 181.833 238.48 182.412C238.102 182.464 237.899 182.429 237.539 182.307C237.26 182.004 237.182 181.934 237.151 181.503C237.108 180.899 237.467 180.033 237.667 179.461C239.679 173.722 245.681 171.876 249.684 168.013C250.803 166.934 251.826 165.543 251.812 163.921C251.811 163.787 251.803 163.653 251.789 163.52C251.774 163.386 251.752 163.254 251.723 163.123C251.695 162.992 251.659 162.862 251.617 162.735C251.575 162.607 251.526 162.483 251.471 162.36C251.416 162.238 251.354 162.119 251.286 162.003C251.219 161.887 251.145 161.775 251.065 161.667C250.986 161.558 250.901 161.454 250.811 161.355C250.721 161.256 250.626 161.161 250.525 161.072C246.882 157.83 242.404 162.586 238.616 162.694L238.408 162.699C238.688 162.153 238.964 161.668 239.542 161.4Z" fill="#212121"/>
<path d="M107.348 89.4792C108.684 89.5217 109.843 89.5964 110.794 90.6782C111.519 91.5022 111.77 92.6495 111.678 93.7221C111.571 94.9834 110.96 96.201 109.969 96.9981C109.067 97.723 107.974 97.9963 106.834 97.8347C106.209 97.7463 105.652 97.516 105.112 97.1965C104.483 96.5381 104.004 95.9504 103.755 95.0561C103.422 93.8571 103.543 92.6406 104.21 91.5763C104.957 90.3845 106.025 89.8057 107.348 89.4792Z" fill="#212121"/>
<path d="M106.61 90.6111C107.228 90.5419 107.868 90.4523 108.482 90.5907C109.204 90.7535 109.882 91.2772 110.236 91.9246C110.689 92.7529 110.759 93.8006 110.447 94.6898C110.086 95.7202 109.414 96.2735 108.454 96.7219C107.973 96.8155 107.48 96.8885 106.99 96.8155C106.262 96.707 105.567 96.2269 105.168 95.6148C104.652 94.823 104.56 93.8218 104.804 92.9206C105.087 91.8795 105.686 91.1399 106.61 90.6111Z" fill="#FFFFFA"/>
<path d="M171.269 70.8041C172.148 70.7845 173.036 70.9801 173.798 71.4348C174.763 72.0108 175.405 72.9913 175.641 74.082C175.904 75.297 175.674 76.5537 174.951 77.5709C174.134 78.7208 172.979 79.239 171.628 79.4779C170.675 79.4489 169.854 79.3436 169.026 78.8354C168.907 78.7621 168.791 78.6829 168.68 78.5979C168.569 78.5128 168.463 78.4221 168.361 78.326C168.259 78.2299 168.163 78.1289 168.071 78.0228C167.98 77.9168 167.894 77.8064 167.814 77.6915C167.735 77.5765 167.661 77.4577 167.593 77.3352C167.526 77.2127 167.464 77.0871 167.41 76.9583C167.355 76.8294 167.307 76.6981 167.266 76.5643C167.225 76.4305 167.191 76.295 167.164 76.1578C166.917 74.9683 167.137 73.6927 167.837 72.6921C168.697 71.4647 169.864 71.061 171.269 70.8041Z" fill="#212121"/>
<path d="M170.74 71.9364C171.394 71.8867 172.05 71.8615 172.672 72.1084C173.486 72.4317 174.164 73.063 174.49 73.8816C174.531 73.9819 174.566 74.084 174.597 74.1879C174.627 74.2917 174.652 74.3967 174.672 74.5032C174.692 74.6096 174.707 74.7167 174.716 74.8244C174.725 74.9324 174.728 75.0404 174.727 75.1486C174.725 75.2567 174.718 75.3646 174.705 75.4722C174.693 75.5795 174.675 75.6861 174.652 75.792C174.628 75.8977 174.6 76.0019 174.566 76.1047C174.532 76.2074 174.494 76.3083 174.45 76.4073C173.949 77.5247 173.091 78.0024 171.993 78.4165C171.353 78.5422 170.793 78.5302 170.173 78.3062C169.334 78.0039 168.693 77.4004 168.347 76.5767C168.304 76.4739 168.265 76.3692 168.232 76.2626C168.199 76.156 168.171 76.048 168.148 75.9387C168.126 75.8294 168.108 75.7193 168.097 75.6082C168.085 75.4972 168.078 75.3859 168.077 75.2743C168.076 75.1626 168.081 75.0511 168.091 74.9399C168.101 74.8287 168.116 74.7182 168.137 74.6085C168.158 74.4989 168.184 74.3905 168.215 74.2835C168.247 74.1763 168.284 74.071 168.325 73.9674C168.803 72.8175 169.637 72.3665 170.74 71.9364Z" fill="#FFFFFA"/>
<path d="M236.056 185.936C237.763 185.854 239.452 185.923 240.977 186.798C242.095 187.44 242.919 188.468 243.223 189.728C243.562 191.134 243.226 192.668 242.455 193.876C241.45 195.449 239.934 196.212 238.174 196.635C236.321 196.767 234.662 196.709 233.062 195.624C231.918 194.848 231.089 193.68 230.848 192.31C230.607 190.941 230.96 189.461 231.764 188.333C232.815 186.857 234.332 186.225 236.056 185.936Z" fill="#212121"/>
<path d="M236.158 186.948C237.369 186.861 238.547 186.858 239.681 187.357C240.697 187.805 241.527 188.643 241.892 189.7C241.936 189.83 241.973 189.961 242.004 190.095C242.034 190.228 242.058 190.363 242.075 190.499C242.092 190.635 242.102 190.772 242.105 190.908C242.108 191.046 242.104 191.182 242.093 191.319C242.082 191.455 242.064 191.591 242.039 191.726C242.014 191.861 241.983 191.994 241.944 192.125C241.906 192.257 241.861 192.386 241.81 192.513C241.758 192.64 241.7 192.764 241.636 192.885C240.877 194.352 239.561 195.066 238.043 195.516C236.632 195.654 235.279 195.613 234.022 194.869C233.892 194.793 233.766 194.71 233.644 194.621C233.522 194.532 233.406 194.436 233.294 194.335C233.182 194.233 233.076 194.127 232.975 194.014C232.875 193.902 232.78 193.784 232.692 193.662C232.604 193.539 232.522 193.413 232.447 193.282C232.372 193.151 232.304 193.016 232.242 192.878C232.181 192.74 232.128 192.599 232.081 192.456C232.035 192.312 231.996 192.167 231.965 192.019C231.748 190.94 232.022 189.824 232.655 188.933C233.503 187.738 234.762 187.208 236.158 186.948Z" fill="#FFFFFA"/>
<path d="M197.344 130.68C199.351 130.547 201.16 130.611 202.973 131.631C204.58 132.535 205.886 134.026 206.373 135.825C206.834 137.528 206.641 139.515 205.691 141.021C204.53 142.861 202.679 143.664 200.657 144.143C198.481 144.486 196.302 144.069 194.458 142.844C192.769 141.721 191.544 139.987 191.169 137.98C191.149 137.881 191.133 137.781 191.118 137.68C191.104 137.58 191.092 137.479 191.083 137.378C191.074 137.277 191.068 137.176 191.065 137.075C191.061 136.973 191.06 136.872 191.061 136.771C191.063 136.669 191.067 136.568 191.074 136.467C191.081 136.365 191.09 136.264 191.102 136.164C191.114 136.063 191.129 135.963 191.147 135.863C191.164 135.763 191.184 135.664 191.207 135.565C191.229 135.466 191.254 135.368 191.282 135.27C191.31 135.173 191.34 135.076 191.373 134.98C191.405 134.884 191.441 134.789 191.478 134.695C191.516 134.6 191.556 134.507 191.599 134.415C191.641 134.323 191.686 134.232 191.733 134.142C191.781 134.053 191.83 133.964 191.882 133.877C191.934 133.79 191.988 133.704 192.045 133.62C192.101 133.536 192.16 133.453 192.22 133.372C193.476 131.691 195.342 130.966 197.344 130.68Z" fill="#2962FF"/>
<path d="M197.421 131.803C199.055 131.673 200.654 131.841 202.112 132.647C202.196 132.694 202.279 132.742 202.361 132.792C202.443 132.843 202.524 132.895 202.603 132.95C202.682 133.004 202.76 133.06 202.837 133.119C202.913 133.177 202.988 133.237 203.062 133.299C203.135 133.361 203.207 133.424 203.278 133.49C203.348 133.555 203.417 133.623 203.484 133.691C203.551 133.76 203.617 133.831 203.68 133.903C203.744 133.975 203.806 134.048 203.866 134.124C203.926 134.199 203.984 134.275 204.04 134.353C204.097 134.431 204.151 134.511 204.203 134.591C204.256 134.672 204.306 134.754 204.354 134.837C204.403 134.92 204.449 135.005 204.493 135.09C204.537 135.175 204.579 135.262 204.619 135.349C204.659 135.437 204.697 135.525 204.732 135.614C204.768 135.704 204.801 135.794 204.833 135.885C204.864 135.976 204.892 136.068 204.919 136.16C205.299 137.492 205.187 138.959 204.469 140.159C203.531 141.726 201.942 142.347 200.274 142.809C198.677 142.909 197.208 142.775 195.763 142.014C195.671 141.966 195.579 141.915 195.489 141.862C195.399 141.809 195.31 141.754 195.223 141.697C195.136 141.64 195.05 141.581 194.965 141.519C194.881 141.457 194.798 141.394 194.717 141.328C194.636 141.262 194.557 141.194 194.479 141.124C194.401 141.055 194.325 140.983 194.251 140.909C194.177 140.836 194.105 140.76 194.034 140.683C193.964 140.606 193.896 140.527 193.829 140.446C193.763 140.365 193.699 140.283 193.637 140.199C193.575 140.115 193.515 140.03 193.457 139.943C193.399 139.856 193.343 139.767 193.29 139.677C193.237 139.588 193.185 139.496 193.137 139.404C193.088 139.312 193.041 139.218 192.997 139.124C192.953 139.029 192.911 138.933 192.872 138.836C192.833 138.74 192.796 138.642 192.762 138.543C192.727 138.444 192.696 138.345 192.666 138.245C192.301 136.956 192.382 135.582 193.103 134.43C194.069 132.887 195.743 132.236 197.421 131.803Z" fill="#FFFFFA"/>
<path d="M169.444 51.1356C169.439 50.603 169.473 50.0839 169.621 49.5697C170.178 47.6406 171.461 46.1476 173.235 45.2292C176.269 43.6581 180.329 43.7951 183.491 44.8792C186.619 45.9515 188.849 47.7606 190.302 50.7311C191.119 52.8445 191.504 55.1273 190.533 57.2766C190.48 57.3954 190.423 57.513 190.363 57.6291C190.303 57.7451 190.241 57.8596 190.175 57.9725C190.11 58.0853 190.041 58.1964 189.97 58.3059C189.899 58.4153 189.825 58.523 189.749 58.6289C189.672 58.7345 189.593 58.8382 189.512 58.9398C189.43 59.0416 189.346 59.1413 189.259 59.2387C189.172 59.3363 189.083 59.4316 188.991 59.5246C188.9 59.6175 188.806 59.7081 188.71 59.7965C188.613 59.8848 188.515 59.9705 188.415 60.0538C188.314 60.1371 188.212 60.2177 188.107 60.2958C188.003 60.3741 187.896 60.4496 187.788 60.5223C187.679 60.5951 187.569 60.665 187.457 60.7322C187.346 60.7996 187.232 60.864 187.117 60.9255C187.002 60.9869 186.885 61.0455 186.767 61.1012C186.649 61.1569 186.53 61.2095 186.409 61.2591C186.288 61.3086 186.166 61.3552 186.043 61.3986C184.142 62.0664 180.39 61.0302 179.313 63.1617C178.48 64.8132 178.216 67.0084 176.267 67.7762C175.626 68.0288 174.984 67.9407 174.369 67.6576C173.473 67.2447 172.637 66.5135 172.305 65.566C171.788 64.0891 172.22 62.133 172.927 60.7736C174.066 58.5826 176.069 57.1362 178.401 56.4273C179.995 55.9427 182.574 55.9444 183.484 54.3311C183.995 53.4256 183.812 52.313 183.509 51.3702C183.128 50.1856 182.125 49.1049 181.008 48.5637C180.393 48.2657 179.77 48.1313 179.119 48.4075C176.786 49.3977 177.855 55.9197 172.456 54.3977C171.414 54.1043 170.338 53.303 169.866 52.3119C169.689 51.9392 169.557 51.5318 169.444 51.1356Z" fill="#2962FF"/>
<path d="M238.407 162.699C238.366 162.713 238.325 162.727 238.283 162.741C236.719 163.237 234.421 162.934 233.011 162.142C231.902 161.519 231.161 160.481 230.851 159.256C230.278 156.997 230.986 154.622 232.176 152.686C234.1 149.553 237.641 147.553 241.151 146.739C247.838 145.187 255.621 147.892 261.277 151.457C264.4 153.426 267.251 156.498 268.042 160.207C268.504 162.376 268.234 164.637 266.995 166.513C264.367 170.495 258.737 173.002 254.416 174.668C252.556 175.385 250.495 176.001 248.824 177.104C246.353 178.735 245.383 182.241 242.199 182.835C241.525 182.961 240.902 182.847 240.332 182.457C239.524 181.903 239.134 181.173 238.77 180.295C238.778 180.223 238.783 180.151 238.795 180.079C239.192 177.754 241.555 175.392 243.371 174.067C245.838 171.921 249.013 170.495 251.174 168.016C252.28 166.748 253.147 165.061 252.998 163.338C252.882 161.983 252.169 160.824 251.106 159.994C247.971 157.548 244.47 159.566 241.377 160.82C240.871 161.025 240.241 161.368 239.698 161.405C239.646 161.408 239.594 161.401 239.542 161.4C238.964 161.668 238.687 162.153 238.407 162.699Z" fill="#F36337"/>
<path d="M239.542 161.4C241.257 158.153 243.571 155.873 247.145 154.775C249.883 153.933 252.987 153.835 255.573 155.204C257.054 155.988 258.152 157.169 258.637 158.789C259.352 161.178 258.918 163.781 257.711 165.928C255.283 170.246 251.273 171.207 246.932 172.749C245.919 173.11 244.665 173.881 243.647 174.052C243.556 174.067 243.463 174.062 243.371 174.067C245.838 171.921 249.013 170.495 251.175 168.016C252.28 166.748 253.147 165.061 252.999 163.338C252.882 161.983 252.169 160.824 251.106 159.994C247.972 157.548 244.47 159.566 241.378 160.82C240.872 161.025 240.241 161.368 239.698 161.405C239.646 161.408 239.594 161.401 239.542 161.4Z" fill="#FFFFFA"/>
<path d="M212.833 80.1675C217.919 80.0782 222.714 80.7991 227.468 82.6665C231.951 84.4282 236.563 88.0328 238.51 92.5419C238.602 92.7557 238.689 92.9715 238.77 93.1893C238.852 93.4073 238.927 93.6273 238.998 93.8491C239.068 94.0708 239.133 94.2941 239.192 94.5192C239.252 94.7441 239.305 94.9704 239.353 95.1979C239.401 95.4257 239.444 95.6544 239.481 95.8841C239.517 96.1138 239.548 96.3443 239.574 96.5755C239.599 96.8069 239.619 97.0387 239.633 97.2709C239.647 97.5031 239.655 97.7355 239.657 97.9683C239.659 98.2008 239.656 98.4334 239.647 98.6659C239.638 98.8983 239.623 99.1304 239.602 99.3622C239.581 99.594 239.555 99.825 239.523 100.055C239.491 100.286 239.453 100.515 239.409 100.744C239.366 100.972 239.317 101.2 239.262 101.426C239.207 101.652 239.147 101.877 239.081 102.1C239.015 102.323 238.944 102.544 238.867 102.764C238.79 102.983 238.708 103.201 238.62 103.416C235.222 111.819 225.75 114.493 218.189 117.735C211.366 120.661 209.545 122.301 206.821 129.128C205.067 129.714 199.459 126.947 197.567 126.102C197.546 123.677 198.288 121.471 199.188 119.25C202.725 112.12 209.637 108.383 216.541 105.095C219.187 103.835 222.193 102.486 224.104 100.185C225.158 98.9169 225.812 97.3909 225.62 95.7173C225.43 94.0779 224.611 92.6768 223.299 91.6915C219.172 88.5907 213.903 89.7678 209.843 92.3579C207.046 94.142 204.801 96.7119 201.343 97.1758C199.562 97.4144 197.689 97.1342 196.265 95.972C196.191 95.9111 196.119 95.8484 196.048 95.7839C195.977 95.7196 195.909 95.6535 195.841 95.5855C195.774 95.5176 195.709 95.448 195.645 95.3768C195.581 95.3056 195.519 95.2328 195.459 95.1583C195.399 95.0841 195.341 95.0083 195.285 94.9309C195.228 94.8538 195.174 94.7752 195.122 94.6952C195.069 94.6152 195.019 94.534 194.971 94.4515C194.923 94.369 194.877 94.2853 194.833 94.2005C194.789 94.1155 194.747 94.0296 194.707 93.9427C194.667 93.8558 194.63 93.768 194.594 93.6791C194.559 93.5903 194.526 93.5006 194.495 93.4101C194.465 93.3196 194.436 93.2284 194.41 93.1365C194.384 93.0446 194.36 92.9521 194.338 92.8589C194.317 92.7658 194.298 92.6722 194.281 92.5781C194.264 92.4841 194.25 92.3896 194.238 92.2947C194.226 92.2 194.216 92.1049 194.209 92.0096C194.039 89.8006 195.074 87.7021 196.527 86.1035C200.589 81.6355 207.082 80.4012 212.833 80.1675Z" fill="#2962FF"/>
<path d="M210.805 81.7406C214.735 81.194 220.475 81.9683 224.245 83.0995C229.218 84.5913 234.232 87.4949 236.743 92.1997C236.841 92.3871 236.935 92.5767 237.023 92.7685C237.112 92.9603 237.196 93.1542 237.276 93.3502C237.355 93.546 237.43 93.7436 237.499 93.9431C237.569 94.1427 237.634 94.3438 237.694 94.5463C237.754 94.749 237.81 94.953 237.86 95.1584C237.91 95.3636 237.955 95.57 237.995 95.7777C238.035 95.9852 238.071 96.1935 238.101 96.4027C238.131 96.6119 238.156 96.8217 238.176 97.0321C238.196 97.2424 238.211 97.4532 238.221 97.6643C238.23 97.8754 238.235 98.0867 238.235 98.2982C238.234 98.5095 238.228 98.7208 238.218 98.9319C238.207 99.143 238.192 99.3537 238.171 99.5641C238.15 99.7745 238.124 99.9841 238.093 100.193C238.062 100.402 238.026 100.61 237.985 100.818C237.943 101.025 237.897 101.231 237.846 101.436C237.795 101.642 237.739 101.845 237.678 102.048C234.669 111.751 222.009 114.043 214.15 118.174C210.02 120.344 207.276 123.307 205.887 127.77C203.391 127.125 201.141 126.234 198.792 125.197C198.917 123.002 199.405 121.144 200.265 119.123C201.178 116.961 202.781 115.127 204.495 113.556C206.421 111.791 208.586 110.181 210.867 108.903C215.028 106.571 222.389 104.062 225.119 100.246C226.19 98.7478 226.721 96.9066 226.371 95.0751C226.019 93.2368 224.745 91.6623 223.205 90.6502C218.805 87.7582 213.311 89.0476 209.123 91.6235C206.777 93.0671 204.227 95.3439 201.478 95.8394C200.137 96.0809 198.648 95.9769 197.515 95.1555C196.5 94.4197 195.901 93.2144 195.745 91.9876C195.528 90.2833 196.171 88.7228 197.241 87.4231C200.484 83.4837 205.976 82.2279 210.805 81.7406Z" fill="#FFFFFA"/>
<path d="M119.742 111.304C117.101 108.493 116 102.386 116.112 98.6324C116.272 93.2146 118.459 88.2766 122.435 84.5792C128.094 79.3154 136.256 77.6588 143.792 77.9774C147.575 78.1374 151.164 78.8098 154.128 81.293C154.355 81.2802 154.581 81.2729 154.808 81.2712C155.034 81.2692 155.261 81.273 155.487 81.2824C155.714 81.2915 155.94 81.3063 156.165 81.3266C156.391 81.3467 156.616 81.3723 156.841 81.4035C157.065 81.4347 157.289 81.4714 157.511 81.5135C157.734 81.5556 157.956 81.6031 158.176 81.6559C158.397 81.7087 158.615 81.7669 158.833 81.8305C159.051 81.894 159.266 81.9628 159.481 82.0369C159.695 82.1108 159.907 82.1899 160.117 82.2743C160.328 82.3587 160.536 82.4481 160.742 82.5425C160.948 82.637 161.151 82.7365 161.353 82.8408C161.554 82.9453 161.752 83.0546 161.948 83.1687C162.144 83.2827 162.337 83.4015 162.527 83.525C162.717 83.6484 162.904 83.7764 163.088 83.9088C163.271 84.0415 163.452 84.1784 163.629 84.3197C163.806 84.4609 163.98 84.6065 164.15 84.7564C168.06 88.2588 169.826 94.1807 170.079 99.2689C170.275 103.215 169.561 106.736 168.478 110.506C169.515 110.067 170.355 109.781 171.483 110.205C172.333 110.524 172.9 111.24 173.248 112.056C174.271 114.454 173.848 117.172 172.849 119.497C171.724 122.115 169.513 124.682 166.805 125.725C166.601 125.803 166.395 125.877 166.188 125.948C164.964 131.432 164.029 133.994 161.466 138.947C161.681 141.833 161.723 149.544 163.873 151.409C165.753 153.039 174.449 156.491 177.127 157.471C181.762 159.167 186.658 160.567 191.111 162.689C194.052 164.09 197.172 165.871 199.38 168.313C206.252 175.914 206.042 191.641 208.059 201.424C208.565 203.88 209.126 206.442 209.938 208.814C212.107 215.15 215.504 222.211 216.194 228.853C216.74 234.105 215.088 238.926 211.747 242.983C208.242 247.24 202.596 250.265 197.102 250.738C194.274 250.981 191.259 250.845 188.479 250.297C186.023 252.583 183.552 254.68 180.735 256.508C169.777 263.62 154.59 267.59 141.566 267.103C132.371 266.759 122.537 263.925 114.7 259.084C113.055 258.068 111.343 256.979 110.033 255.542C109.954 255.456 109.878 255.367 109.803 255.278C105.395 257.296 101.411 257.603 96.6657 256.649C91.8799 255.371 87.4857 251.459 84.9669 247.284C82.8968 243.853 81.6183 239.538 81.2278 235.563C80.3576 226.705 82.2583 217.407 83.9913 208.765C85.4337 201.506 87.0648 194.29 88.8845 187.116C89.809 183.368 90.8259 179.196 92.6803 175.798C93.0423 175.148 93.4342 174.517 93.8561 173.905C94.2779 173.292 94.7278 172.701 95.2058 172.132C95.6839 171.562 96.1879 171.016 96.7177 170.494C97.2475 169.973 97.8008 169.477 98.3777 169.008C101.287 166.637 104.599 164.951 107.91 163.233C112.878 160.656 118.02 158.291 122.81 155.399C123.928 154.623 128.172 151.44 129.296 151.597L129.285 151.76C129.26 152.207 129.266 152.549 129.376 152.982L129.55 153.162C129.8 152.554 129.801 152.059 130.168 151.478C131.547 149.295 130.448 141.74 129.82 139.079C129.439 137.469 128.356 136.363 127.507 134.996C126.017 132.594 124.997 129.632 124.661 126.827C122.479 126.862 120.582 125.932 119.032 124.444C117.002 122.495 115.704 119.773 115.672 116.941C115.655 115.36 116.04 113.739 117.17 112.576C117.953 111.77 118.667 111.515 119.742 111.304Z" fill="#212121"/>
<path d="M169.857 111.649C170.518 111.702 171.068 111.975 171.537 112.443C172.096 113 172.263 113.765 172.253 114.53C172.209 117.969 170.387 120.772 167.974 123.058C167.464 123.484 166.918 123.813 166.35 124.153C166.826 120.8 166.731 117.356 167.295 114.023C168.078 113.08 168.786 112.281 169.857 111.649Z" fill="#FFFFFA"/>
<path d="M119.91 112.69C121.435 113.016 122.256 113.903 123.263 115.009C123.549 118.45 124 121.891 124.383 125.323C123.667 125.127 122.976 124.874 122.279 124.621C120.49 123.68 119.042 122.084 118.167 120.266C117.393 118.66 117.048 116.531 117.705 114.828C118.123 113.744 118.862 113.121 119.91 112.69Z" fill="#FFFFFA"/>
<path d="M169.22 208.669C171.431 210.181 173.524 211.899 175.727 213.436C175.584 214.142 175.374 214.828 175.098 215.493C173.045 220.353 167.773 224.565 162.999 226.539C161.971 226.908 160.953 227.104 159.877 227.278C158.534 225.984 157.393 224.61 156.851 222.798C158.389 222.193 159.826 221.551 161.186 220.6C165.087 217.873 168.388 213.421 169.22 208.669Z" fill="#FBF6DF"/>
<path d="M163.971 191.707C164.003 191.725 164.038 191.742 164.069 191.764C164.487 192.055 164.858 192.631 165.161 193.05C167.517 196.322 166.28 199.992 166.382 203.689C166.438 205.748 166.857 207.751 167.34 209.746C167.128 210.309 166.9 210.865 166.657 211.415C164.869 215.474 161.368 219.391 157.178 221.03L158.338 218.961C158.113 218.591 157.914 218.198 157.706 217.817C155.844 215.806 152.812 216.617 149.865 214.597C151.547 214.169 157.769 212.997 158.91 212.141C163.226 208.903 163.089 196.687 163.971 191.707Z" fill="#FFFFFA"/>
<path d="M131.811 140.788C133.061 141.761 134.382 143.383 135.77 144.493C139.205 147.238 143.552 148.935 147.994 148.424C152.63 147.891 156.782 144.714 159.594 141.152C159.801 144.176 159.816 147.676 160.947 150.51C161.863 152.805 163.36 153.817 165.531 154.752C165.004 155.812 164.348 156.787 163.679 157.76C162.866 158.911 161.823 159.989 160.711 160.853C156.662 163.999 150.592 165.196 145.575 164.552C139.264 163.741 133.985 159.852 130.195 154.922C130.382 154.678 130.545 154.419 130.706 154.158C133.308 149.947 132.918 145.405 131.811 140.788Z" fill="#FFFFFA"/>
<path d="M131.949 198.058C130.708 198.705 129.459 199.352 128.156 199.868C126.843 200.389 125.328 200.705 124.13 201.461L124.216 201.716L124.017 201.619L124.165 201.448L124.348 201.732C126.369 201.838 128.433 201.042 130.295 200.355C132.667 199.481 135.138 198.667 137.399 197.536C141.685 195.391 145.549 192.626 150.304 191.515C151.212 191.303 152.635 190.789 153.462 191.303C153.544 191.479 153.628 191.555 153.575 191.756C152.963 194.101 143.332 200.261 140.939 201.474C139.124 202.395 135.786 203.519 134.376 204.43C134.059 204.635 133.847 204.755 133.752 205.135C133.784 205.156 133.813 205.181 133.848 205.198C136.218 206.317 153.288 197.243 156.675 196.229C157.172 196.081 157.854 195.849 158.34 196.113C158.469 196.336 158.583 196.431 158.557 196.701C158.215 200.193 143.982 206.33 140.737 207.761C139.686 208.225 137.921 208.494 137.117 209.274C136.945 209.441 137.018 209.579 137.028 209.8L137.333 209.993C139.434 210.075 153.012 203.711 154.784 202.158C155.187 202.426 155.364 202.484 155.564 202.935C155.477 204.109 154.512 204.912 153.674 205.636C152.748 206.437 151.789 207.235 150.762 207.904C149.559 208.687 140.918 213.324 140.735 213.956C141.041 214.186 141.09 214.322 141.473 214.26C143.415 213.945 148.232 211.015 150.137 209.905C150.371 210.268 150.448 210.354 150.469 210.778C149.844 211.871 146.882 213.293 145.679 213.948C140.059 217.007 135.273 219.587 128.667 219.51C126.882 219.49 125.037 219.363 123.319 218.847C120.661 218.048 117.928 215.997 116.666 213.49C116.229 212.622 116.013 211.624 116.351 210.684C116.807 209.411 117.612 208.205 118.363 207.09C119.525 205.362 120.76 203.679 122.2 202.171C124.721 199.532 129.229 196.152 132.535 194.58C132.267 195.715 132.133 196.906 131.949 198.058Z" fill="#FFFFFA"/>
<path d="M133.491 198.056C134.194 194.32 135.004 190.598 135.604 186.844C136.193 183.167 136.646 177.542 137.889 174.166C138.113 173.557 138.478 173.14 139.007 172.77C139.692 172.291 140.528 172.035 141.348 171.914C143.325 171.62 145.413 171.705 147.415 171.587C150.699 171.392 160.008 170.355 162.78 171.004C163.586 171.193 164.377 171.779 164.789 172.497C165.339 173.459 165.351 174.566 165.251 175.638C164.846 179.981 163.488 184.324 162.812 188.654C162.255 192.22 161.875 195.829 161.447 199.413C161.157 201.835 160.97 204.411 160.238 206.747C159.77 208.239 158.906 209.705 157.999 210.968C155.093 211.637 152.086 213.001 149.142 213.24C150.108 212.695 151.498 212.167 151.92 211.086C151.919 210.72 151.891 210.422 151.621 210.153C151.334 209.865 150.988 209.616 150.664 209.372C152.473 208.411 154.92 206.696 156.125 205.005C156.619 204.312 157.033 203.446 156.834 202.574C156.685 201.925 156.246 201.652 155.728 201.301C156.888 200.388 158.148 199.362 158.921 198.084C159.296 197.463 159.789 196.378 159.506 195.637C159.377 195.299 159.143 195.165 158.819 195.048C157.8 194.68 155.966 195.317 154.988 195.723C152.004 196.477 149.144 198.344 146.224 199.392C148.461 197.791 154.161 194.495 154.654 191.736C154.737 191.274 154.738 190.712 154.458 190.311C154.152 189.874 153.595 189.746 153.094 189.718C147.001 189.37 139.228 195.854 133.491 198.056Z" fill="#2962FF"/>
<path d="M142.255 173.596C142.892 173.628 143.526 173.736 144.113 173.997C144.817 174.31 145.399 174.863 145.644 175.604C145.889 176.347 145.758 177.159 145.391 177.838C144.79 178.947 143.899 179.42 142.743 179.794C141.843 179.794 141.029 179.782 140.232 179.312C139.556 178.915 139.041 178.291 138.874 177.515C138.853 177.413 138.837 177.311 138.827 177.207C138.817 177.104 138.812 177 138.812 176.896C138.812 176.791 138.818 176.688 138.829 176.584C138.841 176.481 138.857 176.378 138.879 176.277C138.901 176.175 138.928 176.074 138.96 175.976C138.992 175.877 139.03 175.78 139.072 175.685C139.114 175.59 139.162 175.497 139.214 175.407C139.266 175.317 139.322 175.23 139.383 175.145C140.102 174.136 141.073 173.77 142.255 173.596Z" fill="#212121"/>
<path d="M141.927 175.161C142.58 175.21 143.232 175.264 143.751 175.707C144.108 176.012 144.164 176.289 144.203 176.74C143.939 177.433 143.509 177.703 142.865 178.013C142.636 178.022 142.407 178.027 142.178 178.03C141.616 178.035 141.114 177.978 140.722 177.523C140.491 177.254 140.353 176.945 140.42 176.584C140.551 175.88 141.354 175.448 141.927 175.161Z" fill="#2962FF"/>
<path d="M138.2 80.0167C138.645 79.9702 139.09 79.9355 139.536 79.9125C139.983 79.8895 140.429 79.8784 140.876 79.8792C141.323 79.88 141.769 79.8925 142.215 79.9168C142.662 79.9411 143.107 79.9773 143.551 80.0253C143.995 80.0734 144.438 80.1331 144.879 80.2045C145.32 80.2761 145.759 80.3592 146.196 80.454C146.633 80.5487 147.067 80.655 147.498 80.7727C147.929 80.8904 148.356 81.0195 148.78 81.16C150.224 81.6271 151.649 82.2283 153.112 82.6234C154.94 83.1172 156.836 83.2163 158.659 83.7922C162.101 84.8792 164.593 87.3449 166.207 90.5304C169.304 96.6452 169.119 103.478 166.999 109.829C166.925 106.3 166.437 102.474 164.687 99.3498C163.724 97.6309 162.065 95.8921 160.107 95.4006C159.623 95.2792 159.258 95.2505 158.827 95.5149C159.06 96.272 161.449 97.661 162.2 98.4804C162.996 99.3484 163.575 100.321 164.061 101.388C162.88 99.8792 161.656 98.4916 160.164 97.2795C158.501 95.9286 156.381 94.7563 155.091 93.0271C154.999 91.9493 155.02 90.6426 154.45 89.6949C154.255 89.3702 154.122 89.2628 153.763 89.1672L153.474 89.369C152.804 90.6805 153.242 92.0796 153.536 93.4348C150.302 96.8723 147.394 98.3837 142.944 99.8356C139.801 100.825 136.175 102.173 132.869 102.236C137.932 100.91 146.014 98.5617 149.184 94.2263C149.441 93.8746 149.596 93.5849 149.528 93.1502C149.435 93.0788 149.379 93.0242 149.256 92.9906C148.733 92.8473 148.032 93.1221 147.573 93.3512C146.677 93.7983 145.928 94.514 145.071 95.0345C143.004 96.2909 140.698 97.4193 138.468 98.3581C136.114 99.3498 133.752 100.207 131.321 100.99C130.4 101.287 124.638 102.709 124.249 103.103C123.096 104.267 123.042 110.3 123.026 112.145C120.748 108.62 118.732 104.53 118.256 100.311C117.775 96.0489 118.882 91.6369 121.59 88.2703C125.728 83.1253 131.807 80.7483 138.2 80.0167Z" fill="#FFFFFA"/>
<path d="M154.465 95.3274C154.543 95.3728 154.621 95.4173 154.698 95.4638C155.822 96.1373 156.922 97.0785 157.912 97.9369C161.2 100.788 163.797 103.926 164.825 108.24C165.926 112.867 165.352 117.813 164.849 122.482C164.637 124.442 164.503 126.357 164.018 128.277C163.212 131.471 161.9 134.698 160.149 137.492C157.729 141.354 154.035 145.133 149.441 146.171C145.339 147.098 141.498 145.779 138.031 143.606C133.789 140.666 129.908 136.612 127.634 131.936C127.047 130.729 126.66 129.379 126.387 128.068C125.876 125.617 125.683 123.043 125.391 120.554C125.036 117.52 124.584 114.451 124.48 111.399C124.415 109.527 124.366 107.066 124.981 105.292L125.109 105.326L125.186 105.596C125.652 105.548 126.133 105.015 126.505 104.718C128.663 104.381 130.838 104.13 133.002 103.83C139.464 102.931 150.408 100.698 154.465 95.3274Z" fill="#FFFFFA"/>
<path d="M148.333 135.987C148.715 135.967 149.098 135.954 149.48 135.949C150.672 135.935 151.963 136.373 152.822 137.208C152.878 137.383 152.975 137.504 152.881 137.679C152.715 137.984 152.322 138.184 151.985 138.23C151.327 138.321 150.572 138.218 149.904 138.206C148.497 138.183 147.273 138.304 145.902 138.62C145.022 138.885 144.029 139.61 143.11 139.572C142.658 139.552 142.452 139.342 142.172 139.017C142.088 138.66 142.052 138.589 142.276 138.264C143.022 137.183 147.009 136.204 148.333 135.987Z" fill="#212121"/>
<path d="M135.124 115.151C135.484 115.119 135.874 115.11 136.231 115.177C137.042 115.329 137.796 115.875 138.209 116.584C138.632 117.309 138.71 118.216 138.453 119.011C138.131 120.007 137.442 120.555 136.547 121.024C136.128 121.04 135.669 121.07 135.26 120.971C134.533 120.796 133.856 120.249 133.484 119.609C133.43 119.515 133.381 119.419 133.337 119.32C133.293 119.222 133.254 119.121 133.22 119.018C133.187 118.916 133.158 118.812 133.135 118.706C133.112 118.601 133.095 118.494 133.082 118.387C133.07 118.279 133.064 118.172 133.063 118.064C133.062 117.956 133.066 117.848 133.076 117.74C133.086 117.633 133.101 117.526 133.122 117.42C133.143 117.314 133.169 117.209 133.201 117.106C133.525 116.044 134.179 115.635 135.124 115.151Z" fill="#212121"/>
<path d="M147.658 131.681C148.477 131.64 149.159 131.67 149.932 131.968C150.973 132.369 153.223 133.784 153.554 134.899C153.657 135.248 153.537 135.373 153.365 135.654C152.506 135.978 149.886 134.271 148.836 134.022C148.21 133.873 147.573 133.934 146.939 133.98C144.977 134.522 144.005 135.622 142.305 136.303C141.953 136.445 141.754 136.421 141.43 136.2C141.119 135.987 141.09 135.788 141.008 135.452C141.067 135.231 141.122 135.035 141.259 134.849C142.494 133.171 145.655 131.951 147.658 131.681Z" fill="#212121"/>
<path d="M155.995 113.574C156.434 113.598 156.847 113.678 157.257 113.846C157.356 113.886 157.452 113.931 157.546 113.981C157.64 114.031 157.731 114.086 157.82 114.146C157.908 114.206 157.993 114.27 158.074 114.339C158.156 114.407 158.233 114.48 158.307 114.557C158.381 114.634 158.45 114.715 158.515 114.799C158.581 114.883 158.641 114.971 158.697 115.061C158.753 115.152 158.804 115.245 158.851 115.341C158.897 115.438 158.938 115.536 158.973 115.636C159.01 115.742 159.042 115.849 159.068 115.958C159.095 116.067 159.116 116.176 159.132 116.287C159.147 116.398 159.157 116.509 159.162 116.621C159.167 116.733 159.166 116.845 159.159 116.956C159.153 117.068 159.141 117.179 159.124 117.29C159.107 117.4 159.084 117.51 159.056 117.618C159.028 117.727 158.995 117.833 158.956 117.938C158.918 118.043 158.874 118.146 158.825 118.247C158.32 119.302 157.586 119.699 156.531 120.098C155.978 120.084 155.526 120.027 155.034 119.757C154.238 119.32 153.704 118.556 153.478 117.686C153.234 116.741 153.349 115.705 153.872 114.873C154.379 114.065 155.098 113.772 155.995 113.574Z" fill="#212121"/>
<path d="M154.494 106.864C156.222 106.858 157.897 107.031 159.389 107.99C160.209 108.517 161.57 109.717 161.647 110.771C161.673 111.116 161.521 111.21 161.3 111.427C160.194 111.708 159.366 111.178 158.377 110.732C155.991 109.634 153.052 110.067 151.056 109.219C150.647 109.045 150.487 108.836 150.324 108.435C150.365 108.138 150.405 108.005 150.598 107.763C151.374 106.792 153.348 106.932 154.494 106.864Z" fill="#212121"/>
<path d="M136.438 107.549C136.493 107.545 136.548 107.539 136.603 107.536C137.742 107.477 139.283 107.478 140.142 108.339C140.458 108.656 140.524 108.92 140.504 109.353C139.652 110.795 136.946 110.776 135.5 111.403C134.415 111.874 133.407 112.562 132.405 113.189C131.548 113.717 130.777 114.163 129.744 113.934C129.463 113.7 129.313 113.608 129.259 113.216C129.171 112.57 129.597 111.811 129.948 111.304C131.388 109.229 134.019 108.002 136.438 107.549Z" fill="#212121"/>
<path d="M144.477 111.183C144.61 111.192 144.881 111.206 145.005 111.234C146.649 111.617 145.789 117.928 145.574 119.168C145.332 120.566 144.741 122.053 144.717 123.469C144.707 124.127 144.855 124.798 145.219 125.353C145.721 126.12 146.52 126.567 147.411 126.728C148.351 126.898 149.454 126.778 150.246 126.207C150.763 125.834 151.084 125.286 151.142 124.649C151.27 123.26 150.44 122.375 149.651 121.374C149.188 120.787 148.674 120.171 148.765 119.394C149.059 119.176 149.152 119.187 149.522 119.151C149.954 119.31 150.146 119.516 150.449 119.859L150.559 119.986C151.715 121.368 152.74 122.765 152.647 124.673C152.603 125.585 152.26 126.45 151.565 127.06C150.481 128.012 148.807 128.195 147.413 128.105C146.182 128.025 144.946 127.713 144.13 126.719C141.999 124.125 144.175 119.344 144.46 116.326C144.622 114.603 144.352 112.898 144.477 111.183Z" fill="#212121"/>
<path d="M128.796 220.689C133.335 220.673 137.649 219.641 141.776 217.781C144.043 216.76 146.303 215.613 148.687 214.886C150.639 218.57 152.732 216.972 155.645 218.135C156.277 218.387 156.649 218.947 156.863 219.575C157.406 221.166 155.51 221.25 154.972 222.334C154.848 223.335 156.238 225.213 156.834 226.039C157.598 227.095 158.486 228.061 159.27 229.105C165.59 237.523 171.676 244.827 181.967 248.535C184.056 249.288 186.284 249.959 188.479 250.297C186.023 252.583 183.553 254.68 180.735 256.508C169.777 263.62 154.59 267.59 141.566 267.103C132.372 266.759 122.537 263.925 114.7 259.084C113.055 258.068 111.343 256.979 110.033 255.542C109.954 255.456 109.878 255.367 109.803 255.278L109.98 255.18C111.101 254.556 112.031 253.847 112.902 252.904C116.9 248.578 121.035 239.289 123.246 233.785C124.055 231.771 124.692 229.661 125.558 227.675C126.027 226.599 126.753 225.649 127.33 224.63C128.022 223.412 128.414 222.029 128.796 220.689Z" fill="#FBF6DF"/>
<path d="M123.044 157.162C123.393 157.232 124.651 160.088 124.927 160.569C127.978 165.885 131.889 169.25 137.298 171.995C134.902 174.977 133.355 188.766 132.733 193.113C125.887 196.411 117.545 203.094 114.521 210.184C115.129 212.281 115.42 214.054 116.833 215.794C119.383 218.935 122.703 220.842 126.705 221.235C126.56 222.917 126.366 223.81 125.159 225.062C121.572 224.964 118.328 223.303 115.553 221.096C112.934 219.014 111.271 216.512 110.887 213.157C111.981 212.045 113.335 211.272 114.348 210.067C112.694 210.575 111.094 211.516 109.679 212.5C108.266 213.483 93.8321 225.499 93.4017 226.186C93.4987 226.535 93.5306 226.507 93.8476 226.695C93.9837 226.688 94.1272 226.718 94.2561 226.673C95.0873 226.382 96.2742 225.155 96.9802 224.58C99.2693 222.731 101.532 220.851 103.769 218.94C105.766 217.241 107.725 215.461 109.916 214.013C110.435 216.738 111.357 218.484 113.191 220.556C116.208 223.677 120.381 226.105 124.774 226.25C123.615 228.635 122.723 231.156 121.674 233.593C119.484 238.681 114.181 250.712 109.43 253.698C106.331 255.645 102.135 255.859 98.6501 255.031C94.1984 253.974 89.6001 250.663 87.2389 246.737C85.2653 243.456 83.8412 239.33 83.3882 235.527C81.9317 223.302 87.3124 201.718 90.4008 189.414C91.6698 184.359 93.2248 178.459 96.1734 174.12C100.463 167.807 116.261 161.23 123.044 157.162Z" fill="#FBF6DF"/>
<path d="M124.228 156.414C125.571 155.517 126.933 154.642 128.196 153.632C130.659 158.114 134.222 161.664 138.819 163.977C139.139 164.135 139.463 164.284 139.79 164.426C140.118 164.568 140.448 164.701 140.782 164.826C141.116 164.952 141.453 165.069 141.792 165.178C142.132 165.287 142.474 165.388 142.818 165.48C143.163 165.573 143.509 165.657 143.858 165.732C144.207 165.808 144.557 165.875 144.909 165.933C145.26 165.991 145.613 166.041 145.968 166.082C146.322 166.123 146.677 166.156 147.033 166.18C147.389 166.204 147.745 166.219 148.101 166.225C148.458 166.232 148.815 166.23 149.171 166.219C149.528 166.208 149.884 166.188 150.239 166.16C150.595 166.132 150.949 166.095 151.303 166.049C151.657 166.003 152.009 165.949 152.36 165.886C152.711 165.824 153.061 165.753 153.408 165.673C153.756 165.593 154.101 165.505 154.445 165.408C154.788 165.311 155.129 165.206 155.467 165.093C160.767 163.339 163.885 160.052 166.348 155.168L170.808 157.047C169.819 160.895 167.517 164.445 164.248 166.748C163.325 167.398 162.081 167.934 161.278 168.701C161.236 168.741 161.2 168.787 161.16 168.829C162.658 169.109 163.794 168.611 165.02 167.757C168.559 165.292 170.68 161.502 171.773 157.411C173.54 158.188 175.304 158.987 177.123 159.637C183.765 162.014 192.173 163.961 197.265 169.083C199.045 170.873 200.255 173.033 201.171 175.37C204.655 184.251 204.486 194.586 206.658 203.868C207.222 206.281 207.874 208.712 208.71 211.044C210.653 216.468 213.203 221.911 214.076 227.642C214.585 230.986 214.383 234.234 213.012 237.358C210.836 242.316 206.243 246.133 201.255 248.082C194.542 250.705 186.089 248.69 179.741 245.858C173.594 243.116 169.378 238.955 165.069 233.928C163.559 232.166 162.03 230.405 160.673 228.52C166.107 227.106 172.261 223.218 175.135 218.271C175.341 217.921 175.528 217.56 175.695 217.189C175.862 216.818 176.009 216.44 176.135 216.053C176.261 215.666 176.366 215.274 176.45 214.876C176.534 214.478 176.596 214.077 176.636 213.672C180.027 214.754 183.551 215.125 187.024 215.841C191.524 216.769 200.21 219.563 203.634 222.402C205.165 223.671 206.301 225.304 207.206 227.067C207.858 228.339 208.267 229.76 209.021 230.977L209.371 230.983C209.727 230.568 209.738 230.161 209.705 229.627C209.535 226.935 207.164 223.347 205.134 221.621C202.112 219.053 193.96 216.171 190.054 215.137C188.564 214.743 186.979 214.477 185.458 214.231C182.541 213.759 179.145 213.679 176.417 212.536C174.466 211.717 173.184 209.954 171.423 208.833C170.762 208.412 168.91 208.272 168.651 208.028C168.327 207.722 168.135 205.358 168.087 204.829C167.521 198.589 169.952 195.211 164.306 190.429C164.655 187.809 165.09 185.203 165.611 182.613C166.159 179.796 167.043 176.63 166.859 173.758C166.792 172.699 166.475 171.616 165.809 170.774C164.887 169.609 163.402 169.201 161.981 169.073C161.669 169.046 161.357 169.026 161.044 169.011C157.905 168.764 154.407 169.422 151.256 169.667C147.03 169.996 142.713 169.958 138.556 170.815C138.064 170.64 137.58 170.447 137.103 170.235C131.152 167.643 126.572 162.401 124.228 156.414Z" fill="#FBF6DF"/>
<path d="M40.9985 111.773C39.7906 109.659 37.6668 107.621 36.0237 105.832C30.8566 100.208 24.7858 93.9202 22.5225 86.4606C20.5049 79.8114 21.991 72.4706 25.2515 66.4806C26.2418 64.6612 27.46 62.9733 28.6795 61.3029C39.4251 46.5845 57.9629 36.5211 75.2064 31.5337C78.0476 30.7117 80.954 30.1079 83.8472 29.5004C98.7066 26.3802 112.573 26.491 127.225 30.683C136.057 33.2098 143.769 35.9023 153.102 35.9672C161.041 36.0223 170.847 33.9322 178.652 32.2736C197.882 28.1872 219.562 23.671 237.797 33.7163C255.854 43.6632 271.322 63.1459 277.023 82.9532C277.969 86.2409 278.485 89.5904 278.77 92.994C279.892 106.429 275.529 117.509 267.475 128.052C263.37 133.426 258.583 138.459 255.306 144.407C256.236 137.297 257.308 129.978 256.942 122.795C256.913 122.166 256.876 121.538 256.831 120.91C256.787 120.283 256.734 119.656 256.674 119.029C256.613 118.403 256.545 117.777 256.469 117.153C256.393 116.528 256.309 115.904 256.218 115.281C256.126 114.659 256.027 114.038 255.92 113.418C255.812 112.797 255.697 112.179 255.575 111.562C255.452 110.944 255.322 110.329 255.184 109.715C255.046 109.101 254.9 108.489 254.747 107.878C254.593 107.268 254.432 106.66 254.264 106.053C254.095 105.447 253.919 104.843 253.736 104.241C253.552 103.639 253.361 103.04 253.162 102.443C252.963 101.845 252.757 101.251 252.544 100.659C252.33 100.067 252.109 99.4777 251.881 98.8913C251.653 98.3048 251.417 97.7213 251.174 97.1408C250.931 96.5602 250.681 95.9828 250.424 95.4086C250.167 94.8342 249.902 94.2633 249.63 93.6957C249.359 93.128 249.08 92.5638 248.795 92.0029C248.509 91.4423 248.216 90.8853 247.917 90.332C247.617 89.7786 247.31 89.2291 246.997 88.6834C246.684 88.1377 246.364 87.5959 246.037 87.058C245.71 86.5204 245.376 85.9868 245.036 85.4574C244.696 84.9282 244.349 84.4031 243.995 83.8823C243.642 83.3617 243.282 82.8456 242.916 82.334C242.549 81.8221 242.177 81.3151 241.798 80.8128C241.419 80.3104 241.033 79.8128 240.642 79.3202C240.251 78.8275 239.853 78.3397 239.449 77.8568C239.046 77.374 238.636 76.8964 238.22 76.4238C237.805 75.9514 237.383 75.4842 236.956 75.0221C236.529 74.5601 236.096 74.1035 235.657 73.6523C235.218 73.2012 234.774 72.7556 234.324 72.3156C233.874 71.8755 233.419 71.4411 232.958 71.0124C232.498 70.5838 232.032 70.161 231.56 69.7439C221.35 60.5914 210.219 55.083 196.905 52.0029C195.019 51.5667 192.182 50.6319 190.302 50.731C188.849 47.7605 186.619 45.9515 183.491 44.8791C180.329 43.795 176.269 43.658 173.235 45.2291C171.462 46.1476 170.178 47.6405 169.621 49.5696C169.473 50.0838 169.439 50.6029 169.444 51.1355C168.759 51.2061 168.075 51.2852 167.392 51.3727C166.709 51.4603 166.028 51.5562 165.347 51.6603C164.667 51.7647 163.987 51.8772 163.309 51.998C162.632 52.1189 161.955 52.2481 161.281 52.3856C160.606 52.523 159.933 52.6688 159.262 52.8228C158.591 52.9767 157.922 53.139 157.255 53.3095C156.588 53.4798 155.923 53.6584 155.26 53.8452C154.598 54.0319 153.937 54.2267 153.279 54.4298C152.621 54.6327 151.966 54.8436 151.313 55.0626C150.661 55.2817 150.011 55.5087 149.364 55.7436C148.716 55.9787 148.072 56.2215 147.431 56.4723C146.79 56.723 146.152 56.9817 145.517 57.2483C144.882 57.5148 144.25 57.789 143.622 58.0709C142.994 58.3529 142.37 58.6425 141.749 58.9397C141.127 59.237 140.51 59.5418 139.897 59.8541C139.283 60.1667 138.674 60.4867 138.068 60.814C137.462 61.1413 136.861 61.476 136.263 61.8183C135.666 62.1605 135.073 62.5099 134.484 62.8665C133.895 63.2233 133.31 63.5871 132.73 63.9581C132.15 64.3292 131.575 64.7073 131.004 65.0925C130.434 65.4778 129.868 65.87 129.307 66.269C128.746 66.6681 128.19 67.074 127.638 67.4867C127.087 67.8993 126.541 68.3187 126.001 68.7448C125.46 69.171 124.924 69.6037 124.394 70.0428C123.864 70.4821 123.339 70.9279 122.82 71.3802C122.301 71.8323 121.787 72.2907 121.279 72.7554C120.771 73.2201 120.269 73.691 119.772 74.168C119.276 74.6452 118.785 75.1283 118.301 75.6173C117.816 76.1064 117.338 76.6013 116.865 77.1022C116.393 77.6032 115.927 78.1097 115.467 78.6219C115.007 79.1343 114.553 79.6522 114.106 80.1755C113.658 80.699 113.218 81.2278 112.783 81.762C110.857 84.0991 108.653 86.5352 107.139 89.1562L107.182 89.3925L107.348 89.4792C106.025 89.8057 104.957 90.3845 104.21 91.5763C103.543 92.6406 103.422 93.8571 103.755 95.0561C104.004 95.9504 104.483 96.5381 105.113 97.1965C104.372 106.749 104.871 116.604 108.163 125.692C109.892 130.465 112.216 135.038 114.438 139.596C116.152 143.111 117.709 146.787 119.583 150.212C120.564 152.006 121.723 153.673 122.81 155.399C118.02 158.29 112.879 160.656 107.91 163.233C104.599 164.951 101.287 166.637 98.3778 169.008C97.8009 169.477 97.2476 169.973 96.7178 170.494C96.188 171.016 95.684 171.562 95.2059 172.131C94.7279 172.701 94.278 173.292 93.8562 173.905C93.4343 174.517 93.0424 175.148 92.6804 175.798C90.826 179.196 89.8091 183.368 88.8846 187.116C87.0649 194.29 85.4338 201.506 83.9914 208.765C82.2584 217.407 80.3577 226.705 81.2279 235.563C81.6184 239.538 82.8969 243.852 84.967 247.283C87.4858 251.459 91.88 255.371 96.6658 256.649C96.4333 256.777 96.2033 256.906 95.9466 256.981C93.6184 257.668 88.7898 257.429 86.2653 257.352C72.1541 256.918 59.9718 255.094 47.3998 248.365C34.1139 241.254 20.403 229.166 15.9731 214.324C11.7101 200.04 16.7061 184.875 25.0107 173.072C28.7636 167.738 33.1698 162.965 37.2178 157.874C39.0589 155.512 40.8023 153.081 42.4478 150.579C44.0935 148.077 45.636 145.514 47.0754 142.888C47.7915 141.565 51.1102 135.156 51.041 134.299C51.0303 134.168 50.9663 134.048 50.9293 133.922C48.262 135.939 46.6358 137.529 43.0803 137.688C40.5641 137.801 38.0022 136.972 36.1696 135.208C34.2359 133.347 33.372 130.615 33.3433 127.981C33.2772 121.923 36.8621 115.95 40.9985 111.773Z" fill="#EEEEEE"/>
<path d="M71.9454 171.175C72.1316 171.158 72.3183 171.15 72.5055 171.15C72.6925 171.15 72.8791 171.159 73.0654 171.176C73.2516 171.193 73.4368 171.218 73.6209 171.252C73.8049 171.285 73.987 171.327 74.1673 171.378C74.3474 171.428 74.525 171.486 74.6999 171.552C74.8748 171.618 75.0464 171.692 75.2147 171.774C75.3829 171.856 75.5472 171.945 75.7074 172.041C75.8676 172.138 76.0231 172.242 76.1739 172.352C77.536 173.371 78.4168 174.949 78.6488 176.626C78.8762 178.271 78.4355 179.873 77.3844 181.163C75.8894 182.996 73.6637 183.778 71.3824 183.97C69.8492 184.159 68.0665 183.583 66.871 182.624C66.7969 182.566 66.7244 182.506 66.6534 182.444C66.5824 182.382 66.5131 182.318 66.4455 182.252C66.3777 182.187 66.3117 182.119 66.2474 182.05C66.1833 181.981 66.1209 181.911 66.0602 181.839C65.9995 181.767 65.9408 181.693 65.8839 181.618C65.8271 181.542 65.7722 181.466 65.7194 181.388C65.6666 181.31 65.6157 181.23 65.5667 181.15C65.5179 181.069 65.4712 180.987 65.4266 180.904C65.382 180.821 65.3396 180.737 65.2994 180.652C65.259 180.567 65.2209 180.48 65.1851 180.393C65.1491 180.306 65.1155 180.218 65.0843 180.129C65.0529 180.04 65.0238 179.951 64.997 179.86C64.9702 179.77 64.9458 179.679 64.9238 179.587C64.9018 179.495 64.8821 179.403 64.8647 179.311C64.8475 179.218 64.8325 179.125 64.8199 179.032C64.8073 178.938 64.7971 178.844 64.7895 178.751C64.6382 176.963 65.3611 175.028 66.5282 173.683C67.9416 172.056 69.85 171.335 71.9454 171.175Z" fill="#212121"/>
<path d="M72.2316 172.18C73.3754 172.147 74.5767 172.538 75.4929 173.22C76.6212 174.06 77.3039 175.363 77.4831 176.747C77.662 178.132 77.2839 179.441 76.3924 180.517C75.1239 182.048 73.2864 182.66 71.3697 182.8C70.0157 182.827 68.6947 182.562 67.575 181.761C66.6456 181.095 66.0369 180.128 65.8759 178.992C65.6625 177.489 66.1877 175.919 67.1288 174.749C68.4349 173.125 70.2172 172.411 72.2316 172.18Z" fill="#FBF6DF"/>
<path d="M65.8707 98.083C65.9111 98.0844 65.9516 98.087 65.9918 98.0875C67.3321 98.1085 68.8236 97.5699 70.142 97.3106C72.8724 96.7743 75.7757 96.8475 78.5127 97.2558C79.2531 97.3663 80.8612 97.6506 81.397 98.2067C81.5308 98.3459 81.5069 98.5495 81.529 98.7312L81.3616 99.0792C80.1722 99.1605 78.7837 98.3623 77.5282 98.2989C72.0286 98.0209 66.3194 98.7353 61.1437 100.728C59.6886 101.154 58.2904 101.788 56.8956 102.378C51.2396 104.774 46.4581 107.833 42.1316 112.248C38.0443 116.44 34.4353 121.91 34.4847 127.983C34.5037 130.312 35.2126 132.772 36.9186 134.432C38.543 136.013 40.7538 136.683 42.9806 136.592C45.5804 136.486 48.2933 135.213 50.0842 133.328C53.7739 129.774 54.5976 124.119 58.3929 120.553C60.4199 118.647 62.5385 118.1 65.2841 118.199C67.3458 118.817 69.2029 119.785 70.2365 121.784C71.4122 124.057 71.0085 126.827 70.2212 129.154C69.0803 132.525 66.9028 135.372 64.9628 138.312C61.142 144.103 55.1563 152.937 58.6203 160.055C60.2448 163.393 63.5233 166.001 66.4363 168.195C67.262 168.817 68.2109 169.358 68.9511 170.077C69.2709 170.387 69.6286 170.751 69.5715 171.211C69.0467 171.348 68.3249 170.896 67.8905 170.638C63.6192 168.101 57.9473 162.956 56.7615 158.06C55.3495 152.231 58.9462 145.811 61.8905 141.034C64.7036 136.469 71.0375 129.22 69.6039 123.573C69.2347 122.118 68.2362 120.825 66.9424 120.068C65.9648 119.495 64.7946 119.289 63.6723 119.385C62.1879 120.441 60.7736 121.536 59.4624 122.808C58.7216 123.526 57.9915 124.456 57.1951 125.093C56.9249 125.31 56.6924 125.378 56.3584 125.434C54.8635 128.308 53.2878 131.67 50.9292 133.922C48.262 135.939 46.6358 137.529 43.0802 137.689C40.564 137.801 38.0021 136.972 36.1695 135.208C34.2358 133.347 33.3719 130.616 33.3432 127.981C33.2771 121.924 36.862 115.95 40.9984 111.773C49.204 103.781 55.2597 101.43 65.8707 98.083Z" fill="#212121"/>
<path d="M56.3584 125.434C56.8143 124.496 57.305 123.656 57.9642 122.845C59.4219 121.05 61.3107 119.624 63.6722 119.385C62.1879 120.441 60.7736 121.536 59.4623 122.808C58.7216 123.526 57.9915 124.456 57.195 125.093C56.9249 125.31 56.6923 125.378 56.3584 125.434Z" fill="#F36337"/>
<path d="M42.1317 112.248C43.4932 113.684 45.7358 117.384 47.2096 118.135C45.9598 121.518 44.089 128.278 45.6847 131.749C46.0643 132.575 46.6807 133.192 47.5529 133.476C48.4421 133.765 49.2121 133.551 50.0844 133.328C48.2934 135.213 45.5805 136.486 42.9807 136.592C40.7539 136.683 38.5432 136.013 36.9187 134.432C35.2127 132.772 34.5038 130.312 34.4849 127.983C34.4355 121.91 38.0445 116.44 42.1317 112.248Z" fill="#FFFFFA"/>
<path d="M101.105 53.7392C104.193 53.2502 107.773 53.9557 110.408 55.6398C112.748 57.1345 114.469 59.4165 115.046 62.1492C116.138 67.3203 113.438 69.7226 110.479 73.4208C109.652 74.455 109.024 75.7556 108.123 76.7088C107.433 77.4383 106.402 77.8469 105.866 78.7272C104.855 80.3872 106.327 81.4748 106.675 83.0091C106.828 83.6824 106.668 84.2265 106.294 84.7909C105.771 85.5796 104.939 86.2282 103.991 86.403C103.32 86.5268 102.721 86.3789 102.166 85.9873C100.717 84.9638 99.9821 82.9356 99.7183 81.2359C98.5331 73.6011 102.631 73.5664 106.218 68.6255C107.046 67.0964 107.47 65.5244 107.092 63.7834C106.679 61.8888 105.523 60.0028 103.863 58.9717C102.582 58.1759 100.961 57.8796 99.49 58.2462C97.9615 58.6275 96.6568 59.7202 95.8659 61.0648C92.8882 66.1259 98.5638 68.4923 98.9979 70.6445C99.1507 71.4016 98.9216 72.1242 98.4886 72.7484C97.7404 73.8274 96.4294 74.6184 95.1317 74.7975C93.8567 74.9735 92.6304 74.5469 91.6178 73.7811C89.7642 72.38 88.6333 70.0243 88.3022 67.7607C87.8676 64.7906 88.5991 62.045 90.4116 59.6597C92.9147 56.3659 97.0559 54.2818 101.105 53.7392Z" fill="#2962FF"/>
<path d="M65.8704 98.0828C71.3777 95.9465 77.5985 94.8213 83.2075 97.2873C87.2621 99.0699 90.8848 102.541 92.4837 106.703C95.0691 113.435 92.662 121.741 89.8073 128.062C88.0924 131.859 85.8934 135.478 83.7168 139.026C81.7008 142.312 79.393 145.658 78.2514 149.369C77.3565 152.28 77.2018 155.202 76.7622 158.184C76.345 161.012 75.1616 164.026 72.244 165.079C70.705 165.634 68.9491 165.39 67.5121 164.655C65.5 163.624 64.0961 161.512 63.4512 159.386C61.5767 153.206 63.5428 145.412 66.5199 139.89C69.1633 134.987 76.0062 124.983 74.488 119.475C74.1946 118.411 73.5184 117.499 72.5311 116.988C71.1265 116.261 69.4395 116.483 67.995 116.974C67.1047 117.277 66.057 117.658 65.2838 118.199C62.5382 118.1 60.4196 118.647 58.3926 120.553C54.5974 124.119 53.7736 129.773 50.084 133.328C49.2117 133.551 48.4417 133.765 47.5525 133.476C46.6803 133.192 46.0639 132.575 45.6843 131.749C44.0886 128.278 45.9594 121.518 47.2092 118.135C45.7354 117.384 43.4928 113.684 42.1313 112.248C46.4578 107.833 51.2393 104.774 56.8954 102.378C58.2902 101.787 59.6884 101.154 61.1434 100.727C66.3192 98.7352 72.0283 98.0208 77.5279 98.2987C78.7834 98.3622 80.1719 99.1604 81.3614 99.0791L81.5288 98.7311C81.5067 98.5494 81.5305 98.3458 81.3967 98.2066C80.861 97.6505 79.2529 97.3662 78.5124 97.2557C75.7754 96.8474 72.8721 96.7742 70.1417 97.3105C68.8233 97.5698 67.3318 98.1084 65.9916 98.0874C65.9514 98.0869 65.9109 98.0843 65.8704 98.0828Z" fill="#F36337"/>
<path d="M61.1434 100.728C55.0093 105.52 50.239 110.877 47.2092 118.135C45.7354 117.384 43.4928 113.684 42.1313 112.248C46.4578 107.833 51.2393 104.774 56.8954 102.378C58.2902 101.788 59.6884 101.154 61.1434 100.728Z" fill="#FBF6DF"/>
</g>
<defs>
<clipPath id="clip0_653_3320">
<rect width="294" height="294" fill="white"/>
</clipPath>
</defs>
</svg>
