<svg width="314" height="314" viewBox="0 0 314 314" fill="none" xmlns="http://www.w3.org/2000/svg">
<path d="M96.1673 120.452C96.335 120.445 96.6548 120.405 96.8284 120.451C97.2371 120.56 97.2969 120.682 97.4892 121.021C97.4824 121.521 97.3089 121.8 97.0657 122.217C96.8615 122.213 96.5493 122.234 96.3604 122.164C95.9854 122.024 95.9318 121.867 95.7803 121.534C95.8149 121.047 95.8965 120.859 96.1673 120.452Z" fill="#212121"/>
<path d="M60.9815 103.137C61.2934 103.52 61.333 103.539 61.3575 104.026C61.0787 104.749 60.5455 105.257 60.0316 105.82C59.7271 105.611 59.5734 105.484 59.4023 105.154C59.5354 104.353 60.4173 103.692 60.9815 103.137Z" fill="#212121"/>
<path d="M146.553 83.7968C147.146 83.311 147.454 83.1151 148.261 83.2071C148.543 83.2393 148.796 83.2914 148.996 83.5134C149.16 83.6953 149.297 83.8977 149.246 84.1405C149.178 84.4683 149.041 84.7642 148.909 85.0699L146.548 83.8946L146.553 83.7968Z" fill="#212121"/>
<path d="M77.8615 87.2183C78.1148 87.3351 78.1884 87.4351 78.3662 87.6423L78.2865 87.9327C77.603 88.5822 76.6656 88.9836 75.8389 89.4273C75.5123 89.3019 75.4896 89.2709 75.2842 88.9848C75.5644 88.1845 77.1283 87.6019 77.8615 87.2183Z" fill="#212121"/>
<path d="M174.879 62.1151C174.974 62.0853 175.075 62.0783 175.174 62.0691C176.087 61.9869 178.678 62.4196 179.381 63.0421L179.371 63.3653L179.073 63.5986C177.486 63.3745 175.807 62.2485 174.213 62.3586C174.165 62.3619 174.117 62.369 174.069 62.3739L174.218 62.2003C174.459 62.2117 174.338 62.2178 174.638 62.162L174.879 62.1151Z" fill="#212121"/>
<path d="M73.1698 90.2495C73.4648 90.275 73.5694 90.3108 73.7938 90.5049C73.6531 91.3353 72.0812 92.281 71.3974 92.8005C71.1668 92.9084 71.0117 92.9133 70.7612 92.9339L70.6357 92.7723C70.8022 91.8594 72.4262 90.7757 73.1698 90.2495Z" fill="#212121"/>
<path d="M195.802 72.7573C195.706 73.1066 195.631 73.3816 195.684 73.749C195.733 74.0863 195.788 74.4178 195.829 74.7569C194.713 74.9173 195.05 76.3358 194.374 77.0684C194.237 76.6084 194.004 76.192 193.942 75.7115C194.278 74.9823 194.661 73.7585 195.136 73.1648C195.241 73.0336 195.642 72.8551 195.802 72.7573Z" fill="#212121"/>
<path d="M68.7312 93.7642C68.975 93.7878 69.12 93.8423 69.3445 93.9322L69.4025 94.1904C68.9753 95.0941 67.9318 95.9312 67.2299 96.645L67.1646 96.6895L67.1943 96.6867L66.6096 96.7726L66.8083 96.8784C66.6197 96.6493 66.5841 96.7042 66.6001 96.4491C66.6614 95.4749 68.0312 94.3756 68.7312 93.7642Z" fill="#212121"/>
<path d="M66.0169 213.363C65.7998 212.87 65.5039 212.363 65.5673 211.813C65.8427 211.519 65.8841 211.537 66.2873 211.47C66.7691 211.892 66.9169 212.837 67.2465 213.406C67.2732 213.608 67.34 213.91 67.3014 214.107C67.2309 214.466 67.1159 214.528 66.8301 214.691L66.4547 214.572C66.0846 214.127 66.1021 213.924 66.0169 213.363Z" fill="#212121"/>
<path d="M247.149 51.4614C247.688 51.5537 247.995 52.0091 248.547 51.9916C248.826 51.8567 249.012 51.7763 249.32 51.7172C249.928 52.1526 250.312 52.8953 250.72 53.5132L250.512 53.7802C250.18 53.8008 250.26 53.8216 249.96 53.7508C249.154 53.561 248.523 53.2516 248.104 52.5123C247.886 52.1271 247.626 51.8861 247.298 51.5921L247.149 51.4614Z" fill="#212121"/>
<path d="M134.134 219.502C134.417 219.59 134.756 219.728 134.98 219.922C135.26 220.165 135.372 220.477 135.353 220.842C135.328 221.313 134.885 221.699 134.58 222.018C134.213 221.898 133.857 221.792 133.582 221.5C133.33 221.234 133.219 220.835 133.293 220.478C133.39 220.014 133.775 219.754 134.134 219.502Z" fill="#212121"/>
<path d="M211.444 54.1851C211.741 54.3758 211.957 54.6407 212.198 54.8962L212.965 54.8741L213.041 54.9826C212.361 55.4803 211.819 56.5729 211.128 56.8507C210.262 55.7811 210.527 56.3561 209.559 55.9746C209.99 55.5941 210.376 55.4493 210.851 55.1654C211.339 54.8729 211.305 54.6984 211.444 54.1851Z" fill="#212121"/>
<path d="M233.868 48.0874C233.913 48.1518 233.958 48.2171 234.005 48.2806C234.539 49.0052 235.061 48.8798 235.896 49.0058C235.457 49.3805 234.932 49.2376 234.437 49.5222C234.394 49.8083 234.361 50.0934 234.333 50.3814L233.997 50.6285C233.597 50.1658 233.333 49.9653 232.756 49.7531C232.392 49.6197 232.114 49.5136 231.799 49.2913C232.297 48.693 233.027 49.2787 233.868 48.0874Z" fill="#212121"/>
<path d="M247.506 217.152C247.53 217.169 247.562 217.178 247.58 217.202C247.825 217.519 247.9 217.757 248.256 217.979C248.569 218.176 248.498 218.143 248.601 218.471L248.007 219.584L247.777 219.516C247.376 219.49 247.004 219.606 246.618 219.7L246.483 219.565C246.505 219.034 246.499 218.516 246.475 217.984C246.777 217.79 247.047 217.61 247.303 217.356L247.506 217.152Z" fill="#212121"/>
<path d="M217.508 51.2798C217.967 51.4803 218.557 51.7943 219.066 51.6916C219.152 51.6741 219.233 51.6404 219.317 51.618C219.411 51.5932 219.505 51.5729 219.599 51.5499L219.815 51.495C219.689 52.0396 219.122 52.0884 218.866 52.5211C218.656 52.8749 218.801 53.3324 218.487 53.7298C218.028 53.7676 217.903 53.6244 217.513 53.3953L217.386 53.2297C216.531 53.2285 215.527 53.6176 214.695 53.847C215.405 53.4563 216.232 53.1754 216.875 52.683C217.408 52.2748 217.409 51.9013 217.508 51.2798Z" fill="#212121"/>
<path d="M84.5081 83.8281C84.6474 83.8766 84.766 83.9771 84.8878 84.0599L84.9148 84.3516C84.0957 85.3613 81.7481 86.0804 80.5372 86.6136L80.2768 86.6649L80.1836 86.3803C80.6126 85.4027 83.4748 84.2694 84.5081 83.8281Z" fill="#212121"/>
<path d="M204.266 59.6779L204.555 58.9759L204.771 58.8999C205.165 59.1136 205.308 59.2479 205.767 59.1241C205.851 59.1014 205.928 59.0581 206.008 59.0253L206.059 59.1863L205.675 59.5831C205.699 59.6622 205.724 59.7407 205.746 59.8204C205.858 60.2255 205.875 60.4129 205.763 60.817C205.338 61.0884 205.07 61.3126 204.565 61.2071C204.399 61.0182 204.441 61.1034 204.36 60.8725C204.342 60.8198 204.326 60.7658 204.309 60.7125C203.955 61.0363 203.617 61.3773 203.275 61.7146L203.146 61.706C203.319 61.1887 203.416 60.7575 203.425 60.2099C203.426 60.1599 203.426 60.1096 203.426 60.0593C203.702 59.9222 203.983 59.8008 204.266 59.6779Z" fill="#212121"/>
<path d="M225.227 48.9888C226.229 49.6894 227.141 49.5545 228.31 49.5282L227.518 49.8185C226.899 50.0436 226.518 50.2859 226.205 50.8902C226.03 51.2288 225.776 51.2496 225.435 51.3977C225.21 51.1843 224.981 50.9844 224.747 50.7814C224.378 50.6971 224.134 50.6971 223.763 50.774L222.341 51.0611C223.621 50.5054 224.392 50.1519 225.227 48.9888Z" fill="#212121"/>
<path d="M88.5538 81.517C88.9705 81.276 89.3072 81.0626 89.7969 81.0059C90.1526 81.13 90.1968 81.1218 90.4047 81.429C90.3348 81.8059 90.3176 81.9497 89.9959 82.2048C89.8687 82.3057 89.6007 82.3857 89.4578 82.4406C88.5011 82.5026 87.7289 83.3057 86.7765 83.5191C86.5505 83.2167 86.5478 83.2134 86.5576 82.8362C86.9688 82.1926 87.8829 81.8589 88.5538 81.517Z" fill="#212121"/>
<path d="M241.894 47.8999C242.065 47.9836 242.134 48.0817 242.257 48.2231C242.271 48.4362 242.263 48.711 242.324 48.914C242.465 49.3893 243.428 49.6781 243.86 49.8863L243.841 50.0166C243.355 50.0853 242.872 50.1368 242.382 50.1782C242.177 50.5395 242.053 50.66 241.685 50.8519C241.517 50.5024 241.356 50.1779 241.142 49.8532C240.652 49.6413 240.29 49.4181 239.873 49.0866C239.835 48.6999 239.804 48.7128 240.045 48.4141C240.474 48.5647 240.964 48.668 241.416 48.5978L241.894 47.8999Z" fill="#212121"/>
<path d="M175.744 52.4976L176.159 52.6797C176.366 53.4435 173.804 58.9462 173.293 59.8901L173.197 60.0142C172.935 58.9668 175.147 53.5564 175.744 52.4976Z" fill="#212121"/>
<path d="M44.5909 90.1743C44.877 90.2292 44.9987 90.2826 45.2171 90.4764C45.2437 90.7999 45.2683 90.9878 45.4409 91.2657C45.7506 91.2945 46.0395 91.3402 46.3431 91.4082L46.4583 91.6781C46.252 92.0372 45.9935 92.004 45.6093 92.1092C45.2235 92.4891 45.2588 92.9893 45.1744 93.5155L44.8813 93.7041C44.6167 93.3563 44.567 93.1153 44.5084 92.6967C44.4732 92.4444 44.5336 92.5879 44.2536 92.3472C43.866 92.4609 43.6817 92.5514 43.2748 92.4493L43.2441 91.9363C43.4867 91.4181 43.6836 91.2804 44.1926 91.0366C44.2659 91.0016 44.3407 90.9701 44.4146 90.9366L44.5909 90.1743Z" fill="#212121"/>
<path d="M64.8318 97.9399C65.0198 98.1135 65.0542 98.2009 65.1511 98.4303C64.8978 99.7237 63.3201 101.339 62.3692 102.218C62.1454 101.956 62.0411 101.856 62.0353 101.486C62.0172 100.329 64.0143 98.6566 64.8318 97.9399Z" fill="#212121"/>
<path d="M170.855 89.4761C171.166 89.5411 171.011 89.4856 171.337 89.6742C171.934 90.0204 172.132 90.0513 172.794 89.9876C172.574 90.7124 172.389 91.0899 172.733 91.8038C172.753 91.8458 172.774 91.8869 172.795 91.9286L172.557 92.0755L172.271 91.9157L171.832 91.7713C171.574 91.9789 171.371 92.1383 171.057 92.2499C170.634 91.9709 170.694 91.8087 170.561 91.3371C170.34 91.289 170.121 91.2357 169.902 91.177L170.12 91.1212L169.97 90.9832C170.408 90.5413 170.709 90.2378 170.832 89.6116C170.841 89.5665 170.847 89.5212 170.855 89.4761Z" fill="#212121"/>
<path d="M141.485 263.122C143.637 263.557 145.723 263.068 147.891 263.101C148.61 263.112 149.417 263.088 149.95 263.631C149.402 263.913 148.939 263.952 148.329 263.966C146.652 264.003 142.694 264.277 141.485 263.122Z" fill="#212121"/>
<path d="M87.1533 101.801C87.4942 102.097 87.9088 102.543 88.0036 102.994C88.0207 103.076 88.0324 103.16 88.0465 103.242C88.401 103.329 88.6168 103.345 88.8891 103.605C88.8444 103.676 88.6911 103.927 88.6368 103.978C88.3832 104.22 88.1823 104.15 87.8631 104.161C87.5562 104.368 87.6598 104.762 87.3857 105.13L87.0395 104.596C86.5479 104.462 86.0742 104.27 85.8028 103.82L86.0046 103.552C85.9503 103.284 85.9997 103.386 85.828 103.154C85.7862 103.098 85.7415 103.043 85.6982 102.988L85.8746 102.687C86.015 102.664 86.2707 102.627 86.4008 102.592C86.888 102.461 86.9227 102.211 87.1533 101.801Z" fill="#212121"/>
<path d="M246.62 129.604C246.639 129.603 246.658 129.597 246.677 129.601C247.578 129.812 247.876 130.408 248.272 131.149C248.201 131.726 247.496 131.531 246.956 132.683L246.64 132.513C246.574 132.223 246.519 132.036 246.344 131.792C246.12 131.939 246.039 131.97 245.763 132.035C245.414 131.544 245.787 131.367 245.207 130.699C245.431 130.286 246.027 130.418 246.62 129.604Z" fill="#212121"/>
<path d="M200.618 64.2495C200.63 64.4642 200.64 64.3495 200.551 64.6193C200.461 64.8916 200.34 65.1848 200.288 65.4669C200.201 65.929 200.548 66.3034 200.802 66.6548C200.16 67.0467 199.978 67.2466 199.203 67.1807C198.661 67.434 198.405 67.9617 198.062 68.444C197.969 68.5765 198.037 68.4953 197.821 68.6523C197.817 68.1037 198.227 67.4183 198.446 66.9139C198.235 66.4993 197.892 65.9891 197.91 65.5205C198.322 65.3025 198.751 65.4568 199.185 65.5399C199.656 65.1026 200.14 64.6791 200.618 64.2495Z" fill="#212121"/>
<path d="M139.115 263.587L139.305 263.615C138.6 264.468 133.792 266.114 132.503 266.5L132.219 266.217L132.256 265.892C133.604 264.69 137.266 264.035 139.115 263.587Z" fill="#212121"/>
<path d="M148.807 94.0889L149.027 94.3765C148.835 95.8781 149.764 95.2716 150.362 96.2562L150.261 96.3292C149.974 96.3353 149.61 96.3089 149.333 96.3755C148.849 96.492 148.767 96.9998 148.579 97.4076L148.377 97.3776L148.054 96.7974L148.006 96.7057C147.748 96.7413 147.559 96.7907 147.309 96.6876C147.114 96.6073 147.174 96.6116 147.077 96.3807L147.37 95.6674C147.27 95.4522 147.171 95.3025 147.023 95.1109C146.969 95.041 146.914 94.9729 146.858 94.9036L146.944 94.5663L147.193 94.4755C147.464 94.6607 147.684 94.8312 148.006 94.9137L148.807 94.0889Z" fill="#212121"/>
<path d="M172.026 62.2568L172.087 62.4543C171.48 63.5128 167.158 67.1824 166.008 68.1186C165.769 67.8555 165.824 67.8932 165.811 67.5672C166.755 65.6912 170.315 63.5085 172.026 62.2568Z" fill="#212121"/>
<path d="M122.874 189.142C122.979 189.265 123.027 189.413 123.093 189.56C122.546 190.705 118.79 194.397 117.62 195.262L117.508 195.107C117.774 193.627 121.603 190.207 122.874 189.142Z" fill="#212121"/>
<path d="M172.728 63.312C172.805 63.3884 172.837 63.5061 172.854 63.6137C172.996 64.5226 171.891 70.8149 171.522 71.8792C171.403 72.2261 171.206 72.4373 170.953 72.6952C170.867 72.5928 170.79 72.5121 170.729 72.3883C170.523 71.9617 172.435 64.2896 172.728 63.312Z" fill="#212121"/>
<path d="M253.831 229.406C253.847 229.414 253.865 229.42 253.88 229.429C254.292 229.675 254.318 229.679 254.463 230.125C254.192 231.559 252.697 232.934 251.711 233.956C251.287 233.75 251.224 233.792 251.068 233.357C251.342 232.11 253.066 230.492 253.831 229.406Z" fill="#212121"/>
<path d="M140.379 253.163C140.768 253.27 140.59 253.183 140.914 253.424C141.462 255.334 141.508 259.493 141.053 261.437L140.854 261.322C140.511 258.817 139.984 255.659 140.379 253.163Z" fill="#212121"/>
<path d="M141.459 264.285C142.26 265.015 145.653 270.942 145.828 271.946C145.673 271.941 145.546 271.945 145.393 271.895C143.905 271.406 142.011 265.742 141.459 264.285Z" fill="#212121"/>
<path d="M147.281 255.666L147.66 255.829L147.746 256.172C147.202 257.96 144.031 260.893 142.565 262.059L142.349 262.151C142.368 261.468 146.561 256.519 147.281 255.666Z" fill="#212121"/>
<path d="M248.098 235.906C248.165 235.908 248.234 235.901 248.3 235.913C248.693 235.988 248.802 236.068 249.032 236.365C249.024 236.422 249.024 236.48 249.009 236.536C248.746 237.509 246.709 238.768 245.903 239.367L245.469 239.468C245.157 239.247 245.153 239.239 245.039 238.873C245.348 237.799 247.232 236.607 248.098 235.906Z" fill="#212121"/>
<path d="M62.3343 203.817L62.7155 203.881C63.6863 204.537 64.8034 206.852 65.141 207.991C65.2904 208.494 65.0855 208.681 64.8243 209.079C64.7117 209.043 64.6075 209.02 64.51 208.949C64.0126 208.586 62.2206 204.982 62.0439 204.273L62.3343 203.817Z" fill="#212121"/>
<path d="M257.922 221.964C258.319 222.196 258.388 222.229 258.602 222.629C258.658 224.086 257.655 225.989 256.832 227.163C256.389 227.075 256.375 227.111 256.112 226.752C256.028 225.309 257.283 223.244 257.922 221.964Z" fill="#212121"/>
<path d="M260.548 213.912C260.914 214.08 260.984 214.109 261.212 214.436C261.419 215.807 260.791 218.194 260.113 219.384C259.688 219.255 259.6 219.272 259.341 218.921C259.114 217.354 259.977 215.364 260.548 213.912Z" fill="#212121"/>
<path d="M140.646 264.785C140.66 264.89 138.383 271.985 138.121 272.577C137.931 273.006 137.836 272.991 137.417 273.166C137.319 272.959 137.292 272.93 137.245 272.68C136.934 271.011 139.663 266.317 140.646 264.785Z" fill="#212121"/>
<path d="M133.578 256.744C133.797 256.781 133.97 256.798 134.171 256.915C134.774 257.268 139.205 261.559 139.785 262.24C140.003 262.495 140.11 262.729 140.216 263.042C138.502 261.924 136.891 260.673 135.383 259.29C134.696 258.651 133.608 257.729 133.578 256.744Z" fill="#212121"/>
<path d="M261.542 206.093C261.646 206.119 261.801 206.151 261.894 206.2C262.153 206.337 262.267 206.508 262.343 206.783C262.695 208.042 262.369 210.617 261.783 211.771C261.414 211.635 261.259 211.622 261.063 211.256C260.484 210.174 261.155 207.202 261.542 206.093Z" fill="#212121"/>
<path d="M67.1174 73.3599C68.3148 73.8477 67.5031 74.8333 68.033 75.1614C68.5212 75.4637 68.9514 75.0758 69.3893 75.6161C69.1774 76.1475 68.5012 76.3616 68.0079 76.6421C67.9373 77.0862 67.842 77.4922 67.7162 77.9236C67.4715 77.8068 67.3293 77.6813 67.1404 77.4882C67.0775 77.1024 67.0438 76.8007 66.8046 76.4759C66.4499 76.4494 66.0957 76.4165 65.7421 76.3772C65.4992 76.0831 65.4514 76.0733 65.4443 75.6983C65.7844 75.3506 66.1416 75.3119 66.5982 75.2138L66.8015 75.1715C67.0754 74.683 67.034 73.9192 67.1174 73.3599Z" fill="#212121"/>
<path d="M57.2935 195.979C57.3567 195.996 57.422 196.007 57.4827 196.032C58.4177 196.409 60.7674 199.485 61.0085 200.556C61.1124 201.018 60.9109 201.168 60.6708 201.526C60.5893 201.498 60.4596 201.456 60.393 201.417C59.8429 201.093 57.1294 197.267 56.9752 196.594C56.9163 196.337 57.1479 196.174 57.2935 195.979Z" fill="#212121"/>
<path d="M51.0006 189.095C51.0625 189.11 51.2799 189.159 51.329 189.179C52.1422 189.504 55.2997 192.681 55.507 193.475C55.5698 193.716 55.3138 193.991 55.1893 194.195C55.0108 194.239 54.9127 194.2 54.737 194.161C53.5748 193.058 51.5878 191.458 50.896 189.991C50.7151 189.607 50.8559 189.469 51.0006 189.095Z" fill="#212121"/>
<path d="M151.625 84.6592C153.18 85.2639 155.105 86.7606 156.398 87.8335C156.587 88.264 156.441 88.4336 156.302 88.8712C154.733 88.3306 152.67 87.1957 151.41 86.1099C151.286 85.6269 151.497 85.1268 151.625 84.6592Z" fill="#212121"/>
<path d="M147.74 226.854C148.58 227.532 149.639 230.312 150.423 231.415L149.434 232.451L149.297 232.441C148.522 231.812 147.112 229.091 146.94 228.076C147.541 227.687 147.536 227.516 147.74 226.854Z" fill="#212121"/>
<path d="M158.524 89.5073C160.281 90.2037 162.442 91.7302 163.826 93.0263C163.825 93.3866 163.537 93.5611 163.297 93.819C162.384 93.7751 158.977 91.139 158.142 90.4297C158.116 89.9848 158.279 89.8689 158.524 89.5073Z" fill="#212121"/>
<path d="M152.076 234.079L155.826 238.712C155.682 239.071 155.222 239.315 154.915 239.553C154.906 239.555 154.898 239.56 154.889 239.559C154.119 239.408 151.705 236.111 151.166 235.334C151.464 234.912 151.767 234.493 152.076 234.079Z" fill="#212121"/>
<path d="M204.554 201.449C204.83 201.447 205.114 201.46 205.384 201.522C205.866 201.633 206.326 201.979 206.567 202.412C206.813 202.856 206.876 203.355 206.704 203.837C206.468 204.501 205.998 204.857 205.382 205.141C204.569 205.029 203.927 204.948 203.379 204.284C203.072 203.912 202.918 203.443 203.033 202.962C203.226 202.15 203.863 201.797 204.554 201.449Z" fill="#212121"/>
<path d="M158.036 240.806C159.224 241.597 163.149 244.518 163.589 245.711C163.478 246.152 163.43 246.168 163.078 246.466C160.916 245.424 158.953 243.553 157.135 241.998C157.476 241.636 157.749 241.211 158.036 240.806Z" fill="#212121"/>
<path d="M160.899 98.354C161.083 98.3558 161.307 98.35 161.476 98.4368C162.201 98.8112 162.763 100.702 163.131 101.481C163.549 101.347 163.969 101.215 164.398 101.127C165.072 100.99 165.758 100.921 166.36 101.309L166.393 101.599C165.671 102.562 164.547 102.686 163.442 102.969C163.622 103.905 163.766 104.835 163.882 105.782C163.789 105.814 163.7 105.857 163.605 105.878C163.41 105.922 163.153 105.945 162.979 105.836C162.321 105.425 162.143 104.107 161.954 103.399C161.177 103.61 160.157 104.019 159.371 103.72C159.064 103.603 159.176 103.683 159.032 103.345C159.059 103.284 159.081 103.22 159.113 103.161C159.537 102.371 160.687 102.093 161.474 101.784C161.015 100.638 160.378 99.5738 160.899 98.354Z" fill="#212121"/>
<path d="M164.633 203.72C165.416 204.392 165.563 205.383 165.731 206.344C166.505 206.516 167.744 206.618 168.214 207.324C168.364 207.55 168.292 207.605 168.24 207.847C167.49 208.574 166.569 208.652 165.583 208.817C165.593 209.284 165.608 209.756 165.581 210.222C165.537 210.975 165.388 211.413 164.811 211.906C163.948 211.136 163.907 210.192 163.705 209.108C163.096 209.138 161.677 209.363 161.181 209.022C160.836 208.785 160.831 208.664 160.792 208.284C161.208 207.397 162.199 207.548 162.666 206.892C162.943 206.505 162.847 205.777 163.064 205.312C163.313 204.781 164.194 204.131 164.633 203.72Z" fill="#212121"/>
<path d="M81.9316 180.958C82.21 180.988 82.3508 181.031 82.6031 181.134C83.0987 181.973 82.5105 183.836 82.3968 184.834C83.2229 184.897 84.2335 184.883 84.9624 185.313C85.2617 185.489 85.2685 185.47 85.3482 185.823C84.7107 186.728 83.106 186.795 82.0852 187.018C82.4274 188.075 82.7019 189.176 82.3591 190.261L82.114 190.384C81.1349 189.954 80.7964 188.649 80.4067 187.734C79.4168 187.87 78.1403 188.766 77.1885 188.355L77.2247 187.984C77.8002 187.031 78.5763 186.429 79.4705 185.803L79.2641 185.663C78.9029 185.421 78.5107 185.191 78.2035 184.881C77.7821 184.454 77.4967 183.929 77.5098 183.323C77.6696 183.118 77.6757 183.014 77.9514 182.969C78.764 182.835 79.6566 183.599 80.3098 184.017C80.8176 182.985 81.3916 181.975 81.9316 180.958Z" fill="#212121"/>
<path d="M222.93 207.642C223.063 207.676 223.112 207.682 223.249 207.746C224.178 208.175 224.55 209.517 224.915 210.396C225.593 210.327 226.297 210.224 226.977 210.217C227.356 210.214 227.666 210.28 227.941 210.555L227.933 210.924C227.521 211.697 226.822 212.24 226.183 212.824C226.405 213.391 226.825 214.214 226.651 214.837C226.589 215.059 226.446 215.075 226.261 215.182C225.507 215.22 224.801 214.893 224.1 214.646C223.481 214.974 223.296 215.782 222.723 216.243C222.353 216.297 222.325 216.307 221.994 216.139C221.528 215.369 221.808 214.401 221.938 213.563C221.081 213.318 220.332 213.168 219.755 212.443C219.735 212.196 219.667 212.095 219.828 211.884C220.335 211.221 221.381 211.185 222.149 211.056C222.245 209.839 222.336 208.741 222.93 207.642Z" fill="#212121"/>
<path d="M116.197 195.219C116.196 193.322 116.212 191.425 116.245 189.528C116.263 188.874 116.196 188.118 116.693 187.647L116.869 187.718C117.273 188.96 116.954 194.203 116.942 195.895C117.44 195.987 117.911 196.043 118.416 196.067C119.769 195.877 124.947 195.198 125.956 195.794C125.118 196.605 119.613 196.574 118.209 196.624L118.016 196.567L117.243 196.707L117.21 196.84C118.685 197.875 119.973 199.109 121.219 200.405C121.792 200.957 122.363 201.442 122.698 202.179L122.681 202.505C122.303 202.542 122.066 202.424 121.774 202.186C121.304 201.802 120.889 201.207 120.498 200.739C119.528 199.914 117.965 197.607 116.929 197.226C117.121 199.363 117.173 203.451 116.718 205.512L116.48 205.624C116.302 205.498 116.177 205.478 116.129 205.25C115.964 204.462 116.201 198.953 116.347 198.027C116.297 197.704 116.282 197.466 116.073 197.204C114.647 197.981 113.307 198.982 112.01 199.957C111.408 200.41 110.738 201.041 110.072 201.379C109.791 201.522 109.644 201.495 109.339 201.472L109.307 201.233C110.529 199.374 114.186 197.64 116.193 196.603L114.056 195.892C112.264 195.341 110.117 195.109 108.487 194.179C108.288 194.066 108.381 194.143 108.292 193.826C110.254 193.873 112.395 194.739 114.258 195.324C115.044 195.621 115.966 196.11 116.815 196.045C116.624 195.982 116.44 195.904 116.263 195.81C116.085 195.717 115.917 195.608 115.758 195.486C114.684 194.673 111.222 190.31 111.043 189.16L111.185 189.023C112.334 189.698 115.111 193.876 116.197 195.219Z" fill="#212121"/>
<path d="M275.247 132.492L275.657 132.712C275.962 134.148 275.522 138.612 275.498 140.486C276.775 139.389 279.585 135.906 280.907 135.462L281.132 135.591C281.12 135.709 281.145 135.836 281.095 135.943C280.91 136.343 276.729 140.348 276.055 141.032C277.364 141.006 282.861 140.523 283.661 140.848L283.538 141.057C281.489 141.939 277.65 141.623 275.379 141.669C276.764 143.888 281.654 145.97 282.16 147.226L281.892 147.293C279.91 146.692 277.469 144.62 275.813 143.329C275.814 144.616 276.249 149.702 275.83 150.507L275.558 150.501L275.403 150.238C275.208 148.966 275.403 143.421 275.043 142.85C273.86 142.809 270.242 147.829 268.586 147.975L268.421 147.735C269.025 146.688 271.475 144.976 272.481 144.049C273.25 143.341 273.97 142.587 274.639 141.784C272.765 141.58 267.872 142.038 266.495 141.424C266.191 141.288 265.958 141.199 265.823 140.88C266.551 140.661 272.64 141.117 273.985 141.16C272.59 139.589 270.731 137.577 269.967 135.617L270.039 135.471C271.497 136.148 273.332 139.481 274.667 140.755L274.822 140.902C275.147 138.119 274.763 135.261 275.247 132.492Z" fill="#212121"/>
<path d="M109.015 114.424C109.234 112.409 108.997 109.491 109.981 107.713C110.955 108.997 109.449 113.428 109.849 115.167L110.129 115.113C111.17 114.162 114.586 111.017 115.77 110.758L116.024 110.888C115.985 111.382 115.653 111.589 115.286 111.906C113.834 113.157 111.885 114.252 110.618 115.666L111.68 115.776C113.566 115.885 116.053 116.002 117.791 116.734L117.769 116.868L117.905 116.824L117.731 116.723L117.614 116.888L117.617 116.693L117.455 116.9C115.237 116.934 112.944 116.679 110.735 116.475L110.427 116.483L110.373 116.571C111.581 118.096 113.974 120.545 114.738 122.123L114.681 122.43C113.969 122.37 113.118 121.184 112.663 120.645C111.711 119.516 110.881 118.126 109.834 117.11C109.63 117.425 109.557 117.628 109.502 117.999C109.49 119.343 109.622 121 109.174 122.285L108.95 122.382C108.392 121.604 108.779 119.223 108.857 118.226C108.802 117.859 108.938 117.402 108.954 117.015C108.321 117.02 104.086 122.328 102.752 123.188C103.923 120.514 106.534 118.589 108.335 116.351C108.043 116.004 107.304 115.925 106.864 115.82C105.65 115.771 102.877 115.97 101.898 115.348L101.889 115.106C102.877 114.519 105.675 115.112 106.886 115.187C107.487 115.28 108.106 115.305 108.712 115.354C107.502 113.744 105.137 111.706 104.523 109.867L104.629 109.655C105.748 109.915 108.196 113.411 109.015 114.424Z" fill="#212121"/>
<path d="M38.4675 172.626C38.3243 171.57 38.101 170.48 38.507 169.458L38.8032 169.577L38.5478 169.488L38.8477 169.635L38.5515 169.555L38.871 169.696C38.9716 170.007 38.9427 170.403 38.9575 170.732C39.2681 173.027 39.4714 175.338 39.7566 177.637C41.2337 175.182 43.6806 171.229 45.7155 169.341C44.8805 172.079 41.8065 175.377 40.1583 177.954C41.5428 177.285 47.7084 174.177 48.8543 174.465C48.9086 174.479 48.9592 174.504 49.0116 174.524C48.6721 175.301 45.8857 176.177 44.9728 176.535C43.9244 176.946 40.6299 177.857 40.1592 178.686C40.6474 178.792 41.103 178.795 41.601 178.794C42.9729 178.814 48.0773 179.202 49.1944 179.783L49.3057 179.979C48.2606 180.433 42.7761 179.471 41.4137 179.22L40.4367 179.109L40.3199 179.217C41.2824 180.293 43.5887 182.686 44.7171 183.473C44.9741 183.439 45.0854 183.405 45.312 183.3C46.1224 183.71 48.6243 185.932 48.8488 186.746C48.8702 186.824 48.8577 186.908 48.862 186.988C48.5578 187.236 48.7243 187.175 48.3765 187.208L48.5059 187.031C48.3155 187.145 48.279 187.237 48.0423 187.161C46.8473 186.779 40.6664 180.52 39.7281 179.306C39.6897 180.161 39.6916 181.036 39.5465 181.879C39.5741 183.165 39.8176 186.561 39.0844 187.596L38.9155 187.532C38.5113 186.168 38.7238 183.455 38.9329 182.066C38.928 181.12 38.982 180.166 39.0111 179.22C37.1179 180.612 35.7807 182.731 33.9224 184.18C33.6241 184.413 33.3932 184.657 33.0019 184.604C33.0951 183.659 37.1225 180.232 38.0645 179.308L37.9949 179.145C36.5396 179.02 31.6974 179.415 30.8174 178.777L30.9198 178.584C32.4331 177.986 36.3017 178.448 37.9989 178.639L38.4074 178.61C38.5702 178.384 38.4828 178.393 38.3154 178.198C37.2516 176.958 32.936 174.511 32.714 173.054L32.9295 172.87C35.0499 174.166 36.8128 176.348 38.8152 177.867L38.9768 177.988C38.9743 176.218 38.6487 174.388 38.4675 172.626Z" fill="#212121"/>
<path d="M185.852 78.2373C187.748 78.3385 189.574 80.4718 191.125 81.4929C191.927 80.853 192.691 80.0867 193.73 79.9027C193.945 79.987 194.058 79.9665 194.155 80.1989C194.473 80.9646 193.861 82.0697 193.574 82.7891C194.564 83.1518 195.663 83.4293 196.422 84.1926C196.466 84.4161 196.55 84.4925 196.387 84.6856C195.813 85.3679 194.428 85.4372 193.597 85.5847C193.338 87.0278 193.216 88.5064 193.049 89.9629C193.036 90.3809 193.028 90.9727 192.758 91.3171C192.625 91.4879 192.522 91.4287 192.326 91.4314C191.143 90.5084 190.532 88.1277 189.806 86.7867C188.244 87.1734 186.713 88.0519 185.082 88.1059L185.003 87.9551C185.839 86.5304 187.214 85.4093 188.167 84.0417C188.201 83.992 188.235 83.9414 188.269 83.8914C187.565 82.1105 186.065 80.1072 185.852 78.2373Z" fill="#212121"/>
<path d="M213.917 133.702C213.87 133.704 213.823 133.706 213.775 133.707C213.703 133.707 213.632 133.705 213.56 133.706C213.473 133.706 213.386 133.712 213.299 133.711C212.33 133.689 208.622 131.099 207.471 130.505C205.197 129.332 202.719 128.63 200.38 127.601C195.28 125.356 189.113 121.267 185.615 116.877C185.35 116.544 185.247 116.413 185.307 115.988L185.799 115.657L185.939 115.675C193.257 116.587 198.171 115.65 205.138 119.55C207.248 120.731 209.2 122.17 210.696 124.09C212.876 126.885 213.883 130.188 213.917 133.702Z" fill="#65D0D2"/>
<path d="M128.32 120.2C129.406 117.485 130.731 115.225 132.769 113.107C132.971 112.894 133.177 112.686 133.388 112.483C133.598 112.279 133.813 112.079 134.031 111.884C134.25 111.689 134.472 111.498 134.699 111.312C134.925 111.126 135.155 110.944 135.389 110.767C135.622 110.59 135.859 110.418 136.1 110.251C136.341 110.083 136.584 109.921 136.832 109.764C137.079 109.606 137.329 109.454 137.583 109.306C137.836 109.159 138.092 109.017 138.351 108.88C138.61 108.743 138.872 108.611 139.136 108.485C139.401 108.359 139.668 108.238 139.937 108.122C140.206 108.006 140.478 107.896 140.751 107.792C141.025 107.687 141.301 107.588 141.579 107.495C141.857 107.401 142.136 107.313 142.417 107.231C142.699 107.149 142.982 107.072 143.266 107.001C143.55 106.931 143.836 106.866 144.123 106.807C144.41 106.747 144.698 106.694 144.987 106.646C145.277 106.599 145.567 106.557 145.857 106.522C146.148 106.486 146.44 106.456 146.732 106.432C147.024 106.408 147.316 106.389 147.609 106.377C147.902 106.365 148.195 106.359 148.488 106.358C148.781 106.358 149.074 106.364 149.367 106.375C149.66 106.386 149.952 106.404 150.244 106.427C150.537 106.45 150.828 106.48 151.119 106.515C151.41 106.55 151.7 106.591 151.99 106.637C152.279 106.684 152.567 106.737 152.854 106.795C153.141 106.854 153.427 106.918 153.712 106.988C153.996 107.058 154.28 107.134 154.561 107.215C154.842 107.297 155.122 107.384 155.4 107.477C155.678 107.57 155.954 107.668 156.228 107.772C156.502 107.876 156.774 107.985 157.044 108.1C157.313 108.215 157.58 108.335 157.845 108.461C158.11 108.587 158.372 108.718 158.631 108.854C162.604 110.894 165.715 113.824 170.085 115.233C170.786 115.458 171.496 115.651 172.214 115.812C172.932 115.973 173.655 116.102 174.385 116.198C175.115 116.295 175.847 116.358 176.582 116.389C177.318 116.42 178.053 116.418 178.788 116.383C180.05 116.315 181.302 116.127 182.566 116.099C176.153 119.808 169.643 123.164 162.706 125.802C149.526 130.814 132.184 133.733 118.12 133.632C114.324 133.604 110.599 133.241 106.822 132.943C108.202 131.202 109.574 129.433 111.117 127.832C115.995 122.773 121.286 120.34 128.32 120.2Z" fill="#65D0D2"/>
<path d="M254.69 159.345C260.136 156.35 267.307 155.501 273.274 157.244C278.522 158.777 282.602 162.562 285.179 167.319C288.303 173.083 288.955 180.37 287.08 186.632C285.443 192.094 282.176 197.464 277.03 200.241C273.855 201.955 270.033 202.599 266.505 203.199C265.43 203.382 263.571 203.441 262.642 203.944C262.254 204.276 261.89 204.258 261.406 204.288C260.052 204.344 258.612 204.716 257.279 204.971C254.6 205.484 251.924 205.961 249.185 205.978C248.976 205.98 248.767 205.979 248.558 205.975C248.349 205.971 248.139 205.965 247.93 205.956C247.722 205.947 247.513 205.936 247.304 205.922C247.095 205.908 246.887 205.891 246.678 205.872C246.47 205.853 246.262 205.831 246.054 205.806C245.846 205.782 245.639 205.755 245.432 205.725C245.225 205.696 245.018 205.664 244.812 205.629C244.606 205.594 244.4 205.557 244.194 205.517C243.989 205.477 243.784 205.435 243.58 205.39C243.376 205.345 243.172 205.297 242.969 205.247C242.766 205.197 242.563 205.145 242.362 205.089C242.16 205.034 241.959 204.977 241.758 204.917C241.558 204.857 241.358 204.794 241.16 204.729C240.961 204.664 240.763 204.596 240.566 204.526C240.368 204.456 240.172 204.384 239.977 204.309C239.782 204.234 239.587 204.157 239.394 204.077C239.2 203.997 239.008 203.915 238.816 203.831C238.625 203.746 238.435 203.659 238.246 203.57C238.057 203.481 237.868 203.389 237.682 203.295C237.495 203.201 237.309 203.105 237.124 203.006C236.94 202.908 236.757 202.807 236.575 202.704C236.393 202.601 236.212 202.495 236.033 202.388C235.853 202.28 235.675 202.17 235.499 202.058C235.322 201.946 235.147 201.832 234.973 201.715C234.799 201.599 234.627 201.481 234.456 201.36C234.285 201.239 234.116 201.116 233.948 200.991C233.78 200.866 233.614 200.739 233.45 200.61C233.285 200.481 233.122 200.35 232.961 200.217C232.799 200.084 232.64 199.949 232.482 199.812C232.324 199.674 232.167 199.535 232.013 199.394C231.858 199.253 231.705 199.11 231.555 198.966C231.404 198.821 231.255 198.674 231.107 198.525C227.159 194.561 224.676 189.205 224.715 183.55C224.756 177.648 227.942 171.845 232.078 167.799C237.791 162.209 245.705 159.957 253.527 160.058C253.662 160.52 253.833 160.81 254.244 161.046C254.579 160.971 254.771 160.953 254.918 160.588C255.107 160.119 254.865 159.768 254.69 159.345Z" fill="#65D0D2"/>
<path d="M261.406 204.288C261.389 202.936 260.965 199.096 261.851 198.119L262.167 198.215C263.053 199.365 262.687 202.503 262.642 203.944C262.254 204.276 261.89 204.258 261.406 204.288Z" fill="#212121"/>
<path d="M251.858 171.013C252.918 170.822 254.192 170.884 255.271 170.929C264.534 171.317 273.232 176.69 279.394 183.358C274.793 188.482 266.943 193.679 260.401 195.556C259.989 195.661 259.574 195.75 259.155 195.822C251.731 197.086 244.303 194.603 238.275 190.289C235.97 188.639 233.436 186.193 233.043 183.23C232.937 182.428 233.209 181.866 233.698 181.244C238.291 175.405 244.496 171.842 251.858 171.013Z" fill="#212121"/>
<path d="M252.044 172.089C253.196 171.978 254.386 171.964 255.541 172.001C263.91 172.272 272.352 177.404 277.993 183.378C272.9 188.382 266.655 192.925 259.683 194.733C253.949 195.811 248.48 194.756 243.316 192.105C239.386 190.088 235.274 187.527 233.838 183.111C234.221 182.304 234.734 181.61 235.305 180.929C235.434 180.773 235.565 180.619 235.697 180.466C235.83 180.313 235.965 180.162 236.101 180.013C236.238 179.863 236.376 179.715 236.516 179.57C236.656 179.423 236.798 179.279 236.942 179.137C237.086 178.994 237.231 178.853 237.378 178.714C237.525 178.575 237.674 178.438 237.825 178.303C237.975 178.167 238.127 178.034 238.281 177.902C238.435 177.771 238.591 177.641 238.748 177.514C238.905 177.386 239.063 177.26 239.223 177.136C239.383 177.012 239.545 176.891 239.708 176.771C239.871 176.651 240.036 176.533 240.202 176.417C240.368 176.301 240.535 176.188 240.704 176.076C240.873 175.964 241.043 175.855 241.214 175.747C241.386 175.64 241.558 175.534 241.733 175.431C241.907 175.328 242.082 175.227 242.259 175.128C242.435 175.029 242.613 174.932 242.792 174.838C242.971 174.743 243.151 174.651 243.332 174.561C243.514 174.471 243.696 174.383 243.879 174.297C244.063 174.212 244.247 174.129 244.433 174.048C244.618 173.967 244.805 173.888 244.992 173.811C245.179 173.735 245.368 173.661 245.557 173.589C245.746 173.517 245.936 173.448 246.127 173.381C246.318 173.313 246.51 173.249 246.702 173.186C246.895 173.124 247.088 173.064 247.282 173.006C247.476 172.949 247.671 172.893 247.866 172.84C248.062 172.787 248.258 172.737 248.455 172.689C248.651 172.641 248.848 172.595 249.046 172.552C249.244 172.509 249.442 172.468 249.641 172.43C249.84 172.392 250.039 172.356 250.238 172.322C250.438 172.289 250.638 172.258 250.838 172.23C251.039 172.201 251.239 172.175 251.441 172.152C251.642 172.128 251.843 172.107 252.044 172.089Z" fill="#65D0D2"/>
<path d="M255.238 175.616C263.57 174.769 268.239 178.736 274.647 183.083C274.941 182.773 275.247 182.523 275.585 182.265L275.531 182.342C275.806 182.197 275.819 182.152 276.145 182.167L276.223 182.452C276.139 182.721 276.051 182.936 275.893 183.172C275.101 184.362 273.874 185.195 272.748 186.045C268.462 189.283 264.418 191.454 259.103 192.526C256.623 192.987 254.14 192.899 251.66 192.494C245.947 191.561 240.169 188.941 236.708 184.117C241.087 179.005 248.723 176.292 255.238 175.616Z" fill="#212121"/>
<path d="M255.158 176.532C262.469 175.33 268.33 179.842 273.921 183.759C268.827 187.906 263.782 191.092 257.075 191.783C256.55 191.79 256.024 191.788 255.499 191.777C248.616 191.62 242.65 189.214 237.867 184.23C242.04 180.089 249.375 177.177 255.158 176.532Z" fill="#65D0D2"/>
<path d="M259.163 178.515C259.427 178.509 259.692 178.507 259.956 178.525C263.342 178.768 264.769 181.61 266.749 183.86C266.341 184.35 265.823 184.759 265.449 185.264C264.64 186.357 264.101 187.59 263.15 188.589C261.398 190.427 259.289 190.9 256.864 190.951C255.489 190.863 254.183 190.536 252.975 189.86C250.847 188.671 249.686 186.859 249.069 184.565C249.328 184.056 249.627 183.579 249.988 183.135C252.159 180.465 255.794 178.847 259.163 178.515Z" fill="#212121"/>
<path d="M258.5 179.584C259.115 179.539 259.704 179.527 260.315 179.622C262.752 180.002 264.174 182.067 265.521 183.911L265.432 183.998C265.383 184.047 265.336 184.098 265.287 184.146C264.079 185.326 263.471 186.873 262.323 188.083C261.019 189.456 259.393 189.936 257.551 189.989C255.897 189.98 254.494 189.743 253.062 188.865C251.915 188.161 250.859 187.104 250.555 185.751C250.368 184.921 250.55 184.144 251.018 183.442C252.521 181.189 255.963 180.037 258.5 179.584Z" fill="#65D0D2"/>
<path d="M258.613 180.369C259.649 180.417 260.694 180.655 261.579 181.222C262.333 181.705 262.858 182.468 263.002 183.355C263.177 184.432 262.76 185.424 262.116 186.27C260.899 187.871 259.241 188.947 257.241 189.207C256.21 188.959 255.175 188.547 254.317 187.916C253.469 187.291 252.747 186.386 252.608 185.314C252.483 184.357 252.86 183.49 253.46 182.762C254.774 181.17 256.63 180.547 258.613 180.369Z" fill="#212121"/>
<path d="M257.468 181.408C258.711 181.302 260.124 181.36 261.123 182.213C261.661 182.673 262.012 183.297 262.046 184.01C262.091 184.95 261.579 185.803 260.975 186.483C260.017 187.561 258.821 188.14 257.395 188.235C257.363 188.071 257.33 187.907 257.286 187.745C257.23 187.531 257.145 187.099 256.956 186.99C256.805 187.335 256.688 187.655 256.414 187.924C256.185 187.916 256.143 187.924 255.894 187.868C255 187.669 254.035 186.661 253.66 185.86C253.417 185.343 253.317 184.747 253.554 184.209C254.129 182.904 256.224 181.932 257.468 181.408Z" fill="#65D0D2"/>
<path d="M258.681 181.802C259.06 181.852 259.335 181.881 259.641 182.137C260.246 182.643 260.379 183.978 260.369 184.718C260.356 185.701 260.034 185.953 259.351 186.608C258.976 186.6 258.828 186.666 258.516 186.441C258.743 185.806 259.525 185.59 259.695 184.932C259.949 183.951 259.168 182.624 258.681 181.802Z" fill="#212121"/>
<path d="M258.051 185.325C257.908 185.53 257.749 185.802 257.565 185.969C257.229 186.272 257.142 186.241 256.73 186.183C256.505 185.98 256.371 185.808 256.264 185.527C256.056 184.989 255.863 184.262 256.103 183.734C256.479 183.662 256.496 183.688 256.843 183.858L256.95 184.266C257.437 184.104 257.492 184.075 257.982 184.209C258.183 184.561 258.203 184.795 258.092 185.202C258.081 185.244 258.065 185.284 258.051 185.325Z" fill="#212121"/>
<path d="M71.4336 159.766C69.8569 159.489 64.0859 163.274 60.3648 163.134C54.0002 162.894 50.1761 158.919 44.4192 158.092C42.1206 157.762 39.9143 158.187 37.624 158.301C33.6629 158.497 29.9151 156.801 27.0298 154.145C23.6782 151.06 21.3978 146.112 21.2592 141.558C21.1527 138.06 22.2335 134.941 24.0681 132.005C24.6424 131.086 25.4415 130.102 25.8128 129.085C26.3597 127.587 26.324 125.871 26.567 124.303C27.265 119.799 29.4845 115.342 32.6025 112.022C32.8711 111.741 33.1465 111.466 33.4286 111.198C33.7109 110.93 33.9996 110.67 34.2945 110.416C34.5893 110.162 34.8903 109.916 35.1976 109.677C35.5046 109.438 35.8173 109.207 36.1356 108.983C36.4541 108.76 36.7779 108.544 37.1071 108.336C37.436 108.129 37.7699 107.929 38.1088 107.738C38.4476 107.547 38.7909 107.364 39.1389 107.189C39.4866 107.015 39.8385 106.849 40.1946 106.692C40.5505 106.535 40.9101 106.387 41.2734 106.247C41.6366 106.108 42.0031 105.978 42.3727 105.856C42.7423 105.735 43.1148 105.623 43.4901 105.519C43.8652 105.416 44.2427 105.323 44.6225 105.238C45.0023 105.154 45.384 105.078 45.7675 105.013C46.1508 104.947 46.5356 104.89 46.922 104.844C47.3082 104.797 47.6954 104.759 48.0836 104.731C48.4716 104.704 48.8601 104.685 49.2491 104.677C59.9739 104.371 67.4528 108.503 75.6024 114.957C77.8832 116.763 80.1922 118.559 82.2939 120.575C83.9541 122.167 85.2619 124.094 86.9417 125.669L87.1183 125.832C87.3523 126.639 87.8671 127.817 88.5092 128.375C89.351 129.938 90.2788 131.469 90.9709 133.106C92.7679 137.357 93.3155 142.686 92.0046 147.144C90.6891 151.617 87.6558 154.922 83.5922 157.1C79.2496 159.427 77.1611 158.536 72.8978 159.504C72.4133 159.558 71.8822 159.564 71.4336 159.766Z" fill="#748EF8"/>
<path d="M59.3427 112.573L59.8463 112.733C61.0222 113.892 62.7216 124.439 63.2573 126.752C65.497 127.093 76.5579 127.621 77.5385 128.324C77.4413 128.618 77.3928 128.707 77.1258 128.894C76.3871 129.411 75.3601 129.741 74.5343 130.118C71.6375 131.439 68.4389 132.564 65.6957 134.133C65.6378 134.166 65.5807 134.201 65.5234 134.234C66.1468 136.282 70.2276 145.316 70.1773 146.393C70.1638 146.686 70.1849 146.573 69.9452 146.818C67.917 146.842 61.3187 139.11 59.3369 137.49L58.9803 137.637C55.821 139.904 51.574 145.472 48.7508 146.88C48.3785 146.771 48.3264 146.659 48.0663 146.363C47.8971 145.781 48.0946 145.259 48.2822 144.705C48.8069 143.155 49.6793 141.667 50.3806 140.188C51.413 138.01 52.2735 135.808 52.9953 133.509C50.9448 132.591 41.7713 129.511 40.7882 128.24C40.5966 127.992 40.6545 128.104 40.6846 127.747C41.0096 127.497 41.2859 127.423 41.6845 127.375C43.3346 127.177 45.1235 127.362 46.7996 127.299C49.7792 127.187 52.7448 126.881 55.7232 126.765C56.5318 124.076 57.1423 121.301 57.7562 118.56C58.1876 116.633 58.4927 114.358 59.3427 112.573Z" fill="#212121"/>
<path d="M59.6217 115.834C60.8566 118.214 61.4294 124.706 62.3039 127.8C66.1752 128.692 70.6424 128.668 74.6149 128.901C72.3415 129.994 67.4926 131.715 65.7582 132.907C65.3602 133.181 64.976 133.529 64.8021 133.991C64.1502 135.725 67.6781 142.734 68.4707 144.616C65.5396 142.273 62.3468 138.054 59.4883 136.206C59.002 136.164 58.7662 136.339 58.328 136.541C55.0736 139.06 52.4693 142.317 49.3563 145.009C50.2275 142.936 54.5836 135.297 53.9942 133.496C53.4815 131.931 45.795 129.353 43.9561 128.515C46.5935 128.508 54.1022 128.613 56.3376 127.893C57.0873 127.054 59.2246 117.576 59.6217 115.834Z" fill="#65D0D2"/>
<path d="M97.6162 55.4651C98.4622 49.4611 99.7976 44.0194 104.921 40.203C109.514 36.7809 115.304 35.9686 120.848 36.7974C124.103 37.2844 126.771 38.3776 129.741 39.7421C135.134 38.7909 140.611 40.5802 145.023 43.6702C150.552 47.5433 153.971 52.9936 155.124 59.6452C155.157 59.8378 155.188 60.0308 155.216 60.2242C155.245 60.4178 155.271 60.6116 155.295 60.8056C155.319 60.9996 155.34 61.1939 155.359 61.3885C155.378 61.5831 155.394 61.7779 155.408 61.9729C155.423 62.168 155.434 62.3631 155.444 62.5583C155.453 62.7535 155.46 62.9489 155.464 63.1443C155.469 63.3397 155.471 63.5353 155.47 63.7309C155.47 63.9263 155.467 64.1218 155.462 64.3172C155.457 64.5126 155.449 64.708 155.439 64.9032C155.429 65.0984 155.417 65.2935 155.402 65.4886C155.387 65.6836 155.369 65.8783 155.35 66.0727C155.33 66.2673 155.308 66.4615 155.284 66.6553C155.259 66.8493 155.232 67.043 155.203 67.2364C155.174 67.4296 155.142 67.6225 155.108 67.8151C155.074 68.0076 155.037 68.1997 154.999 68.3912C154.96 68.583 154.919 68.7741 154.875 68.9647C154.832 69.1552 154.786 69.3452 154.737 69.5347C154.689 69.7242 154.639 69.9131 154.586 70.1014C154.533 70.2894 154.478 70.4769 154.42 70.6637C154.363 70.8506 154.303 71.0367 154.241 71.2221C154.179 71.4076 154.114 71.5922 154.048 71.7759C153.981 71.9597 153.912 72.1427 153.841 72.3248C153.77 72.5068 153.696 72.6879 153.62 72.8682C153.545 73.0485 153.467 73.2278 153.387 73.406C153.307 73.5843 153.224 73.7616 153.14 73.9381C153.055 74.1143 152.969 74.2895 152.88 74.4636C152.791 74.6378 152.7 74.8109 152.607 74.9828C152.514 75.1547 152.418 75.3254 152.321 75.4949C152.224 75.6645 152.124 75.8329 152.023 75.9999C151.921 76.1669 151.818 76.3327 151.712 76.4973C151.606 76.6618 151.499 76.8251 151.389 76.987C151.28 77.1489 151.168 77.3094 151.054 77.4684C149.907 79.0789 147.968 81.8758 146.307 82.8012L145.988 83.5433L146.241 83.7987L146.553 83.7966L146.547 83.8944C145.594 84.5905 144.742 85.4736 143.824 86.2227C142.006 87.7071 136.26 89.4709 133.696 90.8533C129.966 92.8639 126.738 96.1336 122.83 97.696C121.107 98.3847 119.14 98.6407 117.298 98.4439C112.268 97.9063 108.543 93.5867 104.321 91.2065C99.2218 88.3308 93.3318 87.1954 89.4574 82.4406C89.6003 82.3857 89.8683 82.3057 89.9955 82.2048C90.3172 81.9497 90.3344 81.8058 90.4043 81.429C90.1964 81.1217 90.1522 81.13 89.7965 81.0058C89.3068 81.0625 88.9701 81.276 88.5534 81.517C85.9822 79.3067 84.7406 76.5304 84.4984 73.158C84.1678 68.5593 85.2809 63.967 88.3581 60.4526C90.7861 57.6797 93.9273 55.8199 97.6162 55.4651Z" fill="#65D0D2"/>
<path d="M107.049 79.5667C106.403 79.7013 105.781 79.7859 105.159 79.5173C104.803 79.3637 104.765 79.3465 104.622 79.0067C104.89 78.7246 105.036 78.7173 105.415 78.6084C105.866 78.6381 106.349 78.6182 106.677 78.9776C106.826 79.1404 106.942 79.3741 107.049 79.5667Z" fill="#212121"/>
<path d="M94.5841 79.6115C95.053 79.5667 95.5528 79.4934 96.0208 79.5572C96.3942 79.6081 96.4553 79.5784 96.6902 79.8893C96.6681 79.9307 96.6509 79.9749 96.6239 80.0129C96.129 80.7059 94.965 80.8629 94.1867 81.0444C93.5406 81.1885 92.8814 81.4124 92.2638 81.0711L92.2129 80.7893C92.844 79.9794 93.6369 79.8503 94.5841 79.6115Z" fill="#212121"/>
<path d="M100.466 78.3922C100.7 78.3599 100.936 78.3336 101.172 78.3131C101.681 78.2742 101.989 78.3478 102.386 78.6918C102.409 79.0193 102.471 78.9543 102.289 79.1714C101.76 79.8022 100.871 79.7255 100.118 79.7718C99.6331 79.843 98.9257 80.0076 98.4759 79.7675C98.2771 79.6614 98.3195 79.5661 98.2793 79.3658C98.3244 79.3036 98.3658 79.2386 98.4145 79.1791C98.9564 78.5213 99.6822 78.5081 100.466 78.3922Z" fill="#212121"/>
<path d="M139.383 81.083C141.543 81.5341 144.317 81.8349 146.307 82.8011L145.988 83.5432L145.841 83.5775L145.978 83.6033C145.435 83.7986 139.514 82.3556 138.253 82.1357C138.588 81.6159 138.816 81.3578 139.383 81.083Z" fill="#212121"/>
<path d="M105.415 78.608L105.879 78.5148C105.813 77.728 103.749 75.5674 103.228 74.6793C98.8748 67.2629 100.307 57.6148 105.744 51.1618C109.601 46.5837 114.62 44.2569 120.546 43.7825C126.766 43.2849 133.019 44.8144 137.824 48.9191C138.086 49.1468 138.342 49.3809 138.593 49.6213C138.843 49.8617 139.088 50.1081 139.326 50.3606C139.564 50.6131 139.796 50.8712 140.022 51.1349C140.247 51.3988 140.466 51.6681 140.678 51.9429C140.89 52.2176 141.096 52.4974 141.294 52.7821C141.493 53.0671 141.684 53.3567 141.868 53.6509C142.052 53.9452 142.229 54.2439 142.398 54.5469C142.568 54.8498 142.73 55.1569 142.884 55.468C143.038 55.7789 143.184 56.0935 143.323 56.4118C143.462 56.7301 143.593 57.0516 143.715 57.3762C143.838 57.7009 143.953 58.0283 144.06 58.3587C144.166 58.6891 144.265 59.0219 144.355 59.3571C144.445 59.6924 144.527 60.0296 144.6 60.3687C144.674 60.7081 144.739 61.049 144.796 61.3914C144.853 61.734 144.901 62.0777 144.941 62.4226C144.98 62.7675 145.012 63.1131 145.034 63.4594C145.504 69.8065 143.925 75.8492 139.717 80.7061C139.608 80.834 139.496 80.9597 139.382 81.0829C138.816 81.3577 138.588 81.6159 138.253 82.1356C134.817 84.8549 131.271 86.4402 126.868 86.7552C121.584 87.1329 115.944 86.0484 111.446 83.1393C109.888 82.1319 108.446 80.7876 107.049 79.5663C106.942 79.3737 106.826 79.14 106.677 78.9772C106.349 78.6178 105.866 78.6378 105.415 78.608Z" fill="#0D338A"/>
<path d="M122.453 85.4505C120.471 85.1503 118.508 84.7339 116.614 84.0672C111.158 82.1467 106.311 78.0457 103.846 72.7905C103.719 72.5219 103.598 72.2504 103.484 71.9761C103.369 71.7015 103.262 71.4244 103.161 71.1448C103.06 70.8651 102.967 70.5831 102.88 70.2988C102.793 70.0144 102.713 69.7282 102.64 69.4402C102.567 69.1519 102.501 68.862 102.442 68.5705C102.384 68.2792 102.332 67.9866 102.288 67.6926C102.243 67.3986 102.206 67.1038 102.176 66.808C102.146 66.5121 102.123 66.2158 102.108 65.919C102.092 65.6222 102.084 65.325 102.083 65.0276C102.082 64.7304 102.088 64.4332 102.102 64.1362C102.116 63.8394 102.136 63.5429 102.164 63.2469C102.193 62.9509 102.228 62.6558 102.27 62.3617C102.313 62.0673 102.362 61.7742 102.419 61.4825C102.476 61.1908 102.54 60.9005 102.611 60.6117C102.682 60.323 102.76 60.0363 102.845 59.7515C102.93 59.4666 103.022 59.184 103.121 58.9037C104.882 54.0351 108.406 49.3374 113.18 47.1103C118.382 44.6838 125.334 44.3953 130.705 46.4136C131.011 46.5287 131.313 46.6512 131.613 46.7813C131.913 46.9111 132.209 47.0481 132.502 47.1925C132.795 47.3368 133.084 47.4882 133.37 47.6466C133.655 47.805 133.937 47.9703 134.214 48.1424C134.492 48.3146 134.765 48.4932 135.034 48.6784C135.303 48.8639 135.567 49.0557 135.826 49.254C136.086 49.4523 136.34 49.6568 136.59 49.8676C136.839 50.0782 137.083 50.2947 137.322 50.5174C137.561 50.74 137.795 50.9682 138.023 51.2021C138.25 51.436 138.472 51.6752 138.689 51.9199C138.905 52.1646 139.115 52.4146 139.319 52.6697C139.523 52.9246 139.721 53.1843 139.912 53.4488C140.103 53.7134 140.288 53.9825 140.467 54.2562C140.645 54.5298 140.816 54.8075 140.981 55.0894C141.146 55.3713 141.304 55.6571 141.455 55.9467C141.605 56.2364 141.749 56.5296 141.886 56.8262C144.309 62.2274 144.117 68.645 142.001 74.1121C140.032 79.1969 136.58 82.324 131.669 84.5171C131.285 84.6535 130.923 84.7955 130.52 84.866C128.083 85.3839 125.765 85.6394 123.278 85.4474L122.453 85.4505Z" fill="white"/>
<path d="M122.453 85.4504C122.173 84.9243 121.913 84.3809 121.869 83.7774C121.78 82.5521 122.307 81.3914 123.137 80.5129C123.198 80.4471 123.261 80.3828 123.326 80.32C123.391 80.2575 123.457 80.1966 123.525 80.1373C123.593 80.0782 123.663 80.0209 123.734 79.9653C123.805 79.9097 123.877 79.856 123.951 79.8043C124.025 79.7526 124.1 79.7027 124.176 79.6546C124.253 79.6068 124.33 79.561 124.409 79.5173C124.488 79.4733 124.568 79.4315 124.649 79.3918C124.73 79.3522 124.812 79.3147 124.895 79.2793C124.978 79.2439 125.061 79.2107 125.146 79.1797C125.231 79.1486 125.316 79.1197 125.402 79.0932C125.488 79.0666 125.575 79.0423 125.662 79.0202C125.75 78.9981 125.838 78.9783 125.926 78.9607C126.015 78.9431 126.104 78.9279 126.193 78.915C126.282 78.9021 126.371 78.8916 126.461 78.8834C126.551 78.8753 126.641 78.8694 126.731 78.866C126.821 78.8623 126.911 78.8611 127.001 78.8623C128.294 78.8696 129.575 79.3149 130.463 80.2808C131.558 81.4715 131.761 82.9728 131.669 84.517C131.285 84.6535 130.922 84.7955 130.52 84.866C130.849 83.7569 130.958 82.9004 130.382 81.8404C129.872 80.9027 128.945 80.3124 127.928 80.0496C127.784 80.0136 127.639 79.985 127.492 79.9637C127.345 79.9427 127.197 79.9291 127.049 79.923C126.901 79.9166 126.752 79.9179 126.604 79.9269C126.456 79.9359 126.309 79.9525 126.162 79.9766C126.016 80.0005 125.871 80.0318 125.727 80.0704C125.584 80.1093 125.443 80.1553 125.305 80.2084C125.166 80.2616 125.03 80.3216 124.898 80.3884C124.765 80.4553 124.636 80.5288 124.511 80.6089C123.64 81.1602 123.004 81.9922 122.827 83.0194C122.671 83.9277 122.886 84.6339 123.277 85.4474L122.453 85.4504Z" fill="#2962FF"/>
<path d="M138.138 62.408C138.565 62.3648 139.027 62.3292 139.451 62.4166C140.123 62.5549 140.793 63.0936 141.16 63.6612C141.499 64.1862 141.623 64.8026 141.483 65.4137C141.303 66.2018 140.825 66.5529 140.175 66.9705C139.919 67.0027 139.67 67.0306 139.411 67.0235C138.626 67.0021 137.926 66.6875 137.411 66.0849C136.972 65.5719 136.77 64.9148 136.86 64.2445C136.979 63.3549 137.444 62.9173 138.138 62.408Z" fill="#2962FF"/>
<path d="M138.567 63.1187C139.196 63.1656 139.694 63.2272 140.161 63.6997C140.493 64.0367 140.659 64.4372 140.608 64.9183C140.538 65.5893 140.172 65.887 139.675 66.2712C139.174 66.2314 138.726 66.1605 138.326 65.8269C137.957 65.5187 137.739 65.1091 137.739 64.6224C137.74 63.9125 138.081 63.574 138.567 63.1187Z" fill="white"/>
<path d="M130.614 55.5261C131.133 55.4816 131.722 55.3857 132.225 55.5629C132.874 55.7913 133.446 56.2682 133.724 56.9041C133.752 56.9694 133.778 57.0359 133.8 57.1038C133.822 57.1716 133.84 57.2404 133.854 57.3101C133.869 57.38 133.88 57.4505 133.887 57.5214C133.894 57.5923 133.897 57.6634 133.897 57.7345C133.896 57.8059 133.892 57.877 133.884 57.9479C133.876 58.0187 133.864 58.0889 133.849 58.1586C133.833 58.2281 133.814 58.2967 133.791 58.3644C133.769 58.4318 133.742 58.498 133.713 58.5628C133.354 59.3585 132.745 59.6903 131.958 59.9767C131.625 59.9837 131.298 59.9877 130.97 59.9255C130.203 59.7804 129.393 59.2877 128.985 58.61C128.705 58.1439 128.638 57.5846 128.826 57.0697C129.122 56.2574 129.884 55.876 130.614 55.5261Z" fill="#2962FF"/>
<path d="M130.761 56.2639C131.043 56.2547 131.34 56.2406 131.62 56.2817C132.128 56.3565 132.695 56.7137 132.93 57.1847C133.112 57.5493 133.119 57.879 132.957 58.2549C132.745 58.7477 132.31 58.9219 131.859 59.1387C131.71 59.1304 131.561 59.123 131.413 59.1052C130.78 59.0298 130.092 58.8164 129.744 58.227C129.608 57.9973 129.557 57.7634 129.606 57.5049C129.732 56.837 130.228 56.5874 130.761 56.2639Z" fill="white"/>
<path d="M123.277 85.4473C122.886 84.6338 122.672 83.9276 122.828 83.0193C123.004 81.9921 123.64 81.1602 124.511 80.6088C124.636 80.5287 124.765 80.4552 124.898 80.3883C125.03 80.3215 125.166 80.2615 125.304 80.2084C125.443 80.1552 125.584 80.1092 125.727 80.0704C125.871 80.0317 126.016 80.0005 126.162 79.9765C126.309 79.9524 126.456 79.9359 126.604 79.9269C126.752 79.9179 126.901 79.9165 127.049 79.9229C127.198 79.929 127.345 79.9426 127.492 79.9637C127.639 79.9849 127.784 80.0135 127.929 80.0495C128.945 80.3123 129.872 80.9026 130.382 81.8403C130.958 82.9004 130.849 83.7568 130.52 84.8659C128.083 85.3838 125.765 85.6393 123.277 85.4473Z" fill="white"/>
<path d="M113.565 68.7163C114.307 68.7724 115.011 68.8923 115.672 69.2554C115.789 69.3186 115.902 69.3875 116.012 69.4624C116.122 69.537 116.228 69.617 116.33 69.7025C116.432 69.7879 116.529 69.8784 116.622 69.9738C116.715 70.0691 116.802 70.1689 116.885 70.2731C116.967 70.3774 117.045 70.4855 117.116 70.5976C117.188 70.7096 117.254 70.825 117.314 70.9437C117.373 71.0623 117.427 71.1837 117.475 71.308C117.523 71.4321 117.564 71.5584 117.598 71.6867C117.831 72.5634 117.719 73.5042 117.23 74.2748C116.537 75.3658 115.479 75.7795 114.262 76.0159C113.418 76.0392 112.679 75.9708 111.928 75.5538C111.826 75.4974 111.727 75.4359 111.631 75.3695C111.535 75.3031 111.442 75.232 111.353 75.1564C111.264 75.0807 111.179 75.0009 111.098 74.9169C111.017 74.8327 110.94 74.7447 110.868 74.6529C110.795 74.5611 110.728 74.4658 110.665 74.3671C110.602 74.2686 110.545 74.1672 110.492 74.0629C110.44 73.9584 110.392 73.8517 110.35 73.7428C110.308 73.6336 110.272 73.5227 110.241 73.4101C110.207 73.2886 110.18 73.1657 110.158 73.0412C110.137 72.9167 110.123 72.7915 110.115 72.6655C110.107 72.5396 110.105 72.4136 110.111 72.2874C110.116 72.1613 110.128 72.0358 110.146 71.9109C110.165 71.7862 110.19 71.6627 110.221 71.5405C110.253 71.4182 110.291 71.298 110.335 71.1799C110.379 71.0615 110.429 70.9459 110.486 70.833C110.542 70.72 110.604 70.6103 110.672 70.504C111.365 69.4268 112.36 68.9932 113.565 68.7163Z" fill="#2962FF"/>
<path d="M113.71 69.6401C114.207 69.7027 114.697 69.7843 115.154 70.0026C115.86 70.3402 116.476 71.0096 116.701 71.7642C116.906 72.4508 116.818 73.169 116.438 73.7776C115.911 74.6188 115.07 74.903 114.15 75.1177C113.463 75.0913 112.818 75.0763 112.213 74.7123C112.138 74.6677 112.066 74.6195 111.996 74.5675C111.926 74.5156 111.859 74.4603 111.795 74.4017C111.731 74.3428 111.67 74.2808 111.612 74.2158C111.555 74.1508 111.5 74.083 111.449 74.0122C111.399 73.9417 111.352 73.8687 111.308 73.7933C111.265 73.7178 111.226 73.6404 111.19 73.5608C111.155 73.4813 111.124 73.4002 111.097 73.3174C111.07 73.2348 111.047 73.151 111.028 73.0659C111.01 72.9774 110.996 72.8883 110.987 72.7985C110.977 72.7088 110.972 72.6187 110.972 72.5284C110.971 72.438 110.975 72.348 110.983 72.2582C110.992 72.1683 111.004 72.079 111.021 71.9902C111.039 71.9015 111.06 71.8139 111.086 71.7274C111.111 71.6408 111.141 71.5556 111.175 71.472C111.209 71.3884 111.248 71.3067 111.29 71.227C111.332 71.1471 111.378 71.0695 111.428 70.9943C111.985 70.1354 112.742 69.8287 113.71 69.6401Z" fill="white"/>
<path d="M121.723 48.0076C122.763 47.9009 123.737 47.9355 124.685 48.4237C125.64 48.9158 126.4 49.7603 126.701 50.8017C126.957 51.6857 126.858 52.6434 126.368 53.4293C125.668 54.5525 124.599 54.9193 123.375 55.1845C122.355 55.2241 121.35 55.1422 120.408 54.7236C119.433 54.2906 118.614 53.5378 118.276 52.5069C118.243 52.4076 118.215 52.3068 118.193 52.2046C118.17 52.1026 118.153 51.9995 118.141 51.8955C118.129 51.7916 118.122 51.6874 118.12 51.5827C118.119 51.478 118.123 51.3736 118.132 51.2693C118.141 51.1651 118.156 51.0616 118.176 50.959C118.195 50.8562 118.22 50.7547 118.251 50.6545C118.281 50.5543 118.316 50.456 118.356 50.3595C118.396 50.2628 118.442 50.1685 118.491 50.0765C119.181 48.8303 120.442 48.3863 121.723 48.0076Z" fill="#2962FF"/>
<path d="M122.061 48.7707C122.825 48.7348 123.571 48.8212 124.258 49.1812C125.03 49.5854 125.68 50.2858 125.89 51.1465C126.057 51.8334 125.935 52.5144 125.529 53.0937C124.935 53.9406 124.028 54.1642 123.07 54.3684C122.173 54.365 121.282 54.2822 120.487 53.8293C119.808 53.4426 119.235 52.8119 119.066 52.033C118.934 51.4252 119.055 50.8236 119.396 50.3057C120.002 49.3861 121.036 49.0074 122.061 48.7707Z" fill="white"/>
<path d="M127.067 64.105C127.948 64.0556 128.786 63.9869 129.618 64.3389C129.753 64.3974 129.884 64.4626 130.013 64.5346C130.141 64.6063 130.265 64.6844 130.386 64.7688C130.506 64.8531 130.622 64.9432 130.733 65.0393C130.844 65.1354 130.95 65.2368 131.051 65.3435C131.152 65.4502 131.248 65.5618 131.338 65.6783C131.428 65.7946 131.511 65.9152 131.589 66.0399C131.666 66.1648 131.738 66.2931 131.802 66.425C131.867 66.5571 131.925 66.692 131.976 66.8298C132.417 67.9873 132.412 69.332 131.855 70.4503C131.257 71.6505 130.262 72.269 129.018 72.6532C128.006 72.6891 127.168 72.7114 126.243 72.2135C125.07 71.5818 124.24 70.4831 123.88 69.2075C123.581 68.1453 123.667 66.977 124.234 66.0175C124.888 64.9123 125.873 64.4279 127.067 64.105Z" fill="#2962FF"/>
<path d="M127.33 65.0427C128.083 64.9991 128.803 64.9642 129.489 65.3226C130.307 65.7504 130.89 66.5106 131.147 67.3909C131.409 68.2888 131.337 69.2841 130.865 70.1019C130.342 71.0081 129.564 71.4334 128.592 71.7262C127.999 71.7167 127.417 71.7029 126.863 71.4662C125.898 71.0541 125.127 70.1798 124.786 69.1946C124.51 68.3955 124.505 67.5072 124.891 66.7421C125.401 65.7296 126.295 65.3453 127.33 65.0427Z" fill="white"/>
<path d="M110.213 55.8348C110.327 55.825 110.44 55.8167 110.554 55.81C111.509 55.7563 112.542 55.8891 113.265 56.5793C113.794 57.085 114.021 57.7906 114.037 58.5096C114.081 60.5224 112.495 62.572 111.193 63.9872C110.034 65.2484 109.056 65.9028 107.32 65.9767C106.936 65.873 106.54 65.7663 106.175 65.6078C104.988 65.0929 104.026 63.8621 103.603 62.6659C103.259 61.6907 103.223 60.5865 103.697 59.6467C104.699 57.6596 108.222 56.445 110.213 55.8348Z" fill="#2962FF"/>
<path d="M110.318 56.7499C110.501 56.7278 110.685 56.7112 110.87 56.6999C111.497 56.6665 112.151 56.8091 112.587 57.2973C112.894 57.641 113.013 58.105 113.013 58.5563C113.01 60.3511 111.351 62.4951 110.11 63.7137C109.078 64.7269 108.482 65.0519 107.035 65.0498C106.007 64.6754 105.247 64.1163 104.762 63.1103C104.364 62.2829 104.111 61.2293 104.451 60.3398C105.162 58.4757 108.578 57.5046 110.318 56.7499Z" fill="white"/>
<path d="M166.58 247.242C167.488 244.398 167.91 241.4 168.72 238.521C170.652 231.654 175.039 225.701 181.448 222.397C186.812 219.631 193.318 219.011 199.077 220.915C203.205 222.281 206.451 225.391 210.942 225.7C215.137 225.988 218.307 224.309 222.19 223.169C227.756 221.535 233.867 222.239 238.19 226.307C239.705 227.732 241.464 229.422 242.368 231.312C244.731 236.255 243.12 242.979 241.255 247.842C239.088 253.494 234.808 259.398 229.136 261.891C223.013 264.582 217.053 262.09 210.835 263.645C206.063 264.838 201.917 267.811 197.679 270.194C191.117 273.884 182.519 276.961 175.135 273.995C170.334 272.066 166.06 267.83 164.061 263.061C162.392 259.078 161.513 254.108 163.237 249.996C163.608 249.114 164.096 248.281 164.624 247.484C164.903 247.346 165.152 247.095 165.443 246.988C165.896 246.82 166.179 247.057 166.58 247.242Z" fill="#2962FF"/>
<path d="M164.623 247.484C164.902 247.346 165.151 247.095 165.443 246.988C165.895 246.821 166.178 247.058 166.58 247.242C167.262 247.84 168.029 248.305 168.74 248.863C167.278 248.64 165.973 248.062 164.623 247.484Z" fill="#212121"/>
<path d="M225.47 247.516C225.522 247.505 225.573 247.49 225.625 247.482C226.062 247.423 226.264 247.406 226.619 247.659C226.61 247.941 226.654 247.953 226.457 248.194C225.973 248.788 225.401 248.729 224.693 248.78C224.258 248.827 223.899 248.804 223.532 248.58C223.515 248.296 223.467 248.369 223.625 248.169C224.124 247.544 224.739 247.581 225.47 247.516Z" fill="#212121"/>
<path d="M240.107 241.607C240.126 241.618 240.147 241.626 240.164 241.641C240.497 241.922 240.572 241.995 240.675 242.404C240.325 243.271 238.236 244.065 237.389 244.496C237.026 244.339 236.981 244.327 236.77 243.998C237.073 243.072 239.253 242.11 240.107 241.607Z" fill="#212121"/>
<path d="M232.383 245.465C232.519 245.455 232.733 245.493 232.871 245.505C233.087 245.8 233.175 245.937 233.188 246.305C232.708 247.142 231.072 247.461 230.177 247.759C229.977 247.79 229.823 247.758 229.624 247.729C229.309 247.43 229.336 247.452 229.323 247.015C229.941 245.984 231.3 245.8 232.383 245.465Z" fill="#212121"/>
<path d="M175.374 251.096C176.47 251.339 179.053 251.278 179.794 252.071C179.968 252.257 179.886 252.798 179.887 253.053C178.731 252.815 176.531 253.064 175.642 252.228C175.296 251.901 175.38 251.525 175.374 251.096Z" fill="#212121"/>
<path d="M183.509 252.548C184.738 252.521 187.114 252.418 188.129 253.138C188.291 253.532 188.263 253.596 188.181 254.02C186.95 254.054 184.524 254.233 183.539 253.427C183.395 253.036 183.423 252.962 183.509 252.548Z" fill="#212121"/>
<path d="M168.683 248.655C169.767 248.99 171.672 249.385 172.489 250.215C172.868 250.599 172.738 250.92 172.713 251.414C171.649 251.276 169.247 250.803 168.682 249.807C168.444 249.387 168.591 249.093 168.683 248.655Z" fill="#212121"/>
<path d="M196.161 240.865C197.888 241.162 199.755 240.993 201.501 240.975L208.919 240.958C209.958 240.961 211.355 240.826 212.343 241.104C212.621 241.182 212.864 241.39 213.08 241.574C213.726 241.324 214.518 240.963 215.203 241.235L215.283 241.526C214.164 242.197 212.505 242.475 211.535 243.293C209.885 244.683 208.137 248.366 206.889 250.252C205.491 252.364 203.998 254.42 202.53 256.484C202.422 256.624 202.258 256.763 202.132 256.887C199.986 257.268 192.412 254.193 189.923 253.519L189.63 253.442C189.252 253.214 189.004 253.068 188.779 252.669C188.737 252.293 188.776 252.064 188.965 251.731C189.851 250.164 191.031 248.678 192.053 247.19C193.478 245.116 194.82 242.994 196.161 240.865Z" fill="#212121"/>
<path d="M211.301 242.032L211.328 242.348C210.747 242.932 209.692 243.076 208.954 243.463C206.574 244.249 204.269 245.294 201.959 246.269C199.491 247.31 197.054 248.422 194.65 249.604C193.623 250.083 192.591 250.629 191.476 250.863C193.844 248.738 200.343 246.136 203.508 244.804C204.549 244.666 209.449 243.033 210.077 242.359C210.465 242.189 210.889 242.124 211.301 242.032Z" fill="#17A2E6"/>
<path d="M196.745 241.773C200.912 241.861 205.125 241.582 209.282 241.722L209.277 241.933C207.064 242.416 204.589 243.446 202.553 244.437C200.208 245.242 192.493 248.885 190.969 250.484C191.335 249.2 195.707 243.433 196.745 241.773Z" fill="#2962FF"/>
<path d="M208.981 244.189L209.817 243.892L209.9 243.992C207.647 248.256 204.286 251.921 201.962 256.122C200.824 256.59 191.665 253.377 190.226 252.884L189.711 252.608L189.734 252.426C191.247 251.493 193.149 251.262 194.705 250.328C197.303 249.107 199.918 247.923 202.55 246.776C204.717 246.129 206.893 245.064 208.981 244.189Z" fill="#2962FF"/>
<path d="M248.553 56.9533C248.502 56.4418 248.427 56.0548 248.676 55.5789L249.009 55.3535C249.379 55.4354 249.627 55.497 249.867 55.8153C250.092 56.1137 250.211 56.5562 250.293 56.9116C255.084 58.7164 259.201 60.2496 262.887 63.9968C263.772 64.8959 264.736 65.9538 265.267 67.1074C265.313 67.2079 265.357 67.3097 265.397 67.4131C265.625 67.697 265.891 67.6992 266.241 67.7308C267.138 67.8117 268.052 67.7519 268.946 67.8549C270.318 67.242 271.935 64.6926 272.979 64.4727L273.227 64.7186C273.438 65.7437 272.633 66.8728 272.17 67.7461C276.202 67.6979 279.192 68.4363 282.136 71.3344C286.057 75.1944 287.218 80.7765 287.216 86.0985C287.215 92.4794 282.764 98.2372 279.173 103.174C277.441 105.555 275.636 108.076 273.543 110.155C273.162 110.532 272.777 110.905 272.387 111.274C273.104 112.449 274.563 116.066 274.329 117.362L274.088 117.542C273.419 117.213 273.016 116.052 272.506 115.445C271.828 114.637 270.935 113.984 270.082 113.374C266.668 117.758 261.978 119.882 256.524 120.581C255.154 120.757 253.787 120.828 252.406 120.854C252.134 121.647 251.622 123.767 250.902 124.199C250.185 123.576 250.113 121.89 249.953 120.955C245.889 120.726 241.964 120.086 238.338 118.121C236.942 117.365 235.703 116.371 234.192 115.839C234.132 115.818 234.071 115.798 234.012 115.777C231.098 116.296 228.351 116.425 225.401 116.385L225.367 116.403C224.417 116.134 223.427 115.994 222.47 115.742C218.896 114.802 215.654 113.325 212.918 110.8C209.012 107.194 207.069 102.319 206.887 97.0618C206.625 89.5421 210.483 83.9358 215.953 79.1381C217.954 77.3826 220.1 75.7828 222.036 73.9546C224.676 71.4635 226.744 68.5029 229.223 65.8707C235.458 59.2497 239.414 57.2173 248.553 56.9533Z" fill="#212121"/>
<path d="M238.933 94.9014C239.521 95.7152 239.765 96.1932 239.814 97.196L238.166 96.6636L238.933 94.9014Z" fill="#F6BC90"/>
<path d="M245.197 103.32C246.151 103.188 247.081 103.163 247.975 103.572C247.398 103.916 246.523 104.661 245.843 104.604C245.383 104.246 245.369 103.868 245.197 103.32Z" fill="#F6BC90"/>
<path d="M266.098 82.4302C267.377 82.8797 268.753 83.2553 269.578 84.4053C268.39 84.1786 267.144 84.0673 266.093 83.4357C265.849 83.0005 265.97 82.8975 266.098 82.4302Z" fill="#F6BC90"/>
<path d="M258.082 105.732C259.195 106.405 260.331 107.056 261.42 107.765C260.103 107.903 258.627 107.715 257.301 107.663L258.082 105.732Z" fill="#F6BC90"/>
<path d="M254.219 102.943C255.53 102.266 256.95 102.658 258.323 102.93L257.714 104.764L254.219 102.943Z" fill="#F6BC90"/>
<path d="M248.905 62.0399C249.236 61.2775 249.059 59.5542 249.696 59.063C250.05 59.3577 250.154 59.7578 250.311 60.1755C250.604 60.9642 250.886 61.7602 251.195 62.5431C250.318 62.5783 249.528 62.6396 248.757 63.0904L248.905 62.0399Z" fill="#F36337"/>
<path d="M245.314 105.824L246.057 108.092L245.832 108.115C245.272 108.168 244.713 108.08 244.155 108.17C242.964 108.364 239.692 109.663 238.724 109.106C240.944 108.061 243.141 106.967 245.314 105.824Z" fill="#F6BC90"/>
<path d="M262.836 91.771C263.755 92.6382 264.4 94.5654 264.942 95.7343C264.1 96.1342 263.23 96.4874 262.375 96.8597L260.887 97.5426L262.836 91.771Z" fill="#F36337"/>
<path d="M240.373 91.3408L240.472 91.3565C241.125 93.7066 242.071 95.9613 242.833 98.2761L239.814 97.1961C239.765 96.1934 239.521 95.7154 238.933 94.9015C239.444 93.7286 239.814 92.4913 240.373 91.3408Z" fill="#F36337"/>
<path d="M238.426 84.2157C239.925 83.6919 241.409 83.1264 242.877 82.519C242.13 84.6159 241.462 86.8534 240.489 88.8527L240.333 88.8653C239.698 87.3201 239.106 85.74 238.426 84.2157Z" fill="#F36337"/>
<path d="M252.562 102.135C254.845 101.025 257.117 99.8847 259.461 98.9087C259.062 100.244 258.683 101.584 258.323 102.93C256.95 102.658 255.53 102.267 254.219 102.943L252.562 102.135Z" fill="#F36337"/>
<path d="M256.81 76.332C257.491 76.846 258.491 80.096 258.832 81.0454C257.884 80.7132 256.939 80.3748 255.995 80.0301L252.543 78.7201C253.98 77.9499 255.402 77.1538 256.81 76.332Z" fill="#F36337"/>
<path d="M232.656 69.0063C233.512 69.4494 234.428 70.0232 235.352 70.2841C236.321 71.1734 237.568 71.7039 238.631 72.4662C237.354 73.3162 236.194 73.5204 234.697 73.6305C234.453 73.6483 234.553 73.6317 234.311 73.7145L233.598 71.9593C233.272 70.9789 232.958 69.9945 232.656 69.0063Z" fill="#F36337"/>
<path d="M243.999 99.4263C246.27 100.278 248.548 101.133 250.749 102.155C249.86 102.618 248.91 103.229 247.975 103.572C247.081 103.163 246.151 103.188 245.197 103.32C244.807 102.021 244.44 100.71 243.999 99.4263Z" fill="#F36337"/>
<path d="M245.569 76.3438C247.148 77.2704 248.857 78.0266 250.502 78.8324C249.689 79.2409 248.848 79.5601 248 79.8867C246.756 80.3335 245.52 80.7585 244.247 81.1188C244.735 79.546 245.134 77.9325 245.569 76.3438Z" fill="#F36337"/>
<path d="M260.128 82.2261L264.88 83.8473L263.413 87.9106L262.842 89.3404C262.002 86.9462 261.049 84.5894 260.128 82.2261Z" fill="#F36337"/>
<path d="M227.12 114.219C229.083 111.602 230.741 108.765 232.627 106.093C232.871 107.71 232.505 109.572 233.02 111.119C231.08 112.183 229.127 113.291 227.12 114.219Z" fill="#F36337"/>
<path d="M229.371 88.0586C228.624 89.77 227.363 91.3856 227.059 93.2479C225.037 92.8318 222.942 92.4905 220.97 91.8842C222.604 91.1063 224.305 90.382 225.865 89.4639C226.98 89.2766 228.237 88.3977 229.371 88.0586Z" fill="#F36337"/>
<path d="M271.417 85.6592C273.455 86.1668 275.496 86.6619 277.54 87.1446C279.045 87.4862 280.607 87.7428 282.079 88.2049C278.83 89.9445 275.159 90.9868 271.784 92.4988C271.864 92.3154 271.974 92.1431 272.072 91.9689C273.681 91.0895 275.116 89.9975 276.252 88.556C274.688 86.3589 272.837 87.0912 271.417 85.6592Z" fill="#F36337"/>
<path d="M230.594 86.7217C231.532 85.2416 232.67 83.8921 233.579 82.3831C234.262 81.2494 234.717 80.0195 235.376 78.8813L235.447 78.7607C236.109 80.4589 236.801 82.1519 237.426 83.8642C235.165 84.7988 232.901 85.9315 230.594 86.7217Z" fill="#F6BC90"/>
<path d="M239.005 71.7965C240.048 71.1384 241.416 70.7941 242.57 70.3421C243.997 69.7834 245.4 69.1545 246.806 68.5439C246.271 70.763 245.719 72.9776 245.148 75.1876C243.087 74.084 241.006 73.005 239.005 71.7965Z" fill="#F6BC90"/>
<path d="M269.06 105.292C270.506 108.34 271.879 111.451 272.668 114.739L272.574 114.894C272.082 114.236 271.589 113.504 270.982 112.949C268.911 111.056 265.934 109.912 263.64 108.244C265.361 108.3 266.9 108.16 268.593 107.829C268.693 106.975 268.754 106.103 269.06 105.292Z" fill="#F36337"/>
<path d="M229.983 94.7964C230.61 94.965 231.242 95.1242 231.862 95.3168C233.623 95.8704 235.373 96.4559 237.112 97.0735C235.86 99.6517 234.4 102.72 232.508 104.867C232.468 103.294 233.121 101.746 233.636 100.285C232.795 98.9118 230.273 96.1208 229.983 94.7964Z" fill="#F6BC90"/>
<path d="M248.327 112.64C249.098 113.019 249.45 113.903 250.336 114.167C252.389 114.778 253.978 111.586 255.029 111.058C255.095 111.025 255.164 110.997 255.231 110.966C254.038 114.373 252.795 118.076 251.185 121.302C250.077 119.439 248.885 114.89 248.327 112.64Z" fill="#F36337"/>
<path d="M265.397 67.4131C265.625 67.697 265.89 67.6992 266.241 67.7308C267.138 67.8117 268.052 67.7519 268.945 67.855C266.973 69.593 264.575 70.8735 262.352 72.2574C260.693 73.2899 259.044 74.4299 257.32 75.3443C256.714 73.8657 256.141 72.362 255.435 70.9284L256.134 70.7932C256.366 70.1851 256.052 69.6758 256.36 69.0732C257.158 68.4698 263.824 67.6789 265.397 67.4131Z" fill="#F6BC90"/>
<path d="M238.631 72.4663C240.716 73.6595 242.812 74.831 244.922 75.9807L244.481 77.4002C244.149 78.8368 243.787 80.2556 243.206 81.6146C242.1 82.1531 240.956 82.5888 239.811 83.0347L238.108 83.6345C236.778 80.3526 235.512 77.046 234.311 73.7146C234.553 73.6318 234.453 73.6484 234.697 73.6306C236.194 73.5205 237.354 73.3163 238.631 72.4663Z" fill="#F6BC90"/>
<path d="M239.811 83.0346C239.788 81.8808 239.077 78.6662 239.63 77.8123C240.629 77.1251 243.262 77.4311 244.481 77.4001C244.149 78.8367 243.787 80.2556 243.205 81.6146C242.1 82.1531 240.956 82.5888 239.811 83.0346Z" fill="#F36337"/>
<path d="M260.623 98.3159C261.896 97.8568 263.993 96.5521 265.213 96.5098L265.468 96.7631C266.274 99.6927 268.166 102.362 269.06 105.293C268.754 106.103 268.693 106.975 268.593 107.829C266.9 108.16 265.361 108.3 263.64 108.244C261.889 107.181 260.149 106.099 258.342 105.132L259.03 103.139L260.623 98.3159Z" fill="#F6BC90"/>
<path d="M260.622 98.3159C261.896 97.8568 263.992 96.5521 265.213 96.5098L265.468 96.7631C264.626 97.2466 263.745 97.5885 262.844 97.9436C263.373 100.108 263.975 102.26 264.464 104.434C262.671 103.92 260.874 103.432 259.029 103.139L260.622 98.3159Z" fill="#F36337"/>
<path d="M265.633 84.2012C267.492 84.8307 269.506 85.2048 271.417 85.6589C272.837 87.091 274.687 86.3587 276.252 88.5558C275.116 89.9973 273.681 91.0892 272.072 91.9687C271.973 92.1429 271.864 92.3152 271.784 92.4986C269.709 93.5415 267.578 94.401 265.444 95.3077L264.753 93.7509C264.254 92.6758 263.812 91.5688 263.349 90.4778C263.869 88.9109 264.436 87.361 265.05 85.8282L265.633 84.2012Z" fill="#F6BC90"/>
<path d="M265.05 85.8286C266.236 87.1944 267.731 88.1349 269.224 89.129C267.948 90.6447 266.365 92.6124 264.753 93.7513C264.254 92.6762 263.812 91.5692 263.349 90.4782C263.869 88.9113 264.436 87.3614 265.05 85.8286Z" fill="#F36337"/>
<path d="M248.522 104.17C249.422 103.534 250.587 103.069 251.577 102.568L253.901 103.747C255.072 104.313 256.237 104.908 257.44 105.404C256.803 107.109 256.224 109.456 255.231 110.966C255.164 110.997 255.095 111.025 255.029 111.058C253.977 111.586 252.389 114.778 250.336 114.167C249.45 113.903 249.098 113.019 248.327 112.64C247.412 110.315 246.673 107.939 245.951 105.549L248.522 104.17Z" fill="#F6BC90"/>
<path d="M248.521 104.17C249.422 103.534 250.587 103.069 251.577 102.568L253.9 103.747C253.128 105.598 252.104 107.308 251.025 108.994C250.483 107.447 250.057 105.469 248.768 104.377C248.717 104.333 248.667 104.289 248.616 104.245C248.585 104.22 248.553 104.195 248.521 104.17Z" fill="#F36337"/>
<path d="M271.401 67.3809C270.428 69.6938 269.615 72.0651 268.656 74.3824C267.441 77.316 266.085 80.2076 265.024 83.2005C263.299 82.5393 261.578 81.9073 259.818 81.3474C259.197 79.8191 258.64 77.8373 257.728 76.477L257.712 76.1906C258.344 75.2861 267.887 69.5899 269.643 68.3839C270.219 68.0263 270.782 67.662 271.401 67.3809Z" fill="#F36337"/>
<path d="M269.643 68.3838C269.799 69.8391 269.234 71.0614 268.339 72.1742C267.288 73.4814 265.895 74.5997 264.958 75.9823C264.076 77.2837 263.644 78.8359 262.883 80.2051C261.99 79.0469 261.174 77.7983 260.247 76.6741C259.412 76.6131 258.557 76.584 257.728 76.477L257.712 76.1906C258.344 75.286 267.887 69.5898 269.643 68.3838Z" fill="#F6BC90"/>
<path d="M229.372 88.0584C232.013 86.6837 234.907 85.6335 237.67 84.5259C238.147 85.4731 238.569 86.3979 238.916 87.4009C239.1 88.2819 239.466 89.0718 239.826 89.8918L239.814 90.2358C239.288 91.7939 238.786 93.4142 238.03 94.8781L237.387 96.4125C235.785 95.9571 234.226 95.3616 232.618 94.9179C230.802 94.2392 228.949 93.6825 227.06 93.2477C227.363 91.3854 228.625 89.7697 229.372 88.0584Z" fill="#F6BC90"/>
<path d="M232.879 91.1412C234.469 89.2256 236.687 88.3621 238.916 87.4014C239.1 88.2823 239.466 89.0722 239.826 89.8922L239.814 90.2363C239.288 91.7943 238.786 93.4146 238.03 94.8785L232.879 91.1412Z" fill="#F36337"/>
<path d="M250.292 56.9116C255.084 58.7165 259.2 60.2497 262.886 63.9969C263.771 64.8959 264.736 65.9538 265.266 67.1074C265.312 67.208 265.357 67.3098 265.396 67.4131C263.824 67.679 257.158 68.4698 256.36 69.0733C256.051 69.6758 256.366 70.1852 256.133 70.7932L255.434 70.9285C254.097 68.0433 252.987 65.0419 251.855 62.0724C251.564 61.3055 251.322 60.5085 251.058 59.7312C250.737 58.8128 250.527 57.8555 250.292 56.9116Z" fill="#F36337"/>
<path d="M237.831 97.3501C238.48 97.5609 239.127 97.7775 239.772 97.9999C240.862 98.3525 241.962 98.6871 243.032 99.0955C243.478 100.462 243.959 101.826 244.363 103.205L245.097 105.276C241.072 107.214 237 109.09 233.02 111.119C232.505 109.572 232.871 107.71 232.628 106.093C234.506 103.276 236.305 100.374 237.831 97.3501Z" fill="#F6BC90"/>
<path d="M239.772 98C240.862 98.3526 241.962 98.6872 243.032 99.0956C243.478 100.462 243.959 101.826 244.363 103.205C242.206 103.225 240.047 103.689 237.962 104.198C238.695 102.163 239.359 100.127 239.772 98Z" fill="#F36337"/>
<path d="M248.757 63.0903C249.528 62.6396 250.318 62.5782 251.195 62.543L251.254 62.5604C252.64 66.8905 255.432 71.3065 256.551 75.4814C256.406 75.7561 256.273 75.857 256.016 76.0272C254.547 76.5825 253.019 77.5963 251.619 78.3472C249.858 77.5699 248.117 76.7846 246.408 75.8966C246.157 75.7564 246.088 75.7071 245.912 75.5019C246.553 71.3583 247.905 67.2137 248.757 63.0903Z" fill="#F6BC90"/>
<path d="M250.833 71.6694C252.059 72.4922 255.64 74.2011 255.929 75.5402C255.953 75.6524 255.969 75.7661 255.989 75.8793C255.997 75.9287 256.008 75.978 256.017 76.0271C254.548 76.5824 253.019 77.5962 251.62 78.3471C249.859 77.5698 248.117 76.7845 246.408 75.8965C247.316 75.8584 247.688 75.7312 248.318 75.0787C249.308 74.0539 249.796 72.6758 250.833 71.6694Z" fill="#F36337"/>
<path d="M257.3 107.663C258.626 107.715 260.103 107.902 261.419 107.765C263.118 108.883 264.827 109.985 266.546 111.072C267.727 111.809 269 112.495 270.081 113.374C266.667 117.758 261.977 119.882 256.523 120.581C255.153 120.757 253.786 120.828 252.405 120.854C253.686 116.338 255.784 112.102 257.3 107.663Z" fill="#F36337"/>
<path d="M251.606 79.1162C254.095 80.0948 256.605 81.015 259.137 81.8769C260.245 84.747 261.216 87.75 262.439 90.5683C261.49 93.0092 260.724 95.5166 259.782 97.9627C257.097 99.165 254.482 100.594 251.784 101.739C249.18 100.497 246.504 99.4356 243.757 98.5548C242.879 95.9946 241.921 93.4317 241.146 90.84C241.014 90.3429 241.011 90.0574 241.083 89.5478L243.763 82.2059C246.415 81.282 249.074 80.3419 251.606 79.1162Z" fill="#F36337"/>
<path d="M272.169 67.7463C276.202 67.6982 279.191 68.4366 282.135 71.3346C286.056 75.1946 287.217 80.7767 287.216 86.0988C287.214 92.4796 282.764 98.2374 279.173 103.174C277.44 105.555 275.636 108.076 273.542 110.155C273.161 110.533 272.776 110.906 272.387 111.274C271.854 110.445 271.539 109.262 271.15 108.339C270.342 106.421 269.448 104.54 268.667 102.61C267.657 100.546 266.904 98.3625 265.816 96.3344L265.815 96.2115C266.524 95.1931 277.599 90.9924 279.275 90.3923C280.998 89.7757 283.204 89.3403 284.77 88.4516L284.78 88.2216C284.454 87.754 284.015 87.5939 283.486 87.4336C282.132 87.0227 280.657 86.9068 279.267 86.6372C276.033 86.0098 272.737 85.3358 269.578 84.4055C268.753 83.2556 267.377 82.8799 266.098 82.4304C268.034 77.5254 270.027 72.5649 272.169 67.7463Z" fill="#F36337"/>
<path d="M265.816 96.3342L266.12 96.2919C266.407 96.2502 266.662 96.1809 266.939 96.0963C267.364 95.9659 267.71 95.8761 268.126 96.0999C268.544 96.3244 268.731 96.9616 268.822 97.3958C269.096 98.7024 269.221 101.405 268.667 102.61C267.657 100.546 266.904 98.3623 265.816 96.3342Z" fill="#F6BC90"/>
<path d="M248.553 56.9531C248.682 58.4428 248.459 59.9242 248.27 61.4003C247.807 63.7857 247.369 66.1796 246.806 68.5438C245.401 69.1544 243.997 69.7833 242.57 70.342C241.417 70.794 240.048 71.1383 239.005 71.7964C237.992 71.2797 237.064 70.5388 236.061 69.9841C234.808 69.0667 232.798 67.1551 231.268 66.914L231.016 67.0824C230.878 68.3433 232.545 71.2263 233.076 72.5047C233.903 74.5739 234.761 76.6391 235.447 78.7605L235.376 78.881C234.718 80.0192 234.263 81.2492 233.58 82.3828C232.67 83.8918 231.532 85.2413 230.594 86.7215C229.047 87.3556 227.485 87.9665 225.967 88.6693C224.082 89.5515 221.652 91.047 219.572 91.2822C218.932 91.3545 218.084 91.2503 217.821 91.9365C218.046 92.3079 218.401 92.4272 218.805 92.5311C222.467 93.4716 226.349 93.6375 229.984 94.7963C230.274 96.1206 232.796 98.9117 233.637 100.285C233.122 101.746 232.469 103.294 232.509 104.867C231.185 106.906 229.825 108.922 228.431 110.913C227.521 112.191 226.421 113.453 225.697 114.847C225.52 115.189 225.46 115.528 225.422 115.909C225.781 115.956 226.001 115.943 226.337 115.79C227.575 115.23 228.775 114.33 229.965 113.651C232.774 112.047 235.773 110.42 238.724 109.107C239.693 109.663 242.965 108.364 244.155 108.17C244.714 108.08 245.272 108.168 245.832 108.115L246.058 108.092C247.45 112.331 248.984 116.597 249.953 120.955C245.889 120.726 241.964 120.086 238.338 118.121C236.942 117.365 235.703 116.371 234.192 115.839C234.132 115.817 234.071 115.798 234.012 115.777C231.098 116.296 228.351 116.425 225.401 116.385L225.367 116.403C224.417 116.134 223.427 115.994 222.47 115.742C218.896 114.802 215.654 113.324 212.918 110.8C209.012 107.194 207.069 102.319 206.887 97.0617C206.625 89.542 210.483 83.9357 215.953 79.138C217.954 77.3824 220.1 75.7827 222.036 73.9545C224.676 71.4634 226.744 68.5027 229.223 65.8705C235.458 59.2496 239.414 57.2171 248.553 56.9531Z" fill="#F36337"/>
<path d="M67.247 213.406C72.6448 211.736 75.0789 209.092 79.5721 206.162C80.4598 205.595 81.3727 205.073 82.3111 204.595C83.2492 204.117 84.2083 203.686 85.1886 203.301C90.3398 201.247 95.6668 201.163 100.782 203.417C101.118 203.565 101.45 203.722 101.777 203.888C102.104 204.054 102.427 204.229 102.745 204.413C103.062 204.597 103.375 204.789 103.682 204.99C103.989 205.191 104.291 205.4 104.587 205.617C104.883 205.835 105.172 206.06 105.456 206.293C105.74 206.526 106.017 206.767 106.287 207.015C106.557 207.263 106.821 207.519 107.077 207.781C107.334 208.044 107.583 208.313 107.825 208.589C111.319 212.612 113.166 217.608 115.922 222.09C119.137 227.319 123.386 231.775 125.595 237.61C127.316 242.159 127.36 246.747 125.319 251.191C121.979 258.461 114.971 263.177 107.631 265.851C99.428 268.84 89.7594 269.148 81.3132 266.938C77.8841 266.041 74.5202 264.653 71.3091 263.165C61.7971 258.758 49.0792 249.981 45.4142 239.809C43.9117 235.64 43.7988 230.968 45.7288 226.919C49.8127 218.352 57.8074 216.224 66.0174 213.363C66.1026 213.923 66.0852 214.127 66.4553 214.572L66.8306 214.691C67.1164 214.528 67.2314 214.466 67.3019 214.107C67.3405 213.909 67.2737 213.608 67.247 213.406Z" fill="#FBB554"/>
<path d="M90.9255 212.129C90.9687 212.137 91.0119 212.144 91.0549 212.153C91.4471 212.233 91.7077 212.325 91.9914 212.632C93.1848 213.924 94.0425 215.832 94.9477 217.34C96.5189 219.958 98.1356 222.548 99.7978 225.11C102.157 225.788 111.547 227.334 112.954 228.657C113.168 228.858 113.313 229.148 113.305 229.443C113.253 231.364 106.089 237.954 104.366 239.658C104.713 242.14 106.169 251.408 105.265 253.263C105.052 253.698 104.709 253.936 104.251 254.066C101.972 254.713 93.6116 250.115 91.2787 248.885C89.4981 248.727 80.0741 254.43 76.5615 253.981C76.2754 253.945 75.982 253.825 75.8305 253.57C75.5876 253.161 75.5757 252.693 75.5793 252.228C75.5922 250.618 75.9439 248.962 76.134 247.362C76.4499 244.702 76.5514 241.973 77.1478 239.358C75.2325 237.594 69.8694 231.54 69.1963 229.129C69.1285 228.887 69.0687 228.507 69.2297 228.29C70.157 227.039 80.845 225.23 82.7268 224.839C84.9242 221.301 88.0995 214.93 90.9255 212.129Z" fill="#212121"/>
<path d="M99.5138 225.934C100.466 226.038 101.545 226.447 102.5 226.646C105.984 227.373 109.497 227.816 112.79 229.247C111.285 232.068 106.08 237.342 103.533 239.362C99.5718 238.094 95.8182 235.935 91.9082 234.447C92.783 234.222 93.6775 234.047 94.5591 233.85C99.0134 232.987 103.443 232.212 107.918 231.474C108.46 231.385 109.193 231.282 109.533 230.803L109.323 230.622C107.205 230.426 94.893 233.233 92.0048 233.808C94.4073 231.059 96.9034 228.487 99.5138 225.934Z" fill="#F36337"/>
<path d="M82.1559 225.739C82.327 225.706 82.5005 225.725 82.6741 225.731C83.7323 226.55 84.659 227.661 85.5976 228.617C87.3635 230.415 89.173 232.176 90.8592 234.05C86.8438 233.743 81.5552 232.104 77.5725 231.108C76.1656 230.756 74.4902 230.182 73.0514 230.107C72.6877 230.088 72.826 230.034 72.5884 230.248C73.3415 231.089 83.8108 233.319 85.643 233.696C87.2206 233.981 88.8047 234.224 90.3953 234.425L78.0549 239.486C77.3833 238.284 76.4208 237.258 75.5223 236.224C73.439 233.825 71.1895 231.521 69.6514 228.72C72.6822 227.372 78.719 226.356 82.1559 225.739Z" fill="#F36337"/>
<path d="M91.6437 234.81C92.4783 235.046 93.3241 235.536 94.1112 235.914C96.7863 237.198 100.68 239.507 103.556 240.007C103.876 242.209 105.243 250.832 104.585 252.576C104.499 252.802 104.435 252.966 104.205 253.058C102.042 253.918 93.6194 249.284 91.2156 248.062C91.1773 245.11 91.3444 242.141 91.4177 239.188L91.5419 235.475C94.1207 238.987 96.5012 242.695 98.9926 246.274C100.352 248.227 101.594 250.276 103.347 251.907C102.527 249.992 101.147 248.196 99.9386 246.505L94.8612 239.435C93.7662 237.918 92.5783 236.432 91.6437 234.81Z" fill="#F36337"/>
<path d="M83.165 225.379C84.3885 223.467 90.0497 213.517 91.3152 212.937C92.5847 214.362 93.4513 216.346 94.4286 217.992C95.9558 220.511 97.5153 223.009 99.107 225.487C97.5863 226.962 96.0326 228.423 94.5813 229.967C94.0023 230.582 91.8059 233.494 91.2116 233.612L91.0865 233.531C88.3117 230.977 85.9181 227.979 83.165 225.379Z" fill="#F36337"/>
<path d="M91.2702 216.5C91.8967 218.309 91.4653 231.172 91.0866 233.531C90.6471 231.213 90.4475 218.172 91.2702 216.5Z" fill="#212121"/>
<path d="M90.5272 234.722L90.7283 234.819C90.6139 235.343 79.0015 249.557 77.3895 252.319C79.7978 250.542 81.5386 247.608 83.3208 245.233C85.8138 241.912 88.266 238.496 90.9454 235.324L90.904 237.897C90.5848 241.237 90.6244 244.711 90.6195 248.065C86.1198 250.121 81.3881 252.605 76.4453 253.269C76.4717 248.873 77.2193 244.404 77.7847 240.05C81.4215 239.104 87.0039 236.441 90.5272 234.722Z" fill="#F36337"/>
<path d="M182.566 116.099C182.863 115.872 182.752 116.008 182.914 115.701C182.101 114.179 180.609 112.877 179.58 111.454C176.633 107.376 174.055 102.593 170.498 99.0171C169.738 98.2536 168.918 97.5229 168.021 96.924C167.232 96.3969 166.348 95.9679 165.655 95.3108C165.32 94.9925 165.111 94.7318 165.111 94.2651L165.364 94.1382C166.438 94.2562 167.288 94.8723 168.168 95.4534C173.268 98.8221 176.454 104.366 179.882 109.295C181.229 111.253 182.652 113.153 184.153 114.995C185.996 113.922 193.978 107.673 194.864 107.492C195.093 107.445 195.036 107.486 195.256 107.661C195.275 107.801 195.295 107.871 195.254 108.023C194.843 109.567 187.488 114.443 185.799 115.657L185.306 115.988C185.247 116.413 185.35 116.544 185.615 116.877C189.112 121.267 195.28 125.356 200.38 127.601C202.719 128.63 205.197 129.332 207.471 130.505C208.622 131.099 212.33 133.689 213.298 133.71C213.386 133.712 213.473 133.706 213.56 133.706C213.631 133.705 213.703 133.707 213.775 133.706C213.822 133.706 213.87 133.704 213.917 133.702C216.557 133.538 219.247 133.38 221.882 133.682C227.703 134.349 234.247 137.371 239.034 140.76C241.478 142.49 243.78 144.55 246.026 146.533C250.112 150.141 252.663 154.332 254.689 159.345C254.864 159.768 255.107 160.119 254.918 160.588C254.77 160.953 254.578 160.971 254.243 161.046C253.832 160.81 253.662 160.52 253.527 160.058C252.423 157.214 250.9 154.294 249.045 151.874C247.412 149.742 245.435 148.003 243.409 146.263C239.499 142.906 235.704 139.969 230.944 137.888C226.015 135.733 219.868 134.244 214.475 135.091C216.34 137.014 218.247 138.938 219.776 141.148C222.814 145.538 224.394 151.615 224.306 156.918C224.148 166.444 219.385 176.121 212.542 182.658C205.762 189.136 196.984 193.181 187.505 192.948C181.926 192.81 176.709 191.048 171.734 188.629C170.143 187.855 168.559 186.88 166.916 186.239C160.491 188.127 154.859 189.01 148.16 188.915C144.638 199.197 142.635 210.522 145.852 221.166C146.153 222.163 147.111 223.422 146.243 224.292C145.888 224.338 145.729 224.388 145.438 224.115C144.831 223.546 144.649 222.182 144.451 221.387C144.272 220.676 144.11 219.961 143.963 219.242C143.816 218.523 143.685 217.802 143.571 217.077C143.456 216.353 143.358 215.626 143.275 214.897C143.193 214.168 143.127 213.438 143.077 212.706C143.027 211.974 142.993 211.241 142.976 210.508C142.959 209.775 142.958 209.041 142.973 208.308C142.988 207.574 143.02 206.842 143.068 206.11C143.115 205.378 143.18 204.647 143.26 203.918C143.781 198.954 145.056 193.864 146.679 189.151C145.377 188.718 143.608 188.803 142.225 188.645C138.003 188.165 133.621 186.859 129.911 184.784C127.671 183.531 125.561 181.75 123.652 180.043C122.881 179.354 118.585 174.865 118.559 174.851C118.412 174.775 118.24 174.76 118.081 174.715C113.871 174.945 109.643 175.072 105.435 174.755C95.7177 174.023 86.9886 171.277 78.8157 165.912C76.0997 164.129 73.5651 162.241 71.4336 159.766C71.8822 159.564 72.4133 159.558 72.8978 159.504C77.161 158.535 79.2496 159.427 83.5922 157.1C87.6558 154.922 90.6891 151.617 92.0046 147.144C93.3155 142.686 92.7678 137.357 90.9709 133.106C90.2788 131.469 89.3509 129.938 88.5092 128.375C87.8671 127.817 87.3522 126.639 87.1183 125.832C87.1741 125.857 87.2299 125.882 87.2851 125.907C88.8637 126.639 90.2319 127.748 91.7798 128.536C96.2743 130.823 101.781 132.522 106.822 132.943C110.598 133.241 114.323 133.604 118.12 133.631C132.183 133.733 149.525 130.814 162.706 125.802C169.643 123.164 176.152 119.808 182.566 116.099Z" fill="#212121"/>
<path d="M151.975 179.608C157.1 181.357 162.099 183.781 166.916 186.239C160.491 188.127 154.859 189.01 148.16 188.915C149.319 185.751 150.587 182.677 151.975 179.608Z" fill="#65D0D2"/>
<path d="M118.081 174.715C119.46 174.642 120.839 174.601 122.22 174.592C123.6 174.584 124.98 174.609 126.36 174.666C127.739 174.723 129.117 174.812 130.492 174.935C131.867 175.057 133.238 175.212 134.606 175.399C135.974 175.586 137.337 175.806 138.694 176.057C140.052 176.309 141.402 176.593 142.746 176.908C144.09 177.224 145.426 177.571 146.754 177.95C148.081 178.329 149.399 178.739 150.707 179.181C149.246 182.488 147.803 185.706 146.68 189.151C145.377 188.718 143.609 188.803 142.225 188.645C138.003 188.165 133.622 186.859 129.911 184.784C127.672 183.531 125.561 181.75 123.652 180.043C122.882 179.354 118.586 174.865 118.559 174.851C118.412 174.775 118.241 174.76 118.081 174.715Z" fill="#65D0D2"/>
<path d="M88.5098 128.375C94.2078 131.424 99.54 133.247 105.873 134.357C102.645 140.872 100.852 147.462 103.302 154.624C106.06 162.688 112.951 166.762 116.912 173.403C115.071 173.445 113.228 173.51 111.387 173.51C99.4002 173.51 88.0756 170.84 78.2067 163.793C76.3521 162.469 74.5104 161.123 72.8984 159.505C77.1617 158.536 79.2502 159.427 83.5928 157.1C87.6564 154.923 90.6897 151.617 92.0052 147.144C93.3161 142.686 92.7684 137.357 90.9715 133.107C90.2794 131.469 89.3515 129.938 88.5098 128.375Z" fill="#FBF6DF"/>
<path d="M95.2644 159.736C95.5965 159.725 95.9608 159.704 96.2812 159.808C96.6486 159.927 96.8053 160.171 96.9629 160.494C96.9512 161.02 96.8516 161.208 96.5633 161.648C96.2619 161.632 95.8899 161.64 95.6017 161.546C95.2067 161.419 95.0749 161.207 94.8955 160.86C94.9105 160.358 95.0007 160.164 95.2644 159.736Z" fill="#212121"/>
<path d="M213.843 136.494C219.341 141.98 222.879 148.539 222.916 156.467C222.959 165.605 218.208 174.957 211.867 181.34C205.624 187.626 197.3 191.565 188.375 191.545C183.252 191.534 178.354 190.226 173.722 188.083C172.168 187.363 170.674 186.497 169.115 185.796C169.413 185.653 169.715 185.557 170.027 185.451C175.405 183.618 180.88 180.914 184.204 176.106C184.955 175.02 185.513 173.773 186.097 172.591C188.916 173.442 191.683 173.822 194.634 173.713C200.369 173.501 205.404 170.948 209.258 166.743C213.004 162.654 214.497 157.405 214.233 151.935C213.983 146.752 211.712 143.539 208.013 140.15C210.671 139.623 212.081 138.475 213.843 136.494Z" fill="#FBF6DF"/>
<path d="M152.601 178.215C153.951 175.54 155.419 172.932 157.005 170.39C158.591 167.848 160.289 165.383 162.098 162.994C168.877 154.11 179.008 144.313 189.57 140.252C192.633 139.074 195.893 138.475 199.093 137.794C203.583 136.838 208.039 135.925 212.591 135.31L213.843 136.494C212.081 138.475 210.671 139.623 208.013 140.15C211.712 143.539 213.983 146.752 214.233 151.935C214.497 157.405 213.004 162.654 209.257 166.743C205.404 170.948 200.368 173.502 194.634 173.714C191.683 173.822 188.916 173.442 186.097 172.591C185.512 173.773 184.955 175.02 184.204 176.106C180.88 180.914 175.405 183.619 170.026 185.451C169.715 185.557 169.413 185.653 169.115 185.796C166.219 184.269 163.311 182.761 160.309 181.45C157.756 180.335 155.133 179.377 152.601 178.215Z" fill="#65D0D2"/>
<path d="M183.784 116.864C188.117 121.919 193.534 126.294 199.684 128.957C203.472 130.596 207.218 131.874 210.74 134.1C206.705 134.602 202.796 135.423 198.822 136.272C195.431 136.996 191.979 137.673 188.746 138.96C178.758 142.934 168.343 152.594 161.793 161.009C160.774 162.314 159.79 163.644 158.841 164.999C157.891 166.355 156.978 167.734 156.1 169.137C155.222 170.54 154.381 171.965 153.578 173.411C152.774 174.858 152.008 176.325 151.28 177.811C138.824 173.792 129.937 173.059 116.911 173.403C112.951 166.762 106.059 162.687 103.301 154.624C100.852 147.462 102.645 140.871 105.873 134.357C106.576 134.428 107.28 134.494 107.984 134.553C108.688 134.613 109.392 134.666 110.098 134.714C110.803 134.762 111.508 134.804 112.214 134.84C112.919 134.877 113.625 134.907 114.332 134.932C115.038 134.956 115.744 134.975 116.45 134.988C117.157 135.001 117.864 135.008 118.57 135.009C119.277 135.01 119.984 135.005 120.69 134.995C121.397 134.985 122.103 134.968 122.81 134.946C123.516 134.924 124.222 134.896 124.928 134.862C125.634 134.828 126.339 134.789 127.044 134.743C127.749 134.698 128.454 134.646 129.159 134.589C129.863 134.532 130.567 134.469 131.27 134.4C131.973 134.332 132.676 134.257 133.378 134.177C134.08 134.096 134.782 134.01 135.482 133.918C136.183 133.826 136.883 133.729 137.582 133.625C138.281 133.521 138.979 133.412 139.676 133.297C140.373 133.182 141.069 133.061 141.765 132.935C142.46 132.808 143.154 132.676 143.847 132.538C144.54 132.4 145.232 132.256 145.923 132.106C146.613 131.957 147.303 131.802 147.991 131.641C148.679 131.48 149.366 131.313 150.051 131.141C150.736 130.969 151.42 130.791 152.102 130.608C152.785 130.424 153.466 130.235 154.145 130.04C154.824 129.845 155.502 129.645 156.178 129.439C156.854 129.233 157.528 129.021 158.201 128.804C158.873 128.587 159.544 128.365 160.212 128.136C160.881 127.908 161.548 127.674 162.213 127.435C162.878 127.196 163.541 126.951 164.201 126.701C164.862 126.451 165.521 126.195 166.178 125.934C166.834 125.673 167.489 125.407 168.141 125.135C168.794 124.863 169.444 124.585 170.091 124.303C170.739 124.02 171.384 123.732 172.027 123.439C176.145 121.517 179.822 119.035 183.784 116.864Z" fill="#65D0D2"/>
<path d="M115.815 151.314C116.405 151.267 116.75 151.248 117.208 151.631C117.259 152.136 117.176 152.253 116.972 152.704C116.498 152.684 116.205 152.621 115.838 152.31C115.673 151.854 115.701 151.792 115.815 151.314Z" fill="#212121"/>
<path d="M120.078 165.979C120.621 165.995 120.9 166.056 121.303 166.414C121.421 166.888 121.278 167.152 121.094 167.577C120.552 167.553 120.349 167.482 119.982 167.101C119.864 166.617 119.92 166.432 120.078 165.979Z" fill="#212121"/>
</svg>
