<svg width="382" height="382" viewBox="0 0 382 382" fill="none" xmlns="http://www.w3.org/2000/svg">
<path d="M232.963 55.7148C233.366 55.8506 233.817 55.979 234.076 56.3505C234.309 56.684 234.378 57.0436 234.268 57.4357C234.11 57.9986 233.65 58.2702 233.192 58.5634C232.808 58.3933 232.433 58.2113 232.151 57.8882C231.885 57.5846 231.773 57.1044 231.887 56.7195C232.041 56.1953 232.523 55.957 232.963 55.7148Z" fill="#212121"/>
<path d="M43.081 255.193C43.9543 255.102 44.9048 254.968 45.617 255.622C45.8386 255.825 45.9841 256.077 46.0072 256.374C46.0676 257.14 45.6737 257.613 45.2189 258.17C44.6829 258.311 44.1144 258.402 43.5794 258.197C43.1396 258.029 42.7986 257.682 42.6729 257.223C42.4793 256.517 42.7774 255.816 43.081 255.193Z" fill="#212121"/>
<path d="M44.0493 255.777C44.4604 255.901 44.6828 256.085 45.0069 256.362C45.1211 256.906 45.0398 256.972 44.8066 257.488C44.3713 257.44 44.1933 257.365 43.8475 257.097C43.7431 256.514 43.8553 256.325 44.0493 255.777Z" fill="#FEB777"/>
<path d="M46.5445 198.764C47.9214 200.444 49.3263 202.086 50.8539 203.632C52.5558 205.354 55.0727 207.226 56.2885 209.287C58.1675 213.039 65.4751 222.1 68.5035 225.335C65.659 228.521 63.9971 232.035 62.3818 235.946C60.0969 234.239 50.3731 215.419 48.5119 211.722C47.1141 208.944 45.8905 205.395 43.957 202.968C44.6979 201.378 45.319 200.05 46.5445 198.764Z" fill="white"/>
<path d="M322.258 275.032L323.055 275.077C323.531 275.373 323.615 275.44 323.883 275.929C323.919 276.59 323.791 276.875 323.454 277.438C323.252 277.411 322.883 277.392 322.687 277.302C322.208 277.084 322.116 276.882 321.883 276.445C321.858 275.816 321.975 275.569 322.258 275.032Z" fill="#212121"/>
<path d="M37.2421 192.158C36.3285 188.149 34.4447 184.241 33.2262 180.289C30.4441 171.265 29.6373 161.331 29.8589 151.923C29.9663 147.364 30.1632 142.768 30.8149 138.25C34.3608 113.668 47.0066 90.7271 64.896 73.658C66.0701 72.546 67.264 71.456 68.4776 70.3878C69.6915 69.3194 70.9245 68.2735 72.1764 67.2501C73.4284 66.227 74.6986 65.227 75.9871 64.2501C77.2756 63.2732 78.5815 62.3202 79.9048 61.3911C81.2281 60.4617 82.568 59.5569 83.9244 58.6768C85.2805 57.7964 86.6525 56.9411 88.0402 56.111C89.4277 55.2808 90.8299 54.4763 92.2467 53.6973C93.6638 52.9184 95.0945 52.1656 96.539 51.4389C115.012 42.3019 136.88 37.3698 157.358 41.3995C160.142 41.9471 162.942 42.5492 165.622 43.4904C169.018 44.683 172.431 46.4222 175.524 48.2669C188.602 56.0669 197.956 69.9223 213.57 73.0678C225.8 75.5318 236.107 70.2457 247.383 66.5275C249.344 65.8807 252.186 64.6784 254.25 64.7272C254.683 64.5657 254.905 64.6 255.364 64.6127C255.53 64.3833 255.693 64.2147 255.937 64.0654C257.464 63.1287 266.437 60.0067 267.986 60.4223C268.3 59.2811 268.815 56.5661 269.808 55.9864C270.589 56.788 270.297 58.4936 270.285 59.5546C270.539 59.0733 270.531 59.0207 271.069 58.8461C272.905 58.25 274.913 58.0657 276.795 57.6322C280.111 56.8686 283.306 56.0434 286.691 55.5909C299.262 53.9111 312.96 55.7495 324.176 61.8275C336.545 68.5312 344.542 79.8282 348.477 93.1493C353.477 110.079 350.474 123.355 344.676 139.328C342.435 145.504 340.085 151.674 338.975 158.175C338.57 160.663 338.357 163.167 338.338 165.688C338.311 167.646 339.328 174.382 338.635 175.727C338.059 174.779 337.474 173.863 336.764 173.009C329.679 164.483 316.885 164.054 306.648 163.088C306.856 161.987 306.878 160.852 306.896 159.734C307.031 151.684 304.503 142.521 298.78 136.673C289.61 127.302 276.493 126.309 264.131 126.227C237.83 127.024 219.151 146.523 192.785 147.157C189.84 147.228 186.191 147.236 183.316 146.548C179.188 145.672 175.041 144.654 170.873 144.008C157.071 141.868 146.546 144.28 134.517 151.222L134.004 151.627C134.075 152.138 134.1 152.617 134.324 153.088C135.018 152.463 135.786 151.946 136.571 151.444C139.448 149.605 142.749 148.204 145.979 147.098C159.261 142.548 170.908 144.938 184.065 147.824C186.947 151.884 189.742 155.763 193.604 158.973C194.733 159.912 195.929 160.846 197.167 161.638C198.135 162.259 201.772 163.903 202.142 164.633C194.036 166.823 184.921 166.67 176.64 165.62C171.576 164.979 166.555 164.062 161.434 163.998C160.538 163.991 159.642 164.009 158.747 164.051C157.852 164.093 156.959 164.159 156.067 164.25C155.176 164.34 154.287 164.455 153.402 164.594C152.516 164.733 151.636 164.895 150.759 165.082C149.883 165.268 149.012 165.478 148.147 165.712C147.282 165.946 146.424 166.203 145.572 166.484C144.721 166.764 143.878 167.068 143.044 167.394C142.209 167.72 141.384 168.068 140.568 168.439C137.583 169.816 134.658 171.422 132.061 173.452C127.047 177.369 122.594 183.489 119.429 188.981C113.947 198.492 109.261 210.626 97.6077 213.784C93.9776 214.768 90.1677 215.125 86.4671 215.778C80.2961 216.867 74.3095 219.576 69.9355 224.142C66.5602 220.544 63.4253 216.747 60.531 212.751C59.2552 211.001 58.1521 209.109 56.8367 207.393C56.977 207.921 57.3325 208.786 57.196 209.293L56.9703 209.131L56.2887 209.287C55.073 207.226 52.556 205.354 50.8542 203.632C49.3265 202.086 47.9216 200.444 46.5447 198.764C45.3193 200.05 44.6981 201.378 43.9573 202.968C43.5592 203.514 43.1616 204.067 42.7221 204.579C41.9622 205.467 40.3771 207.113 39.2431 207.197C38.8935 205.605 42.1763 198.703 42.862 196.701C39.0659 195.832 35.3383 195.07 32.0474 192.877C33.7607 192.519 35.5044 192.353 37.2421 192.158Z" fill="#EEEEEE"/>
<path d="M172.04 155.276C172.62 155.355 172.899 155.389 173.322 155.82C173.432 156.423 173.375 156.522 173.147 157.101C172.63 156.989 172.311 156.929 171.92 156.538C171.797 155.978 171.879 155.813 172.04 155.276Z" fill="#212121"/>
<path d="M321.74 100.797C322.317 101.065 322.52 101.11 322.888 101.647C322.911 102.222 322.713 102.49 322.412 102.947C321.833 102.775 321.598 102.663 321.251 102.179C321.273 101.524 321.415 101.35 321.74 100.797Z" fill="#212121"/>
<path d="M333.769 96.9048C334.313 96.9201 334.653 96.9186 335.123 97.2398C335.396 97.74 335.289 98.1116 335.2 98.6439C334.6 98.729 334.323 98.7599 333.804 98.4582C333.57 97.9217 333.686 97.4614 333.769 96.9048Z" fill="#212121"/>
<path d="M79.1603 201.909C79.3196 201.927 79.5993 201.95 79.7437 202.006C80.1712 202.174 80.2425 202.447 80.41 202.829C80.357 203.439 80.2067 203.612 79.8276 204.059C79.2621 203.843 79.1659 203.833 78.8193 203.347C78.7507 202.772 78.9338 202.418 79.1603 201.909Z" fill="#212121"/>
<path d="M71.3893 209.383C71.54 209.454 71.7717 209.557 71.9015 209.653C72.2984 209.948 72.3246 210.123 72.4148 210.574C72.2126 211.153 71.9247 211.361 71.4595 211.717C70.9503 211.338 70.7048 211.126 70.5205 210.501C70.6798 209.93 70.9476 209.735 71.3893 209.383Z" fill="#212121"/>
<path d="M318.84 151.211C319.117 151.222 319.434 151.22 319.703 151.293C320.195 151.428 320.345 151.667 320.568 152.092C320.548 152.693 320.317 152.996 319.991 153.471C319.783 153.46 319.419 153.468 319.212 153.394C318.684 153.203 318.61 153.061 318.373 152.596C318.391 151.97 318.526 151.727 318.84 151.211Z" fill="#212121"/>
<path d="M336.303 140.219C336.974 140.25 337.505 140.343 337.966 140.904C338.286 141.293 338.374 141.731 338.281 142.221C338.13 143.014 337.651 143.321 337.027 143.73C336.476 143.627 335.83 143.395 335.471 142.933C335.166 142.539 334.991 142.126 335.08 141.62C335.211 140.881 335.717 140.573 336.303 140.219Z" fill="#212121"/>
<path d="M44.8666 179.253C46.2958 183.455 46.6043 187.857 47.8212 192.092C51.4819 191.517 55.1635 190.375 58.8093 189.945C56.3386 192.593 52.9237 194.652 49.9043 196.639C51.5057 199.139 52.7752 201.814 54.2641 204.378C54.9926 205.632 55.9316 206.782 56.6314 208.04C56.8232 208.384 56.9104 208.745 56.9698 209.131L56.2882 209.287C55.0724 207.226 52.5555 205.354 50.8537 203.632C49.326 202.086 47.9211 200.444 46.5442 198.764C45.3188 200.05 44.6976 201.378 43.9568 202.968C43.5587 203.514 43.1611 204.067 42.7216 204.58C41.9617 205.467 40.3766 207.113 39.2426 207.197C38.893 205.605 42.1758 198.703 42.8615 196.701C39.0654 195.832 35.3378 195.07 32.0469 192.877C33.7602 192.519 35.5039 192.353 37.2416 192.158C39.4925 192.113 41.7991 192.225 43.9982 192.746C43.6953 188.235 43.5826 183.636 44.8666 179.253Z" fill="#2962FF"/>
<path d="M267.985 60.4222C268.299 59.2811 268.814 56.566 269.807 55.9863C270.588 56.788 270.296 58.4936 270.284 59.5545C270.274 62.7489 270.058 65.9299 270.011 69.1206C272.961 69.1295 281.98 68.3234 284.267 69.3004C283.006 70.6989 272.699 72.3325 270.367 72.5608C271.776 76.8053 273.314 81.0991 273.78 85.5731C271.198 81.8471 269.524 77.529 266.807 73.9191C263.84 76.3454 260.703 79.4372 257.128 80.8868C258.78 77.0486 261.637 74.2141 264.707 71.4566C261.079 69.7186 256.721 68.0652 254.249 64.7272C254.683 64.5657 254.904 64.6 255.363 64.6127C255.529 64.3832 255.692 64.2146 255.936 64.0654C257.463 63.1287 266.436 60.0067 267.985 60.4222Z" fill="#2962FF"/>
<path d="M255.363 64.6131C255.529 64.3836 255.693 64.215 255.936 64.0658C257.463 63.1291 266.436 60.0071 267.985 60.4226C267.366 63.1324 266.56 65.9519 266.265 68.7188C262.804 67.2192 259.066 65.3625 255.363 64.6131Z" fill="white"/>
<path d="M68.7012 113.341C69.7341 110.595 71.449 107.886 73.058 105.426C85.0403 87.1085 104.529 74.5868 125.859 70.1576C153.315 64.456 178.923 72.2691 201.927 87.3842L200.044 88.5522C197.519 86.1099 193.734 84.2532 190.649 82.5872C175.781 74.5573 159.383 69.6499 142.392 69.9319C141.704 69.9381 141.016 69.9529 140.328 69.9763C139.64 69.9997 138.953 70.0315 138.265 70.0718C137.579 70.1121 136.892 70.161 136.206 70.2184C135.52 70.2759 134.835 70.3417 134.151 70.4158C133.467 70.4901 132.784 70.5729 132.102 70.6642C131.42 70.7555 130.739 70.8552 130.059 70.9634C129.379 71.0713 128.701 71.1879 128.025 71.3129C127.348 71.4378 126.673 71.571 125.999 71.7125C125.326 71.8542 124.654 72.0042 123.984 72.1624C123.314 72.3205 122.647 72.4871 121.981 72.6619C121.315 72.8367 120.652 73.0198 119.991 73.211C119.33 73.4023 118.671 73.6016 118.015 73.809C117.359 74.0167 116.705 74.2323 116.055 74.4559C115.404 74.6797 114.756 74.9115 114.111 75.1512C113.466 75.391 112.824 75.6387 112.185 75.8943C111.546 76.15 110.91 76.4136 110.278 76.6852C109.645 76.9565 109.016 77.2357 108.391 77.5227C107.765 77.8097 107.143 78.1044 106.525 78.4068C105.907 78.7092 105.292 79.0192 104.682 79.3368C104.072 79.6544 103.465 79.9794 102.863 80.312C102.26 80.6447 101.662 80.9848 101.068 81.3322C100.474 81.6797 99.884 82.0344 99.2988 82.3965C98.7134 82.7586 98.1327 83.1278 97.5567 83.5041C96.9805 83.8806 96.4091 84.2641 95.8426 84.6546C95.276 85.0453 94.7144 85.4428 94.1575 85.8472C93.6007 86.2519 93.0489 86.6632 92.5023 87.0813C91.9557 87.4996 91.4144 87.9245 90.8784 88.356C90.3422 88.7875 89.8116 89.2257 89.2866 89.6706C88.7614 90.1153 88.2417 90.5664 87.7277 91.024C87.2136 91.4816 86.7053 91.9454 86.2027 92.4155C85.7001 92.8858 85.2034 93.3621 84.7127 93.8446C84.222 94.3271 83.7373 94.8155 83.2586 95.3099C78.9868 99.7451 74.4002 105.294 71.8986 110.939C71.3875 111.875 71.0238 112.849 69.8975 113.146C69.5081 113.248 69.1003 113.294 68.7012 113.341Z" fill="#212121"/>
<path d="M284.239 105.314C284.613 95.54 287.567 86.6738 294.862 79.8467C297.554 77.3275 300.799 75.4578 304.087 73.832C300.49 81.6201 300.641 91.5018 303.602 99.4854C306.476 107.233 312.711 114.801 320.327 118.254C325.755 120.714 331.584 121.694 337.483 120.791C332.821 128.043 327.881 132.889 319.139 134.823C311.893 136.426 303.967 134.827 297.739 130.846C291.106 126.607 286.783 120.337 285.138 112.644C284.741 110.786 284.576 108.906 284.445 107.013C293.427 110.443 300.413 116.8 308.209 122.203C311.027 124.157 313.803 126.188 317.046 127.375C313.588 124.904 310.039 122.531 306.7 119.898C303.469 117.35 300.504 114.473 297.191 112.028C293.22 109.095 288.79 107.141 284.239 105.314Z" fill="#FEB777"/>
<path d="M300.031 102.9C300.342 102.955 300.86 103.008 301.132 103.193C301.48 103.429 301.722 103.713 301.741 104.148C301.764 104.706 301.375 105.172 301.06 105.591C300.659 105.594 300.202 105.582 299.854 105.349C299.484 105.1 299.301 104.725 299.292 104.284C299.281 103.7 299.667 103.299 300.031 102.9Z" fill="#212121"/>
<path d="M71.8984 110.939C74.4001 105.294 78.9867 99.7451 83.2584 95.31C83.7372 94.8155 84.2219 94.3271 84.7126 93.8446C85.2032 93.3622 85.6999 92.8858 86.2025 92.4155C86.7051 91.9454 87.2135 91.4816 87.7275 91.024C88.2416 90.5664 88.7612 90.1153 89.2865 89.6706C89.8115 89.2257 90.3421 88.7875 90.8783 88.356C91.4142 87.9245 91.9555 87.4996 92.5022 87.0813C93.0488 86.6632 93.6005 86.2519 94.1574 85.8472C94.7142 85.4429 95.2759 85.0453 95.8424 84.6546C96.409 84.2642 96.9803 83.8807 97.5566 83.5041C98.1326 83.1279 98.7133 82.7587 99.2987 82.3966C99.8839 82.0345 100.474 81.6797 101.068 81.3323C101.662 80.9848 102.26 80.6447 102.862 80.312C103.465 79.9795 104.071 79.6544 104.682 79.3368C105.292 79.0192 105.907 78.7092 106.525 78.4068C107.143 78.1044 107.765 77.8097 108.391 77.5227C109.016 77.2357 109.645 76.9565 110.277 76.6852C110.91 76.4136 111.546 76.15 112.184 75.8944C112.823 75.6387 113.465 75.391 114.111 75.1512C114.756 74.9115 115.404 74.6797 116.054 74.4559C116.705 74.2323 117.359 74.0167 118.015 73.809C118.671 73.6016 119.33 73.4023 119.991 73.211C120.652 73.0198 121.315 72.8367 121.981 72.6619C122.647 72.4871 123.314 72.3206 123.984 72.1624C124.654 72.0042 125.325 71.8543 125.999 71.7125C126.672 71.571 127.347 71.4378 128.024 71.313C128.701 71.1879 129.379 71.0714 130.059 70.9634C130.739 70.8552 131.42 70.7555 132.102 70.6642C132.784 70.573 133.467 70.4901 134.151 70.4158C134.835 70.3417 135.52 70.2759 136.206 70.2184C136.892 70.161 137.578 70.1121 138.265 70.0718C138.952 70.0316 139.64 69.9997 140.328 69.9763C141.015 69.953 141.703 69.9382 142.392 69.9319C159.382 69.6499 175.78 74.5574 190.649 82.5872C193.734 84.2532 197.519 86.1099 200.044 88.5522C198.505 89.48 196.928 90.3753 195.523 91.5023C195.012 91.9641 194.523 92.4248 193.943 92.7971C188.288 97.8239 184.696 102.955 182.098 110.003C181.766 110.711 181.456 111.445 181.052 112.116C179.661 116.672 178.619 121.456 178.502 126.231C174.886 126.675 171.238 126.644 167.601 126.66C157.797 126.706 149.141 127.114 139.978 131.178C137.505 132.275 135.344 133.946 132.95 135.179C132.186 132.896 131.525 130.582 130.553 128.375C127.839 122.215 122.998 116.374 117.719 112.241C114.406 109.32 109.949 107.219 105.787 105.849C104.553 106.545 103.068 104.629 100.481 105.704L100.139 105.794C89.8166 104.634 80.8743 105.996 72.3796 112.435L71.3556 113.263C69.4727 114.86 67.6923 116.565 66.0143 118.376L65.8375 118.262C66.014 117.21 68.5242 115.247 69.3576 114.461L69.3139 114.341C69.6821 114.285 69.9921 113.895 70.2727 113.649L70.32 113.766L70.6562 113.309C68.3407 113.147 66.606 117.074 64.652 117.927C64.558 117.968 64.4617 118.004 64.3662 118.042C65.4421 116.243 67.3868 114.975 68.701 113.341C69.1002 113.294 69.5079 113.248 69.8974 113.146C71.0236 112.849 71.3873 111.875 71.8984 110.939Z" fill="white"/>
<path d="M174.639 92.3862C175.072 92.4332 175.325 92.4929 175.702 92.7149C175.922 93.2599 175.816 93.4927 175.716 94.062C175.28 94.1049 175.119 94.0515 174.74 93.8351C174.47 93.3479 174.576 92.9133 174.639 92.3862Z" fill="#212121"/>
<path d="M133.035 110.335C133.106 110.335 133.177 110.332 133.247 110.335C133.833 110.358 134.11 110.437 134.484 110.865C134.539 111.443 134.4 111.686 134.15 112.189C133.598 112.075 133.339 112.027 132.912 111.628C132.791 111.042 132.862 110.891 133.035 110.335Z" fill="#212121"/>
<path d="M153.706 107.634C154.039 107.618 154.374 107.603 154.708 107.615C155.41 107.64 156.032 107.948 156.498 108.476C156.9 108.931 157.096 109.504 157.012 110.114C156.888 111.022 156.325 111.598 155.625 112.124C155.266 112.201 154.902 112.23 154.535 112.212C153.894 112.181 153.27 111.894 152.851 111.402C152.44 110.918 152.286 110.284 152.373 109.661C152.505 108.72 152.992 108.209 153.706 107.634Z" fill="#212121"/>
<path d="M71.8984 110.939C73.808 109.732 75.7337 108.558 77.7765 107.586C86.4457 103.461 96.6825 102.594 105.787 105.848C104.553 106.545 103.068 104.629 100.481 105.704L100.139 105.794C89.8166 104.634 80.8743 105.996 72.3796 112.435L71.3556 113.263C69.4727 114.86 67.6923 116.565 66.0143 118.376L65.8375 118.262C66.014 117.21 68.5242 115.247 69.3576 114.461L69.3139 114.341C69.6821 114.285 69.9921 113.895 70.2727 113.649L70.32 113.766L70.6562 113.309C68.3407 113.147 66.606 117.073 64.652 117.927C64.558 117.968 64.4617 118.004 64.3662 118.042C65.4421 116.243 67.3868 114.975 68.701 113.341C69.1002 113.294 69.5079 113.248 69.8974 113.146C71.0236 112.849 71.3873 111.875 71.8984 110.939Z" fill="#104D60"/>
<path d="M181.052 112.116C175.928 106.97 165.347 100.036 158.661 96.9182C146.812 91.3933 133.366 88.9823 120.516 92.1846C117.018 93.0564 114.865 94.2367 111.639 95.3271C111.057 95.5237 110.654 95.6416 110.094 95.3629C110.068 95.1477 109.994 95.0044 110.128 94.8127C111.558 92.7744 123.273 89.9441 125.718 89.6042C141.83 87.3641 157.646 92.5487 170.957 101.498C174.88 104.136 178.338 107.178 182.098 110.003C181.766 110.711 181.456 111.445 181.052 112.116Z" fill="#212121"/>
<path d="M193.943 92.797C188.087 88.8677 181.999 85.5703 175.34 83.2026C151.524 74.7359 124.542 77.4543 103.582 91.7909C101.27 93.396 99.055 95.1259 96.9374 96.9807C95.3068 98.4117 91.6453 102.662 90.0035 103.347C89.6327 103.501 89.7898 103.484 89.4093 103.331C89.3089 102.84 89.5205 102.468 89.7711 102.058C90.9488 100.132 93.0364 98.4192 94.6995 96.8878C95.316 96.3235 95.9415 95.7694 96.5759 95.2255C97.2106 94.6814 97.8538 94.1478 98.5057 93.6248C99.1575 93.1018 99.8177 92.5894 100.486 92.0878C101.155 91.5862 101.831 91.0955 102.516 90.6158C103.2 90.1363 103.892 89.668 104.592 89.2109C105.292 88.7538 105.998 88.3081 106.713 87.8739C107.427 87.4397 108.148 87.0172 108.876 86.6066C109.604 86.196 110.338 85.7973 111.079 85.4103C111.82 85.0236 112.567 84.6489 113.32 84.2863C114.073 83.9237 114.832 83.5735 115.596 83.2358C116.361 82.8978 117.13 82.5724 117.905 82.2595C118.68 81.9467 119.46 81.6465 120.245 81.359C121.03 81.0715 121.819 80.7969 122.613 80.5353C123.406 80.2734 124.204 80.0245 125.006 79.7885C125.808 79.5527 126.613 79.3299 127.422 79.12C128.231 78.9103 129.043 78.7138 129.859 78.5306C147.513 74.7285 167.341 77.1018 183.695 84.7145C187.79 86.6212 191.733 89.0527 195.523 91.5021C195.013 91.964 194.523 92.4247 193.943 92.797Z" fill="#212121"/>
<path d="M201.927 87.3842C204.628 86.083 207.29 84.8956 210.179 84.0548C218.188 81.7228 227.635 81.8545 235.519 84.6449C242.826 87.2313 251.185 92.5901 255.287 99.3008C262.441 98.254 270.292 99.4 276.968 102.036C279.446 103.014 281.788 104.284 284.239 105.314C288.79 107.142 293.22 109.095 297.191 112.028C300.504 114.473 303.469 117.35 306.7 119.898C310.039 122.531 313.588 124.905 317.046 127.376C313.803 126.188 311.027 124.157 308.209 122.203C300.413 116.8 293.427 110.443 284.445 107.014C281.801 105.963 279.262 104.659 276.608 103.633C270.023 101.087 263.243 100.335 256.242 100.578C261.878 108.805 263.75 116.376 264.13 126.227C237.83 127.025 219.15 146.524 192.784 147.158C189.84 147.228 186.191 147.237 183.315 146.548C179.187 145.672 175.041 144.655 170.872 144.008C157.07 141.868 146.545 144.281 134.517 151.222C134.134 148.852 134.627 144.721 134.4 141.969C134.266 140.355 133.247 138.287 133.411 136.763C132.956 136.209 132.939 135.863 132.95 135.179C135.345 133.946 137.505 132.275 139.978 131.178C149.141 127.114 157.797 126.706 167.601 126.66C171.238 126.644 174.886 126.675 178.502 126.231C178.619 121.456 179.661 116.672 181.053 112.116C181.456 111.445 181.766 110.711 182.099 110.003C184.696 102.955 188.288 97.8239 193.943 92.7971C194.524 92.4248 195.013 91.9641 195.523 91.5023C196.928 90.3753 198.505 89.48 200.044 88.5522L201.927 87.3842Z" fill="#F36337"/>
<path d="M255.287 99.3005C262.441 98.2537 270.292 99.3997 276.968 102.036C279.446 103.014 281.788 104.284 284.239 105.314C288.79 107.141 293.22 109.095 297.191 112.027C300.504 114.473 303.469 117.35 306.7 119.898C310.039 122.531 313.588 124.904 317.046 127.375C313.803 126.187 311.027 124.157 308.209 122.203C300.413 116.8 293.427 110.443 284.445 107.013C281.801 105.962 279.262 104.659 276.608 103.633C270.023 101.086 263.243 100.335 256.242 100.577C240.243 102.059 227.053 112.209 212.708 118.461C201.38 123.397 190.392 125.833 178.191 127.503C164.65 128.622 151.831 126.317 139.183 133.001C137.112 134.095 135.361 135.51 133.411 136.763C132.956 136.209 132.939 135.863 132.95 135.178C135.345 133.946 137.505 132.274 139.978 131.178C149.141 127.114 157.797 126.706 167.601 126.66C171.238 126.643 174.886 126.675 178.502 126.231C191.977 124.958 205.215 120.873 217.346 114.949C229.985 108.776 241.034 101.24 255.287 99.3005Z" fill="#212121"/>
<path d="M178.192 127.503C178.721 128.036 179.054 133.482 179.265 134.613C179.467 135.647 179.703 136.674 179.973 137.692C180.244 138.711 180.549 139.719 180.888 140.717C181.227 141.715 181.598 142.7 182.004 143.673C182.409 144.646 182.846 145.604 183.316 146.548C179.188 145.672 175.041 144.655 170.873 144.008C157.071 141.868 146.546 144.28 134.517 151.222C134.135 148.852 134.627 144.721 134.4 141.969C134.267 140.355 133.248 138.287 133.411 136.763C135.362 135.51 137.113 134.095 139.183 133.001C151.831 126.317 164.651 128.622 178.192 127.503Z" fill="white"/>
<path d="M171.464 132.519C172.061 132.604 172.223 132.607 172.717 132.984C172.838 133.602 172.751 133.766 172.557 134.349C171.974 134.238 171.835 134.222 171.388 133.844C171.231 133.293 171.31 133.049 171.464 132.519Z" fill="#212121"/>
<path d="M147.303 134.363C147.847 134.586 147.991 134.625 148.365 135.103C148.425 135.668 148.207 135.987 147.943 136.46C147.384 136.236 147.26 136.194 146.891 135.727C146.834 135.118 146.999 134.858 147.303 134.363Z" fill="#212121"/>
<path d="M201.927 87.3842C204.628 86.083 207.29 84.8956 210.179 84.0548C218.188 81.7228 227.635 81.8545 235.519 84.6449C242.826 87.2313 251.185 92.5901 255.287 99.3008C241.034 101.241 229.985 108.777 217.345 114.949C205.215 120.874 191.977 124.959 178.502 126.231C178.619 121.456 179.661 116.672 181.052 112.116C181.456 111.445 181.766 110.711 182.099 110.003C184.696 102.955 188.288 97.8239 193.943 92.7971C194.524 92.4248 195.013 91.9641 195.523 91.5023C196.928 90.3753 198.505 89.48 200.044 88.5522L201.927 87.3842Z" fill="#F36337"/>
<path d="M100.481 105.704C103.069 104.629 104.554 106.545 105.787 105.849C109.949 107.219 114.407 109.32 117.719 112.241C122.998 116.374 127.839 122.215 130.554 128.375C131.526 130.582 132.186 132.896 132.95 135.179C132.939 135.863 132.956 136.209 133.411 136.763C133.247 138.287 134.266 140.355 134.4 141.969C134.627 144.721 134.134 148.852 134.517 151.222L134.004 151.627C134.074 152.139 134.099 152.618 134.324 153.088C133.741 155.306 133.337 157.549 132.691 159.755C130.439 167.444 126.397 174.391 120.256 179.624C112.678 186.082 102.199 189.621 92.2767 188.822C81.8336 187.981 71.0425 182.527 64.2736 174.491C57.22 166.118 53.0564 154.297 54.0234 143.344C54.6691 136.029 57.173 128.838 60.9434 122.555C61.8738 121.004 62.969 119.211 64.3665 118.042C64.462 118.004 64.5582 117.968 64.6522 117.927C66.6062 117.074 68.3409 113.147 70.6564 113.309L70.3203 113.766L70.2729 113.649C69.9924 113.895 69.6824 114.285 69.3142 114.341L69.3578 114.461C68.5245 115.247 66.0142 117.21 65.8378 118.262L66.0146 118.376C67.6926 116.565 69.473 114.86 71.3559 113.263L72.3799 112.435C80.8745 105.996 89.8169 104.634 100.139 105.794L100.481 105.704Z" fill="#0B5A74"/>
<path d="M63.5977 167.901C67.8273 167.582 68.0795 169.805 71.3451 170.366C74.021 170.826 77.5131 169.958 80.424 170.095C79.6182 171.355 78.6781 172.329 77.5761 173.328C76.3932 174.196 75.1991 174.922 73.7479 175.258C71.3851 175.804 68.307 175.02 66.2825 173.705C64.7157 172.688 62.7367 170.293 62.376 168.416C62.6636 167.993 63.1127 168.017 63.5977 167.901Z" fill="white"/>
<path d="M89.0237 185.314C95.1495 184.146 98.229 176.975 103.988 174.911C109.269 173.019 114.364 176.51 119.677 175.223C121.167 174.862 122.567 174.03 123.952 173.386C122.111 175.696 120.2 177.836 117.839 179.627C117.43 180.091 117.041 180.537 116.417 180.699C112.086 183.15 107.842 185.135 103.014 186.464C102.218 186.912 101.793 187.079 100.865 186.919C96.2 187.669 90.8061 187.743 86.3438 185.994C87.2652 185.815 88.1284 185.601 89.0237 185.314Z" fill="white"/>
<path d="M100.865 186.919C102.489 184.837 103.796 182.458 105.991 180.903C109.54 178.388 113.819 178.884 117.839 179.627C117.43 180.091 117.041 180.537 116.417 180.699C113.212 179.987 109.896 179.916 107.012 181.753C105.901 182.461 103.311 184.901 102.955 186.146C102.899 186.34 102.918 186.3 103.014 186.464C102.218 186.912 101.793 187.079 100.865 186.919Z" fill="#2098A6"/>
<path d="M103.014 186.464C102.918 186.3 102.899 186.34 102.955 186.146C103.311 184.901 105.901 182.46 107.012 181.753C109.897 179.916 113.212 179.986 116.417 180.699C112.086 183.15 107.843 185.135 103.014 186.464Z" fill="white"/>
<path d="M81.1797 184.406C85.244 181.604 85.9431 179.18 88.7619 175.448C92.9456 169.909 102.148 169.315 108.445 170.189C111.729 170.645 114.912 171.719 118.258 171.678C120.063 171.657 121.889 171.355 123.554 170.639C124.427 170.264 125.326 169.716 126.272 169.583L126.322 169.848C125.563 171.064 124.959 171.563 123.732 172.261L124.105 172.541L123.951 173.386C122.566 174.03 121.167 174.862 119.677 175.223C114.364 176.51 109.269 173.019 103.988 174.911C98.2287 176.975 95.1492 184.146 89.0234 185.314C87.9852 184.954 87.1559 185.784 86.1214 185.475C86.7444 185.341 87.0798 185.338 87.4454 184.783C84.9419 185.49 83.6056 185.223 81.1797 184.406Z" fill="white"/>
<path d="M123.733 172.261L124.105 172.541L123.952 173.386C122.567 174.031 121.168 174.862 119.677 175.223C114.364 176.51 109.269 173.019 103.988 174.911C98.2293 176.975 95.1498 184.147 89.024 185.314C87.9858 184.954 87.1565 185.785 86.1221 185.476C86.7451 185.341 87.0804 185.338 87.446 184.783C89.1762 183.879 90.9437 183.282 92.5366 182.095C96.2813 179.306 98.9321 175.242 103.561 173.741C111.156 171.279 114.876 176.822 123.733 172.261Z" fill="#2098A6"/>
<path d="M56.709 155.706C57.6953 155.217 58.707 154.65 59.7836 154.393C67.5162 152.547 74.3377 157.793 83.8444 154.327C84.5226 154.082 85.19 153.81 85.8466 153.512C86.5031 153.214 87.1469 152.89 87.7778 152.541C88.4088 152.191 89.0248 151.817 89.6259 151.419C90.227 151.021 90.8114 150.599 91.3792 150.155C95.003 147.314 99.277 140.993 104.493 142.773C106.044 143.303 107.334 144.404 108.611 145.396C112.36 148.308 116.068 150.265 120.836 148.058C125.835 145.745 128.025 140.746 131.749 137.08C132.238 139.42 132.815 141.739 133.079 144.119C129.223 148.859 124.455 154.444 117.962 155.092C111.267 155.761 105.268 151.581 98.507 151.873C92.6039 152.129 88.6023 154.425 83.978 157.864C82.4171 159.025 80.7063 160.313 78.7516 160.703C72.3076 161.988 67.1162 155.413 59.4636 160.669C59.0618 160.977 59.0689 161.109 58.5421 161.065C57.3241 159.876 56.978 157.336 56.709 155.706Z" fill="white"/>
<path d="M122.94 119.581C125.038 121.764 126.604 124.611 128.131 127.209C126.908 131.221 125.201 135.528 121.275 137.625C118.641 139.033 115.76 138.787 113.018 137.911C105.868 135.628 98.0832 129.998 90.4241 133.82C82.4335 137.807 81.9063 150.57 68.8978 146.368C65.5844 145.297 61.3836 143.055 57.9414 144.751C56.9066 145.261 56.1404 146.021 55.3876 146.872C55.3637 143.44 55.8442 139.546 56.9741 136.296C59.6851 136.965 61.9924 138.274 64.5959 139.181C68.9075 140.681 74.3984 140.488 78.3464 138.071C80.7063 136.626 82.6036 134.507 84.6695 132.691C88.5787 129.257 93.8323 126.826 99.124 128.044C105.682 129.553 110.531 135.831 117.934 131.185C120.523 129.562 122.062 126.925 122.662 123.986C122.961 122.52 122.983 121.071 122.94 119.581Z" fill="white"/>
<path d="M113.841 111.382C114.496 111.85 115.16 112.291 115.728 112.867C117.634 114.088 120.019 116.861 121.453 117.607C121.724 121.437 121.742 125.561 118.989 128.601C117.418 130.335 115.073 131.336 112.745 131.395C105.913 131.568 102.995 125.562 94.2858 126.53C82.3401 127.857 80.8497 141.012 67.053 138.517C64.7367 138.098 62.8696 136.713 60.6776 136.077C59.5357 135.555 58.4154 135.33 57.1807 135.188C58.045 132.201 58.8967 128.679 60.7317 126.138C61.0648 125.659 61.345 125.223 61.5696 124.684C62.7316 126.878 63.8664 129.246 66.086 130.561C67.789 131.569 69.8762 131.925 71.8336 131.976C83.1395 132.273 82.6266 119.676 91.4241 117.488C98.0483 115.84 100.908 120.005 105.767 122.942C107.416 123.939 109.633 124.871 111.572 124.327C112.628 124.03 113.531 123.202 114.065 122.261C115.756 119.283 114.647 114.485 113.841 111.382Z" fill="white"/>
<path d="M113.84 111.382C114.496 111.85 115.16 112.291 115.728 112.867C116.134 116.339 117.247 120.443 114.888 123.485C113.91 124.747 112.517 125.595 110.916 125.753C104.012 126.437 100.407 117.423 92.6997 118.637C90.3834 119.002 88.4313 120.334 86.9223 122.078C82.5036 127.186 81.1308 132.587 73.3054 133.226C70.1703 133.482 66.667 132.938 64.2388 130.803C62.7839 129.524 61.7211 127.782 60.7314 126.138C61.0646 125.659 61.3447 125.223 61.5693 124.684C62.7314 126.878 63.8662 129.246 66.0858 130.561C67.7887 131.569 69.8759 131.925 71.8333 131.976C83.1392 132.273 82.6263 119.676 91.4239 117.488C98.0481 115.84 100.908 120.005 105.767 122.942C107.416 123.939 109.633 124.871 111.571 124.327C112.628 124.03 113.531 123.202 114.064 122.261C115.755 119.283 114.646 114.485 113.84 111.382Z" fill="#2098A6"/>
<path d="M55.5684 148.278C56.9572 146.708 58.4151 145.619 60.6019 145.525C62.8193 145.429 64.9979 146.379 67.0526 147.098C72.4484 148.987 77.5337 149.361 81.8596 144.899C86.4503 140.164 88.0514 134.19 95.7918 133.976C105.379 133.712 116.472 145.287 124.538 137.024C126.626 134.886 128.038 131.967 128.99 129.167C129.999 131.234 130.869 133.342 131.523 135.55L131.294 135.734C126.576 139.563 123.508 148.246 116.167 147.693C108.397 147.107 106.187 135.984 96.5114 143.881C94.6797 145.377 93.0383 147.092 91.2089 148.59C86.2265 152.667 80.5819 154.737 74.1267 154.128C67.5174 153.506 62.5779 151.032 56.3775 154.754C55.7832 152.702 55.6713 150.401 55.5684 148.278Z" fill="white"/>
<path d="M72.3802 112.435C80.8749 105.996 89.8172 104.634 100.14 105.794C99.3713 107.356 95.3663 107.789 95.2723 109.201C95.7009 109.473 95.9124 109.469 96.41 109.339C98.3648 108.828 100.508 107.628 101.959 106.236C103.057 106.66 104.874 106.83 105.463 107.925C105.4 108.702 105.129 109.042 104.542 109.545C103.543 110.402 102.306 111.016 101.149 111.629C101.26 112.041 101.143 111.872 101.525 112.118C102.72 112.159 104.532 111.494 105.433 110.674C106.236 109.942 106.778 108.871 107.197 107.883C108.006 108.235 111.306 109.671 111.634 110.366C112.075 110.686 112.545 111.122 113.081 111.251C113.419 111.243 113.528 111.229 113.84 111.382C114.646 114.485 115.756 119.283 114.064 122.261C113.531 123.202 112.628 124.03 111.571 124.327C109.633 124.871 107.416 123.939 105.767 122.942C100.908 120.005 98.0481 115.84 91.4239 117.488C82.6263 119.675 83.1393 132.273 71.8333 131.976C69.876 131.924 67.7888 131.569 66.0858 130.561C63.8662 129.246 62.7314 126.878 61.5693 124.684C62.5437 122.689 64.0288 121.079 65.1995 119.212L65.4707 119.496C67.9372 122.057 71.6009 124.736 75.3198 124.724C77.0579 124.719 78.2882 123.966 79.4513 122.689C79.7658 122.343 80.084 121.94 80.0717 121.464C79.8979 121.316 79.4256 121.05 79.1723 121.15C78.1569 121.551 78.1673 123.302 75.3889 123.411C71.8576 123.55 68.4065 120.648 66.0149 118.376C67.6929 116.565 69.4733 114.86 71.3562 113.263L72.3802 112.435Z" fill="white"/>
<path d="M72.3805 112.435C79.368 119.137 86.4137 110.169 94.5566 111.017C98.0103 111.377 100.682 112.955 103.609 114.669C104.459 115.167 105.476 115.863 106.44 116.1C107.464 116.352 108.625 116.224 109.502 115.617C111.139 114.485 111.345 112.166 111.634 110.366C112.075 110.685 112.545 111.121 113.081 111.251C112.782 113.195 112.431 115.244 110.746 116.511C109.623 117.357 108.052 117.632 106.686 117.372C102.342 116.546 99.3003 112.875 94.4663 112.311C87.6724 111.52 82.3569 117.993 75.5379 115.896C73.973 115.415 72.4465 114.489 71.3564 113.263L72.3805 112.435Z" fill="#2098A6"/>
<path d="M72.3799 112.435C80.8745 105.996 89.8168 104.634 100.139 105.794C99.3709 107.356 95.3659 107.789 95.2719 109.201C95.7005 109.473 95.9121 109.469 96.4097 109.339C98.3645 108.828 100.508 107.628 101.959 106.236C103.056 106.66 104.874 106.83 105.462 107.925C105.4 108.702 105.128 109.042 104.542 109.545C103.542 110.402 102.306 111.016 101.149 111.629C101.259 112.041 101.142 111.872 101.524 112.118C102.719 112.159 104.532 111.494 105.432 110.674C106.236 109.942 106.778 108.871 107.196 107.883C108.005 108.235 111.306 109.671 111.633 110.366C111.345 112.166 111.138 114.485 109.501 115.618C108.625 116.224 107.463 116.353 106.439 116.101C105.476 115.863 104.458 115.167 103.608 114.67C100.681 112.956 98.0097 111.377 94.556 111.017C86.4132 110.169 79.3674 119.137 72.3799 112.435Z" fill="white"/>
<path d="M132.994 146.237C132.998 148.208 132.917 150.172 132.835 152.141C131.095 153.543 129.492 155.106 127.761 156.519C120.344 162.573 115.758 162.534 106.931 160.009C103.794 159.112 100.592 158.083 97.2928 158.131C92.1634 158.206 87.9629 160.936 84.4719 164.491L84.6581 164.415C84.761 164.372 84.8629 164.326 84.9658 164.283C86.8799 163.496 88.5367 162.242 90.3366 161.234C96.3214 157.883 101.978 159.931 108.057 161.703C115.452 163.858 121.441 163.314 127.537 158.357C128.912 157.239 130.375 155.323 131.908 154.541C131.996 154.496 132.086 154.455 132.175 154.412C132.069 157.73 129.354 165.679 127.225 168.304C126.814 168.221 127.001 167.981 126.734 167.821C126.674 167.784 126.26 167.877 126.199 167.896C125.618 168.081 124.973 168.527 124.423 168.81C122.786 169.651 121.081 170.226 119.241 170.395C115.793 170.71 112.508 169.602 109.14 169.086C103.662 168.245 95.6092 168.587 90.8305 171.75C86.2588 174.775 85.0259 180.659 80.1659 183.912C75.4916 182.234 71.5753 179.179 67.9448 175.873C71.0896 176.724 73.9169 177.034 76.8972 175.362C78.7707 174.311 81.2108 171.916 81.6789 169.745C81.7368 169.477 81.7185 169.237 81.6733 168.97C80.2046 168.003 73.5689 169.401 71.0978 168.658C68.4899 167.874 66.7981 165.939 63.8234 166.499C63.0296 166.648 62.2521 166.916 61.5027 167.211C60.591 165.718 59.2536 164.024 59.1309 162.238C59.4028 161.762 59.5998 161.693 60.0627 161.418C69.4005 157.488 72.1498 163.395 78.9758 161.851C81.1697 161.355 82.9611 160.047 84.7573 158.768C88.9906 155.754 93.0322 153.274 98.3843 153.081C105.115 152.839 111.091 157.012 117.905 156.418C124.496 155.844 128.997 151.041 132.994 146.237Z" fill="white"/>
<path d="M130.038 159.963C130.383 160.015 130.231 159.938 130.483 160.214C130.468 160.287 130.459 160.361 130.437 160.432C130.085 161.568 128.837 162.707 127.963 163.489C121.095 169.637 116.945 165.106 110.555 168.246C110.33 168.206 110.147 168.223 109.975 168.067C110.163 167.194 110.865 166.864 111.681 166.535C113.486 165.806 115.048 165.749 116.954 165.858C123.316 166.221 125.356 163.59 130.038 159.963Z" fill="#2098A6"/>
<path d="M183.315 146.548C186.191 147.236 189.84 147.228 192.784 147.157C219.15 146.523 237.83 127.024 264.13 126.227C276.493 126.309 289.609 127.302 298.779 136.673C304.502 142.52 307.03 151.684 306.896 159.734C306.877 160.852 306.855 161.987 306.648 163.088C316.884 164.054 329.678 164.483 336.763 173.009C337.473 173.863 338.059 174.779 338.634 175.727C339.8 178.485 340.212 180.883 340.329 183.866C339.519 195.645 331.599 207.372 322.847 214.951C319.582 217.779 315.941 219.946 312.206 222.075C312.761 223.416 313.284 224.787 313.925 226.089C323.773 227.289 340.827 229.792 347.294 237.942C348.618 239.611 349.613 241.661 349.359 243.843C349.022 246.746 347.045 249.043 344.787 250.731C336.537 256.902 324.854 258.182 314.854 257.945C309.506 273.622 298.838 285.508 283.984 292.757C267.361 300.87 242.11 301.546 223.923 300.19C216.662 299.648 209.49 298.605 202.273 297.702C200.511 298.877 198.539 299.807 196.706 300.878C174.373 313.93 147.859 319.979 122.228 314.85C102.109 310.824 81.7601 299.891 70.2281 282.456C62.9992 271.527 59.3411 259.144 60.3189 246.011C60.7475 242.616 61.3097 239.201 62.3814 235.946C63.9967 232.035 65.6587 228.521 68.5031 225.335C65.4747 222.1 58.1671 213.039 56.2881 209.287L56.9696 209.131L57.1953 209.293C57.3319 208.786 56.9764 207.921 56.8361 207.393C58.1515 209.109 59.2546 211.001 60.5304 212.751C63.4247 216.747 66.5596 220.544 69.9349 224.142C74.3089 219.576 80.2955 216.867 86.4665 215.778C90.1671 215.125 93.977 214.768 97.6071 213.784C109.26 210.626 113.946 198.492 119.428 188.981C122.593 183.489 127.046 177.369 132.06 173.452C134.657 171.422 137.582 169.816 140.568 168.439C141.383 168.068 142.208 167.72 143.043 167.394C143.878 167.067 144.721 166.764 145.572 166.484C146.423 166.203 147.281 165.946 148.146 165.712C149.011 165.478 149.882 165.268 150.758 165.082C151.635 164.895 152.516 164.732 153.401 164.594C154.287 164.455 155.175 164.34 156.067 164.25C156.958 164.159 157.851 164.093 158.747 164.051C159.642 164.009 160.537 163.991 161.433 163.998C166.554 164.062 171.576 164.979 176.64 165.62C184.921 166.67 194.035 166.823 202.141 164.633C201.772 163.903 198.135 162.259 197.166 161.638C195.928 160.846 194.732 159.912 193.603 158.973C189.741 155.763 186.947 151.884 184.065 147.824C170.908 144.938 159.26 142.548 145.978 147.098C142.748 148.204 139.447 149.605 136.571 151.444C135.785 151.946 135.018 152.463 134.324 153.088C134.099 152.617 134.074 152.138 134.004 151.627L134.517 151.222C146.545 144.28 157.07 141.868 170.872 144.008C175.04 144.654 179.187 145.672 183.315 146.548Z" fill="#212121"/>
<path d="M295.388 227.042C297.537 226.976 300.099 226.549 302.192 226.961C300.26 227.601 298.497 228.406 296.667 229.282C296.336 228.517 295.809 227.766 295.388 227.042Z" fill="#2098A6"/>
<path d="M311.146 222.721C311.7 223.79 312.161 224.848 312.58 225.977C310.646 225.871 308.668 225.68 306.734 225.676C306.527 225.589 306.321 225.473 306.121 225.372C306.24 225.57 306.16 225.519 306.321 225.574C306.336 225.463 306.337 225.349 306.367 225.241C306.432 225 310.626 222.979 311.146 222.721Z" fill="white"/>
<path d="M251.402 272.45C252.376 271.478 253.72 270.56 255.157 270.574C256.164 270.585 257.055 271.086 257.728 271.813C258.503 272.652 259.021 273.73 259.393 274.8L259.266 274.977C259.141 274.998 259.017 275.046 258.891 275.041C258.748 275.035 251.774 272.673 251.402 272.45Z" fill="white"/>
<path d="M135.432 271.454C132.859 268.793 130.308 266.263 127.385 263.979C125.593 262.578 121.334 259.855 120.061 258.406L120.165 258.228C124.781 259.124 132.245 267.374 136.027 270.674C137.011 271.479 138.105 272.262 138.997 273.163L136.78 272.951L135.432 271.454Z" fill="#2962FF"/>
<path d="M75.71 229.881C80.6521 225.192 84.0464 223.282 90.8993 222.274C88.3331 223.259 85.7479 224.403 83.6111 226.17C81.4463 226.918 79.3237 230.014 78.2265 231.909L75.71 229.881Z" fill="#FBF6DF"/>
<path d="M299.881 252.298C304.01 253.651 309.603 253.783 313.926 254.018C313.681 255.032 313.424 256.043 313.156 257.052C308.263 256.747 303.818 255.886 299.065 254.792C299.386 253.978 299.625 253.134 299.881 252.298Z" fill="white"/>
<path d="M297.392 258.421C298.025 258.877 298.676 259.374 299.213 259.944C300.204 260.996 300.985 262.362 300.929 263.848C300.881 265.134 300.252 266.315 299.278 267.143C297.634 268.542 295.67 268.597 293.632 268.451C292.023 267.872 290.817 267.011 289.739 265.69C292.975 263.572 295.295 261.717 297.392 258.421Z" fill="white"/>
<path d="M296.388 263.286C296.502 263.326 296.62 263.354 296.728 263.407C297.218 263.65 297.304 263.827 297.507 264.298C297.434 264.922 297.206 265.171 296.808 265.619C296.251 265.297 295.972 265.104 295.712 264.499C295.805 263.934 296.023 263.694 296.388 263.286Z" fill="#212121"/>
<path d="M219.211 262.271C220.389 259.796 222.939 257.624 225.461 256.606C228.398 255.42 232.018 255.372 234.935 256.647C237.204 257.638 238.584 259.231 239.439 261.506C234.873 261.549 230.355 261.522 225.794 261.811C224.335 261.904 220.369 262.651 219.211 262.271Z" fill="white"/>
<path d="M92.3125 264.043C95.314 264.175 98.213 264.879 101.259 264.901C110.354 264.966 119.474 262.956 126.371 270.456C126.499 270.596 126.624 270.738 126.745 270.884C123.193 270.192 119.624 269.597 116.039 269.101C109.751 268.265 97.7541 267.219 92.3125 264.043Z" fill="#2962FF"/>
<path d="M263.409 238.304C270.95 231.776 283.951 228.081 293.83 227.308L295.423 229.656C290.749 231.67 285.926 233.408 281.209 235.336C280.07 235.802 278.811 236.097 277.715 236.627C272.419 235.33 268.404 236.412 263.409 238.304Z" fill="#2098A6"/>
<path d="M327.27 229.773C332.568 230.142 340.57 233.361 344.645 236.857C346.337 238.308 348.157 240.353 348.275 242.682C348.378 244.718 347.35 246.695 345.996 248.148C340.385 254.174 327.992 256.908 319.909 257.238C318.319 257.299 316.736 257.259 315.146 257.218L315.9 254.193C323.029 253.824 329.905 253.38 336.527 250.381C339.33 249.112 342.079 247.233 343.145 244.197C343.725 242.546 343.656 240.953 342.892 239.377C340.212 233.854 332.62 231.677 327.27 229.773Z" fill="white"/>
<path d="M266.536 202.016C259.05 199.128 250.329 196.969 242.27 197.124C240.373 197.161 238.438 197.468 236.553 197.689L236.68 197.509L236.341 197.633L236.462 197.709L236.647 197.534C239.563 196.754 242.665 196.531 245.654 196.114C251.621 195.249 257.598 194.466 263.586 193.765C266.815 193.36 270.228 192.468 273.474 192.451C276.165 192.438 278.716 193.164 281.272 193.911L281.831 194.247C278.736 195.701 275.853 197.62 272.727 199.067C271.016 199.86 267.833 200.827 266.536 202.016Z" fill="#2098A6"/>
<path d="M295.424 229.656C298.758 235.417 299.796 244.701 298.364 251.195C297.413 250.984 296.448 250.799 295.511 250.533C294.889 248.085 293.898 246.093 291.606 244.792C289.378 243.528 287.14 243.585 284.767 244.293C283.839 241.332 282.098 238.787 279.299 237.306C278.791 237.037 278.253 236.83 277.716 236.627C278.812 236.097 280.07 235.802 281.21 235.336C285.927 233.408 290.749 231.67 295.424 229.656Z" fill="white"/>
<path d="M128.175 271.437C130.66 271.324 133.002 272.083 135.432 272.43C136.53 273.357 137.306 274.596 138.143 275.752C140.175 278.558 142.595 281.669 145.904 283.02C144.638 281.721 143.196 280.657 141.901 279.398C139.938 277.49 138.315 275.208 136.781 272.95L138.997 273.162C147.31 278.907 156.079 283.477 165.349 287.454C161.283 289.216 157.694 290.011 153.241 289.814C137.764 289.128 136.962 280.982 128.175 271.437Z" fill="white"/>
<path d="M107.182 300.555C109.065 300.339 111.161 300.53 113.038 300.758C119.641 301.561 127.493 304.418 132.458 308.963C134.354 310.699 135.913 312.813 137.492 314.834C134.989 314.744 132.482 314.674 129.996 314.346C120.497 313.262 106.621 309.531 98.5234 304.543C100.883 302.061 103.842 300.963 107.182 300.555Z" fill="#FFEDE1"/>
<path d="M290.231 161.908C292.297 161.893 294.374 161.854 296.436 162.003C299.235 162.204 302.038 162.602 304.844 162.669C303.994 165.751 303.319 168.868 302.092 171.833C298.634 180.189 291.406 187.805 283.724 192.587L283.425 192.691C281.309 191.94 279.154 191.329 276.958 190.86C280.954 188.672 284.359 186.303 286.947 182.463C291.089 176.319 291.655 169.001 290.231 161.908Z" fill="#2962FF"/>
<path d="M108.694 294.595C108.739 294.587 108.783 294.575 108.829 294.57C118.941 293.426 131.8 298.956 138.888 306.135C141.459 308.74 143.31 312.347 146.228 314.531C146.296 314.581 146.365 314.63 146.433 314.68C143.724 314.962 140.978 314.897 138.26 314.82C135.949 312.215 134.119 309.555 131.383 307.313C125.074 303.124 117.912 300.257 110.277 299.931C105.369 299.721 101.343 300.916 97.7024 304.28C95.1642 302.778 92.5048 301.454 90.0732 299.783C96.402 296.94 101.796 295.348 108.694 294.595Z" fill="#FFEDE1"/>
<path d="M96.033 219.09C97.6281 219.045 100.19 217.7 101.832 217.255C108.246 215.52 114.34 216.915 120.62 218.411C119.85 221.022 118.881 223.583 117.967 226.146C115.871 223.809 113.458 222.277 110.237 222.094C106.516 221.883 102.975 223.547 100.283 226.032C97.8516 228.277 96.5142 230.814 95.6014 233.963C92.9128 233.955 90.7081 234.503 88.741 236.466C88.0766 237.129 87.5797 237.908 87.0735 238.691C85.3601 237.614 83.6456 236.524 82.0627 235.258C80.8615 234.298 79.8286 233.219 78.5983 232.341C78.471 232.25 78.3226 232.037 78.2256 231.909C79.3227 230.014 81.4453 226.919 83.6101 226.17C83.9198 226.157 83.8534 226.199 84.0779 226.076C87.3522 224.276 89.3345 223.941 92.658 222.656C94.0719 222.109 95.4383 221.339 96.9074 220.951C98.1384 220.626 99.9824 220.945 101.067 220.339C100.395 220.077 99.7131 220.105 99.0002 220.092C95.3425 220.025 93.7649 221.86 90.3806 222.26C92.1399 221.097 94.474 220.649 96.0815 219.307L96.033 219.09Z" fill="#2962FF"/>
<path d="M302.192 226.96C305.763 226.913 309.542 227.21 313.075 227.699C316.255 236.867 315.763 243.771 314.166 253.096C309.52 253.116 304.482 252.777 300.015 251.469C301.648 242.837 300.099 237.157 296.667 229.282C298.497 228.406 300.26 227.601 302.192 226.96Z" fill="white"/>
<path d="M314.514 227.863C316.009 228.111 317.502 228.37 318.993 228.64C325.354 229.823 337.566 233.111 341.21 238.674C342.086 240.011 342.582 241.679 342.207 243.268C341.622 245.745 339.349 247.409 337.272 248.622C330.718 251.992 323.449 253.077 316.147 253.099C317.906 243.511 316.933 237.11 314.514 227.863Z" fill="white"/>
<path d="M77.665 234.499L77.8164 234.21C80.7907 236.195 83.5677 238.373 86.6233 240.26C86.1917 244.096 86.548 247.627 89.0153 250.764C91.1838 253.521 94.6244 255.256 98.0878 255.654C101.567 256.053 104.486 254.96 107.405 253.149C110.928 255.224 114.628 256.126 118.202 257.858C122.493 259.935 132.746 268.433 135.432 272.43C133.002 272.084 130.66 271.324 128.175 271.437C126.498 270.24 125.149 268.522 123.44 267.305C118.016 263.439 111.089 264.158 104.825 264.305C98.2146 264.46 90.2128 264.224 84.7477 259.966C83.1894 258.752 82.0994 257.151 80.6785 255.823L80.4308 255.595C80.3879 255.566 80.3394 255.544 80.3024 255.508C79.9089 255.126 79.5772 254.314 79.3191 253.814C77.0304 249.382 76.2306 243.889 76.6686 238.952C76.7943 237.534 77.5893 236.128 77.6575 234.732C77.6613 234.654 77.6624 234.576 77.665 234.499Z" fill="#2962FF"/>
<path d="M81.6475 237.959C81.9888 238.248 81.8885 238.067 81.9538 238.502L81.3852 239.056C81.176 239.259 80.9633 239.457 80.7652 239.671C79.6442 240.883 80.3082 244.247 80.3556 245.861C80.1546 245.769 79.9837 245.618 79.8065 245.487C79.1887 244.102 79.3603 241.006 79.8509 239.568C80.1616 238.659 80.8327 238.34 81.6475 237.959Z" fill="#212121"/>
<path d="M283.019 194.933C294.317 199.541 304.925 212.43 311.145 222.721C310.626 222.979 306.431 225 306.366 225.241C306.337 225.349 306.336 225.463 306.32 225.574C306.159 225.519 306.239 225.57 306.121 225.372C306.321 225.473 306.527 225.589 306.733 225.675C302.793 225.29 298.705 225.689 294.755 225.875C288.68 215.86 278.713 207.422 268.053 202.726C273.365 200.875 278.381 198.09 283.019 194.933Z" fill="#2098A6"/>
<path d="M127.525 260.103C129.861 260.855 132.141 261.757 134.499 262.448C148.338 266.501 161.274 267.654 175.515 265.448C177.475 265.151 179.424 264.79 181.36 264.364C183.297 263.939 185.217 263.45 187.122 262.897C189.026 262.345 190.91 261.73 192.774 261.053C194.637 260.376 196.477 259.638 198.292 258.84C198.862 260.14 199.531 261.446 200.387 262.582C202.808 265.797 205.898 266.606 209.678 267.148L209.61 269.073C198.987 272.652 189.135 273.63 178.035 274.173C172.147 274.519 166.254 274.633 160.356 274.514C156.361 274.415 152.367 274.062 148.37 273.923C147.082 273.878 145.611 273.707 144.337 273.882C138.28 270.331 132.371 265.155 127.525 260.103Z" fill="#2098A6"/>
<path d="M172.032 290.015C171.623 290.391 171.201 290.751 170.767 291.098C170.334 291.444 169.889 291.775 169.432 292.091C168.976 292.406 168.509 292.706 168.032 292.989C167.555 293.273 167.068 293.54 166.573 293.79C166.077 294.04 165.574 294.273 165.063 294.489C164.551 294.705 164.033 294.902 163.508 295.082C162.983 295.263 162.453 295.424 161.917 295.568C161.38 295.712 160.84 295.837 160.295 295.943C151.591 297.724 142.587 295.297 136.14 289.181C133.537 286.711 131.448 283.804 128.614 281.557C124.969 278.667 120.174 276.602 115.652 275.598C105.642 273.376 95.8611 279.403 86.6006 273.237C80.4334 269.131 77.1767 261.438 75.7819 254.413C74.6135 248.528 74.1517 239.749 77.665 234.499C77.6624 234.576 77.6613 234.654 77.6576 234.731C77.5893 236.127 76.7943 237.534 76.6686 238.952C76.2306 243.889 77.0305 249.382 79.3191 253.813C79.5773 254.313 79.9089 255.126 80.3025 255.508C80.3394 255.544 80.3879 255.566 80.4308 255.594C83.0104 259.948 87.5545 262.642 92.3123 264.043C97.754 267.219 109.751 268.265 116.039 269.1C119.624 269.597 123.192 270.192 126.745 270.884C134.334 277.368 135.515 286.061 146.346 289.357C152.957 291.37 159.887 290.961 165.994 287.727C167.957 288.581 169.979 289.404 172.032 290.015Z" fill="#FFEDE1"/>
<path d="M122.768 218.457C124.101 214.159 125.374 209.992 127.202 205.864C131.073 197.123 137.188 188.989 146.4 185.498C152.997 182.999 159.784 183.207 166.181 186.087C161.206 190.488 158.229 196.394 154.761 201.945C147.578 213.442 138.412 219.541 124.615 218.686C124.027 218.649 123.317 218.682 122.768 218.457Z" fill="white"/>
<path d="M144.552 200.433C144.944 200.574 145.104 200.722 145.38 201.032C145.445 201.597 145.345 201.72 145.111 202.222C144.666 202.082 144.491 201.993 144.196 201.629C144.193 201.059 144.273 200.938 144.552 200.433Z" fill="#212121"/>
<path d="M264.11 127.382C275.557 127.347 288.573 128.765 297.123 137.193C302.559 142.551 305.178 150.93 305.193 158.438C305.204 159.859 305.087 161.269 304.844 162.669C302.038 162.602 299.235 162.204 296.435 162.003C294.374 161.854 292.296 161.893 290.231 161.908C288.981 157.725 287.012 153.79 283.743 150.835C276.662 144.434 269.368 143.718 260.295 144.177C262.653 138.939 264.058 133.12 264.11 127.382Z" fill="white"/>
<path d="M289.361 140.756C289.946 140.886 290.294 140.955 290.675 141.445C290.713 142.038 290.651 142.113 290.36 142.639C290.29 142.63 290.221 142.624 290.152 142.611C289.587 142.505 289.268 142.324 288.924 141.868C288.963 141.299 289.026 141.225 289.361 140.756Z" fill="#212121"/>
<path d="M288.156 161.926C289.44 168.781 289.283 175.488 285.203 181.442C281.374 187.032 275.353 189.529 268.891 190.712C263.826 191.64 258.66 191.83 253.585 192.683C237.17 195.441 218.403 200.847 203.45 190.498C202.727 189.998 201.877 189.465 201.274 188.822C202.461 189.044 203.608 189.429 204.793 189.671C208.193 190.364 211.72 190.873 215.184 191.066C230.494 191.918 249.798 186.905 262.053 177.57C272.363 169.716 274.277 165.354 288.156 161.926Z" fill="#2098A6"/>
<path d="M277.121 176.942C277.753 176.969 278.281 177.024 278.776 177.478C279.132 177.804 279.343 178.233 279.311 178.723C279.259 179.529 278.772 179.898 278.178 180.333C277.695 180.392 277.218 180.382 276.806 180.083C276.393 179.784 276.25 179.383 276.215 178.891C276.157 178.073 276.592 177.503 277.121 176.942Z" fill="#212121"/>
<path d="M168.048 184.441C173.683 180.897 180.184 179.206 186.703 181.261C188.149 181.717 189.77 182.905 191.226 183.089C191.33 183.103 191.435 183.111 191.539 183.122C193.73 185.305 195.804 187.569 198.161 189.583C205.706 196.033 214.699 198.858 224.548 198.828C226.988 198.818 229.417 198.66 231.837 198.354C231.783 198.379 231.729 198.405 231.675 198.429C229.82 199.26 227.782 199.717 225.884 200.482C223.922 201.272 212.218 206.666 211.394 207.724C211.399 207.948 211.39 208.156 211.447 208.373C211.518 208.356 211.589 208.339 211.659 208.321C216.488 207.078 220.717 204.285 225.261 202.344C238.021 196.896 251.487 198.693 264.223 202.977C249.616 208.009 238.751 209.766 223.238 209.519C219.525 209.46 215.089 209.463 211.497 208.498C208.883 208.456 205.757 207.663 203.222 206.996C187.318 202.811 180.96 192.733 168.048 184.441Z" fill="#2098A6"/>
<path d="M219.211 262.271C220.369 262.651 224.335 261.904 225.794 261.811C230.355 261.522 234.873 261.549 239.439 261.506L239.442 261.772C239.454 263.543 238.003 266.516 238.315 267.611C238.792 267.681 238.79 267.668 239.206 267.419C239.98 266.137 239.848 262.863 240.889 262.064L241.543 261.933C243.869 261.51 246.201 261.488 248.259 262.847C248.361 262.915 248.462 262.986 248.561 263.059C248.66 263.133 248.756 263.209 248.851 263.287C248.946 263.365 249.039 263.446 249.13 263.529C249.22 263.612 249.309 263.697 249.395 263.785C249.482 263.873 249.566 263.962 249.647 264.054C249.729 264.146 249.808 264.24 249.885 264.336C249.962 264.432 250.037 264.53 250.109 264.63C250.18 264.73 250.25 264.832 250.316 264.935C250.383 265.038 250.447 265.144 250.508 265.25C250.57 265.357 250.628 265.465 250.684 265.574C250.74 265.684 250.792 265.796 250.842 265.908C250.892 266.02 250.939 266.134 250.984 266.249C251.028 266.363 251.069 266.479 251.107 266.596C251.146 266.713 251.181 266.831 251.213 266.949C251.245 267.068 251.274 267.188 251.3 267.308C251.326 267.428 251.349 267.549 251.369 267.671C251.496 268.464 251.429 269.31 251.397 270.111C251.115 270.712 250.719 271.368 250.707 272.038C250.971 272.386 250.97 272.364 251.402 272.45C251.774 272.673 258.748 275.035 258.891 275.04C259.017 275.046 259.141 274.998 259.266 274.977L259.393 274.8C259.426 274.927 259.456 275.054 259.483 275.182C259.51 275.31 259.534 275.438 259.555 275.567C259.576 275.696 259.594 275.826 259.609 275.956C259.623 276.085 259.635 276.215 259.643 276.346C259.651 276.476 259.657 276.607 259.659 276.737C259.661 276.868 259.659 276.999 259.655 277.13C259.651 277.26 259.643 277.391 259.632 277.521C259.622 277.651 259.608 277.781 259.591 277.911C259.574 278.04 259.554 278.169 259.531 278.298C259.508 278.427 259.482 278.555 259.452 278.682C259.423 278.81 259.39 278.936 259.355 279.062C259.319 279.188 259.281 279.313 259.239 279.436C259.198 279.56 259.153 279.683 259.106 279.805C259.058 279.927 259.008 280.048 258.954 280.167C258.901 280.286 258.845 280.404 258.786 280.521C258.727 280.637 258.665 280.752 258.6 280.866C258.529 280.995 258.455 281.123 258.377 281.248C258.299 281.373 258.218 281.496 258.134 281.617C258.049 281.738 257.962 281.857 257.872 281.974C257.781 282.091 257.688 282.205 257.592 282.316C257.495 282.428 257.396 282.537 257.294 282.644C257.192 282.75 257.087 282.854 256.979 282.955C256.872 283.056 256.762 283.154 256.649 283.249C256.537 283.345 256.422 283.437 256.304 283.527C256.187 283.616 256.067 283.702 255.945 283.785C255.823 283.868 255.699 283.948 255.573 284.025C255.447 284.101 255.319 284.175 255.189 284.245C255.06 284.315 254.928 284.381 254.794 284.444C254.661 284.507 254.526 284.567 254.39 284.623C254.253 284.679 254.116 284.731 253.976 284.78C253.837 284.829 253.697 284.874 253.555 284.916C253.414 284.958 253.271 284.995 253.128 285.03C250.099 285.765 248.067 284.738 245.595 283.169C244.608 285.776 242.955 287.573 240.425 288.728C235.394 291.025 228.912 289.808 225.275 285.544C224.619 284.775 223.552 282.315 222.771 282.028L222.483 282.223C222.31 283.276 223.223 284.627 223.732 285.519C221.219 286.117 218.738 286.241 216.219 285.575C213.512 284.859 210.767 283.205 209.398 280.697C208.707 279.432 208.421 277.944 208.862 276.548C209.421 274.78 210.719 273.625 212.317 272.803C211.629 271.811 210.998 270.796 210.75 269.597C210.441 268.097 210.721 266.642 211.585 265.373C213.145 263.08 215.66 262.261 218.254 261.827C218.043 262.242 217.844 262.663 217.657 263.089C217.147 264.28 216.428 266.362 217.079 267.579C217.333 268.055 217.615 268.232 218.106 268.402C218.594 268.323 218.81 268.189 219.198 267.886C219.268 267.184 218.206 266.554 218.012 265.737C217.756 264.655 218.572 263.304 219.118 262.419L219.211 262.271Z" fill="#FEB777"/>
<path d="M241.543 261.933C243.868 261.51 246.2 261.488 248.259 262.847C248.361 262.915 248.462 262.986 248.561 263.059C248.659 263.132 248.756 263.208 248.851 263.287C248.946 263.365 249.039 263.446 249.129 263.529C249.22 263.612 249.309 263.697 249.395 263.785C249.481 263.872 249.565 263.962 249.647 264.054C249.729 264.146 249.808 264.24 249.885 264.336C249.962 264.432 250.036 264.53 250.108 264.63C250.18 264.73 250.25 264.831 250.316 264.935C250.383 265.038 250.447 265.143 250.508 265.25C250.569 265.357 250.628 265.465 250.684 265.574C250.739 265.684 250.792 265.795 250.842 265.908C250.892 266.02 250.939 266.133 250.984 266.248C251.028 266.363 251.069 266.479 251.107 266.596C251.145 266.713 251.181 266.831 251.213 266.949C251.245 267.068 251.274 267.188 251.3 267.308C251.326 267.428 251.349 267.549 251.369 267.67C251.496 268.464 251.429 269.31 251.397 270.111C249.147 270.172 242.308 269.347 240.809 267.687C240.069 266.866 240.541 264.808 240.654 263.813C241.174 263.447 241.831 263.239 242.126 262.665C241.95 262.351 241.794 262.184 241.543 261.933Z" fill="white"/>
<path d="M184.065 147.824C188.939 148.187 193.636 148.417 198.51 147.838C207.297 146.794 216.024 143.747 224.06 140.139C232.166 136.498 239.982 132.374 248.557 129.879C253.667 128.392 258.821 127.77 264.11 127.382C264.058 133.12 262.653 138.938 260.295 144.177C245.176 144.624 230.801 151.63 217.485 158.121C212.8 160.404 207.224 163.463 202.142 164.633C201.772 163.903 198.135 162.259 197.166 161.638C195.929 160.846 194.733 159.912 193.604 158.973C189.742 155.762 186.947 151.884 184.065 147.824Z" fill="#F36337"/>
<path d="M74.5589 231.375C75.5232 231.937 76.4439 232.94 77.2892 233.687C75.8661 236.563 74.9909 239.394 74.6164 242.59C73.5961 251.297 76.0373 262.413 81.5935 269.335C82.0026 269.839 82.4339 270.323 82.8876 270.788C83.3412 271.252 83.8151 271.695 84.3092 272.116C84.8036 272.536 85.3162 272.934 85.8469 273.307C86.3774 273.681 86.924 274.03 87.4868 274.354C95.304 278.893 102.866 275.202 111.134 275.542C115.637 275.727 119.951 277.221 123.944 279.247C135.439 285.077 135.439 295.152 151.64 296.946C159.908 297.861 166.462 295.434 172.852 290.272C177.348 291.593 181.782 293.086 186.299 294.357C184.137 294.916 181.911 295.253 179.737 295.792C173.741 297.808 168.468 300.906 162.134 302.003C154.802 303.273 145.664 302.515 138.882 299.332C136.495 298.211 134.341 296.692 132.319 295.01C129.406 292.587 127.004 289.609 123.875 287.432C115.609 281.682 106.264 286.871 97.5457 288.355C91.8183 289.33 86.9247 288.079 82.1937 284.72C74.1586 279.016 70.0454 269.507 68.5073 260.006C66.8025 249.471 68.2589 240.094 74.5589 231.375Z" fill="#FFEDE1"/>
<path d="M108.485 223.136C109.299 223.099 110.109 223.065 110.921 223.154C115.758 223.688 116.944 226.801 119.616 230.06L119.727 230.193C121.532 229.729 123.371 229.163 125.257 229.33C127.132 229.496 129.025 230.441 130.173 231.95C131.658 233.903 131.486 235.904 131.127 238.17C132.464 237.964 133.958 237.608 135.308 237.719C137.04 237.861 138.694 238.863 139.78 240.193C139.857 240.287 139.932 240.383 140.004 240.481C140.077 240.579 140.146 240.679 140.214 240.78C140.282 240.882 140.347 240.985 140.409 241.089C140.471 241.194 140.531 241.3 140.588 241.408C140.645 241.515 140.7 241.624 140.751 241.734C140.803 241.845 140.852 241.956 140.898 242.069C140.945 242.181 140.988 242.295 141.029 242.41C141.069 242.525 141.107 242.641 141.142 242.757C141.177 242.874 141.209 242.991 141.238 243.11C141.267 243.228 141.294 243.347 141.317 243.466C141.34 243.586 141.36 243.706 141.378 243.827C141.395 243.947 141.409 244.068 141.421 244.19C141.432 244.311 141.441 244.432 141.446 244.554C141.451 244.676 141.454 244.798 141.453 244.919C141.452 245.041 141.449 245.163 141.442 245.285C141.436 245.406 141.426 245.528 141.413 245.649C141.167 247.917 139.909 249.951 138.09 251.305C135.995 252.864 133.686 253.078 131.27 253.774C126.368 255.187 124.538 256.407 119.218 255.667C115.222 254.878 111.594 253.496 108.114 251.386C105.656 253.081 103.336 254.668 100.259 254.851C97.0326 255.043 93.4249 253.714 91.0817 251.481C88.855 249.358 87.4315 246.125 87.4494 243.047C87.4624 240.869 88.1026 238.699 89.7086 237.161C91.5868 235.363 94.0053 234.911 96.5099 234.973C97.0628 232.739 97.7757 230.661 99.1608 228.794C101.443 225.718 104.708 223.705 108.485 223.136Z" fill="#2962FF"/>
<path d="M69.762 226.727C70.7995 227.171 73.2332 229.935 74.1684 230.847C73.34 231.994 72.5541 233.169 71.8108 234.373C66.5568 243.064 66.1517 253.795 68.5642 263.449C70.905 272.814 75.3174 281.466 83.899 286.536C91.7938 291.199 97.9569 288.798 106.112 286.756C116.644 284.117 120.84 284.627 128.585 292.258C131.05 294.688 133.582 297 136.578 298.77C139.829 300.691 143.614 301.721 147.298 302.418C147.779 302.513 148.26 302.599 148.743 302.676C149.227 302.754 149.711 302.823 150.197 302.883C150.682 302.943 151.169 302.995 151.657 303.038C152.144 303.08 152.632 303.114 153.121 303.14C153.61 303.165 154.099 303.182 154.588 303.19C155.077 303.198 155.567 303.197 156.056 303.187C156.545 303.178 157.034 303.159 157.523 303.132C158.011 303.105 158.5 303.069 158.987 303.025C159.474 302.981 159.961 302.927 160.446 302.866C160.932 302.804 161.416 302.733 161.899 302.654C162.382 302.575 162.863 302.487 163.343 302.391C163.823 302.295 164.301 302.19 164.777 302.077C165.253 301.963 165.727 301.841 166.199 301.711C166.67 301.581 167.139 301.442 167.606 301.295C168.073 301.148 168.537 300.992 168.998 300.829C169.46 300.665 169.918 300.493 170.373 300.313C173.196 299.199 175.916 297.779 178.777 296.768C181.09 295.951 183.494 295.583 185.856 294.953C186.385 294.812 186.891 294.665 187.445 294.706C188.946 294.815 190.573 295.353 192.048 295.686C194.582 296.278 197.138 296.758 199.714 297.128C183.503 306.777 166.347 313.022 147.492 314.629C145.422 313.294 143.993 311.301 142.464 309.413L140.132 306.502C141.262 306.819 142.398 307.116 143.538 307.393C153.248 309.744 164.326 308.942 173.608 305.315C177.151 303.931 180.338 301.952 183.994 300.759C186.897 299.811 193.145 299.019 195.369 297.658L195.268 297.481C194.313 297.202 183.851 300.072 182.374 300.62C180.152 301.444 178.028 302.548 175.89 303.565C173.218 304.836 170.554 305.898 167.668 306.592C160.048 308.424 146.594 308.953 139.535 305.495C137.612 304.553 135.867 302.888 134.103 301.643C130.737 299.266 126.633 297.084 122.731 295.721C114.165 292.727 103.995 293.625 95.575 296.812C93.5624 297.575 91.6229 298.595 89.6898 299.538C86.1384 297.142 82.7914 294.232 79.7645 291.206C69.1637 280.606 61.9127 265.767 61.9553 250.607C61.9776 242.599 63.8414 232.595 69.762 226.727Z" fill="#FFEDE1"/>
<path d="M70.9023 225.193C75.0406 221.785 79.5637 219.331 84.8077 218.099C92.0034 216.407 99.4729 216.985 105.74 212.404C114.133 206.271 117.99 195.745 123.365 187.203C125.619 183.622 128.466 179.981 131.593 177.125C138.851 170.5 151.275 166.522 161.024 167.019C175.502 167.757 182.096 172.724 191.538 183.122C191.434 183.112 191.33 183.103 191.226 183.09C189.77 182.905 188.148 181.717 186.703 181.261C180.183 179.206 173.682 180.897 168.047 184.441C167.648 184.242 167.244 184.054 166.835 183.876C166.427 183.697 166.014 183.529 165.597 183.371C165.18 183.212 164.76 183.064 164.335 182.927C163.911 182.789 163.484 182.662 163.053 182.546C162.623 182.43 162.19 182.324 161.754 182.229C161.318 182.134 160.881 182.049 160.441 181.976C160.001 181.902 159.559 181.839 159.117 181.787C158.674 181.736 158.23 181.695 157.785 181.665C157.34 181.635 156.894 181.616 156.449 181.607C156.003 181.6 155.557 181.603 155.111 181.616C154.665 181.63 154.22 181.655 153.776 181.691C153.331 181.727 152.888 181.773 152.446 181.831C152.003 181.888 151.563 181.957 151.124 182.036C150.685 182.115 150.249 182.205 149.814 182.306C149.38 182.407 148.948 182.519 148.519 182.64C148.09 182.763 147.665 182.895 147.242 183.038C137.351 186.415 130.919 193.765 126.452 202.965C124.025 207.963 122.203 213.092 120.621 218.411C114.34 216.915 108.246 215.52 101.832 217.255C100.19 217.699 97.6282 219.045 96.033 219.09C94.3211 219.766 92.7151 220.63 90.954 221.208C84.094 223.458 80.33 223.688 75.2845 229.462C73.7024 228.148 72.2763 226.722 70.9023 225.193Z" fill="white"/>
<path d="M162.964 175.799C163.147 175.814 163.416 175.828 163.587 175.881C164.09 176.036 164.203 176.209 164.455 176.628C164.358 177.275 164.217 177.406 163.824 177.908C163.686 177.907 163.517 177.911 163.384 177.881C162.924 177.776 162.843 177.663 162.588 177.302C162.558 176.687 162.7 176.349 162.964 175.799Z" fill="#212121"/>
<path d="M306.648 163.089C316.885 164.054 329.679 164.484 336.764 173.009C337.474 173.863 338.059 174.78 338.635 175.727C339.801 178.486 340.213 180.883 340.329 183.867C339.52 195.645 331.599 207.373 322.848 214.951C319.583 217.779 315.941 219.947 312.207 222.076C312.108 221.839 312.007 221.604 311.905 221.369C307.737 211.83 294.836 197.377 285.19 193.604L285.096 193.356C285.76 192.989 286.422 192.614 287.054 192.191C297.419 185.258 304.169 175.31 306.648 163.089Z" fill="#2962FF"/>
<path d="M313.796 186.799C314.439 186.897 314.896 187.542 315.501 187.822C316.093 187.469 316.561 187.178 317.256 187.294L317.439 187.675C317.457 188.427 317.071 189.022 316.737 189.672L318.066 192.145C317.316 191.477 316.55 190.827 315.769 190.196C314.521 191.362 313.536 192.817 312.519 194.181C313.371 192.597 314.204 191.003 315.017 189.398C314.486 188.533 313.952 187.826 313.796 186.799Z" fill="white"/>
<path d="M238.548 232.483C238.566 232.481 238.585 232.479 238.603 232.478C242.477 232.329 245.92 233.457 248.781 236.131C252.519 239.624 252.206 242.748 252.374 247.43C253.703 246.543 254.89 245.412 256.118 244.39C259.979 241.183 263.963 238.785 269.006 237.933C272.519 237.34 276.591 237.803 279.517 239.973C282.186 241.953 282.741 244.425 283.182 247.523C283.803 246.841 284.424 246.032 285.283 245.644C286.591 245.052 288.013 245.173 289.313 245.715C291.099 246.459 292.642 247.94 293.343 249.756C294.181 251.927 293.924 254.473 292.911 256.54C292.005 258.388 290.548 259.814 288.792 260.852C282.052 264.836 274.779 261.499 267.648 261.444C265.33 261.425 263.11 261.898 260.93 262.665C259.69 263.1 256.858 263.939 256.286 265.134L256.436 265.377C257.801 265.333 260.736 263.763 262.135 263.288C267.151 261.585 271.888 262.906 276.963 263.451C281.948 263.986 286.992 263.692 291.021 260.381C293.858 258.05 295.055 255.141 295.424 251.537C296.344 251.774 297.269 251.928 298.204 252.083C297.633 254.345 296.865 256.469 295.813 258.551C295.586 258.924 295.344 259.287 295.087 259.64C294.831 259.993 294.56 260.336 294.276 260.668C293.993 261 293.696 261.32 293.386 261.628C293.077 261.935 292.755 262.231 292.422 262.513C292.089 262.795 291.745 263.064 291.39 263.318C291.035 263.573 290.671 263.813 290.297 264.038C289.923 264.264 289.54 264.474 289.149 264.668C288.758 264.863 288.36 265.042 287.955 265.205C284.234 266.689 279.954 266.936 275.99 267.199C268.126 267.722 259.932 267.673 252.47 270.476C252.443 269.291 252.467 268.016 252.144 266.869C252.107 266.732 252.066 266.596 252.022 266.46C251.977 266.325 251.93 266.192 251.878 266.059C251.827 265.926 251.772 265.795 251.713 265.665C251.655 265.536 251.593 265.407 251.528 265.281C251.463 265.154 251.395 265.03 251.323 264.907C251.251 264.784 251.176 264.663 251.098 264.544C251.021 264.425 250.939 264.308 250.855 264.193C250.771 264.078 250.684 263.966 250.594 263.855C250.504 263.745 250.411 263.638 250.315 263.532C250.22 263.427 250.121 263.324 250.02 263.224C249.919 263.124 249.816 263.027 249.71 262.932C249.603 262.837 249.495 262.745 249.383 262.656C249.273 262.567 249.159 262.481 249.044 262.398C248.928 262.315 248.811 262.235 248.691 262.158C248.571 262.081 248.449 262.008 248.326 261.937C248.202 261.867 248.077 261.799 247.95 261.735C245.502 260.482 243.006 260.647 240.461 261.428C239.797 259.883 239.091 258.541 237.826 257.397C235.605 255.387 232.492 254.687 229.564 254.83C224.868 255.059 221.844 257.368 218.779 260.729C217.85 260.831 216.896 260.911 215.992 261.158C213.206 261.916 211.322 263.716 209.906 266.138C207.807 265.969 205.959 265.677 204.13 264.556C201.777 263.112 199.97 260.601 199.363 257.898C199.333 257.764 199.306 257.63 199.282 257.495C199.259 257.36 199.238 257.224 199.221 257.088C199.204 256.952 199.191 256.816 199.181 256.679C199.17 256.542 199.164 256.405 199.161 256.268C199.157 256.131 199.157 255.994 199.161 255.857C199.164 255.719 199.171 255.582 199.181 255.445C199.192 255.309 199.206 255.172 199.223 255.036C199.24 254.9 199.261 254.765 199.284 254.63C199.308 254.495 199.335 254.36 199.366 254.226C199.397 254.093 199.431 253.96 199.468 253.828C199.505 253.696 199.545 253.565 199.589 253.435C199.633 253.305 199.68 253.176 199.73 253.048C199.78 252.921 199.833 252.794 199.89 252.669C199.946 252.544 200.006 252.421 200.069 252.298C200.131 252.177 200.196 252.056 200.265 251.937C200.334 251.818 200.405 251.701 200.48 251.586C201.648 249.768 203.559 248.238 205.713 247.827C206.485 247.68 207.616 247.642 208.257 248.169C208.499 248.368 208.731 248.592 208.977 248.794L209.433 248.736C210.093 247.878 210.249 246.109 210.632 245.03C211.15 243.574 211.938 242.155 212.879 240.931C214.833 238.389 217.507 236.926 220.68 236.536C222.752 236.282 224.958 236.5 226.655 237.804C226.667 238.221 226.691 238.635 226.721 239.051C226.979 239.407 226.912 239.474 227.37 239.557C228.349 238.802 228.727 237.345 229.508 236.365C231.682 233.633 235.245 232.782 238.548 232.483Z" fill="white"/>
<path d="M217.949 248.606C218.395 248.716 218.641 248.765 218.96 249.107C219.07 249.566 218.949 249.793 218.772 250.219C218.28 250.101 218.043 250.07 217.697 249.671C217.625 249.206 217.734 249.016 217.949 248.606Z" fill="#212121"/>
<path d="M212.625 255.473C213.008 255.625 213.196 255.806 213.48 256.101C213.545 256.671 213.474 256.805 213.251 257.342C212.776 257.16 212.569 257.096 212.275 256.653C212.274 256.09 212.35 255.972 212.625 255.473Z" fill="#212121"/>
<path d="M244.26 248.544C244.724 248.617 244.918 248.703 245.279 249.004C245.473 249.482 245.376 249.745 245.267 250.228C244.776 250.243 244.708 250.243 244.287 249.996C244.067 249.476 244.17 249.078 244.26 248.544Z" fill="#212121"/>
<path d="M229.492 248.59C229.98 248.602 230.267 248.642 230.707 248.858C230.939 249.367 230.856 249.511 230.759 250.048C230.285 250.067 230.028 250.07 229.603 249.848C229.356 249.318 229.421 249.157 229.492 248.59Z" fill="#212121"/>
<path d="M267.781 254.101C268.257 254.282 268.48 254.386 268.793 254.793C268.794 255.386 268.696 255.507 268.41 256.006C267.954 255.814 267.695 255.663 267.353 255.303C267.33 254.708 267.472 254.594 267.781 254.101Z" fill="#212121"/>
<path d="M238.75 240.587C239.142 240.747 239.311 240.888 239.585 241.209C239.586 241.834 239.393 242.037 239.081 242.568C238.634 242.319 238.439 242.187 238.195 241.733C238.211 241.188 238.422 240.994 238.75 240.587Z" fill="#212121"/>
<path d="M282.986 253.364C283.508 253.4 283.903 253.389 284.331 253.733C284.579 254.241 284.414 254.67 284.293 255.19C283.741 255.174 283.567 255.201 283.086 254.906C282.821 254.4 282.931 253.909 282.986 253.364Z" fill="#212121"/>
<path d="M273.456 244.115C274.092 244.386 274.304 244.569 274.595 245.176C274.498 245.724 274.42 245.807 274.055 246.237C273.91 246.203 273.725 246.167 273.591 246.108C273.146 245.915 273.078 245.803 272.882 245.391C272.922 244.829 273.139 244.552 273.456 244.115Z" fill="#212121"/>
<path d="M298.803 255.278C303.349 256.788 307.971 257.487 312.71 258.031C312.56 258.465 312.404 258.897 312.243 259.327C312.082 259.758 311.916 260.186 311.745 260.612C311.574 261.039 311.398 261.463 311.216 261.885C311.035 262.307 310.848 262.727 310.657 263.145C310.465 263.562 310.268 263.978 310.066 264.39C309.865 264.803 309.658 265.213 309.446 265.621C309.234 266.029 309.018 266.434 308.796 266.837C308.575 267.239 308.348 267.639 308.117 268.036C307.886 268.433 307.65 268.827 307.409 269.218C307.168 269.61 306.922 269.998 306.672 270.383C306.422 270.768 306.167 271.151 305.907 271.53C305.648 271.909 305.383 272.285 305.115 272.657C304.846 273.03 304.573 273.4 304.295 273.766C304.018 274.132 303.736 274.494 303.449 274.854C303.163 275.213 302.872 275.569 302.577 275.921C302.282 276.273 301.982 276.621 301.679 276.966C301.375 277.311 301.068 277.652 300.756 277.99C300.444 278.327 300.128 278.661 299.808 278.991C299.488 279.32 299.164 279.646 298.837 279.968C298.509 280.29 298.177 280.608 297.841 280.922C297.506 281.235 297.166 281.545 296.823 281.851C296.48 282.156 296.134 282.458 295.783 282.755C295.433 283.052 295.079 283.345 294.721 283.633C294.364 283.922 294.003 284.206 293.638 284.486C293.274 284.766 292.906 285.041 292.535 285.312C292.164 285.583 291.789 285.849 291.412 286.111C291.034 286.373 290.654 286.63 290.27 286.882C289.886 287.135 289.499 287.383 289.109 287.626C288.719 287.869 288.327 288.108 287.931 288.341C287.535 288.575 287.137 288.803 286.736 289.027C286.334 289.251 285.931 289.47 285.524 289.684C285.118 289.899 284.709 290.108 284.297 290.312C270.626 296.943 253.769 298.818 238.755 298.838C219.225 298.865 192.839 294.844 174.341 288.319C170.466 286.939 166.649 285.412 162.892 283.739C159.134 282.065 155.446 280.25 151.828 278.293C149.28 276.911 146.881 275.265 144.337 273.882C145.611 273.707 147.082 273.879 148.369 273.923C152.366 274.062 156.361 274.416 160.356 274.514C166.253 274.633 172.146 274.52 178.035 274.173C189.135 273.631 198.987 272.652 209.609 269.073C209.873 270.217 210.23 271.224 210.736 272.284C209.003 273.892 207.682 275.462 207.615 277.959C207.56 280.026 208.539 281.785 209.978 283.209C210.138 283.366 210.301 283.52 210.468 283.669C210.635 283.819 210.806 283.964 210.98 284.105C211.155 284.246 211.332 284.383 211.514 284.515C211.695 284.648 211.879 284.775 212.066 284.899C212.254 285.022 212.444 285.141 212.637 285.254C212.831 285.368 213.026 285.477 213.225 285.582C213.424 285.686 213.625 285.785 213.828 285.879C214.032 285.974 214.237 286.063 214.445 286.147C214.653 286.231 214.863 286.31 215.075 286.384C215.286 286.458 215.5 286.527 215.715 286.59C215.93 286.653 216.147 286.711 216.365 286.764C216.583 286.817 216.802 286.864 217.022 286.906C217.243 286.947 217.464 286.984 217.686 287.015C217.908 287.046 218.131 287.071 218.355 287.091C218.578 287.111 218.802 287.126 219.026 287.135C219.25 287.144 219.474 287.147 219.698 287.145C221.348 287.133 223.012 286.854 224.596 286.4C227.415 289.317 230.46 290.784 234.544 290.861C238.027 290.926 241.616 289.971 244.152 287.477C245.011 286.634 245.672 285.672 246.223 284.605C248.216 285.999 250.01 286.622 252.485 286.196C255.228 285.724 257.585 284.136 259.127 281.836C259.703 280.978 260.043 280.059 260.441 279.115C260.864 275.882 260.304 274.006 258.431 271.385C257.963 270.951 257.51 270.51 256.987 270.141C267.637 267.695 279.481 270.487 289.29 265.994C290.355 267.752 291.773 269.085 293.812 269.605C293.932 269.634 294.053 269.661 294.174 269.684C294.295 269.707 294.417 269.728 294.539 269.745C294.662 269.762 294.784 269.777 294.908 269.788C295.031 269.799 295.154 269.807 295.277 269.812C295.401 269.817 295.524 269.819 295.648 269.818C295.771 269.817 295.895 269.813 296.018 269.805C296.142 269.798 296.265 269.788 296.387 269.774C296.51 269.761 296.633 269.744 296.755 269.725C296.877 269.705 296.998 269.683 297.119 269.657C297.24 269.631 297.36 269.602 297.479 269.571C297.599 269.539 297.717 269.505 297.835 269.467C297.953 269.43 298.07 269.389 298.185 269.346C298.301 269.302 298.415 269.256 298.529 269.207C298.642 269.158 298.754 269.106 298.865 269.051C298.976 268.996 299.085 268.939 299.193 268.879C299.301 268.819 299.407 268.756 299.512 268.69C300.885 267.826 301.984 266.501 302.327 264.891C302.676 263.256 302.261 261.581 301.344 260.204C300.473 258.896 299.291 258.002 297.968 257.204L298.803 255.278Z" fill="white"/>
<path d="M258.431 271.385C259.014 271.228 259.385 271.029 259.98 271.276C260.703 271.576 261.143 272.61 261.302 273.313C261.633 274.77 261.64 277.422 260.792 278.712C260.667 278.903 260.591 278.966 260.441 279.115C260.864 275.882 260.304 274.006 258.431 271.385Z" fill="#FFEDE1"/>
<path d="M196.282 282.552C196.402 282.56 196.522 282.565 196.641 282.576C197.314 282.64 197.923 282.896 198.313 283.476C198.607 283.914 198.645 284.303 198.545 284.81C198.387 285.613 197.818 285.949 197.166 286.329C196.961 286.33 196.898 286.334 196.674 286.313C196.022 286.254 195.405 286.067 195.023 285.49C194.747 285.073 194.751 284.664 194.857 284.194C195.042 283.371 195.627 282.99 196.282 282.552Z" fill="#212121"/>
<path d="M271.956 280.912C272.324 280.889 272.708 280.859 273.075 280.895C273.771 280.963 274.495 281.496 274.897 282.048C275.335 282.651 275.49 283.41 275.362 284.141C275.18 285.185 274.561 285.71 273.727 286.281C273.316 286.316 272.873 286.368 272.465 286.286C271.771 286.147 271.137 285.689 270.755 285.098C270.345 284.466 270.246 283.697 270.402 282.967C270.618 281.96 271.132 281.475 271.956 280.912Z" fill="#212121"/>
<path d="M259.53 145.407C266.511 144.694 275.313 146.528 280.834 151.046C284.414 153.975 286.787 157.509 288.155 161.926C274.277 165.355 272.362 169.716 262.052 177.57C249.798 186.905 230.493 191.918 215.184 191.066C211.72 190.873 208.192 190.364 204.793 189.671C203.608 189.429 202.461 189.044 201.274 188.822C198.011 186.848 191.412 179.394 188.322 176.249C196.873 180.382 207.274 181.248 216.473 178.938C225.305 176.719 234.003 172.174 241.137 166.545C242.942 165.121 245.096 163.361 246.288 161.376C238.601 167.813 226.692 174.252 217.016 176.8C207.887 179.204 197.41 178.62 188.878 174.455C185.843 172.974 183.066 170.966 180.111 169.327C178.148 168.238 175.959 167.565 174.04 166.446C184.079 167.959 193.932 167.999 203.796 165.448C208.678 164.2 213.485 161.379 218.027 159.185C231.616 152.624 244.281 146.665 259.53 145.407Z" fill="white"/>
<path d="M222.87 182.682C223.358 182.821 223.595 182.943 223.967 183.289C224.102 183.909 224.006 184.072 223.811 184.659C223.267 184.6 223.112 184.602 222.672 184.291C222.46 183.701 222.682 183.246 222.87 182.682Z" fill="#212121"/>
<path d="M204.332 171.118C204.861 171.226 205.215 171.267 205.595 171.689C205.648 172.32 205.502 172.48 205.217 173.032C205.063 173.029 204.845 173.031 204.699 173.002C204.241 172.91 204.157 172.807 203.9 172.454C203.873 171.887 204.062 171.589 204.332 171.118Z" fill="#212121"/>
<path d="M253.454 161.416C254.065 161.526 254.275 161.6 254.678 162.06C254.751 162.68 254.576 162.975 254.289 163.496C254.113 163.474 253.831 163.447 253.667 163.397C253.214 163.261 253.12 163.134 252.891 162.758C252.899 162.174 253.137 161.876 253.454 161.416Z" fill="#212121"/>
<path d="M255.883 168.721C256.319 168.772 256.797 168.819 257.141 169.129C257.495 169.447 257.647 169.808 257.611 170.282C257.567 170.856 257.144 171.223 256.756 171.59C256.319 171.528 255.818 171.458 255.469 171.157C255.163 170.893 255.016 170.533 255.048 170.132C255.096 169.549 255.513 169.129 255.883 168.721Z" fill="#212121"/>
<path d="M203.797 165.448C208.678 164.199 213.485 161.379 218.028 159.185C231.616 152.623 244.281 146.665 259.53 145.407C257.574 147.868 256.003 150.619 253.819 152.897C246.383 160.656 233.964 166.461 223.426 167.703C222.601 167.804 221.774 167.881 220.944 167.934C220.114 167.987 219.284 168.014 218.453 168.018C217.622 168.021 216.791 168 215.961 167.954C215.131 167.908 214.303 167.838 213.477 167.743C212.652 167.648 211.829 167.529 211.01 167.385C210.192 167.242 209.378 167.074 208.569 166.882C207.76 166.691 206.958 166.475 206.162 166.236C205.366 165.997 204.577 165.734 203.797 165.448Z" fill="#F36337"/>
<path d="M166.18 186.086C166.243 186.117 166.305 186.146 166.368 186.178C169.919 187.959 173.136 190.874 176.149 193.445C180.042 196.765 183.869 200.173 188.106 203.057C189.04 203.701 189.997 204.307 190.978 204.875C191.959 205.443 192.961 205.972 193.983 206.462C195.006 206.952 196.046 207.4 197.103 207.809C198.161 208.216 199.233 208.582 200.32 208.906C212.156 212.54 228.582 212.857 240.782 211.021C243.695 210.557 246.585 209.975 249.451 209.275C252.317 208.575 255.15 207.76 257.949 206.828C260.638 205.932 263.311 204.987 265.966 203.995C275.333 207.638 287.474 217.506 293.068 226.003C280.779 226.999 269.197 230.993 259.631 238.92C257.549 240.645 255.885 242.811 253.848 244.588C253.273 240.134 252.039 236.928 248.371 234.137C245.009 231.58 240.983 230.708 236.827 231.287C232.838 231.842 230.107 233.583 227.479 236.562C223.861 235.128 220.647 234.618 216.97 236.243C213.009 237.994 210.516 241.601 209.019 245.547C208.84 246.022 208.666 246.5 208.499 246.979C206.377 246.526 204.401 246.759 202.547 247.945C200.388 249.325 198.821 251.74 198.367 254.26C198.247 254.924 198.221 255.616 198.21 256.291C197.538 256.597 196.863 256.895 196.183 257.185C195.504 257.475 194.822 257.756 194.136 258.029C193.45 258.302 192.76 258.567 192.068 258.823C191.375 259.079 190.68 259.326 189.981 259.565C189.283 259.804 188.581 260.035 187.877 260.256C187.173 260.478 186.466 260.691 185.756 260.895C185.047 261.1 184.335 261.295 183.62 261.482C182.906 261.669 182.19 261.847 181.471 262.016C180.752 262.186 180.032 262.346 179.309 262.497C178.586 262.649 177.862 262.792 177.136 262.925C176.41 263.059 175.682 263.184 174.953 263.3C174.224 263.416 173.493 263.522 172.761 263.62C172.029 263.718 171.297 263.807 170.563 263.887C169.828 263.967 169.094 264.037 168.358 264.099C167.622 264.161 166.886 264.214 166.149 264.257C165.412 264.301 164.674 264.336 163.936 264.361C163.198 264.387 162.46 264.404 161.722 264.411C160.984 264.418 160.245 264.417 159.507 264.406C158.769 264.395 158.031 264.375 157.293 264.346C156.555 264.318 155.818 264.28 155.081 264.233C154.344 264.186 153.608 264.13 152.872 264.065C152.137 264 151.402 263.926 150.669 263.842C149.935 263.759 149.203 263.667 148.471 263.566C147.74 263.465 147.01 263.355 146.281 263.236C145.552 263.117 144.825 262.989 144.1 262.852C143.374 262.715 142.651 262.569 141.929 262.414C141.207 262.259 140.487 262.096 139.769 261.923C139.051 261.751 138.335 261.57 137.621 261.38C136.908 261.19 136.197 260.991 135.488 260.783C134.78 260.576 134.074 260.36 133.371 260.135C132.668 259.91 131.967 259.677 131.27 259.435C130.572 259.193 129.878 258.942 129.186 258.683C127.872 258.189 126.636 257.63 125.412 256.944C127.477 256.595 128.968 255.604 130.893 254.933C134.994 253.503 138.075 253.863 140.949 249.82C142.241 248.001 142.876 245.706 142.501 243.488C142.132 241.306 140.802 239.344 138.988 238.095C136.861 236.631 134.899 236.605 132.463 236.949C132.486 234.387 132.295 232.39 130.351 230.481C130.256 230.388 130.16 230.297 130.061 230.209C129.962 230.12 129.86 230.034 129.757 229.951C129.654 229.868 129.549 229.787 129.442 229.708C129.335 229.63 129.226 229.555 129.115 229.481C129.004 229.409 128.891 229.339 128.777 229.271C128.662 229.204 128.547 229.14 128.429 229.078C128.312 229.016 128.193 228.957 128.072 228.901C127.952 228.846 127.83 228.793 127.707 228.743C127.584 228.693 127.46 228.647 127.335 228.603C127.209 228.559 127.083 228.519 126.956 228.481C126.828 228.444 126.7 228.409 126.571 228.378C126.442 228.347 126.313 228.319 126.182 228.294C126.052 228.27 125.921 228.248 125.789 228.23C125.658 228.211 125.526 228.196 125.394 228.184C125.262 228.173 125.129 228.164 124.997 228.159C124.864 228.153 124.732 228.151 124.599 228.153C123.037 228.179 121.48 228.958 119.935 228.813C119.614 228.481 119.537 228.326 119.565 227.852C119.636 226.653 122.186 220.517 122.767 218.457C123.316 218.682 124.027 218.649 124.614 218.686C138.412 219.541 147.577 213.441 154.76 201.945C158.229 196.394 161.205 190.488 166.18 186.086Z" fill="#2098A6"/>
<path d="M158.004 213.864C158.125 213.892 158.251 213.903 158.368 213.947C158.742 214.089 158.9 214.444 159.046 214.78C158.998 215.296 158.867 215.592 158.616 216.031C158.465 216.296 158.618 216.665 158.674 216.965C157.919 216.639 157.406 216.03 156.835 215.456L158.004 213.864Z" fill="white"/>
<path d="M255.452 221.554C255.752 221.548 256.083 221.525 256.379 221.576C256.861 221.658 257.058 221.881 257.349 222.243C257.417 222.866 257.312 223.073 257.027 223.602C256.758 223.644 256.355 223.743 256.09 223.697C255.571 223.605 255.473 223.404 255.203 223.006C255.137 222.39 255.232 222.111 255.452 221.554Z" fill="#212121"/>
<path d="M161.37 252.15C161.852 252.437 162.563 252.864 162.744 253.415C162.629 254.108 162.127 254.666 161.721 255.222C161.1 254.649 160.528 254.021 159.944 253.41L160.09 253.224L160.771 253.245C161.195 252.999 161.213 252.601 161.37 252.15Z" fill="white"/>
<path d="M145.82 229.802L145.879 229.862C145.83 230.267 145.89 230.101 145.662 230.485C145.606 230.581 145.545 230.673 145.486 230.767C145.472 231.19 145.561 231.39 145.766 231.745C145.957 232.076 146.111 232.376 146.242 232.739C145.864 233.083 144.526 232.372 143.705 232.864C143.421 233.034 143.196 233.165 142.873 233.26C142.655 232.545 143.263 231.76 143.071 231.107C142.872 230.43 142.223 230.031 142.158 229.243L142.502 228.97C143.289 229.611 143.939 230.242 145.035 230.065C145.29 230.023 145.582 229.892 145.82 229.802Z" fill="white"/>
<path d="M180.172 221.727C180.663 224.057 181.465 226.346 182.727 228.379C184.918 229.029 187.313 229.51 189.34 230.587C188.029 231.859 185.244 234.102 184.37 235.52C184.406 235.567 184.444 235.613 184.48 235.659C184.777 236.041 184.949 236.246 184.953 236.754C184.791 237.157 184.704 237.43 184.354 237.701C183.86 237.413 183.766 237.082 183.495 236.588C183.147 236.756 183.105 237.132 182.982 237.489C182.141 239.917 182.281 242.537 181.061 244.882C179.253 242.838 177.579 240.688 176.039 238.435C174.385 238.612 169.789 239.141 168.44 238.262C168.239 237.771 168.209 237.575 168.406 237.069C168.968 235.626 170.693 234.023 171.807 232.949C171.037 231.561 168.664 228.254 169.028 226.798C169.766 226.205 170.795 226.281 171.688 226.375C172.473 226.457 173.257 226.569 174.038 226.675C174.046 226.643 174.05 226.609 174.061 226.578C174.322 225.832 177.767 223.425 178.674 222.945L180.172 221.727Z" fill="white"/>
<path d="M174.038 226.675C174.046 226.643 174.05 226.609 174.06 226.578C174.322 225.832 177.767 223.425 178.674 222.945C177.851 224.008 176.414 226.356 175.056 226.609C174.724 226.671 174.374 226.671 174.038 226.675Z" fill="#037A60"/>
<path d="M175.92 227.989C177.138 226.706 178.258 225.294 179.412 223.95C179.843 224.868 181.501 227.727 181.596 228.493C181.621 228.7 181.506 228.901 181.462 229.105C182.193 229.841 184.902 230.093 186.019 230.436C186.55 230.599 186.976 230.722 187.242 231.228C184.161 234.881 183.168 233.42 181.434 238.894C181.124 240.117 180.86 241.316 180.679 242.564C180.074 241.819 179.435 241.085 178.873 240.307C178.106 239.197 177.364 238.117 176.429 237.141C174.139 237.299 171.846 237.409 169.552 237.471C170.651 235.799 172.048 234.304 173.351 232.788C171.93 231.347 171.085 229.485 170.469 227.583C172.271 227.559 174.126 227.816 175.92 227.989Z" fill="#2098A6"/>
</svg>
