<svg width="196" height="45" viewBox="0 0 196 45" fill="none" xmlns="http://www.w3.org/2000/svg">
<path d="M179.052 44.1774C175.912 44.1774 173.13 43.4818 170.706 42.0907C168.281 40.6599 166.353 38.7521 164.923 36.3674C163.531 33.9429 162.836 31.2402 162.836 28.2592C162.836 25.2783 163.531 22.5955 164.923 20.2107C166.353 17.7862 168.281 15.8784 170.706 14.4873C173.13 13.0565 175.912 12.3411 179.052 12.3411C182.152 12.3411 184.915 13.0565 187.339 14.4873C189.764 15.8784 191.671 17.7664 193.063 20.1511C194.493 22.5358 195.209 25.2386 195.209 28.2592C195.209 31.2402 194.493 33.9429 193.063 36.3674C191.671 38.7521 189.764 40.6599 187.339 42.0907C184.915 43.4818 182.152 44.1774 179.052 44.1774ZM179.052 38.3348C180.92 38.3348 182.55 37.8976 183.941 37.0232C185.332 36.109 186.405 34.8968 187.16 33.3864C187.916 31.8761 188.293 30.167 188.293 28.2592C188.293 26.3912 187.916 24.702 187.16 23.1917C186.405 21.6416 185.332 20.4293 183.941 19.5549C182.55 18.6408 180.92 18.1837 179.052 18.1837C177.144 18.1837 175.495 18.6408 174.104 19.5549C172.753 20.4293 171.679 21.6217 170.884 23.132C170.129 24.6424 169.752 26.3514 169.752 28.2592C169.752 30.1273 170.129 31.8363 170.884 33.3864C171.679 34.8968 172.753 36.109 174.104 37.0232C175.495 37.8976 177.144 38.3348 179.052 38.3348Z" fill="#2962FF"/>
<path d="M132.773 43.4619V37.6193H147.44C148.155 37.6193 148.771 37.4603 149.288 37.1423C149.844 36.8244 150.262 36.407 150.54 35.8903C150.858 35.3736 151.017 34.8371 151.017 34.2806C151.017 33.6447 150.878 33.0882 150.599 32.6113C150.321 32.1343 149.924 31.7568 149.407 31.4785C148.89 31.1606 148.294 31.0016 147.618 31.0016H141.657C139.709 31.0016 137.98 30.6836 136.47 30.0477C134.959 29.4118 133.767 28.438 132.893 27.1264C132.018 25.775 131.581 24.0858 131.581 22.0588C131.581 20.4292 131.979 18.9388 132.773 17.5874C133.608 16.2361 134.721 15.143 136.112 14.3084C137.503 13.4737 139.073 13.0564 140.822 13.0564H154.952V18.899H141.478C140.564 18.899 139.808 19.1971 139.212 19.7933C138.616 20.3497 138.318 21.0453 138.318 21.8799C138.318 22.6749 138.616 23.3704 139.212 23.9666C139.808 24.5628 140.603 24.8609 141.597 24.8609H147.38C149.566 24.8609 151.434 25.1987 152.984 25.8744C154.534 26.5501 155.707 27.5636 156.502 28.9149C157.336 30.2663 157.754 31.9754 157.754 34.0421C157.754 35.7115 157.336 37.2814 156.502 38.752C155.667 40.1829 154.514 41.3355 153.044 42.2099C151.613 43.0446 149.983 43.4619 148.155 43.4619H132.773Z" fill="#2962FF"/>
<path d="M117.813 43.462V13.0565H124.669V43.462H117.813ZM121.212 8.82355C120.019 8.82355 118.986 8.38635 118.111 7.51194C117.237 6.63754 116.8 5.60415 116.8 4.41178C116.8 3.2194 117.237 2.18601 118.111 1.31161C118.986 0.437203 120.019 0 121.212 0C122.444 0 123.477 0.437203 124.312 1.31161C125.186 2.18601 125.623 3.2194 125.623 4.41178C125.623 5.60415 125.186 6.63754 124.312 7.51194C123.477 8.38635 122.444 8.82355 121.212 8.82355Z" fill="#2962FF"/>
<path d="M60 43.462V25.2783C60 22.9333 60.5564 20.787 61.6693 18.8395C62.7822 16.8522 64.3919 15.2822 66.4984 14.1296C68.605 12.9372 71.1288 12.3411 74.07 12.3411C75.5008 12.3411 76.8721 12.5199 78.1837 12.8776C79.4953 13.2353 80.7075 13.8117 81.8204 14.6066C82.973 15.3617 83.9468 16.3156 84.7417 17.4683H84.8013C85.5963 16.3156 86.5502 15.3617 87.663 14.6066C88.8157 13.8117 90.0478 13.2353 91.3594 12.8776C92.7107 12.5199 94.1018 12.3411 95.5327 12.3411C98.5136 12.3411 101.037 12.9372 103.104 14.1296C105.211 15.2822 106.82 16.8522 107.933 18.8395C109.046 20.787 109.603 22.9333 109.603 25.2783V43.462H102.806V25.2783C102.806 23.9667 102.468 22.7743 101.793 21.7012C101.157 20.6281 100.302 19.7735 99.229 19.1376C98.1559 18.5017 96.9238 18.1837 95.5327 18.1837C94.1813 18.1837 92.9492 18.5017 91.8363 19.1376C90.7235 19.7735 89.8292 20.6281 89.1535 21.7012C88.5176 22.7743 88.1996 23.9667 88.1996 25.2783V43.462H81.4031V25.2783C81.4031 23.9667 81.0652 22.7743 80.3896 21.7012C79.7139 20.6281 78.8196 19.7735 77.7067 19.1376C76.6336 18.5017 75.4213 18.1837 74.07 18.1837C72.7186 18.1837 71.4865 18.5017 70.3736 19.1376C69.3005 19.7735 68.4261 20.6281 67.7504 21.7012C67.1145 22.7743 66.7965 23.9667 66.7965 25.2783V43.462H60Z" fill="#2962FF"/>
<path d="M38.4925 27.932C35.2004 27.8994 31.955 27.1495 28.9824 25.7345C26.0099 24.3195 23.3817 22.2734 21.281 19.7388C19.1803 17.2042 17.6576 14.242 16.8191 11.0588C15.9805 7.87554 15.8463 4.54775 16.4257 1.30732C16.4619 1.11656 16.4471 0.919603 16.3827 0.736406C16.3183 0.553209 16.2067 0.390279 16.059 0.26413C15.9114 0.137981 15.733 0.0531034 15.542 0.0180742C15.351 -0.0169549 15.1541 -0.000880672 14.9713 0.0646711C11.384 1.35593 8.18084 3.53213 5.65911 6.39144C3.13738 9.25075 1.37871 12.7005 0.546239 16.4208C-0.286236 20.141 -0.165551 24.0112 0.8971 27.6724C1.95975 31.3336 3.92995 34.6671 6.62493 37.3638C9.31991 40.0604 12.6524 42.0329 16.3132 43.0982C19.9741 44.1635 23.8447 44.2871 27.5661 43.4576C31.2874 42.6281 34.739 40.8722 37.6006 38.353C40.4622 35.8338 42.6412 32.6328 43.9353 29.0469C44.0009 28.8641 44.017 28.6672 43.9819 28.4763C43.9469 28.2853 43.862 28.1069 43.7358 27.9593C43.6097 27.8117 43.4467 27.7 43.2635 27.6356C43.0803 27.5712 42.8833 27.5564 42.6925 27.5927C41.3059 27.8348 39.8999 27.9484 38.4925 27.932Z" fill="#2962FF"/>
</svg>
