<svg width="222" height="222" viewBox="0 0 222 222" fill="none" xmlns="http://www.w3.org/2000/svg">
<path d="M178.043 120.818C178.23 120.821 178.463 120.808 178.643 120.855C178.92 120.926 179.037 121.056 179.179 121.289C179.256 121.663 179.199 121.87 179.079 122.229C178.862 122.276 178.579 122.333 178.36 122.289C178.076 122.232 178.016 122.084 177.886 121.859C177.856 121.463 177.922 121.195 178.043 120.818Z" fill="#8D99AE"/>
<path d="M30.9735 64.6699C31.2597 64.697 31.5493 64.7083 31.7646 64.9318C31.9602 65.1345 32.028 65.3528 31.9931 65.6314C31.9519 65.9607 31.7221 66.1279 31.4876 66.3219C31.2298 66.3002 30.9391 66.2911 30.7303 66.1134C30.5337 65.9458 30.4383 65.7455 30.4628 65.4849C30.4951 65.1399 30.7437 64.9004 30.9735 64.6699Z" fill="#8D99AE"/>
<path d="M149.039 41.0741C149.378 41.0394 149.726 40.9928 150.026 41.2C150.241 41.3485 150.379 41.5861 150.386 41.8489C150.397 42.2933 150.161 42.5845 149.866 42.8832C149.583 42.9101 149.319 42.9218 149.057 42.7846C148.792 42.6452 148.68 42.4661 148.622 42.1782C148.531 41.7284 148.776 41.401 149.039 41.0741Z" fill="#B2B3DC"/>
<path d="M51.1491 24.2623C51.6193 24.2636 51.9772 24.2667 52.3384 24.6151C52.5593 24.828 52.6293 25.0484 52.6296 25.3493C52.6298 25.8382 52.3094 26.1257 51.9824 26.4357C51.5198 26.4724 51.1746 26.507 50.8197 26.1485C50.6016 25.9278 50.5173 25.6544 50.5325 25.3504C50.5574 24.8494 50.795 24.589 51.1491 24.2623Z" fill="#B2B3DC"/>
<path d="M202.914 101.238C203.116 101.239 203.38 101.215 203.573 101.271C203.906 101.368 204.196 101.657 204.353 101.961C204.519 102.281 204.554 102.638 204.439 102.981C204.291 103.425 204 103.62 203.598 103.816C203.487 103.806 203.375 103.799 203.264 103.782C202.877 103.722 202.515 103.486 202.294 103.163C202.096 102.875 202.043 102.537 202.12 102.2C202.233 101.712 202.521 101.503 202.914 101.238Z" fill="#B2B3DC"/>
<path d="M180.495 40.989L180.54 40.9842C180.734 40.9621 180.939 40.9322 181.135 40.945C181.425 40.9636 181.743 41.1566 181.936 41.369C182.173 41.6305 182.271 41.9758 182.224 42.324C182.156 42.8393 181.86 43.1402 181.464 43.4422C181.363 43.4502 181.262 43.4564 181.161 43.4609C180.708 43.4787 180.353 43.4056 180.031 43.0477C179.799 42.7901 179.698 42.4628 179.738 42.1215C179.8 41.598 180.097 41.2988 180.495 40.989Z" fill="#B2B3DC"/>
<path d="M140.114 34.3103C140.42 34.4165 140.646 34.6401 140.777 34.9338C141.365 36.2485 140.567 38.3321 140.07 39.5776C139.675 39.1427 139.314 36.7924 139.314 36.0726C139.314 35.2449 139.528 34.8794 140.114 34.3103Z" fill="#B2B3DC"/>
<path d="M162.264 22.8894C162.49 22.9076 162.712 22.9241 162.927 23.0032C163.266 23.1279 163.544 23.4032 163.683 23.7358C163.839 24.1078 163.806 24.5197 163.629 24.8783C163.396 25.3494 163.049 25.5239 162.576 25.7023C162.377 25.6937 162.191 25.6768 162.001 25.6126C161.642 25.4905 161.369 25.2265 161.214 24.8826C161.049 24.5169 161.065 24.0974 161.226 23.7336C161.444 23.2397 161.786 23.0709 162.264 22.8894Z" fill="#B2B3DC"/>
<path d="M17.9761 47.2587C18.2443 47.2466 18.5494 47.2314 18.8134 47.2815C19.1619 47.3474 19.502 47.6577 19.6913 47.9449C19.715 47.9803 19.7368 48.0168 19.7566 48.0544C19.7763 48.0921 19.794 48.1308 19.8096 48.1704C19.8252 48.21 19.8386 48.2503 19.8499 48.2913C19.8611 48.3324 19.8701 48.3739 19.8769 48.416C19.8836 48.4581 19.8881 48.5003 19.8902 48.5428C19.8924 48.5853 19.8923 48.6278 19.8898 48.6703C19.8874 48.7128 19.8827 48.7551 19.8757 48.7971C19.8687 48.839 19.8595 48.8805 19.848 48.9216C19.7217 49.3719 19.4115 49.6093 19.0392 49.8555C18.7691 49.8835 18.4872 49.916 18.216 49.8846C17.8509 49.8423 17.5185 49.5997 17.3013 49.3116C17.0929 49.0347 17.0314 48.6907 17.1064 48.3562C17.2229 47.8359 17.5521 47.5451 17.9761 47.2587Z" fill="#B2B3DC"/>
<path d="M141.359 32.9813C143.053 32.8724 144.318 33.2939 145.789 34.1041L144.654 34.2784C144.08 34.4299 143.452 34.6179 142.858 34.6584C142.231 34.7013 141.206 34.6532 140.734 34.1713C140.602 34.0371 140.638 33.961 140.628 33.7869C140.809 33.4192 141.044 33.2351 141.359 32.9813Z" fill="#B2B3DC"/>
<path d="M137.431 32.9763C138.443 32.9238 139.154 33.1031 139.981 33.6937C139.626 34.1197 139.289 34.4776 138.844 34.8184L137.097 34.6782C136.226 34.6569 135.225 34.2088 134.397 33.927C135.398 33.5912 136.402 33.2152 137.431 32.9763Z" fill="#B2B3DC"/>
<path d="M140.118 27.5109C140.662 28.5409 141.119 30.9631 141.18 32.1197C140.929 32.6695 140.652 33.0559 140.252 33.5023C139.861 33.3392 139.557 32.8241 139.326 32.4907C139.156 30.7025 139.649 29.2095 140.118 27.5109Z" fill="#B2B3DC"/>
<path d="M106.205 55.7987C106.882 56.4428 107.422 57.5222 107.93 58.3151C108.57 58.0777 109.171 57.8286 109.863 57.8325L109.912 57.9576C109.462 58.4287 108.866 58.6819 108.293 58.9763C108.504 59.9432 108.84 60.8811 109.011 61.8562C108.01 61.4935 108.165 60.4366 107.536 59.7995C106.963 59.2198 105.854 59.9354 105.136 59.8682L105.095 59.7255C105.594 59.2605 106.227 58.9321 106.808 58.5785C106.56 57.7839 106.056 56.636 106.205 55.7987Z" fill="#8D99AE"/>
<path d="M94.4038 104.898C95.0691 105.227 95.4405 106.07 95.8088 106.682C96.1447 106.596 96.523 106.474 96.8675 106.452C97.1226 106.436 97.259 106.491 97.4396 106.659L97.3572 106.923C96.9995 107.336 96.5069 107.52 96.022 107.748C96.1392 108.456 96.2251 109.156 96.2884 109.87C96.128 109.895 96.0491 109.906 95.8923 109.846C95.4475 109.675 95.1676 108.666 95.0011 108.248L94.3611 108.306C94.1588 108.325 93.9394 108.365 93.7361 108.35C93.4607 108.329 93.3228 108.256 93.1416 108.058C93.1481 108.022 93.1503 107.984 93.1613 107.949C93.3074 107.471 94.1096 107.142 94.5217 106.913C94.4259 106.238 94.3739 105.58 94.4038 104.898Z" fill="#8D99AE"/>
<path d="M28.6234 120.668C28.8953 120.644 29.1875 120.605 29.4596 120.636C29.9656 120.692 30.4905 121.093 30.7654 121.507C31.0379 121.917 31.132 122.385 31.0234 122.867C30.8803 123.502 30.4731 123.776 29.9452 124.098C29.6719 124.174 29.3673 124.245 29.082 124.224C28.6154 124.19 28.1387 123.938 27.8616 123.56C27.5245 123.1 27.4406 122.51 27.5659 121.961C27.7118 121.322 28.1033 121.019 28.6234 120.668Z" fill="#B2B3DC"/>
<path d="M43.9078 155.747C43.9586 155.792 44.0156 155.83 44.0598 155.882C44.5593 156.463 45.0582 158.579 45.3701 159.378C45.8798 160.686 46.5588 162.215 47.3781 163.358C47.9192 164.113 49.3618 165.373 49.3893 166.302C49.2664 166.312 49.1346 166.315 49.0147 166.28C47.6541 165.883 46.2735 163.564 45.6524 162.386C44.8973 160.955 43.4198 157.324 43.9078 155.747Z" fill="#E9EEF0"/>
<path d="M33.9075 43.6362L33.9337 43.2789C33.9764 42.7213 33.9994 41.1602 34.4228 40.7975C34.8997 41.3848 34.8718 42.8878 34.9381 43.6564C35.61 43.6902 36.2911 43.8038 36.9593 43.8884C37.2624 43.9564 37.5108 43.9844 37.7307 44.2242C37.6522 44.4225 37.7153 44.3627 37.5167 44.4564C36.8141 44.7878 35.7531 44.8149 34.988 44.9058C34.8286 46.1411 34.6738 47.3829 34.4109 48.6013L34.0701 46.8103C33.9764 46.1829 33.9304 45.5484 33.8726 44.9168C33.125 44.7809 31.6539 44.7705 31.0562 44.3165C31.4557 43.8311 33.2614 43.7362 33.9075 43.6362Z" fill="#8D99AE"/>
<path d="M173.083 61.1832C175.408 60.9644 178.031 61.3158 180.283 61.8942C184.109 62.877 188.302 65.0948 190.347 68.6245C191.488 70.5954 191.905 72.9444 191.303 75.1535C191.178 74.0683 191.014 73.0014 190.722 71.9478C190.172 70.3528 189.485 69.0162 188.329 67.7679C184.735 63.8871 178.962 62.2979 173.839 62.064C171.991 61.9797 170.14 62.1323 168.292 62.0523C169.863 61.5786 171.448 61.3069 173.083 61.1832Z" fill="#E9EEF0"/>
<path d="M181.065 155.998C181.464 155.975 181.863 155.957 182.254 156.05C183.155 156.265 183.94 156.807 184.398 157.618C184.448 157.707 184.494 157.798 184.535 157.891C184.576 157.985 184.612 158.08 184.643 158.178C184.675 158.275 184.7 158.374 184.721 158.474C184.742 158.574 184.757 158.674 184.768 158.776C184.778 158.878 184.782 158.98 184.782 159.082C184.781 159.184 184.775 159.286 184.764 159.387C184.753 159.489 184.736 159.589 184.715 159.689C184.693 159.789 184.666 159.887 184.634 159.984C184.268 161.077 183.456 161.655 182.466 162.123C181.865 162.205 181.34 162.203 180.765 161.99C180.667 161.954 180.572 161.914 180.48 161.868C180.387 161.822 180.296 161.772 180.209 161.717C180.121 161.662 180.036 161.603 179.954 161.539C179.873 161.476 179.795 161.408 179.72 161.336C179.645 161.265 179.574 161.19 179.507 161.111C179.44 161.032 179.377 160.95 179.319 160.864C179.26 160.779 179.206 160.691 179.156 160.6C179.106 160.509 179.061 160.416 179.021 160.321C178.667 159.498 178.656 158.509 179.023 157.689C179.437 156.765 180.148 156.332 181.065 155.998Z" fill="#E9EEF0"/>
<path d="M181.216 157.205C181.582 157.194 182.023 157.137 182.373 157.256C182.872 157.425 183.321 157.914 183.517 158.392C183.704 158.85 183.707 159.349 183.49 159.798C183.212 160.376 182.779 160.54 182.206 160.758C181.838 160.799 181.402 160.832 181.043 160.74C180.607 160.628 180.193 160.273 179.981 159.881C179.953 159.828 179.927 159.774 179.903 159.719C179.88 159.664 179.86 159.607 179.843 159.55C179.825 159.493 179.811 159.434 179.799 159.376C179.788 159.317 179.78 159.258 179.774 159.198C179.769 159.138 179.767 159.078 179.768 159.018C179.769 158.959 179.773 158.899 179.779 158.839C179.787 158.78 179.797 158.721 179.81 158.662C179.823 158.604 179.839 158.546 179.858 158.489C180.086 157.795 180.586 157.499 181.216 157.205Z" fill="#EDF2F4"/>
<path d="M51.5895 148.77C52.1397 149.092 52.6153 151.385 52.8766 152.115C53.5014 153.863 54.3313 155.611 55.3192 157.183C57.4293 160.54 60.6962 163.782 64.1897 165.651C68.8764 168.158 73.1367 169.063 78.4161 169.003C79.5768 168.99 85.1761 168.348 85.7308 168.718L85.5017 168.866C78.5533 170.475 69.9584 170.016 63.6822 166.501C63.5014 166.401 63.3218 166.3 63.1436 166.196C62.9653 166.092 62.7883 165.986 62.6127 165.878C62.4371 165.769 62.2629 165.659 62.09 165.546C61.9173 165.434 61.7459 165.319 61.5758 165.202C61.4058 165.085 61.2373 164.966 61.0704 164.845C60.9033 164.724 60.7378 164.6 60.5739 164.475C60.41 164.35 60.2477 164.223 60.087 164.093C59.9262 163.964 59.767 163.833 59.6096 163.699C59.4521 163.566 59.2963 163.431 59.1422 163.294C58.9881 163.157 58.8358 163.018 58.6852 162.877C58.5346 162.736 58.3857 162.593 58.2386 162.448C58.0916 162.303 57.9464 162.157 57.8031 162.008C57.6597 161.86 57.5181 161.71 57.3784 161.558C57.2387 161.406 57.1011 161.253 56.9654 161.097C56.8295 160.942 56.6956 160.785 56.5636 160.627C56.4318 160.468 56.302 160.308 56.1741 160.146C56.0461 159.984 55.9203 159.82 55.7966 159.655C55.6727 159.49 55.551 159.324 55.4313 159.156C55.3118 158.988 55.1943 158.818 55.0788 158.647C54.9635 158.476 54.8502 158.304 54.7391 158.13C54.6279 157.956 54.519 157.781 54.4124 157.604C54.3056 157.428 54.2011 157.25 54.0989 157.07C53.9965 156.891 53.8965 156.711 53.7988 156.529C53.701 156.348 53.6054 156.165 53.5122 155.981C53.419 155.797 53.3282 155.611 53.2397 155.425C53.1511 155.239 53.0648 155.051 52.9809 154.863C52.897 154.674 52.8155 154.485 52.7363 154.294C52.6571 154.104 52.5804 153.912 52.5061 153.72C52.4316 153.528 52.3597 153.334 52.2901 153.14C52.2205 152.946 52.1533 152.751 52.0887 152.555C52.024 152.359 51.9618 152.162 51.9021 151.965C51.8422 151.767 51.7849 151.569 51.7301 151.37C51.5296 150.634 51.1966 149.455 51.5895 148.77Z" fill="#E9EEF0"/>
<path d="M47.4088 155.055L47.8017 155.112C48.2517 155.397 49.6332 158.576 50.0796 159.288C55.6222 168.134 64.3587 172.665 74.5874 173.5C75.7481 173.594 76.9307 173.713 78.0958 173.709C79.1774 173.706 80.8188 173.35 81.8175 173.577L81.8574 173.747L81.6742 173.896C79.5097 174.447 77.1711 174.484 74.9505 174.378C68.3384 174.062 62.4166 172.29 57.0444 168.316C55.6369 167.275 54.2963 166.174 53.1177 164.874C51.4124 162.992 47.2883 157.567 47.4088 155.055Z" fill="#E9EEF0"/>
<path d="M171.217 56.8466C175.658 56.3414 181.291 57.4894 185.27 59.4601C185.418 59.5343 185.565 59.6105 185.711 59.6886C185.857 59.7665 186.002 59.8462 186.146 59.9277C186.291 60.0092 186.434 60.0925 186.576 60.1774C186.718 60.2624 186.859 60.3491 186.999 60.4376C187.139 60.5262 187.278 60.6164 187.416 60.7082C187.554 60.8001 187.69 60.8937 187.826 60.9889C187.961 61.0842 188.095 61.1811 188.229 61.2796C188.362 61.3782 188.494 61.4784 188.624 61.5801C188.755 61.6819 188.884 61.7853 189.012 61.8904C189.14 61.9953 189.267 62.1017 189.393 62.2097C189.518 62.3178 189.642 62.4274 189.765 62.5386C189.888 62.6497 190.009 62.7623 190.129 62.8763C190.249 62.9905 190.368 63.1061 190.485 63.223C190.602 63.3401 190.718 63.4585 190.832 63.5783C190.947 63.6982 191.059 63.8194 191.171 63.9421C191.282 64.0647 191.392 64.1886 191.5 64.3139C191.608 64.4394 191.715 64.5661 191.82 64.694C191.925 64.8219 192.029 64.9511 192.131 65.0816C192.233 65.2121 192.333 65.3438 192.432 65.4766C192.531 65.6096 192.628 65.7438 192.723 65.8792C192.819 66.0145 192.913 66.1509 193.005 66.2885C193.097 66.4261 193.187 66.5649 193.276 66.7048C193.365 66.8447 193.452 66.9856 193.537 67.1275C193.622 67.2696 193.705 67.4126 193.787 67.5566C193.869 67.7007 193.949 67.8457 194.027 67.9917C194.105 68.1376 194.182 68.2846 194.256 68.4324C194.331 68.5803 194.403 68.7291 194.474 68.8788C194.545 69.0284 194.614 69.1789 194.682 69.3304C194.749 69.4817 194.814 69.6338 194.877 69.7867C194.941 69.9397 195.003 70.0934 195.062 70.2479C195.122 70.4024 195.18 70.5576 195.236 70.7136C195.292 70.8694 195.346 71.0259 195.398 71.1831C196.811 75.4239 196.4 80.2945 194.387 84.2653C193.17 86.6655 191.077 89.0689 188.459 89.925C190.407 88.2266 192.095 86.4651 193.266 84.1333C195.23 80.0673 195.803 75.8128 194.87 71.3874C193.992 67.224 191.726 64.4939 188.18 62.1839C179.574 56.5788 170.068 57.4341 160.572 59.4685C163.877 57.7055 167.535 57.1529 171.217 56.8466Z" fill="#E9EEF0"/>
<path d="M95.7815 30.8317C95.9421 30.8241 96.0971 30.8196 96.258 30.8237C99.6402 30.9087 102.027 32.5182 104.316 34.8767C106.662 34.3094 108.793 34.1416 111.094 35.0291C113.321 35.8879 114.827 37.4442 115.79 39.6009C117.065 39.1747 118.495 38.8998 119.844 38.9274C121.828 38.9679 125.163 39.8509 126.53 41.385C126.798 41.6859 126.98 42.0687 126.903 42.4796C126.8 43.0324 126.041 43.474 125.593 43.747C121.957 45.9635 116.653 46.0062 112.637 45.0269C110.997 45.9566 109.392 46.4858 107.567 46.9202C103.31 47.6422 100.439 47.1841 96.3506 45.9561C95.7296 46.1353 95.1011 46.2819 94.4649 46.3958C93.8286 46.5097 93.1882 46.5902 92.5436 46.6373C89.8436 46.8452 86.2858 46.6033 84.1284 44.7676C81.7926 44.6031 78.9292 44.5949 76.9123 43.2245C76.4373 42.9017 75.9695 42.4514 75.8758 41.8582C75.7867 41.2937 76.0415 40.7547 76.3881 40.3233C78.4006 37.8171 83.8329 36.9148 86.8225 36.6037C87.3062 35.742 87.7892 34.9123 88.4396 34.1639C90.3609 31.9534 92.9239 31.0205 95.7815 30.8317Z" fill="#8D99AE"/>
<path d="M87.6005 37.7231C88.6084 35.399 90.312 33.4827 92.7095 32.5379C92.8493 32.4839 92.9903 32.4333 93.1325 32.3862C93.2748 32.3392 93.4182 32.2958 93.5626 32.2559C93.7071 32.216 93.8525 32.1797 93.9988 32.147C94.1451 32.1144 94.2921 32.0854 94.4398 32.0601C94.5875 32.0348 94.7357 32.0132 94.8844 31.9953C95.0331 31.9774 95.1823 31.9632 95.3319 31.9528C95.4813 31.9422 95.631 31.9355 95.7809 31.9326C95.9307 31.9296 96.0806 31.9303 96.2303 31.9348C96.38 31.9393 96.5296 31.9475 96.6791 31.9595C96.8284 31.9715 96.9774 31.9872 97.1261 32.0066C97.2747 32.0259 97.4227 32.049 97.5701 32.0757C97.7175 32.1026 97.8642 32.1331 98.0102 32.1672C98.156 32.2013 98.301 32.239 98.4451 32.2804C98.5892 32.3217 98.7321 32.3666 98.8739 32.415C99.0157 32.4636 99.1562 32.5156 99.2954 32.5711C99.4345 32.6264 99.5723 32.6853 99.7086 32.7478C101.576 33.5868 102.67 34.8245 104.114 36.2087C106.366 35.3086 108.511 35.1458 110.785 36.1146C114.012 37.4893 114.651 40.3413 115.358 40.7129C115.714 40.9002 121.603 38.6167 125.3 41.8131C125.492 41.959 125.649 42.0514 125.747 42.2795C125.641 42.4217 125.538 42.5268 125.387 42.6222C124.658 43.0862 123.759 43.3869 122.941 43.6518C119.332 44.8203 116.019 44.6161 112.358 43.8582C111.867 44.1604 111.371 44.4446 110.852 44.6944C107.531 46.292 103.258 46.5879 99.6843 45.8048C98.5674 45.56 97.4914 45.1661 96.4148 44.7869C94.4387 45.3393 92.4979 45.5965 90.4431 45.5195C88.4258 45.4441 85.9667 45.1241 84.5207 43.5659C83.0859 43.551 81.5969 43.5081 80.1865 43.2314C79.2525 43.048 77.6222 42.6639 77.0778 41.8548C77.034 41.5062 77.0338 41.4895 77.2038 41.1827C78.8616 38.9896 82.6282 38.2624 85.1741 37.9104C85.9782 37.7991 86.7901 37.7612 87.6005 37.7231Z" fill="#EDF2F4"/>
<path d="M72.6953 127.086C72.8499 127.071 73.0049 127.06 73.1603 127.054C76.8383 126.888 79.5439 128.877 82.0889 131.263C83.9193 131.026 85.9483 130.975 87.7143 131.592C89.8803 132.349 91.2715 133.9 92.2343 135.929C93.9054 135.631 95.6738 135.536 97.3674 135.624C98.9802 135.707 101.579 135.997 102.696 137.31C103.014 137.684 103.184 138.133 103.134 138.625C103.068 139.284 102.592 139.829 102.078 140.207C99.0044 142.465 91.5447 142.116 87.9187 141.563C85.7896 143.223 83.6093 143.597 80.9845 143.827C78.027 143.903 75.3983 143.113 72.6437 142.153C68.9583 143.215 65.3979 142.831 61.9469 141.227C59.9669 141.611 57.7686 141.62 55.7656 141.435C54.1663 141.287 51.7616 140.973 50.7058 139.616C50.3665 139.18 50.1601 138.598 50.2681 138.045C50.4016 137.361 50.9735 136.814 51.5253 136.436C53.0634 135.381 55.9223 134.671 57.7491 135.028C59.7115 132.867 62.2556 132.665 64.9871 132.453C65.4261 131.756 65.8707 131.068 66.3906 130.428C68.0164 128.426 70.147 127.343 72.6953 127.086Z" fill="#8D99AE"/>
<path d="M65.5883 133.517C67.2848 131.13 69.092 128.924 72.1542 128.417C74.6585 128.003 77.1076 128.772 79.1351 130.24C80.0563 130.907 80.8901 131.709 81.7273 132.477C84.4631 132.157 87.3406 132.242 89.601 134.055C90.6821 134.922 91.2274 135.999 91.4472 137.34L91.6354 137.396L91.7887 137.34C94.1986 136.474 98.7298 136.477 101.042 137.595C101.401 137.769 101.691 137.989 101.838 138.369C101.912 138.56 101.869 138.669 101.843 138.865C101.249 139.733 99.4938 140.014 98.5154 140.198C94.9929 140.863 91.274 140.906 87.7671 140.167C85.1631 142.276 81.9905 142.719 78.7154 142.37C76.7727 142.164 74.6953 141.652 72.9759 140.705C69.1785 141.843 65.8947 141.805 62.3351 139.931C59.2325 140.554 55.8496 140.624 52.8023 139.686C52.4283 139.514 51.9702 139.336 51.7599 138.957C51.6335 138.729 51.6058 138.454 51.7049 138.21C51.9969 137.492 53.0685 136.948 53.7588 136.664C55.3069 136.027 57.432 135.715 59.0068 136.367L59.2017 135.844C59.6294 134.999 60.3718 134.56 61.2532 134.264C62.6518 133.795 64.1405 133.735 65.5883 133.517Z" fill="#EDF2F4"/>
<path d="M34.6748 97.9867C35.388 95.9449 36.6019 94.2266 38.5791 93.2566C41.0508 92.0439 44.1926 92.0285 46.7642 92.931C48.9257 93.6896 50.7995 95.0641 52.3424 96.7388C55.0238 96.0785 57.5735 96.3271 59.9622 97.7916C61.2233 98.5647 62.3851 99.6645 63.1708 100.922C65.9592 100.794 72.0575 100.547 74.1515 102.556C74.4641 102.856 74.6829 103.241 74.6742 103.683C74.6606 104.375 74.1695 104.998 73.6813 105.442C71.4223 107.497 66.7921 107.59 63.938 107.385C62.6372 107.292 61.3028 107.082 60.1011 106.557C56.9823 109.075 52.8755 109.807 48.948 109.381C46.7644 109.144 44.6845 108.555 42.8317 107.35C41.366 108.004 39.9052 108.468 38.2892 108.531C34.9113 108.504 33.4254 108.162 30.47 106.485C29.9737 106.554 29.4756 106.607 28.9758 106.643C28.4759 106.68 27.9754 106.699 27.4743 106.702C26.9732 106.705 26.4725 106.692 25.9723 106.661C25.4721 106.631 24.9734 106.585 24.4762 106.522C22.8773 106.318 20.6195 105.909 19.6136 104.514C19.2908 104.067 19.1404 103.529 19.2635 102.984C19.4562 102.131 20.1765 101.517 20.896 101.091C23.0835 99.7961 25.8379 99.8002 28.2283 100.399C29.2019 99.4412 30.1218 98.7902 31.3905 98.2772C32.5009 98.0127 33.5359 97.9733 34.6748 97.9867Z" fill="#8D99AE"/>
<path d="M35.2945 99.2546C36.0314 97.0543 37.0135 95.3 39.1789 94.2325C41.4717 93.1021 44.4182 93.2014 46.7945 94.0181C48.8948 94.7398 50.6461 96.1154 51.9712 97.8829C54.3603 97.1703 56.7483 97.1922 58.9945 98.3883C59.2278 98.5136 59.4548 98.6495 59.6755 98.7961C59.896 98.9425 60.1093 99.099 60.3152 99.2657C60.5211 99.4322 60.7187 99.6079 60.9082 99.7929C61.0977 99.9779 61.2781 100.171 61.4495 100.373C61.7346 100.712 62.3065 101.71 62.6337 101.907C64.959 101.838 71.5076 101.454 73.2257 103.062C73.4351 103.258 73.6129 103.534 73.5763 103.834C73.5184 104.305 73.0323 104.684 72.6581 104.911C72.4383 105.045 72.2127 105.169 71.9813 105.282C68.3912 106.761 63.3185 106.327 59.6571 105.319C57.5856 107.357 54.1435 108.245 51.3132 108.282C48.5935 108.318 45.172 107.928 43.1415 105.941C42.0373 106.386 40.9184 106.799 39.7499 107.042C36.3041 107.761 33.3572 106.981 30.461 105.077C29.0822 105.371 27.6431 105.417 26.2393 105.332C25.0487 105.26 21.4589 104.873 20.7439 103.872C20.5771 103.639 20.5066 103.392 20.5722 103.106C20.6648 102.703 21.0122 102.433 21.3573 102.246C23.4546 101.111 26.3091 101.036 28.5688 101.634C29.0061 100.974 29.4386 100.441 30.1256 100.019C31.7889 98.9873 33.4175 98.8245 35.2945 99.2546Z" fill="#EDF2F4"/>
<path d="M89.798 84.8766C87.5433 87.825 84.7141 90.4145 81.4528 92.2093C81.2707 92.3105 81.0874 92.4093 80.903 92.5059C80.7186 92.6026 80.5329 92.697 80.3461 92.789C80.1593 92.8811 79.9714 92.9709 79.7824 93.0583C79.5933 93.1457 79.4033 93.2309 79.2122 93.3137C79.0211 93.3964 78.829 93.4767 78.636 93.5548C78.4429 93.6328 78.2489 93.7085 78.0541 93.7817C77.8591 93.855 77.6633 93.9259 77.4666 93.9944C77.2699 94.0629 77.0723 94.129 76.8741 94.1926C76.6758 94.2562 76.4767 94.3173 76.277 94.376C76.0771 94.4347 75.8766 94.491 75.6754 94.5449C75.4742 94.5986 75.2724 94.6499 75.0701 94.6986C74.8676 94.7474 74.6645 94.7938 74.4609 94.8375C74.2574 94.8815 74.0533 94.9228 73.8486 94.9616C73.644 95.0004 73.4389 95.0368 73.2334 95.0706C73.028 95.1043 72.8221 95.1355 72.6157 95.1643C72.4095 95.1929 72.2029 95.219 71.9961 95.2427C71.7892 95.2663 71.582 95.2874 71.3746 95.306C71.1672 95.3245 70.9595 95.3405 70.7517 95.354C70.5439 95.3674 70.3359 95.3782 70.1278 95.3865C69.9198 95.3949 69.7117 95.4006 69.5034 95.4038C69.2951 95.407 69.0868 95.4076 68.8786 95.4058C68.6705 95.4039 68.4623 95.3994 68.254 95.3923C68.0459 95.3852 67.8379 95.3756 67.63 95.3635C67.4222 95.3514 67.2145 95.3367 67.007 95.3195C66.7994 95.3021 66.5921 95.2823 66.385 95.2599C66.178 95.2376 65.9713 95.2127 65.7647 95.1853C65.5583 95.1578 65.3523 95.1278 65.1466 95.0953C64.9408 95.0628 64.7355 95.0278 64.5307 94.9902C64.3259 94.9526 64.1215 94.9126 63.9176 94.8701C63.7138 94.8274 63.5105 94.7823 63.3078 94.7348C63.105 94.6872 62.9029 94.6372 62.7014 94.5845C62.4999 94.5321 62.2991 94.4771 62.0989 94.4196C61.899 94.3599 61.6999 94.2978 61.5016 94.2333C61.3033 94.1689 61.1058 94.102 60.9091 94.0326C60.7124 93.9632 60.5166 93.8914 60.3216 93.8171C60.1268 93.7429 59.9328 93.6663 59.7397 93.5873C59.5468 93.5084 59.3548 93.4271 59.1637 93.3434C58.9726 93.2597 58.7826 93.1737 58.5937 93.0854C58.4048 92.9969 58.217 92.9062 58.0303 92.8133C57.8435 92.7202 57.658 92.6249 57.4738 92.5274C57.2895 92.4299 57.1064 92.3301 56.9244 92.228C56.7426 92.1259 56.562 92.0216 56.3826 91.9151C56.2033 91.8087 56.0253 91.7001 55.8487 91.5891C55.672 91.4782 55.4968 91.3652 55.3229 91.25C55.149 91.1348 54.9766 91.0175 54.8056 90.8981C54.6347 90.7788 54.4651 90.6573 54.297 90.5337C54.1291 90.41 53.9627 90.2843 53.7978 90.1567C53.6328 90.0289 53.4695 89.8992 53.3078 89.7675C53.1461 89.6359 52.986 89.5022 52.8276 89.3665C52.6692 89.2309 52.5124 89.0934 52.3574 88.9539C52.2024 88.8143 52.0491 88.6729 51.8975 88.5296C51.7459 88.3864 51.5961 88.2413 51.4481 88.0943C51.3003 87.9473 51.1541 87.7985 51.0097 87.6479C50.8654 87.4975 50.7229 87.3452 50.5824 87.1911C50.4418 87.037 50.3031 86.8812 50.1664 86.7237C50.0297 86.5663 49.8948 86.4072 49.7619 86.2463C49.629 86.0856 49.4982 85.9232 49.3695 85.7592C49.2405 85.5951 49.1137 85.4296 48.989 85.2625C48.8643 85.0954 48.7415 84.9268 48.6209 84.7565C48.5003 84.5864 48.3818 84.4148 48.2653 84.2418C48.149 84.0688 48.0347 83.8944 47.9226 83.7185C47.8105 83.5426 47.7006 83.3653 47.5928 83.1867C47.4851 83.0082 47.3796 82.8283 47.2763 82.6471C47.1729 82.466 47.0718 82.2836 46.973 82.0999C43.7054 76.0246 43.1676 69.2607 45.166 62.7009C46.8861 57.0546 51.1743 51.2187 56.4891 48.4439C61.2566 45.9548 66.2042 44.6371 71.6068 45.2654C72.7024 45.3929 73.8749 45.5447 74.9255 45.8928C75.2463 45.9993 75.5052 46.0979 75.6637 46.4168C75.6472 46.4671 75.6541 46.5328 75.6142 46.5677C75.5028 46.6648 71.5278 46.6976 71.0184 46.7691C67.1752 47.3083 64.0314 48.6871 60.861 50.892C56.1693 54.6725 53.0576 59.8942 52.4105 65.9333C51.7915 71.7079 53.6542 77.3869 57.2878 81.887C57.4029 82.0286 57.5199 82.1688 57.6385 82.3076C57.757 82.4463 57.8773 82.5835 57.9993 82.7193C58.1214 82.8551 58.2451 82.9894 58.3702 83.1221C58.4955 83.2547 58.6225 83.3859 58.7511 83.5155C58.8796 83.6452 59.0097 83.7732 59.1414 83.8995C59.273 84.026 59.4063 84.1508 59.5411 84.2739C59.6758 84.397 59.8121 84.5185 59.9498 84.6381C60.0875 84.7579 60.2268 84.876 60.3676 84.9924C60.5082 85.1087 60.6503 85.2233 60.7938 85.3362C60.9372 85.4489 61.082 85.5599 61.2283 85.6692C61.3745 85.7785 61.522 85.8859 61.6707 85.9916C61.8196 86.0972 61.9698 86.2011 62.1212 86.3031C62.2727 86.405 62.4253 86.505 62.5791 86.6032C62.733 86.7015 62.8881 86.7978 63.0444 86.8922C63.2006 86.9865 63.358 87.079 63.5165 87.1694C63.6751 87.2599 63.8347 87.3484 63.9954 87.435C64.1562 87.5216 64.3179 87.6061 64.4806 87.6887C64.6435 87.7712 64.8073 87.8518 64.9721 87.9304C65.1369 88.0089 65.3026 88.0853 65.4692 88.1598C65.6359 88.2343 65.8034 88.3068 65.9718 88.377C66.1403 88.4474 66.3096 88.5157 66.4797 88.5819C66.6498 88.6479 66.8207 88.712 66.9924 88.774C67.1641 88.836 67.3366 88.8958 67.5097 88.9535C67.6829 89.0113 67.8567 89.0668 68.0313 89.1202C68.2058 89.1737 68.381 89.225 68.5569 89.2741C68.7326 89.3232 68.909 89.3701 69.0861 89.4148C69.263 89.4596 69.4404 89.5022 69.6185 89.5427C69.7964 89.583 69.9748 89.6212 70.1538 89.6572C70.3327 89.6933 70.5121 89.7271 70.6919 89.7586C70.8717 89.7903 71.0518 89.8197 71.2323 89.8469C71.4129 89.8741 71.5937 89.899 71.7748 89.9217C71.9559 89.9444 72.1373 89.9648 72.3189 89.983C72.8398 90.0374 73.362 90.0721 73.8855 90.0873C74.409 90.1026 74.9323 90.0983 75.4553 90.0743C75.9785 90.0505 76.5001 90.0071 77.02 89.9442C77.5398 89.8814 78.0567 89.7992 78.5705 89.6977C80.2641 89.3389 81.8541 88.7208 83.4478 88.0572C85.1637 87.0515 87.0288 86.015 88.3792 84.538C86.2412 84.1165 79.8806 83.3185 78.4729 81.9977C78.0313 80.7854 77.3935 79.4788 77.1648 78.2151C76.5955 75.0678 77.6838 70.4165 79.0151 67.5595C79.8175 65.8375 81.3286 63.0037 83.2247 62.3007C83.8096 62.0837 84.4205 62.1029 84.9879 62.3651C85.5852 62.6413 85.9446 63.0586 86.3435 63.5618C90.2734 64.244 95.5637 66.1937 99.443 67.4255C101.773 68.1652 104.718 68.854 106.878 69.894C107.531 70.2081 108.051 70.697 108.461 71.2902C109.081 72.1855 109.367 73.2749 109.591 74.3273C115.967 76.2197 122.239 78.4122 128.406 80.9047C128.709 80.2352 129.024 79.4007 129.794 79.1497C130.913 78.7853 133.741 79.9991 134.706 80.5953C135.16 80.8754 135.19 81.0926 135.292 81.5993C135.384 82.0613 135.472 82.5634 135.395 83.0262C135.388 83.0731 135.381 83.199 135.378 83.2539C136.245 83.6905 137.244 83.9732 138.156 84.3129L143.116 86.1889C143.778 86.4373 144.271 86.9329 144.901 87.2317C146.229 87.8625 147.838 88.2146 149.281 88.4921C148.887 88.0271 148.51 87.6835 148.565 87.0235C148.615 86.426 149.043 85.7715 149.312 85.2423C149.138 83.5338 148.958 82.2646 149.613 80.622C149.018 80.0071 147.926 79.1265 147.951 78.2016C147.961 77.84 148.146 77.5797 148.42 77.367C150.346 75.8761 154.674 75.7488 156.986 76.1232C158.827 76.4213 161.004 77.2003 162.113 78.7918C162.948 79.9902 162.927 81.4174 162.647 82.7901C162.3 84.4868 161.502 86.5479 160.292 87.8135C160.331 88.4152 160.275 89.2455 160.752 89.6793C161.875 89.6227 162.818 89.6249 163.694 90.4468C164.47 91.1743 164.771 92.2915 164.789 93.3289C164.794 93.6363 164.739 93.9151 164.659 94.2099C165.881 95.7804 167.094 97.3201 167.961 99.1247C171.278 106.028 170.415 116.885 171.263 124.651C171.534 127.084 171.892 129.505 172.339 131.912C172.678 133.752 173.168 135.665 173.266 137.534C168.698 141.574 163.712 143.847 157.515 143.471C156.542 143.409 155.574 143.304 154.61 143.157C153.647 143.009 152.692 142.82 151.745 142.589C150.84 142.365 149.92 142.109 149.047 141.78C148.757 141.671 148.461 141.446 148.167 141.381C147.981 141.34 147.761 141.379 147.576 141.413L147.407 141.271C147.43 137.843 147.926 134.413 148.095 130.988C148.276 127.302 148.097 123.56 148.533 119.888C145.132 119.645 141.981 119.119 139.615 116.427C138.485 115.142 137.533 113.717 136.308 112.514C136.273 113.197 136.427 114.988 135.96 115.463C135.703 115.514 135.485 115.526 135.223 115.517C135.202 115.765 135.183 115.663 135.277 115.9C135.89 117.438 136.703 118.907 137.351 120.434L143.681 135.459C145.409 139.593 147.038 143.76 148.724 147.909C150.044 151.069 151.347 154.237 152.631 157.412C154.288 161.612 155.795 165.89 157.556 170.046C157.169 167.974 156.5 165.966 155.899 163.948C154.626 159.677 153.683 155.544 153.798 151.054C153.831 149.781 153.856 148.241 154.309 147.036L154.444 147.067C154.791 148.281 154.552 150.55 154.61 151.898C154.682 153.559 154.921 155.172 155.225 156.802C156.569 164.003 159.454 172.041 161.798 179.03C161.972 179.532 162.523 181.636 162.989 181.87C163.953 182.356 167.392 181.185 168.486 180.866L168.476 178.134C168.519 173.275 168.467 168.481 167.615 163.681C167.294 161.867 166.674 160.125 166.348 158.312C166.252 157.778 166.166 157.23 166.145 156.686C166.123 156.103 166.295 155.339 166.116 154.793C165.293 155.686 165.848 160.929 165.148 162.505L165.006 162.503C164.955 162.388 164.935 162.353 164.9 162.241C164.487 160.918 164.63 158.321 164.815 156.952C165.105 154.817 165.812 152.71 166.317 150.617C166.845 148.428 167.724 143.379 168.665 141.599L168.801 141.627C169.407 142.777 167.536 149.784 167.333 151.481C166.794 155.976 168.122 160.081 168.767 164.453C169.284 167.962 169.451 171.453 169.414 174.995C169.339 177.215 169.155 179.472 169.204 181.689C168.942 181.93 168.684 182.176 168.407 182.4C168.779 183.503 170.307 187.218 169.81 188.247C169.565 188.756 168.969 189.023 168.453 189.168C167.764 189.361 167.02 189.372 166.313 189.482C166.776 190.751 168.112 193.829 168.072 195.094L167.914 195.28C167.405 195.051 167.089 194.504 166.883 194.005C166.308 192.617 165.765 191.23 165.152 189.852C162.713 190.384 157.627 191.015 155.425 189.505C155.229 189.371 155.142 189.252 155.076 189.027C155.118 188.664 155.267 188.45 155.541 188.217C156.331 187.546 157.791 187.363 158.748 186.899C156.849 186.988 152.973 186.995 151.508 185.72C151.222 185.471 150.962 185.068 150.987 184.67C151.005 184.381 151.056 184.239 151.286 184.062C151.815 183.656 152.771 183.453 153.392 183.199C154.279 182.837 156.857 181.527 157.351 180.777C157.363 180.476 157.281 180.367 157.128 180.121C157.477 179.762 157.842 179.555 158.28 179.325C157.708 177.281 156.574 175.23 155.736 173.271C154.813 171.112 154.034 168.89 153.073 166.75L153.084 166.851C152.742 166.643 152.414 166.414 152.1 166.165C151.787 165.916 151.49 165.647 151.21 165.361C148.419 162.551 147.637 158.703 147.645 154.853C148.613 157.303 148.703 159.962 150.03 162.319C150.77 163.634 151.952 164.633 152.772 165.895L152.854 166.023C152.354 164.072 151.675 162.057 150.743 160.264C150.439 159.68 149.958 159.206 149.698 158.599C149.334 157.75 149.1 156.808 148.769 155.937C148.043 154.027 147.24 152.131 146.466 150.24C144.688 145.89 142.73 141.619 140.925 137.282C138.662 131.744 136.341 126.231 133.962 120.742C133.317 119.241 132.787 117.121 131.948 115.808C131.643 115.68 131.373 115.701 131.05 115.711C131.015 115.77 130.963 115.823 130.943 115.89C130.885 116.086 131.239 120.225 131.266 120.887C131.656 131.688 132.132 142.486 132.696 153.279C132.941 158.754 133.027 164.257 133.429 169.723C133.409 172.322 133.675 174.964 133.806 177.562C134.041 182.31 134.237 187.058 134.395 191.809C134.454 193.641 134.805 196.465 134.381 198.185L134.294 198.154C133.639 196.684 133.672 193.343 133.551 191.604C133.168 186.56 132.828 181.512 132.532 176.461C132.411 174.432 132.462 171.565 132.201 169.649L132.174 169.461C132.11 165.147 131.837 160.821 131.648 156.51L130.438 128.15C130.394 126.837 130.23 116.158 129.998 115.784C129.753 115.669 129.641 115.671 129.375 115.714C129.174 115.941 129.193 116.224 129.191 116.522C129.172 119.882 129.408 123.278 129.47 126.644C129.729 140.907 130.343 155.178 130.403 169.443C130.394 172.496 130.576 175.577 130.659 178.631C130.856 185.928 131.068 193.275 130.946 200.574C130.934 201.275 131.041 203.133 130.564 203.594C129.66 202.204 129.541 173.067 129.254 169.028C129.044 162.992 129.074 156.951 128.948 150.913C128.877 147.487 127.89 117.002 128.282 116.474L128.111 116.463C128.111 116.207 128.107 115.951 128.122 115.696C127.794 115.693 127.474 115.661 127.165 115.789C126.303 116.981 125.614 119.515 125.051 120.98L121.008 131.532C119.638 135.136 118.279 138.752 116.855 142.335C116.021 144.431 115.117 146.499 114.304 148.604C112.534 153.191 110.936 157.819 109.248 162.433C108.127 165.499 106.918 168.536 105.826 171.614C104.939 173.796 99.6887 188.562 98.6333 189.291C98.5052 187.521 103.622 174.383 104.551 171.933C109.202 158.728 114.114 145.621 119.289 132.612C120.861 128.566 122.527 124.561 124.065 120.5C124.637 118.99 125.429 117.345 125.762 115.769C125.577 115.586 125.381 115.633 125.13 115.615C124.875 115.744 124.784 115.832 124.671 116.1C123.752 118.293 123.014 120.59 122.18 122.82L117.762 134.297C114.786 142.116 111.754 149.913 108.663 157.688L104.655 167.64C104.004 169.247 103.254 170.838 102.687 172.476C101.361 175.229 100.306 178.133 99.0483 180.922C98.5047 182.128 97.9758 183.411 97.1957 184.485C98.1956 180.508 100.052 176.681 101.426 172.815C102.275 170.4 103.32 168.003 104.261 165.617L110.55 149.804C111.893 146.418 113.108 142.988 114.425 139.593C115.364 137.173 123.852 116.142 123.687 115.592C123.405 115.508 123.17 115.435 122.923 115.266C122.714 114.57 122.73 113.55 122.707 112.817C122.704 112.712 122.666 112.483 122.698 112.395C122.888 111.878 125.192 110.071 125.763 109.793C126.549 109.41 127.755 109.33 128.434 108.822C128.794 108.552 128.501 108.184 128.812 107.854C129.052 107.803 129.167 107.781 129.397 107.874C129.632 108.249 129.726 109.278 129.696 109.739C129.692 109.796 129.671 109.85 129.658 109.906L129.76 109.861L129.754 110.129C129.846 108.735 129.976 107.373 130.199 105.995L130.017 105.813L130.017 105.842L130.227 105.73L130.206 105.523C130.004 105.561 130.071 105.532 129.903 105.62C129.866 105.64 129.831 105.661 129.794 105.681C129.057 105.52 128.001 104.523 127.456 103.994C126.808 103.364 126.214 102.538 126.239 101.593C126.253 101.071 126.398 100.682 126.794 100.336C126.82 100.314 126.861 100.302 126.873 100.27C126.967 100.013 126.544 98.7251 126.499 98.3811C126.428 97.8339 126.528 97.2293 126.604 96.684C125.348 96.0614 123.749 94.9713 122.891 93.852C122.164 92.9018 122.141 91.7469 122.314 90.618C121.824 89.9891 121.411 89.3712 121.02 88.6751C119.143 88.1064 117.177 87.7661 115.26 87.3513C112.249 86.7278 109.258 86.0221 106.287 85.2341C105.895 85.6193 105.482 86.0176 105.031 86.3339C104.418 86.7632 103.737 87.0561 102.985 87.1042C101.185 87.2197 99.1939 86.6632 97.4223 86.3317L89.798 84.8766Z" fill="#8D99AE"/>
<path d="M126.732 92.4714C126.549 92.4391 126.312 92.4183 126.142 92.3457C125.904 92.2442 125.866 92.1985 125.783 91.9646L125.951 91.7987C126.354 91.6567 126.653 91.7768 127.053 91.8878C127.006 92.1508 126.895 92.2687 126.732 92.4714Z" fill="#EDF2F4"/>
<path d="M127.339 101.205C127.483 101.33 127.627 101.456 127.769 101.583C128.058 101.842 128.295 102.021 128.318 102.427L127.872 102.513C127.66 102.648 127.642 102.663 127.393 102.654C127.175 102.47 127.119 102.401 127.056 102.106C126.972 101.72 127.153 101.514 127.339 101.205Z" fill="#EDF2F4"/>
<path d="M129.829 79.7362C130.654 80.0566 133.122 80.6214 133.617 81.2106C133.726 81.3409 133.649 81.4771 133.623 81.6308C132.362 81.1142 131.055 80.7228 129.758 80.309C129.665 80.1035 129.767 79.9469 129.829 79.7362Z" fill="#EDF2F4"/>
<path d="M123.088 90.7675C123.41 90.8951 123.64 90.9849 123.829 91.2858C123.852 91.3218 123.872 91.3591 123.895 91.3949C124.402 92.1831 124.491 92.7056 124.419 93.6183C124.268 93.5635 124.115 93.4896 123.987 93.3903C123.235 92.8054 123.168 91.6414 123.088 90.7675Z" fill="#EDF2F4"/>
<path d="M149.393 91.1362C149.476 91.3535 149.558 91.601 149.698 91.7881C150.045 92.2499 150.685 92.241 151.207 92.2883C150.928 92.7865 150.729 93.3055 150.523 93.836L148.718 93.2775C148.931 92.5606 149.167 91.8491 149.393 91.1362Z" fill="#EDF2F4"/>
<path d="M167.164 182.984C167.656 183.38 167.951 185.101 168.124 185.757C167.541 186.146 166.045 186.937 165.366 186.839C165.048 186.195 164.182 184.836 164.291 184.161C164.671 183.781 165.456 183.858 165.951 183.666C166.37 183.505 166.78 183.217 167.164 182.984Z" fill="#EDF2F4"/>
<path d="M163.12 185.036C163.716 185.77 164.18 187.361 164.56 188.266C162.678 188.789 161.026 188.957 159.084 188.956C158.554 188.844 158.062 188.679 157.553 188.497C158.549 188.037 159.512 187.518 160.444 186.939C161.375 186.36 162.267 185.725 163.12 185.036Z" fill="#EDF2F4"/>
<path d="M123.719 113.088C125.357 113.124 126.995 113.237 128.634 113.223C130.894 113.203 133.144 113.064 135.407 113.074L135.399 114.546C134.18 114.659 132.879 114.517 131.65 114.502C128.997 114.464 126.345 114.454 123.692 114.472C123.69 114.011 123.708 113.549 123.719 113.088Z" fill="#EDF2F4"/>
<path d="M159.211 181.175C160.082 181.626 160.384 182.726 160.777 183.578C160.003 184.222 159.28 184.923 158.477 185.532C157.296 185.531 156.162 185.553 154.987 185.394C154.336 185.23 153.706 185.03 153.07 184.815C154.488 184.152 155.762 183.256 157.159 182.6C157.663 182.363 158.837 182.204 159.184 181.805C159.28 181.694 159.217 181.327 159.211 181.175Z" fill="#EDF2F4"/>
<path d="M144.365 88.0729C145.666 88.4612 146.986 88.8197 148.256 89.3006C148.131 90.6213 148.051 92.2781 147.505 93.5047C147.401 93.7378 147.373 93.7434 147.147 93.828C145.697 93.3509 144.242 92.8892 142.783 92.4429C143.514 91.0877 143.91 89.5367 144.365 88.0729Z" fill="#EDF2F4"/>
<path d="M127.14 90.9346L126.842 90.7785L126.851 90.6441C127.921 90.57 129.336 90.4438 130.213 91.1792C130.433 91.3628 130.59 91.5824 130.751 91.8161C130.88 92.8303 130.952 93.8911 131.157 94.8907C130.608 95.4676 130.087 95.9361 129.377 96.3177C128.06 95.8841 126.668 95.449 125.521 94.6464C125.547 94.2169 125.512 93.658 125.74 93.286C125.96 93.1789 126.13 93.154 126.368 93.1245C126.765 93.0755 126.927 92.9829 127.231 92.7208C127.085 92.727 126.938 92.7324 126.792 92.7369L126.837 92.5751L126.732 92.4715C126.895 92.2688 127.006 92.1508 127.053 91.8879C127.096 91.8434 127.145 91.8042 127.183 91.7548C127.342 91.5453 127.197 91.1627 127.14 90.9346Z" fill="#EDF2F4"/>
<path d="M127.14 90.9346C127.484 91.028 127.602 91.0304 127.852 91.2949C127.933 91.6108 127.95 91.7794 127.802 92.0803C127.676 92.337 127.465 92.5623 127.231 92.7208C127.085 92.727 126.939 92.7323 126.792 92.7368L126.837 92.5751L126.732 92.4714C126.895 92.2687 127.006 92.1508 127.053 91.8878C127.096 91.8434 127.145 91.8041 127.183 91.7547C127.342 91.5453 127.198 91.1626 127.14 90.9346Z" fill="#8D99AE"/>
<path d="M130.832 105.976C131.589 106.616 132.248 107.646 132.87 108.428C133.926 109.757 134.986 111.053 136.141 112.298C132.046 112.312 127.943 112.371 123.849 112.285C124.372 111.898 124.815 111.408 125.345 111.031C125.934 110.611 127.755 109.859 128.511 109.539C128.526 109.565 128.546 109.588 128.557 109.616C128.662 109.868 128.566 110.226 128.471 110.469C128.351 110.776 128.354 111.097 128.232 111.397C128.136 111.633 127.233 111.222 126.915 111.341L126.843 111.527L127.034 111.705C127.887 111.971 130.74 112.157 131.474 111.64C131.707 111.475 131.713 111.42 131.746 111.158C131.58 110.814 131.45 110.737 131.094 110.596L130.906 110.522C130.571 109.18 130.81 107.36 130.832 105.976Z" fill="#EDF2F4"/>
<path d="M131.932 95.7117C132.936 96.4421 133.181 97.9692 134.116 98.858C133.418 99.6175 131.069 102.439 130.294 102.697L130.11 102.559C129.349 101.748 127.226 99.8369 127.333 98.6879C127.359 98.4127 127.549 98.1827 127.768 98.0312C128.328 97.644 129.139 97.4454 129.766 97.1523C130.544 96.7885 131.245 96.2227 131.932 95.7117Z" fill="#EDF2F4"/>
<path d="M161.655 90.6515C161.762 90.6645 161.871 90.6751 161.977 90.6964C162.55 90.8106 163.126 91.2537 163.418 91.7543C163.796 92.4032 163.814 93.167 163.6 93.8735C162.695 96.8562 157.7 98.1457 155.155 99.4406C154.668 99.6583 154.193 99.8038 153.679 99.9382C154.013 99.2663 155.24 97.3937 155.134 96.7222C155.105 96.5414 155.098 96.469 155.131 96.2904C156.281 95.2417 158.099 95.2187 159.429 94.3557C160.83 93.446 161.293 92.1983 161.655 90.6515Z" fill="#EDF2F4"/>
<path d="M83.8897 62.966C84.1247 62.9565 84.4085 62.9276 84.6292 63.0222C85.1255 63.2353 85.5339 63.9037 85.7342 64.3763C87.2362 67.9211 86.382 72.7934 84.9913 76.2281C84.0625 78.5214 82.411 80.9088 80.0628 81.8991C79.7899 81.8896 79.6498 81.8492 79.4103 81.7185C79.0983 81.3658 79.0419 80.9038 78.9351 80.4572C79.2017 80.3624 79.4703 80.259 79.7242 80.1342C81.9128 79.0578 83.2615 76.2635 83.9515 74.0578C84.6023 71.9778 85.1437 68.3354 84.5601 66.2253C84.3069 65.3107 83.8264 64.4743 83.3894 63.6368C83.4637 63.3025 83.6467 63.2002 83.8897 62.966Z" fill="#EDF2F4"/>
<path d="M82.5491 64.4535C82.6222 64.5164 82.6436 64.53 82.7113 64.6163C83.8354 66.0526 83.7302 68.3422 83.6049 70.0618C83.366 73.3432 82.2009 76.8705 79.6633 79.0808C79.5053 79.1733 79.3487 79.2397 79.1803 79.311L79.0006 79.1994C78.8904 78.9503 78.8 78.7248 78.7671 78.4525C78.2548 74.225 79.9126 67.7761 82.5491 64.4535Z" fill="#EDF2F4"/>
<path d="M133.111 115.663C133.411 115.644 133.664 115.613 133.95 115.728C134.216 115.983 134.42 116.235 134.571 116.576C134.831 117.164 134.971 117.803 135.225 118.394L140.249 130.393L148.366 150.097L155.735 168.256C157.372 172.24 159.111 176.144 160.61 180.187C160.365 180.175 160.122 180.153 159.878 180.132C159.597 179.957 159.49 179.756 159.351 179.459C158.855 178.395 158.639 177.202 158.181 176.111C156.756 172.72 155.219 169.365 153.852 165.951C153.199 164.321 152.687 162.632 152.055 160.992C150.403 156.705 148.446 152.522 146.66 148.29C144.244 142.564 141.961 136.773 139.511 131.062C137.329 125.977 135.003 120.861 133.111 115.663Z" fill="#EDF2F4"/>
<path d="M136.247 84.84C138.611 85.7674 140.992 86.65 143.389 87.4877C142.785 90.6117 141.391 93.5673 140.135 96.4776C138.788 95.6401 137.197 95.4836 135.68 95.1007C134.609 94.8302 133.546 94.5141 132.484 94.2106C132.27 94.0586 132.236 94.0738 132.133 93.8171C133.129 93.5285 136.718 95.5703 138.492 95.241C138.731 95.1966 138.738 95.1987 138.883 94.9919C138.443 93.6458 133.517 93.3835 132.268 92.4001C132.053 92.2308 131.995 92.1183 131.954 91.8546C132.611 91.5852 133.457 92.2683 134.208 91.7861C135.093 91.2175 136.016 86.0256 136.247 84.84Z" fill="#EDF2F4"/>
<path d="M150.192 80.6644C150.847 80.68 151.572 80.736 152.205 80.9096C154.51 81.542 154.16 84.7701 155.152 86.3963C155.297 86.6337 155.387 86.7376 155.654 86.8119C156.602 86.1791 155.588 84.8458 156.112 84.0543C156.532 83.8069 156.914 83.7085 157.399 83.8385C157.599 83.8923 157.837 84.0308 157.927 84.2218C158.251 84.9104 157.791 86.2194 157.575 86.9129L156.66 87.4378C156.905 87.7782 157.16 88.1101 157.461 88.4039C158.058 88.9862 158.632 89.0356 159.432 89.0085C159.878 89.8597 160.228 90.6791 160.43 91.6218C160.245 92.1512 160.039 92.5614 159.718 93.0247C158.686 94.0922 157.335 94.3896 155.965 94.8041C155.729 93.506 155.298 92.3682 154.726 91.1817C155.333 90.5955 155.733 90.0422 156.079 89.2786C155.829 89.552 155.58 89.831 155.311 90.0856C153.99 91.3365 152.201 91.3278 150.51 91.2682C150.157 90.0316 149.94 88.0002 149.157 87.0801C149.478 86.322 149.792 85.5695 150.051 84.7877C149.668 83.3727 149.713 82.0545 150.192 80.6644Z" fill="#EDF2F4"/>
<path d="M150.369 84.1213C150.622 84.1064 150.885 84.0873 151.138 84.1051C151.538 84.1333 151.96 84.3511 152.216 84.6559L152.19 84.8305C151.932 84.9677 151.807 84.9293 151.525 84.9217C151.334 84.8673 151.324 84.8996 151.145 84.9606C151.01 85.1242 150.889 85.2753 150.721 85.4056L150.539 85.2485C150.396 84.8489 150.355 84.5452 150.369 84.1213Z" fill="#F1F5FF"/>
<path d="M153.225 92.0654C153.256 92.0592 153.286 92.0498 153.316 92.0464C153.613 92.0128 153.863 92.0186 154.089 92.2341C154.418 92.5487 154.676 93.0686 154.846 93.4848C155.789 95.7954 154.1 95.1186 154.066 96.4209C154.061 96.598 154.063 96.7764 154.036 96.9523C153.949 97.5118 153.473 98.1815 153.203 98.6743C151.254 102.222 148.568 105.742 145.282 108.155C144.005 106.972 142.878 105.555 141.684 104.283C140.171 102.671 138.575 101.188 137.155 99.4871C136.208 98.7196 135.119 97.9519 134.072 97.3267C133.699 96.5145 133.221 95.803 132.716 95.0677C133.965 95.5262 135.281 95.6925 136.513 96.1545C136.572 96.3123 136.632 96.4697 136.693 96.6266C136.82 96.9625 136.907 97.2716 137.199 97.5049C137.947 98.1035 139.146 98.5334 140.108 98.3666C140.626 98.2769 140.904 98.0638 141.193 97.6378C141.17 97.326 141.07 97.279 140.865 97.0516L142.395 93.4157C143.759 93.8644 145.136 94.2818 146.495 94.7444C147.804 95.1897 149.127 95.9333 150.532 95.981C151.131 95.6428 151.577 93.25 152.153 92.5084C152.463 92.1105 152.757 92.1313 153.225 92.0654Z" fill="#EDF2F4"/>
<path d="M109.596 75.2064C111.996 76.355 115.347 77.2055 117.93 78.1306C123.714 80.2018 129.558 82.4229 135.182 84.8884C134.96 86.0023 134.32 89.7348 133.543 90.343C133.282 90.5465 133.177 90.468 132.873 90.4067C128.744 88.3205 124.453 87.9328 119.987 87.06C115.645 86.2112 111.289 85.32 106.964 84.3828C108.844 81.4248 109.587 78.688 109.596 75.2064Z" fill="#EDF2F4"/>
<path d="M83.8523 88.3106C83.222 88.9862 82.3648 89.5126 81.5813 89.9928C81.1529 90.2596 80.7163 90.5123 80.2714 90.7509C79.8267 90.9895 79.3747 91.2136 78.9154 91.423C78.456 91.6324 77.9905 91.8267 77.5188 92.006C77.0469 92.1853 76.5697 92.3491 76.0873 92.4974C75.6048 92.6459 75.1181 92.7785 74.6271 92.8955C74.136 93.0124 73.6417 93.1133 73.1442 93.1983C72.6466 93.2833 72.1468 93.3521 71.6449 93.4047C71.1429 93.4573 70.6397 93.4937 70.1353 93.5138C63.7485 93.7785 57.6166 91.227 52.9667 86.914C48.6427 82.9035 45.8777 76.7697 45.6965 70.8852C45.5109 64.8571 47.9368 58.4733 52.09 54.0966C56.3921 49.5632 62.7284 46.6588 68.9813 46.4745C68.1482 46.8669 67.1756 47.054 66.3047 47.3705C64.1443 48.1555 62.2294 49.3 60.3961 50.6723L60.861 50.8919C56.1693 54.6724 53.0576 59.8942 52.4104 65.9333C51.7915 71.7079 53.6542 77.3869 57.2877 81.887C57.4029 82.0286 57.5198 82.1688 57.6385 82.3075C57.757 82.4463 57.8773 82.5835 57.9992 82.7192C58.1214 82.8551 58.245 82.9894 58.3702 83.122C58.4955 83.2547 58.6225 83.3859 58.7511 83.5155C58.8796 83.6452 59.0097 83.7732 59.1413 83.8995C59.273 84.0259 59.4063 84.1507 59.5411 84.2739C59.6758 84.397 59.812 84.5184 59.9498 84.6381C60.0875 84.7579 60.2268 84.876 60.3675 84.9924C60.5082 85.1087 60.6502 85.2233 60.7938 85.3362C60.9371 85.4489 61.082 85.5599 61.2282 85.6692C61.3745 85.7785 61.522 85.8859 61.6707 85.9916C61.8196 86.0972 61.9697 86.2011 62.1212 86.3031C62.2727 86.405 62.4253 86.505 62.5791 86.6032C62.733 86.7014 62.8881 86.7978 63.0443 86.8921C63.2006 86.9865 63.358 87.079 63.5165 87.1694C63.6751 87.2599 63.8347 87.3484 63.9954 87.435C64.1561 87.5216 64.3179 87.6061 64.4806 87.6887C64.6435 87.7712 64.8073 87.8518 64.9721 87.9304C65.1368 88.0089 65.3025 88.0853 65.4692 88.1598C65.6358 88.2343 65.8034 88.3067 65.9717 88.377C66.1403 88.4474 66.3096 88.5157 66.4797 88.5819C66.6498 88.6479 66.8207 88.7119 66.9924 88.7739C67.1641 88.8359 67.3365 88.8958 67.5097 88.9535C67.6828 89.0113 67.8567 89.0668 68.0313 89.1202C68.2058 89.1736 68.3809 89.2249 68.5568 89.2741C68.7326 89.3232 68.909 89.3701 69.086 89.4148C69.2629 89.4596 69.4404 89.5022 69.6185 89.5427C69.7964 89.583 69.9748 89.6212 70.1537 89.6572C70.3327 89.6933 70.512 89.7271 70.6918 89.7586C70.8716 89.7903 71.0518 89.8197 71.2323 89.8469C71.4128 89.874 71.5936 89.899 71.7747 89.9217C71.9558 89.9444 72.1372 89.9648 72.3189 89.983C72.8398 90.0374 73.362 90.0721 73.8855 90.0873C74.409 90.1026 74.9322 90.0983 75.4553 90.0743C75.9785 90.0504 76.5 90.0071 77.0199 89.9442C77.5398 89.8813 78.0566 89.7992 78.5704 89.6977C80.2641 89.3389 81.854 88.7208 83.4477 88.0572C83.5828 88.1311 83.7497 88.1951 83.8523 88.3106Z" fill="#EDF2F4"/>
<path d="M60.3963 50.6724L60.8611 50.892C56.1694 54.6725 53.0577 59.8943 52.4106 65.9333C51.7916 71.7079 53.6543 77.3869 57.2879 81.887C57.4031 82.0286 57.52 82.1688 57.6386 82.3076C57.7571 82.4463 57.8774 82.5836 57.9994 82.7193C58.1215 82.8551 58.2452 82.9894 58.3703 83.1221C58.4956 83.2548 58.6226 83.3859 58.7512 83.5156C58.8797 83.6452 59.0098 83.7732 59.1415 83.8995C59.2731 84.026 59.4064 84.1508 59.5412 84.2739C59.6759 84.3971 59.8122 84.5185 59.9499 84.6381C60.0876 84.758 60.2269 84.876 60.3677 84.9924C60.5083 85.1087 60.6504 85.2234 60.7939 85.3362C60.9373 85.449 61.0821 85.56 61.2284 85.6692C61.3746 85.7785 61.5221 85.886 61.6708 85.9916C61.8197 86.0973 61.9699 86.2011 62.1213 86.3032C62.2728 86.405 62.4254 86.5051 62.5792 86.6032C62.7331 86.7015 62.8882 86.7978 63.0445 86.8922C63.2007 86.9866 63.3581 87.079 63.5166 87.1695C63.6752 87.2599 63.8348 87.3485 63.9956 87.435C64.1563 87.5216 64.318 87.6062 64.4807 87.6887C64.6436 87.7712 64.8075 87.8518 64.9722 87.9304C65.137 88.0089 65.3027 88.0854 65.4693 88.1598C65.636 88.2344 65.8035 88.3068 65.9719 88.377C66.1404 88.4474 66.3097 88.5157 66.4798 88.5819C66.6499 88.6479 66.8208 88.712 66.9925 88.774C67.1643 88.836 67.3367 88.8958 67.5098 88.9535C67.683 89.0113 67.8568 89.0669 68.0314 89.1202C68.2059 89.1737 68.3811 89.225 68.557 89.2741C68.7327 89.3233 68.9091 89.3702 69.0862 89.4148C69.2631 89.4596 69.4405 89.5023 69.6186 89.5427C69.7965 89.5831 69.975 89.6212 70.1539 89.6572C70.3328 89.6933 70.5122 89.7272 70.692 89.7587C70.8718 89.7903 71.0519 89.8197 71.2324 89.8469C71.413 89.8741 71.5938 89.899 71.7749 89.9217C71.956 89.9444 72.1374 89.9648 72.319 89.9831C72.8399 90.0374 73.3621 90.0722 73.8856 90.0873C74.4091 90.1027 74.9324 90.0983 75.4554 90.0743C75.9786 90.0505 76.5002 90.0071 77.0201 89.9442C77.5399 89.8814 78.0568 89.7992 78.5706 89.6978C80.2642 89.339 81.8542 88.7209 83.4479 88.0573C83.5829 88.1312 83.7499 88.1951 83.8524 88.3107L83.6551 88.3896C82.1172 89.0138 80.8255 89.7838 79.1453 90.0373C76.7139 90.6991 73.9528 90.7195 71.4729 90.385C71.2883 90.3619 71.1041 90.3364 70.9203 90.3085C70.7364 90.2807 70.5529 90.2506 70.3698 90.2181C70.1867 90.1857 70.004 90.151 69.8218 90.114C69.6395 90.077 69.4577 90.0377 69.2765 89.9961C69.0953 89.9544 68.9146 89.9106 68.7345 89.8645C68.5543 89.8184 68.3747 89.77 68.1958 89.7194C68.0168 89.6687 67.8386 89.6158 67.6609 89.5607C67.4833 89.5057 67.3064 89.4484 67.1302 89.3888C66.954 89.3293 66.7786 89.2675 66.604 89.2035C66.4295 89.1394 66.2557 89.0733 66.0829 89.0051C65.9099 88.9367 65.7377 88.8662 65.5665 88.7935C65.3953 88.7209 65.2252 88.6461 65.0559 88.5691C64.8865 88.4922 64.7182 88.4132 64.551 88.3319C64.3836 88.2509 64.2173 88.1676 64.0521 88.0822C63.8869 87.9969 63.7228 87.9095 63.5598 87.8201C63.3968 87.7306 63.2348 87.6391 63.0739 87.5456C62.9132 87.4521 62.7537 87.3566 62.5955 87.259C62.4371 87.1614 62.28 87.0619 62.1242 86.9605C61.9684 86.859 61.8139 86.7556 61.6606 86.6502C61.5074 86.5449 61.3555 86.4376 61.2049 86.3283C61.0543 86.2192 60.9052 86.1081 60.7575 85.9951C60.6098 85.8822 60.4635 85.7674 60.3187 85.6508C60.1737 85.5343 60.0303 85.4159 59.8886 85.2957C59.7466 85.1754 59.6062 85.0535 59.4673 84.9297C59.3286 84.806 59.1913 84.6806 59.0556 84.5534C58.9199 84.4262 58.7858 84.2973 58.6535 84.1668C58.5211 84.0363 58.3903 83.9041 58.2611 83.7703C58.132 83.6363 58.0046 83.5008 57.8788 83.3638C57.7532 83.2268 57.6293 83.0882 57.507 82.948C57.3848 82.8079 57.2643 82.6663 57.1456 82.5231C57.027 82.38 56.9101 82.2354 56.7951 82.0893C56.68 81.9431 56.5669 81.7956 56.4556 81.6466C52.7705 76.7847 51.1493 70.8477 52.0334 64.7932C52.0586 64.6196 52.0861 64.4464 52.1157 64.2735C52.1454 64.1007 52.177 63.9283 52.2107 63.7563C52.2445 63.5841 52.2804 63.4125 52.3184 63.2414C52.3563 63.0701 52.3963 62.8993 52.4383 62.7291C52.4805 62.5588 52.5248 62.3892 52.571 62.2201C52.6173 62.051 52.6655 61.8824 52.7158 61.7143C52.7661 61.5463 52.8185 61.379 52.873 61.2124C52.9273 61.0456 52.9838 60.8795 53.0423 60.7142C53.1007 60.5488 53.1612 60.3843 53.2238 60.2205C53.2862 60.0566 53.3507 59.8935 53.4172 59.7312C53.4835 59.5689 53.5519 59.4075 53.6223 59.2469C53.6926 59.0863 53.765 58.9265 53.8393 58.7676C53.9136 58.6087 53.9897 58.4508 54.0678 58.2939C54.146 58.1369 54.226 57.9809 54.3078 57.8258C54.3897 57.6707 54.4735 57.5166 54.5593 57.3636C54.645 57.2105 54.7325 57.0586 54.8218 56.9077C54.9111 56.7569 55.0023 56.6072 55.0954 56.4585C55.1883 56.3097 55.2831 56.1622 55.3798 56.016C55.4764 55.8696 55.5747 55.7244 55.6749 55.5804C55.775 55.4365 55.8769 55.2938 55.9804 55.1523C56.084 55.0108 56.1893 54.8706 56.2964 54.7317C56.4034 54.5928 56.5121 54.4552 56.6225 54.3189C56.7329 54.1826 56.8449 54.0477 56.9585 53.9141C57.0723 53.7806 57.1876 53.6485 57.3043 53.5178C57.4213 53.387 57.5397 53.2577 57.6597 53.1298C57.7798 53.002 57.9014 52.8757 58.0245 52.7508C58.1475 52.6259 58.2721 52.5025 58.3983 52.3805C58.5243 52.2587 58.6519 52.1384 58.7809 52.0198C58.91 51.901 59.0405 51.7837 59.1725 51.6681C59.3043 51.5526 59.4375 51.4387 59.5722 51.3264C59.7069 51.214 59.8429 51.1033 59.9803 50.9943C60.1177 50.8853 60.2564 50.778 60.3963 50.6724Z" fill="#8D99AE"/>
<path d="M86.8371 64.3562C90.4662 65.7875 94.2422 66.938 97.9561 68.1332C100.094 68.8211 105.299 70.1551 106.811 71.2542C107.769 71.9502 108.179 73.1937 108.368 74.3152C108.918 77.5756 107.965 80.9895 106.043 83.647C105.253 84.7384 104.302 85.7751 102.911 85.9901C100.027 85.7805 97.0189 84.9979 94.1633 84.4817L86.7744 83.0924C85.1456 82.787 83.4858 82.5546 81.8867 82.1173C84.0983 80.5579 85.3542 78.5167 86.3027 76.0179C87.6394 72.4963 88.4459 67.9253 86.8371 64.3562Z" fill="#EDF2F4"/>
<path d="M164.179 95.0129C164.857 95.4817 165.524 96.5344 165.981 97.2316C170.614 104.294 169.362 114.868 170.101 123.025C170.292 125.39 170.588 127.741 170.991 130.079C171.395 132.416 171.902 134.731 172.514 137.023C170.956 138.273 169.323 139.292 167.527 140.169C161.394 143.163 155.126 142.737 148.8 140.583C149.461 135.788 149.666 130.765 149.47 125.931C149.388 123.915 149.15 121.91 149.059 119.894C150.403 119.591 151.721 119.274 152.985 118.709C157.666 116.618 162.033 111.87 163.868 107.102C162.825 107.979 162.011 109.205 161.174 110.275C160.846 110.685 160.512 111.09 160.172 111.489C157.325 114.813 153.322 118.613 148.704 118.925C146.094 119.101 142.816 118.265 140.841 116.481C139.502 115.271 138.525 113.549 137.363 112.16C135.6 110.053 133.574 108.038 132.006 105.783C131.755 105.423 131.327 104.822 131.381 104.365C131.51 103.264 134.688 100.273 135.534 99.4087C136.746 100.277 137.579 101.57 138.591 102.649C140.783 104.989 143.322 107.177 145.196 109.784C145.616 110.369 145.746 111.082 146.059 111.724L146.257 111.737C146.764 111.283 146.322 110.606 146.383 110L146.649 109.82C148.114 109.995 148.143 112.846 148.842 113.258C148.918 113.204 148.979 113.167 149.039 113.091C149.183 112.907 149.226 112.672 149.215 112.444C149.144 110.974 147.989 109.64 146.981 108.674C146.884 108.755 146.786 108.836 146.685 108.912C146.388 109.136 146.266 109.093 145.917 109.038L145.821 108.887C146.093 108.28 148.644 106.347 149.357 105.591C150.623 104.248 151.583 102.825 152.62 101.309C153.263 100.37 153.377 100.856 154.288 100.622C155.515 100.307 161.452 97.2949 162.624 96.4974C163.249 96.0722 163.745 95.644 164.179 95.0129Z" fill="#EDF2F4"/>
<path d="M157.053 102.899C157.574 102.851 158.27 102.812 158.737 103.067C158.631 103.464 157.083 103.601 156.67 103.689C153.97 104.264 150.978 106.667 149.102 108.616C148.712 109.043 148.284 109.417 147.85 109.797C148.044 109.317 148.256 108.877 148.549 108.448C150.32 105.864 153.967 103.46 157.053 102.899Z" fill="#8D99AE"/>
<path d="M153.807 124.068C153.923 124.161 153.961 124.225 154.002 124.375C154.173 125.002 154.163 125.827 154.235 126.482C154.41 128.077 154.647 129.871 155.187 131.391C156 133.674 157.148 133.291 158.348 134.7C158.449 135.097 158.361 135.267 158.254 135.657C158.193 135.648 158.133 135.641 158.072 135.631C156.874 135.425 155.757 134.622 155.071 133.644C153.446 131.323 153.287 126.755 153.807 124.068Z" fill="#8D99AE"/>
</svg>
