<svg width="352" height="352" viewBox="0 0 352 352" fill="none" xmlns="http://www.w3.org/2000/svg">
<path d="M124.065 76.6284C124.996 77.2901 125.745 79.4908 126.25 80.5671C127.159 79.3623 128.19 78.0464 129.405 77.1409C129.357 78.1004 127.12 80.4069 126.437 81.2378C128.175 81.4908 130.035 81.3708 131.727 81.8668C130.785 82.4172 128.049 82.0332 126.882 81.9669C127.7 83.282 128.831 84.7354 129.271 86.2228C128.225 85.2263 127.316 83.3199 126.188 82.6244L125.893 82.8943C125.468 84.195 125.026 86.4879 123.947 87.3479C123.719 86.8433 125.227 83.0239 125.485 82.1614C124.032 82.8527 122.613 83.6292 121.188 84.3793C122.244 83.1549 123.45 82.4825 124.829 81.6819C123.824 81.0996 120.208 79.9343 119.797 79.2024L120.366 79.355L120.361 79.3447C122.172 79.8219 123.947 80.5248 125.733 81.0951C125.277 79.9521 123.825 77.7992 124.065 76.6284Z" fill="#212121"/>
<path d="M187.29 51.0641C187.907 51.0071 188.545 50.9401 189.156 51.0875C189.981 51.2866 190.767 51.9084 191.197 52.6334C191.593 53.3002 191.724 54.129 191.516 54.8798C191.218 55.9502 190.497 56.5824 189.571 57.1272C188.2 57.4541 187.42 57.164 186.227 56.4593C185.626 55.504 185.212 54.4724 185.46 53.3226C185.691 52.2477 186.385 51.61 187.29 51.0641Z" fill="#212121"/>
<path d="M188.167 52.2405C188.848 52.3759 189.497 52.5419 189.951 53.106C190.281 53.5154 190.409 54.0304 190.275 54.5429C190.083 55.2799 189.567 55.6164 188.948 55.9808C188.317 55.9485 187.677 55.8763 187.22 55.3913C187.177 55.3452 187.136 55.2969 187.099 55.2462C187.061 55.1954 187.027 55.1425 186.996 55.0878C186.964 55.0328 186.936 54.9762 186.912 54.9179C186.887 54.86 186.866 54.8006 186.848 54.7399C186.831 54.6792 186.817 54.6176 186.806 54.5553C186.796 54.493 186.79 54.4303 186.787 54.3673C186.784 54.304 186.785 54.241 186.789 54.1782C186.794 54.1152 186.802 54.0526 186.814 53.9905C186.968 53.1573 187.494 52.6887 188.167 52.2405Z" fill="white"/>
<path d="M320.933 126.729C320.522 129.387 319.611 131.88 318.742 134.414C320.798 133.889 322.817 133.379 324.79 132.585L324.832 132.468L324.981 132.657C323.771 133.757 318.625 134.772 318.407 135.767C319.033 136.987 323.432 141.09 324.657 142.529C322.289 140.906 320.097 138.534 318.015 136.546C317.302 139.187 317.039 142.11 316.044 144.636C316.009 141.539 316.798 138.618 317.305 135.587C315.763 136.317 309.464 138.57 307.978 138.235L307.937 138.024C309.476 136.862 314.848 135.609 316.914 134.964C316.423 134.486 315.976 133.956 315.529 133.438C315.007 132.832 313.206 130.835 313.263 130.065C314.829 131.251 316.197 133.175 317.601 134.587C319.01 132.111 319.474 129.161 320.933 126.729Z" fill="#212121"/>
<path d="M316.965 170.012C317.47 169.974 317.933 169.967 318.424 170.116C319.177 170.343 319.902 170.824 320.257 171.545C320.609 172.259 320.615 173.143 320.352 173.885C319.853 175.289 318.82 175.825 317.546 176.394C317.007 176.534 316.389 176.651 315.84 176.518C315.236 176.372 314.748 175.999 314.469 175.446C314.004 174.528 314.132 173.315 314.498 172.389C314.996 171.127 315.754 170.541 316.965 170.012Z" fill="#212121"/>
<path d="M317.751 170.983C317.818 170.996 317.886 171.003 317.952 171.021C318.514 171.177 319.156 171.612 319.4 172.159C319.59 172.584 319.537 173.037 319.366 173.456C318.936 174.504 318.225 174.859 317.237 175.313C316.93 175.343 316.601 175.387 316.293 175.341C315.899 175.281 315.54 175.035 315.367 174.669C315.123 174.154 315.261 173.538 315.476 173.042C315.969 171.904 316.617 171.414 317.751 170.983Z" fill="#EEEEEE"/>
<path d="M25.7836 226.908C26.1112 226.951 26.437 226.988 26.75 227.1C27.5078 227.372 28.1824 227.976 28.5097 228.714C28.9151 229.628 28.8161 230.77 28.4175 231.669C27.7916 233.079 26.8438 233.629 25.4558 234.142C25.002 234.232 24.4413 234.298 23.9988 234.135C23.41 233.917 23.0176 233.41 22.8361 232.827C22.4454 231.572 22.8656 230.002 23.4647 228.882C24.0351 227.815 24.6382 227.269 25.7836 226.908Z" fill="#212121"/>
<path d="M25.6459 228.182C26.2677 228.259 26.9023 228.563 27.2902 229.067C27.5854 229.451 27.6862 229.923 27.6234 230.398C27.4825 231.464 26.8552 232.007 26.0396 232.626C25.7611 232.685 25.4626 232.762 25.1782 232.775C24.7 232.796 24.5178 232.646 24.1737 232.344C24.0461 232.004 23.9553 231.729 23.9852 231.362C24.0839 230.148 24.7546 228.977 25.6459 228.182Z" fill="white"/>
<path d="M27.8004 189.73C29.098 192.846 29.5291 196.648 30.5859 199.924C32.7792 197.251 34.9061 194.771 38.014 193.134C36.6531 194.362 31.9922 198.488 31.6823 200.206C34.5163 200.394 37.4128 200.837 40.2312 201.221C37.213 201.822 34.1406 201.236 31.1289 200.901C31.9817 203.838 33.9598 206.056 35.1165 208.824C32.7712 206.785 31.5102 204.098 30.2017 201.347C28.0666 203.043 26.2961 205.137 24.1879 206.863C25.5848 204.485 27.6519 202.567 29.5736 200.621C27.0246 200.046 24.1946 199.593 21.9092 198.268C24.4623 198.606 26.9997 199.296 29.5379 199.761C28.96 196.339 27.898 193.264 27.8004 189.73Z" fill="#212121"/>
<path d="M277.068 123.555C277.548 123.669 278.009 123.796 278.475 123.957C280.845 127.097 283.53 130.036 285.792 133.248C291.04 140.699 296.946 153.12 295.705 162.271C295.285 165.364 293.989 168.102 292.546 170.832C292.143 170.292 291.82 169.753 291.511 169.154C291.569 169.117 291.632 169.087 291.685 169.042C292.919 167.998 294.147 162.854 294.324 161.141C295.412 150.597 286.27 135.588 279.817 127.607C277.802 128.133 275.725 128.584 273.636 128.613L273.796 128.163C275.738 127.955 277.646 127.565 279.562 127.197C278.8 125.946 277.906 124.757 277.068 123.555Z" fill="#2962FF"/>
<path d="M279.817 127.607C286.27 135.588 295.412 150.597 294.324 161.141C294.147 162.854 292.919 167.998 291.685 169.042C291.632 169.086 291.569 169.117 291.511 169.154L291.696 168.614C291.989 167.771 292.147 166.911 292.322 166.036C291.262 163.527 290.708 160.735 289.774 158.157C287.554 152.029 284.348 146.368 280.711 140.973C279.091 138.569 277.25 136.395 275.372 134.197C274.027 132.621 272.239 130.889 271.31 129.05L271.574 128.784C272.276 128.794 272.943 128.706 273.636 128.613C275.725 128.583 277.802 128.132 279.817 127.607Z" fill="#EEEEEE"/>
<path d="M98.6992 143.873C99.3685 141.983 100.239 140.126 101.027 138.28C103.418 132.684 105.98 127.145 109.416 122.1C112.542 117.508 115.839 112.775 119.456 108.557C132.968 92.7946 152.858 78.2144 173.843 75.1038C184.679 73.4975 196.244 75.0062 206.497 78.7799C209.038 79.7156 224.788 86.4434 224.849 86.4318C224.908 86.2901 224.968 86.1485 225.035 86.0107C226.471 83.0675 230.648 80.5423 233.676 79.575C234.881 79.1907 237.856 78.5121 238.99 79.2068C239.262 79.3739 239.171 79.2969 239.274 79.6379C238.912 79.7444 239.053 79.7424 238.696 79.7032C237.666 79.5898 236.773 79.5413 235.735 79.7101C231.367 80.4196 227.713 83.0114 225.158 86.5098C226.733 87.5723 228.443 88.5771 230.145 89.4224C230.011 89.7789 229.955 90.1192 229.661 90.3694C228.335 89.7531 225.012 87.9157 223.702 87.9209L223.532 87.7648C221.342 86.1585 215.945 84.0564 213.336 83.0204C199.892 77.6799 188.092 74.4902 173.462 76.7397C166.845 77.7572 160.838 80.0806 154.837 82.9582C136.579 91.7138 125.175 103.171 113.318 119.393C108.222 126.365 105.337 131.95 101.867 139.792C101.182 141.339 100.323 142.85 99.6968 144.414L98.6992 143.873Z" fill="#2962FF"/>
<path d="M304.503 212.561C305.808 213.871 307.05 215.238 308.229 216.662C309.408 218.086 310.519 219.561 311.562 221.087C316.625 228.622 322.672 241.531 322.644 250.685C322.623 257.41 319.151 264.053 314.407 268.679C308.843 274.106 301.45 278.024 294.43 281.203C270.828 291.891 245.015 296.106 219.205 295.663C211.57 295.532 203.663 295.037 196.107 293.904C190.615 293.08 185.244 291.8 179.713 291.169C175.779 290.758 171.836 290.458 167.885 290.27C164.297 290.132 160.649 290.15 157.083 289.721C156.531 289.655 155.61 289.659 155.25 289.199C155.166 289.091 155.075 288.863 155.019 288.733C155.646 288.112 156.364 287.981 157.206 287.833C159.854 288.304 162.629 288.354 165.311 288.467C169.519 288.644 173.716 288.759 177.911 289.165C184.556 289.809 190.996 291.497 197.608 292.315C228.884 296.182 261.448 293.466 290.594 280.971C297.467 278.024 304.61 274.548 310.512 269.911C315.727 265.813 320.52 259.601 321.289 252.824C322.383 243.174 314.643 227.888 309.173 220.107C307.743 218.073 305.943 216.395 304.42 214.45L304.301 214.296C304.451 213.774 304.446 213.108 304.503 212.561Z" fill="#2962FF"/>
<path d="M99.6973 144.414C100.324 142.85 101.183 141.339 101.867 139.792C105.337 131.95 108.223 126.365 113.319 119.393C125.176 103.171 136.58 91.7138 154.838 82.9582C160.838 80.0806 166.846 77.7572 173.462 76.7397C188.092 74.4902 199.892 77.6799 213.337 83.0204C215.946 84.0564 221.342 86.1585 223.533 87.7648C221.536 90.3632 220.2 93.1242 219.236 96.2486C218.613 96.4139 217.982 96.5638 217.369 96.7618C214.19 94.3951 210.694 92.6361 207.06 91.0878C195.469 86.1513 183.541 84.8773 171.12 86.7054C152.686 89.4183 137.19 101.379 126.284 116.052C120.861 123.349 113.775 139.349 113.75 148.603C112.041 149.113 110.225 149.434 108.483 149.83C105.647 147.887 102.62 146.225 99.6973 144.414Z" fill="#EEEEEE"/>
<path d="M304.3 214.295L304.419 214.45C305.943 216.395 307.743 218.073 309.173 220.107C314.643 227.888 322.383 243.174 321.289 252.824C320.52 259.601 315.727 265.813 310.512 269.911C304.609 274.548 297.467 278.024 290.594 280.971C261.448 293.466 228.884 296.181 197.608 292.315C190.996 291.497 184.555 289.809 177.911 289.165C173.716 288.759 169.519 288.644 165.311 288.467C162.629 288.354 159.854 288.304 157.206 287.833C160.681 285.404 163.418 283.8 165.714 280.06C167.375 277.353 168.092 274.258 167.316 271.137C166.471 267.738 164.294 265.702 161.396 263.937C165.112 261.463 169.042 258.703 173.198 257.023C173.722 257.293 181.446 258.301 181.9 258.174C182.202 260.022 182.968 261.175 184.465 262.328C188.308 265.29 192.339 266.299 197.165 265.706C197.15 265.805 197.135 265.903 197.122 266.002C196.599 269.896 197.677 274.404 200.147 277.49C202.977 281.027 207.533 282.631 211.908 283.115C216.119 283.58 220.48 283.219 224.681 282.769C243.099 280.793 262.525 273.452 277.018 261.8C291.967 249.782 302.195 233.614 304.3 214.295Z" fill="#FBF6DF"/>
<path d="M263.754 66.0216C269.78 64.0859 277.251 64.9625 282.832 67.8356C288.856 70.9365 292.297 76.233 295.169 82.1596C295.482 82.0799 295.797 82.0079 296.113 81.9437C296.43 81.8793 296.748 81.8231 297.067 81.775C297.386 81.7266 297.707 81.6862 298.028 81.6536C298.349 81.6213 298.671 81.597 298.994 81.5807C299.316 81.5645 299.639 81.5562 299.962 81.556C300.285 81.5558 300.607 81.5636 300.93 81.5794C301.253 81.5952 301.575 81.619 301.896 81.6509C302.217 81.6827 302.538 81.7226 302.857 81.7705C303.176 81.8184 303.494 81.8741 303.811 81.9376C304.127 82.0013 304.442 82.0729 304.755 82.1524C305.068 82.2317 305.379 82.3188 305.688 82.4136C305.996 82.5085 306.303 82.6111 306.606 82.7213C306.91 82.8313 307.21 82.9489 307.508 83.074C307.806 83.1991 308.1 83.3316 308.391 83.4714C308.682 83.6112 308.97 83.7581 309.253 83.9121C309.537 84.0663 309.817 84.2274 310.093 84.3954C313.681 86.5589 317.178 90.2336 318.157 94.4164C318.93 97.7219 317.996 101.322 316.351 104.224C314.958 109.894 312.937 116.544 307.613 119.771C306.81 120.258 305.983 120.584 305.078 120.824C302.983 121.472 300.989 120.536 299.089 119.741C291.474 123.712 287.003 124.453 278.475 123.957C278.008 123.796 277.548 123.668 277.067 123.555C277.906 124.757 278.799 125.946 279.562 127.197C277.646 127.565 275.737 127.955 273.796 128.163L273.635 128.613C272.942 128.706 272.275 128.794 271.574 128.784C270.205 128.816 268.819 128.744 267.455 128.629C257.522 127.791 249.914 124.043 243.515 116.433C237.893 117.649 231.742 117.516 226.264 115.721C221.453 114.144 215.647 111.706 213.292 106.862C213.236 106.751 213.184 106.638 213.135 106.524C213.085 106.41 213.039 106.295 212.995 106.178C212.952 106.062 212.911 105.944 212.874 105.826C212.836 105.707 212.802 105.588 212.77 105.468C212.739 105.347 212.711 105.226 212.685 105.105C212.66 104.983 212.638 104.861 212.619 104.738C212.6 104.615 212.584 104.492 212.571 104.368C212.559 104.245 212.549 104.121 212.543 103.996C212.536 103.872 212.533 103.748 212.533 103.624C212.533 103.499 212.536 103.375 212.543 103.251C212.549 103.127 212.558 103.003 212.571 102.879C212.583 102.756 212.599 102.632 212.618 102.51C212.637 102.387 212.659 102.265 212.684 102.143C212.709 102.021 212.738 101.9 212.769 101.78C212.8 101.66 212.834 101.54 212.872 101.422C212.909 101.303 212.95 101.185 212.993 101.069C213.777 98.925 215.377 97.7002 217.369 96.7618C217.982 96.5638 218.613 96.4139 219.236 96.2486C220.2 93.1242 221.536 90.3632 223.533 87.7648L223.702 87.9209C225.012 87.9157 228.335 89.7531 229.661 90.3694C229.955 90.1191 230.012 89.7788 230.145 89.4224C231.549 86.5249 233.238 83.7928 236.107 82.1431C239.343 80.2824 242.64 80.3786 246.127 81.3216L246.254 81.0789C246.224 81.0349 246.19 80.9936 246.165 80.9469C245.857 80.3652 246.204 79.7039 246.415 79.1449C242.718 76.3547 238.255 75.3654 233.699 75.9591C229.637 76.4881 224.446 78.9016 221.931 82.2266C221.519 82.7708 221.16 83.2366 220.463 83.3916L220.398 83.1675C220.633 82.7584 220.904 82.4398 221.221 82.0926C224.925 78.0411 230.033 75.3396 235.567 75.1031C239.535 74.9336 243.71 75.9178 246.684 78.674C247.004 78.0329 247.334 77.4021 247.717 76.7957C251.298 71.1149 256.254 67.7005 262.763 66.2213L263.754 66.0216Z" fill="#EEEEEE"/>
<path d="M229.467 99.6339C229.7 100.984 230.78 102.531 231.315 103.818C231.685 104.709 231.843 105.657 232.008 106.602C231.899 106.45 231.861 106.404 231.758 106.22C230.976 104.813 228.977 101.155 229.467 99.6339Z" fill="#2098A6"/>
<path d="M257.78 68.8405L257.814 69.0941L257.664 69.2481C257.202 69.7276 256.754 70.2193 256.319 70.7235C255.884 71.2275 255.463 71.7428 255.056 72.2697C254.649 72.7968 254.257 73.3345 253.879 73.8829C253.502 74.4313 253.139 74.9896 252.792 75.5577C252.445 76.1258 252.114 76.7029 251.798 77.2891C251.482 77.8754 251.183 78.4698 250.9 79.0725C250.617 79.675 250.35 80.2848 250.1 80.902C249.85 81.5191 249.617 82.1426 249.402 82.7723C248.279 82.3392 247.206 81.8545 246.127 81.3217L246.253 81.079C248.88 75.6037 252 71.2697 257.78 68.8405Z" fill="white"/>
<path d="M263.755 66.0217C265.418 66.3277 267.311 65.9169 268.896 66.4696C270.34 66.5872 272.344 66.8467 273.632 67.5249C276.594 68.4208 279.214 69.9137 281.88 71.4513C287.26 75.1947 290.68 79.7473 292.27 86.1222C292.237 86.0723 292.203 86.0225 292.171 85.9723C291.212 84.4993 290.496 82.8253 289.697 81.2602C287.706 77.3648 285.04 74.6643 281.469 72.1724C279.002 70.6273 276.42 69.5452 273.795 68.3266C271.892 67.7624 269.959 67.341 267.994 67.0626L265.985 66.9602C263.017 67.0183 260.428 67.4507 257.781 68.8405C252 71.2698 248.881 75.6038 246.254 81.079C246.224 81.035 246.191 80.9938 246.166 80.947C245.857 80.3654 246.204 79.704 246.415 79.1451C242.718 76.3549 238.255 75.3655 233.699 75.9592C229.637 76.4882 224.446 78.9017 221.931 82.2268C221.519 82.7709 221.161 83.2367 220.463 83.3918L220.398 83.1676C220.633 82.7586 220.904 82.4399 221.221 82.0927C224.926 78.0413 230.033 75.3398 235.567 75.1033C239.536 74.9338 243.71 75.9179 246.685 78.6741C247.004 78.033 247.334 77.4023 247.717 76.7959C251.298 71.1151 256.254 67.7006 262.764 66.2214L263.755 66.0217Z" fill="#212121"/>
<path d="M223.702 87.9209C225.012 87.9158 228.335 89.7531 229.661 90.3694C229.134 93.5955 228.384 96.2919 228.686 99.6253C226.169 97.8965 223.881 96.5683 220.771 96.2637C220.469 96.2342 220.152 96.2153 219.865 96.118C220.853 93.2497 222.281 90.5918 223.702 87.9209Z" fill="#EEEEEE"/>
<path d="M306.859 87.4133C302.823 86.1383 298.58 86.8643 294.848 88.726C293.771 89.2637 292.779 90.0997 291.654 90.5019C291.981 89.5816 294.667 88.2145 295.62 87.7185C299.329 85.7873 303.558 85.5663 307.511 86.7973C310.701 87.986 312.778 89.7814 314.588 92.6513C316.14 95.5337 316.543 98.0207 316.424 101.278C316.39 102.226 316.227 103.287 316.351 104.224C314.959 109.894 312.938 116.544 307.613 119.771C306.81 120.258 305.984 120.584 305.079 120.824C302.983 121.472 300.989 120.536 299.089 119.741L294.744 117.451C285.485 113.013 279.657 109.518 269.235 107.842C266.609 107.508 264.006 107.421 261.363 107.382L261.257 107.384C259.335 107.491 257.487 107.72 255.6 108.096C254.545 108.306 253.383 108.679 252.327 108.77C250.72 109.329 249.111 109.95 247.479 110.432C241.161 112.907 231.472 116.489 224.803 114.311C222.34 113.507 220.317 111.838 219.156 109.505C217.182 105.538 217.929 100.294 219.236 96.2487C220.2 93.1243 221.536 90.3633 223.533 87.7649L223.702 87.921C222.281 90.5919 220.854 93.2498 219.866 96.118C218.689 100.452 217.597 105.721 220.06 109.841C221.367 112.03 223.764 113.451 226.211 114.014C232.605 115.485 240.053 112.254 246.024 110.133C247.822 109.51 249.613 108.864 251.447 108.352C254.141 107.559 256.817 107.009 259.627 106.874C261.248 106.576 263.056 106.715 264.704 106.749C266.33 106.738 267.97 106.942 269.585 107.124C277.313 108.126 284.69 111.283 291.566 114.849C292.675 115.424 294.393 116.11 295.305 116.917C296.98 117.761 298.649 118.689 300.357 119.458C303.414 117.341 306.504 115.07 309.227 112.532C310.273 111.557 313.979 107.149 314.969 106.779C316.299 101.943 316.193 97.4508 313.899 92.9621C312.037 90.2819 310.033 88.3819 306.859 87.4133Z" fill="#212121"/>
<path d="M300.357 119.458C303.414 117.341 306.504 115.07 309.227 112.532C310.273 111.556 313.979 107.149 314.969 106.779C313.869 111.424 311.388 116.701 307.199 119.325C306.872 119.532 306.53 119.712 306.174 119.866C305.818 120.019 305.453 120.145 305.078 120.241C303.215 120.658 302.051 120.193 300.357 119.458Z" fill="#FBF6DF"/>
<path d="M219.236 96.2487C217.928 100.294 217.181 105.538 219.156 109.505C220.317 111.838 222.34 113.507 224.803 114.311C231.472 116.489 241.16 112.907 247.479 110.432C249.111 109.95 250.719 109.329 252.327 108.77C253.383 108.679 254.545 108.306 255.6 108.096C257.486 107.72 259.335 107.491 261.257 107.384L261.363 107.382C264.005 107.421 266.609 107.507 269.234 107.842C279.656 109.518 285.485 113.013 294.744 117.451L299.089 119.741C291.474 123.713 287.003 124.453 278.475 123.957C278.008 123.796 277.548 123.669 277.067 123.555C277.906 124.757 278.799 125.946 279.562 127.197C277.646 127.565 275.737 127.955 273.796 128.163L273.635 128.613C272.942 128.706 272.275 128.795 271.574 128.784C270.205 128.816 268.818 128.744 267.455 128.629C257.521 127.791 249.914 124.043 243.515 116.433C237.893 117.649 231.742 117.516 226.264 115.721C221.453 114.144 215.647 111.706 213.292 106.862C213.236 106.751 213.184 106.638 213.135 106.524C213.085 106.41 213.039 106.295 212.995 106.178C212.952 106.062 212.911 105.944 212.874 105.826C212.836 105.707 212.802 105.588 212.77 105.468C212.739 105.347 212.711 105.226 212.685 105.105C212.66 104.983 212.638 104.861 212.619 104.738C212.6 104.615 212.584 104.492 212.571 104.368C212.559 104.245 212.549 104.121 212.543 103.996C212.536 103.872 212.533 103.748 212.533 103.624C212.533 103.5 212.536 103.375 212.543 103.251C212.549 103.127 212.558 103.003 212.571 102.88C212.583 102.756 212.599 102.633 212.618 102.51C212.637 102.387 212.659 102.265 212.684 102.143C212.709 102.021 212.738 101.9 212.769 101.78C212.8 101.66 212.834 101.54 212.872 101.422C212.909 101.303 212.95 101.185 212.993 101.069C213.777 98.9251 215.377 97.7003 217.369 96.7619C217.982 96.5639 218.613 96.414 219.236 96.2487Z" fill="#EEEEEE"/>
<path d="M244.191 116.453C245.802 116.007 247.409 115.628 249.043 115.283C251.217 116.261 253.057 117.866 255.157 118.987C262.493 122.906 268.934 123.674 277.068 123.555C277.906 124.757 278.8 125.946 279.562 127.197C277.646 127.565 275.738 127.955 273.796 128.163C271.256 128.23 268.832 128.227 266.301 127.94C257.639 126.959 249.698 123.363 244.191 116.453Z" fill="#FBF6DF"/>
<path d="M113.75 148.603C113.775 139.349 120.861 123.35 126.285 116.052C137.191 101.379 152.687 89.4183 171.12 86.7054C183.541 84.8774 195.469 86.1513 207.06 91.0879C210.695 92.6362 214.19 94.3951 217.37 96.7618C215.378 97.7003 213.777 98.9251 212.994 101.069C212.95 101.185 212.91 101.303 212.872 101.422C212.835 101.54 212.801 101.66 212.769 101.78C212.738 101.9 212.71 102.021 212.685 102.143C212.659 102.265 212.637 102.387 212.619 102.51C212.6 102.633 212.584 102.756 212.571 102.88C212.559 103.003 212.549 103.127 212.543 103.251C212.537 103.375 212.534 103.5 212.534 103.624C212.534 103.748 212.537 103.872 212.543 103.996C212.55 104.121 212.559 104.245 212.572 104.368C212.585 104.492 212.601 104.615 212.62 104.738C212.639 104.861 212.661 104.983 212.686 105.105C212.711 105.226 212.74 105.347 212.771 105.468C212.802 105.588 212.837 105.707 212.874 105.826C212.912 105.944 212.952 106.062 212.996 106.178C213.039 106.295 213.086 106.41 213.135 106.524C213.185 106.638 213.237 106.751 213.292 106.862C215.647 111.706 221.454 114.144 226.265 115.721C231.743 117.516 237.893 117.649 243.516 116.433C249.915 124.043 257.522 127.791 267.456 128.629C268.819 128.744 270.205 128.816 271.574 128.784L271.31 129.05C272.239 130.889 274.027 132.621 275.372 134.197C277.25 136.396 279.091 138.569 280.711 140.973C284.348 146.368 287.554 152.029 289.774 158.157C290.708 160.735 291.261 163.527 292.322 166.036C292.147 166.911 291.989 167.771 291.696 168.615L291.511 169.154C290.591 167.98 289.828 166.672 288.91 165.487C287.256 163.353 285.38 161.355 283.517 159.404C276.97 152.548 268.578 146.653 259.8 143.041C257.019 141.896 254.029 141.228 251.297 139.984C250.036 139.409 249.001 138.297 247.871 137.491C246.054 136.194 244.032 134.999 242.066 133.944C232.998 129.073 220.471 127.394 210.268 127.166C209.431 127.14 208.594 127.127 207.757 127.126C206.92 127.125 206.083 127.136 205.247 127.16C204.41 127.184 203.574 127.221 202.738 127.27C201.902 127.318 201.068 127.38 200.234 127.454C199.4 127.527 198.568 127.613 197.736 127.712C196.905 127.81 196.075 127.921 195.248 128.044C194.42 128.167 193.594 128.303 192.77 128.451C191.946 128.599 191.124 128.759 190.305 128.931C189.486 129.103 188.67 129.287 187.856 129.484C187.042 129.68 186.232 129.889 185.424 130.109C184.617 130.33 183.813 130.563 183.012 130.807C182.212 131.052 181.415 131.308 180.622 131.576C179.829 131.845 179.041 132.125 178.256 132.417C177.471 132.709 176.691 133.012 175.916 133.327C175.14 133.642 174.37 133.968 173.604 134.306C172.838 134.644 172.077 134.993 171.322 135.354C169.042 136.44 166.869 137.724 164.663 138.949C159.398 141.874 154.322 145.013 149.951 149.199C149.211 149.022 148.47 148.856 147.726 148.7C146.981 148.544 146.235 148.398 145.487 148.262C144.739 148.126 143.989 148.001 143.238 147.885C142.486 147.77 141.733 147.664 140.979 147.569C140.225 147.474 139.469 147.39 138.712 147.315C137.956 147.241 137.198 147.177 136.44 147.123C135.681 147.069 134.922 147.026 134.163 146.992C133.403 146.959 132.643 146.937 131.883 146.924C131.123 146.911 130.363 146.909 129.602 146.917C128.842 146.926 128.082 146.944 127.322 146.973C126.562 147.002 125.803 147.041 125.045 147.091C124.286 147.14 123.528 147.2 122.771 147.27C122.014 147.34 121.258 147.42 120.503 147.511C119.748 147.602 118.994 147.703 118.242 147.814C117.49 147.925 116.74 148.046 115.991 148.178C115.242 148.309 114.495 148.451 113.75 148.603Z" fill="#FBF6DF"/>
<path d="M57.734 187.807C57.242 187.466 56.7582 187.114 56.2827 186.751C53.5633 184.645 51.2199 182.11 48.9673 179.525C48.3678 178.845 47.7814 178.153 47.208 177.451C46.6347 176.748 46.0749 176.035 45.5288 175.311C44.9827 174.587 44.4505 173.854 43.9321 173.11C43.4139 172.366 42.9101 171.612 42.4206 170.849C41.9309 170.085 41.4559 169.313 40.9958 168.532C40.5356 167.751 40.0905 166.961 39.6603 166.163C39.2304 165.364 38.8157 164.558 38.4163 163.744C38.0166 162.93 37.6328 162.109 37.2647 161.281C36.8964 160.452 36.5441 159.617 36.2077 158.775C35.8713 157.932 35.551 157.084 35.2469 156.23C34.9428 155.376 34.655 154.516 34.3834 153.651C34.112 152.786 33.8572 151.916 33.6188 151.041C33.3805 150.166 33.1589 149.287 32.954 148.404C32.7491 147.521 32.5611 146.634 32.39 145.743C32.2188 144.853 32.0647 143.959 31.9275 143.063C31.7904 142.167 31.6703 141.268 31.5674 140.367C28.9251 118.069 36.8508 95.361 50.7318 78.0346C51.1954 77.4571 51.6659 76.8854 52.1432 76.3196C52.6208 75.7538 53.1053 75.1939 53.5966 74.64C54.088 74.0861 54.5859 73.5383 55.0906 72.9966C55.5954 72.4548 56.1068 71.9194 56.6247 71.3902C57.1424 70.8611 57.6666 70.3384 58.1974 69.822C58.7281 69.3057 59.2652 68.7961 59.8085 68.293C60.3517 67.7898 60.901 67.2934 61.4565 66.8039C62.0117 66.3142 62.5731 65.8315 63.1405 65.3557C63.7077 64.8797 64.2806 64.4108 64.8592 63.9491C65.4381 63.4873 66.0225 63.0328 66.6124 62.5854C67.2022 62.1379 67.7976 61.6977 68.3985 61.2651C68.9991 60.8322 69.6051 60.4067 70.2162 59.9887C70.8274 59.571 71.4437 59.1606 72.0649 58.7578C72.6862 58.3549 73.3123 57.9597 73.9432 57.5722C74.5741 57.1849 75.2097 56.8053 75.85 56.4333C76.4903 56.0616 77.135 55.6977 77.7842 55.3416C78.4335 54.9855 79.0869 54.6375 79.7446 54.2976C80.4024 53.9575 81.0642 53.6257 81.7301 53.3021C82.3961 52.9783 83.0658 52.6627 83.7394 52.3554C84.4131 52.0481 85.0904 51.7492 85.7713 51.4586C86.4524 51.168 87.1369 50.8858 87.8248 50.6119C88.5128 50.3381 89.204 50.0727 89.8983 49.8158C90.5927 49.5589 91.2902 49.3106 91.9907 49.0709C92.6913 48.831 93.3946 48.5997 94.1007 48.3772C94.807 48.1549 95.5158 47.9412 96.2271 47.7361C96.9387 47.531 97.6525 47.3346 98.3687 47.1469C99.0851 46.9595 99.8035 46.7807 100.524 46.6107C101.245 46.4409 101.967 46.2798 102.692 46.1274C103.417 45.9752 104.143 45.832 104.871 45.6977C105.599 45.5634 106.329 45.4379 107.06 45.3213C107.791 45.2048 108.524 45.0975 109.258 44.9992C109.991 44.9006 110.726 44.8111 111.462 44.7307C127.509 42.9741 143.503 45.323 158.086 52.3341C162.432 54.4238 166.578 56.7857 170.348 59.811C158.441 57.2975 146.695 56.6114 134.808 59.6941C131.909 60.4459 128.967 61.3472 126.245 62.6078C122.775 64.2158 119.738 66.5736 116.383 68.3432L116.152 68.4632C107.408 75.473 102.444 81.0005 96.685 90.6193C89.9073 104.36 87.2961 120.082 90.6192 135.148C90.9815 136.79 91.3129 138.529 91.8378 140.125C91.8941 140.297 91.9629 140.464 92.0279 140.632C88.7712 139.618 84.288 136.966 80.8436 137.852C78.7863 138.896 77.8172 139.886 77.0881 142.136C74.5121 150.086 76.3474 165.555 77.775 173.764C76.9128 175.745 75.8506 177.632 75.0146 179.623C74.7502 180.269 74.5059 180.922 74.2818 181.582C74.0576 182.243 73.8541 182.91 73.6713 183.583C73.4886 184.256 73.327 184.934 73.1862 185.617C73.0455 186.301 72.9261 186.988 72.8281 187.678C72.7297 188.369 72.6531 189.062 72.5981 189.757C72.5429 190.453 72.5093 191.149 72.4974 191.846C72.4852 192.544 72.4947 193.241 72.5259 193.938C72.5573 194.635 72.6101 195.33 72.6844 196.024C67.2617 193.895 62.4482 191.209 57.734 187.807Z" fill="#2962FF"/>
<path d="M48.5005 163.554C48.9697 163.578 49.2124 163.602 49.6345 163.838C49.8099 164.297 49.7291 164.436 49.6235 164.904C49.2124 164.872 48.9343 164.803 48.5565 164.638C48.3276 164.163 48.3957 164.081 48.5005 163.554Z" fill="#FBF6DF"/>
<path d="M110.192 53.7676C110.688 53.8721 111.282 53.9848 111.664 54.3475C112.012 54.6761 111.947 54.9222 111.928 55.3519C111.63 55.8514 111.263 56.1477 110.817 56.5128C110.467 55.9504 110.378 55.5492 109.736 55.3182C109.885 55.079 110.015 54.8872 110.217 54.6864C110.27 54.6328 110.327 54.5826 110.382 54.5307L110.192 53.7676Z" fill="#EEEEEE"/>
<path d="M51.8532 92.6385C52.069 92.897 52.0055 93.0064 52.0151 93.3326C52.2196 93.5883 52.3709 93.7898 52.519 94.0844C52.1423 94.4137 52.0649 94.3642 51.5558 94.3862L51.407 94.5952L51.6404 95.1036C51.3424 95.3862 51.153 95.4016 50.7628 95.5192C50.7917 93.6636 50.0787 94.0579 50.087 93.3082C50.5287 93.093 50.8364 93.0222 51.3269 93.1043C51.387 93.1143 51.4462 93.1291 51.5056 93.1415L51.8532 92.6385Z" fill="white"/>
<path d="M70.3287 72.1305C70.6958 72.1649 70.9539 72.2687 71.2891 72.4186C71.5356 72.7272 71.682 72.8469 71.5923 73.2759C71.4761 73.8307 70.9739 74.172 70.5579 74.5C70.3104 74.4285 69.9041 74.3181 69.7051 74.1425C69.3184 73.8018 69.3418 73.6289 69.3242 73.1545C69.5645 72.6049 69.8436 72.4347 70.3287 72.1305Z" fill="#EEEEEE"/>
<path d="M61.287 119.466C62.4004 119.399 63.4939 119.389 64.5351 119.843C65.7723 120.383 66.7131 121.353 67.2006 122.615C67.2627 122.772 67.3167 122.933 67.3628 123.096C67.4089 123.259 67.4467 123.424 67.4762 123.59C67.506 123.757 67.5273 123.925 67.5402 124.094C67.5532 124.263 67.5579 124.432 67.5543 124.601C67.5504 124.771 67.5382 124.94 67.5178 125.108C67.4972 125.276 67.4683 125.443 67.4312 125.608C67.3941 125.774 67.3488 125.937 67.2954 126.097C67.2423 126.258 67.1812 126.416 67.1122 126.571C66.4065 128.139 65.0775 129.05 63.5004 129.603C62.322 129.802 61.2746 129.791 60.1709 129.27C58.9334 128.685 58.0403 127.613 57.5931 126.328C57.5333 126.157 57.4824 125.984 57.4405 125.808C57.3985 125.631 57.3656 125.454 57.3418 125.274C57.3182 125.094 57.3036 124.914 57.2981 124.733C57.2929 124.552 57.2969 124.371 57.3102 124.191C57.3235 124.01 57.3458 123.83 57.3772 123.652C57.4088 123.474 57.4495 123.297 57.4992 123.123C57.5487 122.949 57.6071 122.778 57.6742 122.609C57.7416 122.441 57.8172 122.277 57.9011 122.116C58.634 120.702 59.8103 119.942 61.287 119.466Z" fill="#EEEEEE"/>
<path d="M61.5278 121.363C62.0565 121.326 62.634 121.254 63.1575 121.36C64.0076 121.531 64.8419 122.104 65.2902 122.847C65.7573 123.621 65.8347 124.551 65.5703 125.407C65.1822 126.665 64.3476 127.249 63.2201 127.818C62.6299 127.861 62.0527 127.909 61.4773 127.739C60.6224 127.485 59.8764 126.904 59.4636 126.109C59.4136 126.011 59.3687 125.912 59.3289 125.81C59.2892 125.708 59.2547 125.604 59.2254 125.499C59.1963 125.394 59.1726 125.287 59.1542 125.179C59.1357 125.071 59.1228 124.963 59.1157 124.854C59.1084 124.745 59.1066 124.635 59.1102 124.526C59.1141 124.417 59.1235 124.308 59.1384 124.199C59.1533 124.091 59.1737 123.984 59.1996 123.878C59.2255 123.771 59.2567 123.667 59.2931 123.563C59.6929 122.427 60.4938 121.881 61.5278 121.363Z" fill="#F36337"/>
<path d="M149.95 149.199C154.321 145.013 159.397 141.874 164.663 138.949C166.868 137.724 169.042 136.44 171.321 135.354C172.077 134.994 172.837 134.644 173.603 134.306C174.369 133.968 175.14 133.642 175.915 133.327C176.691 133.012 177.471 132.709 178.255 132.417C179.04 132.125 179.829 131.845 180.621 131.577C181.414 131.308 182.211 131.052 183.012 130.807C183.812 130.563 184.616 130.33 185.424 130.109C186.231 129.889 187.042 129.68 187.855 129.484C188.669 129.287 189.485 129.103 190.305 128.931C191.124 128.759 191.945 128.599 192.769 128.451C193.593 128.303 194.419 128.167 195.247 128.044C196.075 127.921 196.904 127.81 197.736 127.712C198.567 127.613 199.399 127.527 200.233 127.454C201.067 127.38 201.902 127.319 202.737 127.27C203.573 127.221 204.409 127.184 205.246 127.16C206.083 127.136 206.92 127.125 207.757 127.126C208.594 127.127 209.43 127.14 210.267 127.166C220.47 127.394 232.998 129.073 242.066 133.944C244.032 134.999 246.054 136.194 247.871 137.491C249 138.297 250.035 139.409 251.296 139.984C254.028 141.228 257.018 141.896 259.8 143.041C268.577 146.653 276.969 152.548 283.517 159.404C285.379 161.355 287.255 163.353 288.909 165.487C289.828 166.672 290.59 167.98 291.51 169.154C291.819 169.753 292.142 170.292 292.545 170.832C293.301 172.057 294.024 173.3 294.714 174.563C295.404 175.825 296.061 177.105 296.684 178.403C297.306 179.7 297.894 181.012 298.447 182.341C299 183.669 299.518 185.011 300 186.366C300.483 187.722 300.929 189.089 301.339 190.468C301.749 191.847 302.123 193.236 302.46 194.635C302.797 196.034 303.096 197.441 303.359 198.856C303.621 200.27 303.846 201.691 304.034 203.117C304.272 204.903 304.353 206.688 304.38 208.487C304.398 209.721 304.196 211.385 304.503 212.561C304.446 213.108 304.451 213.774 304.3 214.296C302.195 233.614 291.967 249.782 277.018 261.8C262.524 273.452 243.099 280.794 224.681 282.769C220.48 283.219 216.119 283.58 211.908 283.115C207.533 282.631 202.977 281.027 200.147 277.491C197.677 274.404 196.599 269.896 197.121 266.002C197.135 265.903 197.15 265.805 197.165 265.706C192.339 266.299 188.307 265.29 184.465 262.328C182.968 261.175 182.202 260.023 181.9 258.175C181.446 258.301 173.722 257.293 173.198 257.023C169.042 258.703 165.111 261.464 161.396 263.937C164.294 265.702 166.471 267.738 167.316 271.137C168.092 274.258 167.375 277.353 165.713 280.06C163.418 283.8 160.681 285.404 157.206 287.833C156.364 287.981 155.645 288.112 155.018 288.733C154.736 288.603 153.692 288.794 153.336 288.825C153.797 289.419 154.207 290.051 154.628 290.673C154.058 292.283 153.274 293.547 152.036 294.731C146.316 300.199 135.442 301.553 127.881 301.308C121.916 301.115 112.419 298.627 108.203 294.155C103.304 296.352 98.7079 298.643 93.2729 299.168C83.0862 300.153 74.2848 297.281 66.4295 290.847C62.5396 292.063 58.999 292.548 55.0001 291.491C48.836 289.863 44.5271 286.029 41.3945 280.629C37.3541 275.31 35.197 269.661 34.2214 263.096C33.9223 258.933 34.2888 254.966 36.3348 251.253C38.4053 247.495 41.4777 244.895 45.6171 243.723C47.2451 243.261 49.0354 243.074 50.7167 243.298C53.6323 243.688 55.8097 245.331 57.5614 247.587C59.5084 243.28 61.4637 240.742 65.6392 238.414C66.3019 237.979 67.0991 237.708 67.8302 237.403C67.6154 236.074 67.4576 234.749 67.3961 233.404C67.0224 225.227 70.043 216.658 75.5846 210.604C72.5812 211.437 69.581 212.314 66.7571 213.656C64.9507 214.514 63.2742 215.608 61.463 216.46C64.565 212.575 71.8535 210.161 76.5522 208.795C75.2071 206.729 74.7187 204.454 73.8407 202.186C72.8133 202.085 71.7903 202.004 70.7569 202.019C69.3115 202.04 64.8462 202.779 63.9105 202.272L63.9094 201.958C65.3477 200.843 71.6098 200.67 73.6499 200.578C73.2089 199.072 72.9415 197.568 72.684 196.024C72.6098 195.33 72.557 194.635 72.5259 193.938C72.4945 193.241 72.4849 192.544 72.497 191.847C72.5089 191.149 72.5425 190.453 72.5977 189.757C72.6527 189.062 72.7294 188.369 72.8277 187.678C72.9258 186.988 73.0452 186.301 73.1859 185.617C73.3266 184.934 73.4883 184.256 73.6709 183.583C73.8538 182.91 74.0573 182.243 74.2814 181.582C74.5055 180.922 74.7498 180.269 75.0143 179.623C75.8503 177.632 76.9125 175.745 77.7746 173.765C76.347 165.555 74.5117 150.086 77.0878 142.136C77.8169 139.886 78.7859 138.896 80.8433 137.852C84.2876 136.966 88.7708 139.618 92.0275 140.633C94.2965 141.62 96.5204 142.7 98.6993 143.873L99.6969 144.414C102.619 146.225 105.646 147.887 108.482 149.83C110.224 149.434 112.041 149.113 113.749 148.603C114.494 148.451 115.241 148.309 115.99 148.178C116.739 148.046 117.489 147.925 118.242 147.814C118.994 147.703 119.747 147.602 120.502 147.511C121.257 147.42 122.013 147.34 122.77 147.27C123.527 147.2 124.285 147.14 125.044 147.091C125.803 147.041 126.562 147.002 127.322 146.973C128.081 146.944 128.841 146.926 129.602 146.917C130.362 146.909 131.122 146.911 131.883 146.924C132.643 146.937 133.403 146.959 134.162 146.992C134.922 147.026 135.681 147.069 136.439 147.123C137.198 147.177 137.955 147.241 138.712 147.315C139.469 147.39 140.224 147.474 140.978 147.57C141.733 147.664 142.486 147.77 143.237 147.885C143.989 148.001 144.738 148.126 145.486 148.262C146.235 148.398 146.981 148.544 147.725 148.7C148.469 148.856 149.211 149.022 149.95 149.199Z" fill="#212121"/>
<path d="M155.329 147.585C156.196 148.281 156.626 149.165 156.752 150.275C156.802 150.707 156.908 151.471 156.727 151.882C155.303 151.241 153.872 150.616 152.435 150.005C153.316 149.063 154.281 148.327 155.329 147.585Z" fill="white"/>
<path d="M274.316 223.888C275.088 224.598 275.889 225.221 276.735 225.841C275.73 226.737 274.686 227.585 273.604 228.386C272.522 229.187 271.406 229.938 270.256 230.638C271.764 228.496 273.078 226.195 274.316 223.888Z" fill="white"/>
<path d="M75.334 202.11C79.2524 202.137 83.3306 202.596 87.2143 203.133C86.3144 203.492 84.3567 203.959 83.7988 204.685C83.6307 205.353 83.4943 205.918 83.8562 206.546C83.9882 206.775 84.0986 206.965 84.1873 207.219C82.0426 207.463 79.9182 207.92 77.7976 208.32C76.6863 206.36 76.0321 204.239 75.334 202.11Z" fill="white"/>
<path d="M171.677 152.019C173.949 151.282 176.339 150.695 178.743 150.668C180.867 154.901 180.686 161.024 179.184 165.425C178.965 166.067 178.658 166.967 178.045 167.327C177.823 167.457 177.634 167.311 177.408 167.238C177.844 165.066 178.221 162.988 177.8 160.781C177.081 157.013 174.798 154.121 171.677 152.019Z" fill="white"/>
<path d="M83.2596 162.102C82.512 158.184 82.5951 152.052 84.7721 148.549C85.4864 147.399 86.5105 146.508 87.8683 146.253C90.1188 145.83 92.2088 147.347 93.9547 148.557L93.8368 148.652C92.6093 149.627 91.2824 150.429 90.0958 151.467C87.3485 153.868 84.3754 157.924 83.7501 161.596C83.592 161.771 83.4459 161.956 83.2596 162.102Z" fill="white"/>
<path d="M164.515 155.628C166.817 154.139 169.047 152.837 171.677 152.019C174.799 154.121 177.081 157.013 177.8 160.78C178.222 162.988 177.844 165.066 177.409 167.237C173.32 162.735 169.431 159.196 164.515 155.628Z" fill="#EEEEEE"/>
<path d="M110.147 246.052C114.556 243.424 119.332 242.258 124.403 243.553C129.709 244.908 134.246 248.384 138.578 251.578C138.313 252.506 138.065 253.439 137.833 254.376C136.864 253.653 135.864 252.975 134.835 252.341C133.805 251.707 132.749 251.12 131.668 250.58C130.586 250.04 129.482 249.548 128.357 249.106C127.232 248.663 126.09 248.271 124.93 247.93C120.662 247.138 116.279 247.184 112.559 249.711C112.195 249.959 111.829 250.21 111.495 250.497C111.071 249.007 110.622 247.526 110.147 246.052Z" fill="#EEEEEE"/>
<path d="M160.667 206.657L162.295 206.909C167.536 207.216 175.519 209.167 180.352 211.158C178.927 213.358 177.351 215.399 175.494 217.251C172.165 215.568 168.627 214.161 165.099 212.953C163.591 212.438 162.003 212.054 160.52 211.49L159.594 211.297C159.853 209.737 160.29 208.193 160.667 206.657Z" fill="white"/>
<path d="M160.667 206.657L162.295 206.909C161.835 208.495 161.371 210.061 160.52 211.49L159.594 211.297C159.853 209.737 160.29 208.193 160.667 206.657Z" fill="#F0C0A9"/>
<path d="M93.9549 148.557C94.6097 148.996 95.2869 149.42 95.9146 149.897C97.6258 151.327 99.185 152.899 100.726 154.509C94.9459 157.47 89.3916 161.441 84.4292 165.617C83.8211 164.461 83.4382 163.412 83.2598 162.102C83.4461 161.956 83.5922 161.771 83.7503 161.596C84.3756 157.924 87.3487 153.868 90.0959 151.467C91.2825 150.429 92.6094 149.627 93.8369 148.652L93.9549 148.557Z" fill="#EEEEEE"/>
<path d="M93.9555 148.557C94.6104 148.996 95.2876 149.42 95.9153 149.897C94.9242 151.053 93.4042 151.912 92.1794 152.814C90.9719 153.704 89.8262 154.667 88.7422 155.705C87.5938 156.81 86.5725 157.995 85.5959 159.252C85.0101 160.006 84.4519 160.957 83.751 161.596C84.3763 157.924 87.3493 153.868 90.0966 151.467C91.2832 150.429 92.6101 149.627 93.8376 148.652L93.9555 148.557Z" fill="#EEEEEE"/>
<path d="M252.955 141.828C260.352 143.94 270.439 149.646 275.899 155.024C274.498 158.952 273.755 161.085 269.943 163.292C265.684 155.403 260.167 147.26 252.955 141.828Z" fill="#EEEEEE"/>
<path d="M46.3674 244.149C49.4701 243.697 52.2734 243.795 54.9062 245.753C55.8161 246.43 56.5875 247.253 57.363 248.076C56.7081 250.726 56.2293 253.412 56.1341 256.146C53.777 254.454 51.5921 253.756 48.6799 254.215C45.9051 254.652 43.4731 256.033 41.8337 258.345C39.3216 261.888 38.9514 266.984 39.6997 271.14C40.0957 273.341 40.8516 275.289 41.8279 277.287L41.7282 277.618C42.0448 278.289 42.5783 278.758 42.9891 279.374C43.978 280.858 45.5885 281.702 47.3121 282.057C49.3584 282.479 51.3618 282.151 53.3992 281.86C50.3415 282.557 47.5826 283.047 44.725 281.289C43.481 280.524 42.1348 278.592 41.0084 278.091C41.0527 278.432 41.0727 278.484 41.2751 278.788L40.8678 278.916C39.9936 277.188 38.9672 275.545 38.1212 273.798C36.508 270.465 35.6043 267.041 34.9199 263.422C34.6036 259.131 35.1354 254.692 37.2973 250.898C39.3408 247.311 42.4439 245.236 46.3674 244.149Z" fill="#EEEEEE"/>
<path d="M248.572 245.143C248.176 245.595 248.024 245.904 247.89 246.493C247.392 248.676 244.084 250.973 245.07 253.443C246.477 254.956 249.683 253.514 249.557 256.472C249.49 258.054 247.946 260.42 249.204 261.771C249.949 262.571 251.197 262.844 252.212 263.122C251.742 264.21 251.208 265.447 251.643 266.638C251.878 267.279 252.37 267.707 252.988 267.973C253.911 268.369 254.946 268.412 255.925 268.248C256.922 269.01 257.997 269.604 259.017 270.321C252.195 274.497 244.009 276.042 236.382 278.05C236.876 276.792 237.392 275.559 237.348 274.178C237.246 270.959 234.008 271.359 232.263 269.682C230.097 267.599 234.185 263.969 234.923 261.912C235.241 261.026 235.229 260.135 235.216 259.21C235.015 258.833 234.822 258.431 234.564 258.089C233.315 256.428 230.605 256.554 228.731 256.37C228.529 256.227 228.379 256.199 228.324 255.94C228.054 254.685 230.598 251.707 231.31 250.658C237.183 249.031 242.832 247.195 248.572 245.143Z" fill="white"/>
<path d="M155.328 147.585C157.036 145.91 159.36 144.504 161.385 143.215C171.615 136.705 184.534 131.242 196.635 129.802C199.584 134.412 200.855 139.46 199.683 144.901C198.151 152.017 193.238 158.095 189.296 164.044C188.247 165.627 187.205 167.767 185.883 169.111C186.124 167.141 187.394 164.156 187.952 162.106C188.814 158.934 191.049 149.681 191.027 146.654C191.023 146.137 190.93 145.558 190.62 145.129C190.142 144.47 189.251 144.253 188.492 144.145C180.92 143.074 169.844 145.106 163.029 148.359C161.044 149.306 159.524 150.478 157.723 151.679C157.326 151.944 157.192 151.963 156.726 151.882C156.907 151.471 156.801 150.707 156.752 150.275C156.625 149.165 156.195 148.281 155.328 147.585Z" fill="#EEEEEE"/>
<path d="M298.273 222.757C299.613 221.746 300.777 220.528 302.047 219.433C301.763 220.703 301.445 221.965 301.091 223.218C300.738 224.471 300.349 225.713 299.927 226.944C299.504 228.175 299.047 229.394 298.557 230.599C298.066 231.805 297.543 232.997 296.986 234.173C293.518 241.404 286.013 252.054 279.359 256.613C280.332 255.167 281.898 254.251 282.935 252.864C283.255 252.436 283.538 251.873 283.389 251.324C283.26 250.846 282.846 250.502 282.437 250.261C280.305 249.001 276.72 249.644 274.458 250.25C274.641 249.029 274.781 248.042 274.377 246.83C273.936 245.508 272.986 244.461 271.735 243.854C269.369 242.709 266.454 243.172 264.059 243.966C264.777 242.784 265.834 241.053 265.42 239.629C265.184 238.818 264.647 238.468 263.953 238.057C269.732 234.482 273.96 231.434 279.046 226.876C280.536 227.271 281.944 227.537 283.488 227.591C288.42 227.764 294.605 226.213 298.273 222.757Z" fill="white"/>
<path d="M299.158 190.846C301.618 198.842 303.24 206.596 302.592 215.025C302.487 216.388 302.441 218.129 302.047 219.433C300.777 220.528 299.613 221.746 298.273 222.757L297.035 221.581C291.403 225.066 286.783 226.07 280.153 225.778C280.86 225.047 281.842 224.325 281.827 223.235C281.824 222.965 281.746 222.752 281.65 222.505C281.432 222.337 281.37 222.203 281.076 222.233C279.668 222.375 277.78 224.9 276.736 225.841C275.89 225.221 275.089 224.598 274.316 223.888C275.106 221.937 276.087 220.066 276.867 218.106C278.878 213.05 279.57 207.85 279.663 202.443C281.628 202.756 283.429 202.845 285.389 202.42C290.518 201.308 294.461 198.026 297.394 193.773C298.044 192.83 298.544 191.81 299.158 190.846Z" fill="#EEEEEE"/>
<path d="M248.571 245.143C251.403 244.04 254.237 242.951 256.975 241.625C259.327 240.487 261.58 239.15 263.953 238.057C264.647 238.468 265.184 238.818 265.419 239.629C265.834 241.053 264.776 242.784 264.058 243.966C266.453 243.173 269.369 242.709 271.734 243.855C272.985 244.461 273.935 245.508 274.376 246.83C274.78 248.042 274.64 249.029 274.457 250.25C276.719 249.644 280.304 249.002 282.437 250.261C282.845 250.502 283.26 250.846 283.389 251.325C283.537 251.873 283.254 252.436 282.935 252.864C281.898 254.251 280.332 255.167 279.359 256.613C274.709 261.191 268.864 264.867 263.231 268.099C261.891 268.868 260.464 269.791 259.016 270.321C257.997 269.604 256.922 269.01 255.924 268.248C254.945 268.412 253.911 268.369 252.987 267.973C252.37 267.707 251.877 267.279 251.643 266.638C251.207 265.447 251.742 264.21 252.211 263.122C251.196 262.844 249.949 262.571 249.203 261.771C247.945 260.42 249.489 258.054 249.556 256.472C249.682 253.514 246.476 254.956 245.069 253.443C244.083 250.973 247.391 248.676 247.889 246.493C248.024 245.904 248.176 245.595 248.571 245.143Z" fill="#EEEEEE"/>
<path d="M269.942 163.292C273.755 161.085 274.498 158.952 275.899 155.024C284.664 162.545 290.865 170.625 295.415 181.248C296.762 184.394 297.741 187.751 299.158 190.846C298.543 191.81 298.044 192.83 297.393 193.773C294.46 198.027 290.518 201.308 285.388 202.42C283.428 202.846 281.627 202.756 279.663 202.443C279.766 187.495 276.641 176.475 269.942 163.292Z" fill="white"/>
<path d="M236.381 278.05C233.782 278.645 231.188 279.222 228.557 279.669C221.382 280.888 210.31 282.5 204.088 278.012C201.56 276.189 200.037 273.3 199.557 270.255C199.071 267.175 199.731 264.262 201.573 261.74C206.253 255.333 214.087 254.031 221.317 252.586C224.641 251.921 227.961 251.191 231.309 250.658C230.598 251.707 228.053 254.685 228.323 255.94C228.379 256.199 228.529 256.227 228.731 256.37C230.605 256.554 233.315 256.428 234.563 258.089C234.821 258.431 235.014 258.833 235.215 259.21C235.229 260.135 235.241 261.026 234.923 261.912C234.184 263.969 230.097 267.599 232.263 269.682C234.008 271.359 237.245 270.959 237.347 274.178C237.391 275.559 236.876 276.792 236.381 278.05Z" fill="#EEEEEE"/>
<path d="M65.767 238.921C66.3497 238.609 67.0392 238.119 67.7112 238.115C68.1148 238.396 68.0313 238.462 68.1389 238.919C70.1639 247.472 74.7237 252.342 81.496 257.617C83.1116 258.875 84.72 260.279 86.458 261.362C89.5002 263.257 97.5171 265.222 101.016 264.33C103.416 263.717 108.711 259.695 109.962 257.509C110.719 256.185 111.049 254.563 111.349 253.08C111.46 252.534 111.461 251.944 111.678 251.43C112.187 251.062 112.705 250.707 113.233 250.365C116.967 247.973 121.177 247.932 125.37 248.875C128.085 249.813 130.661 250.971 133.186 252.341C134.645 253.132 136.133 254.128 137.66 254.764L137.716 255.035C137.876 255.829 137.871 256.653 137.994 257.454C138.391 260.029 139.765 262.308 141.921 263.803C145.339 266.173 150.223 266.568 154.261 266.313L155.044 266.385C157.442 266.232 159.337 265.05 161.396 263.937C164.295 265.702 166.471 267.738 167.316 271.137C168.093 274.258 167.375 277.353 165.714 280.06C163.418 283.8 160.682 285.404 157.207 287.833C156.365 287.981 155.646 288.112 155.019 288.733C154.737 288.603 153.692 288.794 153.336 288.825C153.797 289.419 154.207 290.051 154.629 290.673C154.058 292.283 153.274 293.547 152.037 294.731C146.317 300.199 135.443 301.553 127.881 301.308C121.916 301.115 112.419 298.627 108.204 294.155C103.305 296.352 98.7086 298.643 93.2735 299.168C83.0868 300.153 74.2855 297.28 66.4301 290.846C62.5402 292.063 58.9996 292.548 55.0007 291.491C48.8366 289.863 44.5277 286.028 41.3951 280.629C41.3618 280.05 41.0737 279.458 40.8685 278.916L41.2758 278.788C41.0734 278.484 41.0534 278.432 41.0091 278.091C42.1356 278.592 43.4817 280.524 44.7257 281.289C47.5833 283.047 50.3422 282.557 53.3999 281.86C51.3625 282.151 49.3591 282.479 47.3128 282.057C45.5892 281.702 43.9787 280.858 42.9898 279.374C42.579 278.758 42.0455 278.289 41.7289 277.618L41.8286 277.287C40.8523 275.289 40.0964 273.341 39.7004 271.14C38.9521 266.984 39.3223 261.888 41.8344 258.345C43.4738 256.033 45.9058 254.652 48.6806 254.215C51.5928 253.756 53.7777 254.454 56.1348 256.146L56.5861 256.879C57.0969 254.684 57.0302 252.337 57.5497 250.104C58.7517 244.936 61.3158 241.691 65.767 238.921Z" fill="#EEEEEE"/>
<path d="M65.7665 238.921C66.3491 238.609 67.0387 238.119 67.7107 238.115C68.1143 238.396 68.0308 238.462 68.1384 238.919C62.2379 246.413 58.3893 251.188 57.6172 261.226C57.205 259.91 56.5361 258.273 56.5856 256.879C57.0964 254.684 57.0297 252.337 57.5491 250.104C58.7512 244.936 61.3153 241.691 65.7665 238.921Z" fill="#EEEEEE"/>
<path d="M161.396 263.937C164.294 265.702 166.471 267.738 167.316 271.137C168.092 274.258 167.375 277.353 165.714 280.06C163.418 283.8 160.681 285.404 157.206 287.833C156.364 287.981 155.646 288.112 155.019 288.733C154.736 288.603 153.692 288.794 153.336 288.825C153.797 289.419 154.207 290.051 154.628 290.673C154.058 292.283 153.274 293.547 152.036 294.731C146.316 300.199 135.443 301.553 127.881 301.308C121.916 301.115 112.419 298.627 108.204 294.155C103.305 296.352 98.7082 298.643 93.2732 299.168C83.0865 300.153 74.2851 297.281 66.4298 290.847C62.5399 292.063 58.9993 292.548 55.0004 291.491C48.8363 289.863 44.5274 286.029 41.3948 280.629C41.3614 280.05 41.0734 279.458 40.8682 278.916L41.2755 278.788C41.073 278.484 41.0531 278.432 41.0088 278.091C42.1352 278.592 43.4814 280.524 44.7254 281.289C47.583 283.047 50.3419 282.557 53.3996 281.86C51.3622 282.151 49.3588 282.479 47.3124 282.057C45.5889 281.702 43.9784 280.859 42.9894 279.374C42.5787 278.758 42.0452 278.289 41.7286 277.618L41.8283 277.287C47.1719 285.155 51.3048 281.284 58.3138 279.946C60.8428 279.463 63.4109 279.598 65.9097 280.19C66.5896 280.348 67.2605 280.537 67.9223 280.759C68.5844 280.98 69.2344 281.233 69.8724 281.516C70.5104 281.799 71.1335 282.112 71.7417 282.454C72.3502 282.797 72.941 283.167 73.5141 283.565C78.275 286.854 81.9934 291.604 88.1926 292.154C97.7952 293.006 104.21 284.487 113.911 285.189C120.115 285.637 124.459 289.108 130.097 290.165C133.563 290.815 137.417 290.263 140.339 288.211C142.067 286.997 143.578 285.524 145.179 284.155C149.842 280.171 153.334 277.4 154.435 271.061C154.62 269.388 154.529 267.973 154.261 266.313L155.043 266.385C157.442 266.232 159.337 265.051 161.396 263.937Z" fill="#EEEEEE"/>
<path d="M154.261 266.313L155.043 266.385C155.282 268.164 155.302 269.931 154.992 271.703C154.837 271.416 154.672 271.279 154.434 271.061C154.62 269.388 154.529 267.973 154.261 266.313Z" fill="#EEEEEE"/>
<path d="M154.435 271.061C154.672 271.279 154.837 271.416 154.992 271.703C153.514 278.257 150.086 280.886 145.21 285.057C143.579 286.451 142.09 287.993 140.273 289.158C137.156 291.157 133.321 291.682 129.74 290.855C124.595 289.668 120.211 286.623 114.858 285.988C104.218 284.725 98.4405 293.664 88.3274 292.881C81.6644 292.364 77.8038 287.254 72.6221 283.903C70.4709 282.512 68.1513 281.604 65.6653 281.004C63.411 280.46 61.0948 280.209 58.7917 280.583C53.9613 281.368 49.9209 284.469 44.975 281.752C43.5656 280.978 42.4549 279.861 41.2755 278.788C41.0731 278.484 41.0531 278.432 41.0088 278.091C42.1353 278.592 43.4814 280.524 44.7254 281.289C47.583 283.047 50.3419 282.557 53.3996 281.86C51.3622 282.151 49.3588 282.479 47.3125 282.057C45.5889 281.702 43.9784 280.859 42.9895 279.374C42.5787 278.758 42.0452 278.289 41.7286 277.618L41.8283 277.287C47.1719 285.155 51.3048 281.284 58.3139 279.946C60.8428 279.463 63.411 279.598 65.9097 280.19C66.5896 280.348 67.2605 280.537 67.9224 280.759C68.5844 280.981 69.2344 281.233 69.8724 281.516C70.5104 281.799 71.1336 282.112 71.7418 282.454C72.3502 282.797 72.941 283.167 73.5141 283.565C78.2751 286.854 81.9934 291.604 88.1926 292.154C97.7953 293.006 104.21 284.487 113.911 285.189C120.115 285.637 124.459 289.108 130.097 290.165C133.563 290.815 137.417 290.263 140.339 288.211C142.068 286.997 143.578 285.524 145.179 284.155C149.842 280.171 153.334 277.4 154.435 271.061Z" fill="#FFFFFA"/>
<path d="M79.8149 170.878C79.2584 167.689 78.8696 164.341 78.608 161.114C78.2649 156.884 77.7497 143.261 80.3298 140.469C80.8671 139.888 81.568 139.785 82.3202 139.843C85.5909 140.098 96.0643 144.917 99.1089 146.701C101.488 148.096 103.566 150.216 106.078 151.348C106.955 151.744 107.818 151.933 108.779 151.875C111.478 151.712 114.275 150.704 116.944 150.21C121.269 149.409 125.594 149.217 129.983 149.127C136.256 148.983 144.931 149.584 150.788 151.849L152.008 150.625C155.351 152.152 158.727 153.632 162.009 155.287C165.627 157.531 171.19 162.01 174.052 165.092C175.14 166.263 176.708 168.943 178.307 169.217C178.531 169.255 178.755 169.309 178.98 169.349C179.158 168.509 179.863 167.519 180.272 166.757C181.346 164.756 181.95 162.612 182.136 160.349C182.376 157.431 182.022 152.477 179.957 150.212C177.461 147.474 170.129 150.486 167.456 151.943C166.348 152.548 163.461 154.994 162.484 154.966C161.226 154.038 159.788 153.396 158.451 152.596C166.523 147.505 179.426 145.4 188.802 146.294C187.958 153.709 186.299 160.703 184.164 167.856C183.701 169.407 183.182 170.872 182.456 172.323C182.07 173.094 181.503 173.868 181.203 174.666C181.097 174.947 181.103 175.153 181.125 175.445C181.131 175.52 181.133 175.595 181.14 175.67C181.334 177.938 182.791 180.374 183.419 182.608C185.977 191.701 185.984 202.047 180.965 210.345C174.975 207.737 168.884 206.213 162.418 205.343C160.19 205.167 158 204.942 155.765 205.129C157.425 205.585 159.044 206.077 160.666 206.657C160.29 208.192 159.853 209.737 159.593 211.297L159.362 211.268C157.347 211.016 147.828 208.579 146.589 209.174C146.574 209.561 146.562 209.61 146.762 209.937C148.764 210.912 151.429 211.179 153.604 211.669C155.668 212.134 157.853 212.742 159.863 213.408C164.717 215.006 169.328 216.641 174.046 218.621C171.94 220.469 169.662 222.281 167.245 223.702C163.065 226.16 158.44 228.343 153.822 229.834C139.471 234.468 122.52 234.426 108.003 230.566C95.8969 227.347 85.7528 220.952 79.3629 209.965C81.6179 209.219 83.832 208.794 86.1719 208.443C87.0972 208.333 89.0834 208.223 89.7682 207.623L89.7115 207.304C88.4179 206.652 85.6342 207.066 84.1864 207.219C84.0977 206.965 83.9873 206.775 83.8553 206.546C83.4934 205.918 83.6298 205.353 83.7979 204.685C84.3558 203.959 86.3135 203.492 87.2134 203.133C90.5279 203.581 93.9142 204.32 97.1193 205.279C97.9333 205.522 98.7047 205.897 99.5149 206.131C100.019 206.277 100.03 206.254 100.479 206.017L100.23 206.245L100.468 206.093L100.425 205.71C98.5427 203.285 90.3907 202.278 87.2574 201.663C83.1331 201.451 78.9968 200.926 74.8742 200.619C74.0086 195.726 73.5923 191.028 74.6807 186.12C75.4902 182.468 76.8459 179.187 78.729 175.964C84.8948 165.41 94.3576 160.679 104.288 154.416C99.9215 151.462 96.0928 146.554 90.9981 144.874C89.3258 144.322 87.4272 144.183 85.8288 145.036C83.9402 146.043 82.7942 148.204 82.1847 150.188C80.6939 155.042 81.0452 162.443 83.4229 166.984C82.2033 168.266 81.0006 169.564 79.8149 170.878Z" fill="white"/>
<path d="M92.7356 181.57C94.1694 181.99 94.7559 183.657 96.0831 184.208C97.8066 184.924 100.408 183.631 102.02 183.051C104.619 182.115 107.15 181.898 109.714 183.131C111.221 183.855 113.968 185.869 114.472 187.492C114.605 187.923 114.53 187.994 114.344 188.38C111.785 187.734 110.236 184.59 106.034 184.444C102.452 184.319 99.1163 187.723 95.5152 186.426C94.3623 186.011 93.2327 184.946 92.7494 183.818C92.4036 183.012 92.3984 182.369 92.7356 181.57Z" fill="#212121"/>
<path d="M143.492 183.281C150.067 182.707 150.599 186.353 154.938 186.78C157.797 187.061 159.96 184.56 161.647 184.81C162.04 185.152 162.041 185.228 162.18 185.738C162.063 186.419 161.763 186.759 161.219 187.147C159.056 188.688 156.507 189.292 153.904 188.895C151.207 188.023 149.036 185.857 146.231 185.343C143.661 184.873 140.106 185.842 137.921 187.232C137.354 187.593 136.912 188.105 136.347 188.478L136.109 188.197C136.021 187.554 136.005 187.275 136.384 186.739C137.948 184.534 140.972 183.633 143.492 183.281Z" fill="#212121"/>
<path d="M122.029 194.449C123.738 194.403 125.42 194.376 127.115 194.636C128.873 194.906 132.457 195.884 133.396 197.502C133.629 197.904 133.631 198.326 133.508 198.761C132.944 200.743 127.326 203.227 125.404 204.251C125.217 206.058 125.164 207.902 125.054 209.716C125.898 210.601 126.806 211.454 127.883 212.046C130.405 213.433 133.159 213.023 135.616 211.734C136.474 211.284 137.443 210.622 138.39 210.389C138.851 210.275 139.017 210.335 139.41 210.575C139.557 211.006 139.664 211.239 139.492 211.698C139.007 212.999 136.157 214.023 134.913 214.415C132.048 215.317 129.436 215.27 126.742 213.884C125.613 213.143 124.64 212.236 123.642 211.333C122.474 212.094 121.314 212.886 120.045 213.472C118.159 214.342 115.941 214.808 113.944 214.027C112.399 213.422 111.009 211.945 110.421 210.397C110.111 209.58 110.104 208.658 110.451 207.86C110.819 207.544 110.858 207.54 111.343 207.489C112.55 207.945 112.743 209.795 113.385 210.819C113.873 211.596 114.597 212.216 115.518 212.382C117.998 212.83 121.13 210.529 123.055 209.173C123.052 207.523 123.172 205.863 123.246 204.214C121.407 202.608 117.785 200.074 117.497 197.478C117.433 196.901 117.575 196.344 117.951 195.896C118.876 194.791 120.686 194.612 122.029 194.449Z" fill="#212121"/>
<path d="M121.645 196.005C125.251 195.771 128.307 196.681 131.409 198.477C130.121 199.455 128.651 200.219 127.252 201.026C126.287 201.589 125.315 202.105 124.311 202.597C123.159 201.641 119.408 198.839 119.228 197.496C119.157 196.968 119.257 196.859 119.536 196.441C120.173 196.041 120.912 196.064 121.645 196.005Z" fill="#EEEEEE"/>
<path d="M159.863 213.408C159.074 214.377 158.337 215.277 157.23 215.909C155.111 217.119 152.323 217.044 150.03 216.369C147.445 215.607 144.564 213.56 143.318 211.136C142.619 209.774 142.503 208.259 143.027 206.816C143.972 204.211 146.465 202.848 148.84 201.772C155.219 198.884 169.866 196.728 176.413 199.316C176.985 199.542 177.54 199.738 177.797 200.323L177.658 200.551C176.02 201.493 172.686 201.145 170.775 201.366C167.358 201.76 164.646 202.553 162.418 205.344C160.19 205.167 158.001 204.942 155.765 205.129C157.425 205.585 159.044 206.077 160.666 206.657C160.29 208.193 159.853 209.737 159.594 211.297L159.362 211.268C157.348 211.016 147.828 208.579 146.589 209.174C146.574 209.561 146.562 209.61 146.762 209.937C148.764 210.912 151.43 211.179 153.604 211.669C155.669 212.134 157.854 212.742 159.863 213.408Z" fill="#F36337"/>
<path d="M87.2578 201.663C86.3822 199.713 79.3855 199.527 81.2899 194.443C81.6581 193.46 82.4463 192.83 83.3964 192.441C87.5891 190.723 93.1579 192.665 97.0271 194.4C100.874 196.125 107.58 198.866 109.13 203.089C109.439 203.93 109.167 204.856 108.756 205.611C107.104 208.644 101.118 213.225 97.7229 214.145C95.2056 214.828 91.9352 214.928 89.6307 213.565C87.7129 212.431 87.0041 210.381 86.1722 208.443C87.0976 208.333 89.0838 208.223 89.7685 207.623L89.7118 207.304C88.4183 206.653 85.6346 207.066 84.1867 207.219C84.098 206.965 83.9877 206.775 83.8557 206.546C83.4937 205.918 83.6302 205.353 83.7983 204.685C84.3562 203.959 86.3138 203.492 87.2138 203.133C90.5282 203.581 93.9145 204.32 97.1196 205.279C97.9336 205.522 98.705 205.897 99.5152 206.131C100.019 206.277 100.03 206.254 100.479 206.017L100.23 206.246L100.468 206.093L100.425 205.71C98.5431 203.285 90.3911 202.278 87.2578 201.663Z" fill="#F36337"/>
<path d="M129.983 149.127C136.256 148.983 144.932 149.585 150.789 151.849L152.008 150.625C155.351 152.152 158.727 153.632 162.009 155.287C165.627 157.531 171.191 162.01 174.052 165.092C175.14 166.263 176.709 168.943 178.307 169.217C178.532 169.255 178.756 169.309 178.98 169.35C178.293 171.259 175.983 173.304 174.211 174.242C165.091 179.071 160.897 173.247 152.893 172.139C148.612 171.547 144.437 172.58 140.167 171.251C139.914 171.17 139.662 171.083 139.413 170.99C139.165 170.897 138.918 170.799 138.674 170.694C138.429 170.589 138.188 170.478 137.949 170.362C137.71 170.245 137.474 170.123 137.241 169.995C137.008 169.867 136.779 169.733 136.552 169.594C136.326 169.455 136.103 169.311 135.883 169.161C135.664 169.011 135.448 168.856 135.236 168.695C135.024 168.535 134.816 168.37 134.612 168.199C134.408 168.029 134.209 167.854 134.013 167.673C133.818 167.493 133.627 167.309 133.44 167.119C133.254 166.93 133.072 166.736 132.895 166.538C132.718 166.34 132.545 166.138 132.378 165.931C132.211 165.724 132.049 165.514 131.891 165.3C131.734 165.085 131.583 164.867 131.436 164.646C131.29 164.424 131.148 164.199 131.013 163.97C130.877 163.742 130.747 163.51 130.623 163.275C128.194 158.641 128.434 153.983 129.983 149.127Z" fill="#EEEEEE"/>
<path d="M196.635 129.802C205.62 128.81 216.67 128.535 225.445 130.82C241.656 133.899 252.775 141.187 262.099 154.849C262.992 156.184 263.844 157.546 264.654 158.933C269.798 167.146 274.048 176.666 275.83 186.22C276.515 189.889 276.809 193.654 277.067 197.373C277.413 202.366 277.56 207.416 276.43 212.328C275.02 218.461 272.381 223.859 269.054 229.148C267.681 231.331 267.125 232.879 264.807 234.32C257.402 238.923 247.526 243.31 239.218 245.841C234.592 247.25 229.898 248.264 225.163 249.219C216.314 251.003 206.257 252.214 200.212 259.72C199.161 261.025 198.154 262.486 197.537 264.052C196.167 263.774 193.411 263.636 192.613 262.365C192.18 261.673 192.297 260.714 192.506 259.969C192.941 258.423 193.618 257.228 194.904 256.249L194.991 255.912C194.694 255.661 194.345 255.574 193.958 255.626C193.148 255.735 192.603 256.269 192.159 256.923C191.16 258.39 190.362 260.726 190.784 262.512C190.871 262.883 191 263.219 191.156 263.566C189.659 263.092 187.029 262.579 186.314 261.034C185.981 260.316 186.109 259.534 186.422 258.835C187.184 257.133 189.285 255.697 189.746 254.593L189.586 254.252C188.689 254.141 187.918 254.491 187.221 255.046C185.936 256.067 184.992 257.782 184.36 259.256L184.137 259.25C183.615 258.537 183.526 257.925 183.645 257.049C183.946 254.833 186.109 251.935 187.912 250.672C192.714 247.307 200.377 248.168 205.982 247.795C211.43 247.434 217.424 247.028 222.588 245.208C223.617 244.845 225.219 244.351 225.787 243.375L225.679 243.118C223.836 242.58 220.237 244.656 218.216 244.971C212.051 245.934 205.698 241.403 202.808 236.195C199.471 230.183 199.078 222.5 200.984 215.97C201.097 215.59 201.219 215.212 201.351 214.838C201.483 214.464 201.624 214.093 201.774 213.725C201.924 213.358 202.082 212.994 202.25 212.634C202.417 212.275 202.594 211.919 202.779 211.568C202.964 211.217 203.157 210.871 203.359 210.529C203.561 210.188 203.772 209.851 203.99 209.52C204.209 209.188 204.435 208.863 204.67 208.542C204.904 208.222 205.146 207.908 205.396 207.6C205.646 207.291 205.903 206.989 206.167 206.693C206.432 206.397 206.704 206.108 206.982 205.826C207.261 205.543 207.547 205.268 207.839 204.999C208.131 204.731 208.43 204.47 208.735 204.216C209.04 203.962 209.351 203.715 209.668 203.477C209.985 203.238 210.308 203.007 210.636 202.784C210.965 202.562 211.298 202.347 211.637 202.14C211.976 201.934 212.32 201.736 212.668 201.546C213.812 200.928 215.018 200.386 216.265 200.011C217.253 199.714 218.381 199.586 219.288 199.083C219.77 198.816 220.053 198.553 220.234 198.016C220.072 197.61 220.021 197.55 219.582 197.377C217.534 196.572 212.78 198.784 210.982 199.844C204.752 203.519 200.435 209.422 198.645 216.393C196.978 222.884 197.405 230.598 200.858 236.477C203.037 240.188 206.388 242.447 209.49 245.268C203.188 245.869 194.166 245.313 188.6 248.288C186.846 249.225 185.441 250.563 184.184 252.088C182.623 253.982 181.868 255.68 181.9 258.174C181.446 258.301 173.722 257.293 173.198 257.023C175.642 255.513 178.439 254.531 180.913 253.018C185.7 250.09 196.521 240.528 198.636 235.468C198.811 235.05 198.775 234.793 198.616 234.389L198.293 234.311C196.99 235.061 193.004 240.473 191.59 241.996C189.28 244.485 186.877 246.809 184.137 248.834C180.601 251.449 176.661 252.876 172.703 254.702C168.746 256.528 165.061 258.491 161.409 260.865C161.374 259.391 161.695 257.907 161.61 256.456C161.584 256.023 161.539 255.792 161.208 255.499L160.994 255.536C160.538 255.896 160.22 256.226 159.977 256.763C159.295 258.27 159.82 259.991 160.323 261.463C158.803 262.531 156.536 264.097 154.585 263.922C154.039 263.873 153.578 263.649 153.23 263.218C152.013 261.712 152.394 259.267 152.526 257.47C152.575 256.807 152.693 256.107 152.228 255.568C151.837 255.507 151.649 255.559 151.313 255.779C150.322 256.426 150.034 257.807 149.889 258.898C149.623 260.894 150.502 262.363 151.659 263.881C148.625 263.66 145.807 263.135 143.199 261.507C143.271 257.269 146.492 255.894 146.724 254.216C146.481 253.909 146.371 253.751 145.951 253.685C145.469 253.609 144.856 253.919 144.455 254.165C142.595 255.303 141.523 257.533 141.076 259.586C140.871 259.09 140.692 258.586 140.538 258.072C137.598 248.163 149.555 242.996 156.029 238.6C160.062 235.861 168.659 228.792 170.847 224.79C167.277 228.085 164.073 231.51 160.141 234.419C157.975 236.021 155.707 237.553 153.371 238.892C147.299 242.374 141.845 245.011 138.577 251.578C134.245 248.384 129.708 244.908 124.402 243.553C119.331 242.258 114.555 243.424 110.147 246.052C108.435 242.766 106.384 239.532 103.697 236.958C99.3471 232.793 94.0389 231.266 88.1264 231.404C87.5417 231.417 86.7562 231.369 86.3255 231.822L86.4369 232.128C87.8002 232.515 89.2835 232.469 90.6836 232.7C96.6727 233.687 101.596 237.116 105.057 242.017C107.47 245.433 109.798 249.688 108.949 254.024C108.435 256.647 106.869 258.296 104.753 259.752C104.74 258.371 104.772 256.894 104.361 255.565C104.141 254.854 103.598 253.794 102.844 253.519C102.453 253.376 102.257 253.494 101.915 253.653C100.843 255.52 104.018 258.148 103.456 260.28C103.328 260.763 102.297 261.338 101.855 261.541C100.369 262.223 97.45 262.535 95.899 261.857C93.6914 260.893 94.9481 256.983 94.1042 255.065C93.9025 254.607 93.699 254.303 93.227 254.127C93.1356 254.18 93.0348 254.219 92.953 254.285C92.6127 254.56 92.4071 255.34 92.315 255.754C91.8056 258.054 92.9537 260.04 94.1802 261.884C92.0586 261.448 89.8311 260.729 87.913 259.717C82.9894 257.117 83.7653 252.76 82.3274 248.329C82.3088 248.272 82.2889 248.216 82.2696 248.159C81.7072 250.744 81.7557 253.212 82.3776 255.773C76.1412 250.306 70.5966 244.393 69.6681 235.744C68.6234 226.017 71.7849 218.53 77.7431 211.062C79.3323 213.205 80.8279 215.418 82.4814 217.514C91.0566 228.381 105.372 233.107 118.665 234.627C121.891 234.999 125.128 235.205 128.375 235.246C131.623 235.286 134.864 235.162 138.098 234.871C153.262 233.574 164.815 229.215 176.764 219.709C179.561 221.362 181.766 223.614 184.2 225.719C182.634 222.97 179.94 220.919 177.616 218.825C179.697 216.686 181.347 214.432 182.946 211.925C185.327 213.197 187.973 214.963 190.628 215.537C188.405 213.919 185.912 212.565 183.488 211.27C183.575 211.093 183.66 210.915 183.744 210.736C189.54 198.487 187.434 187.458 183.088 175.291C184.11 173.271 185.041 171.211 185.883 169.111C187.205 167.768 188.247 165.627 189.297 164.044C193.238 158.095 198.152 152.017 199.683 144.901C200.855 139.46 199.584 134.412 196.635 129.802Z" fill="white"/>
<path d="M225.446 130.82C241.656 133.899 252.775 141.187 262.099 154.849C262.992 156.184 263.844 157.546 264.655 158.933C263.695 161.073 262.579 163.127 261.307 165.097C254.182 176.135 243.753 180.109 231.009 180.579C227.256 180.717 223.344 180.319 219.643 181.018C217.435 181.435 215.261 182.21 213.239 183.183C211.008 184.257 208.805 185.621 206.356 186.119C204.365 186.524 202.36 186.253 200.667 185.082C198.769 183.768 197.828 181.625 197.461 179.412C196.266 172.207 200.698 166.303 206.185 162.183C211.555 158.15 217.712 155.62 221.697 149.905C226.049 143.665 226.741 138.094 225.446 130.82Z" fill="#EEEEEE"/>
</svg>
