<svg width="136" height="127" viewBox="0 0 136 127" fill="none" xmlns="http://www.w3.org/2000/svg">
<path d="M119.053 126.177C115.913 126.177 113.131 125.482 110.706 124.091C108.282 122.66 106.354 120.752 104.923 118.367C103.532 115.943 102.836 113.24 102.836 110.259C102.836 107.278 103.532 104.595 104.923 102.21C106.354 99.786 108.282 97.8782 110.706 96.4871C113.131 95.0562 115.913 94.3408 119.053 94.3408C122.153 94.3408 124.915 95.0562 127.34 96.4871C129.764 97.8782 131.672 99.7661 133.063 102.151C134.494 104.536 135.209 107.238 135.209 110.259C135.209 113.24 134.494 115.943 133.063 118.367C131.672 120.752 129.764 122.66 127.34 124.091C124.915 125.482 122.153 126.177 119.053 126.177ZM119.053 120.335C120.921 120.335 122.55 119.897 123.941 119.023C125.333 118.109 126.406 116.897 127.161 115.386C127.916 113.876 128.294 112.167 128.294 110.259C128.294 108.391 127.916 106.702 127.161 105.191C126.406 103.641 125.333 102.429 123.941 101.555C122.55 100.641 120.921 100.183 119.053 100.183C117.145 100.183 115.495 100.641 114.104 101.555C112.753 102.429 111.68 103.621 110.885 105.132C110.13 106.642 109.752 108.351 109.752 110.259C109.752 112.127 110.13 113.836 110.885 115.386C111.68 116.897 112.753 118.109 114.104 119.023C115.495 119.897 117.145 120.335 119.053 120.335Z" fill="#2962FF"/>
<path d="M72.7739 125.462V119.62H87.4401C88.1555 119.62 88.7716 119.461 89.2883 119.143C89.8447 118.825 90.262 118.407 90.5403 117.891C90.8582 117.374 91.0172 116.837 91.0172 116.281C91.0172 115.645 90.8781 115.088 90.5999 114.612C90.3217 114.135 89.9242 113.757 89.4075 113.479C88.8908 113.161 88.2946 113.002 87.619 113.002H81.6571C79.7096 113.002 77.9806 112.684 76.4703 112.048C74.9599 111.412 73.7676 110.438 72.8932 109.127C72.0187 107.775 71.5815 106.086 71.5815 104.059C71.5815 102.429 71.979 100.939 72.7739 99.5877C73.6086 98.2363 74.7215 97.1433 76.1126 96.3086C77.5037 95.474 79.0736 95.0566 80.8224 95.0566H94.952V100.899H81.4782C80.5641 100.899 79.8089 101.197 79.2127 101.794C78.6165 102.35 78.3184 103.046 78.3184 103.88C78.3184 104.675 78.6165 105.371 79.2127 105.967C79.8089 106.563 80.6038 106.861 81.5975 106.861H87.3805C89.5665 106.861 91.4345 107.199 92.9846 107.875C94.5347 108.55 95.7072 109.564 96.5021 110.915C97.3368 112.267 97.7541 113.976 97.7541 116.042C97.7541 117.712 97.3368 119.282 96.5021 120.752C95.6675 122.183 94.5148 123.336 93.0442 124.21C91.6134 125.045 89.9838 125.462 88.1555 125.462H72.7739Z" fill="#2962FF"/>
<path d="M57.8138 125.462V95.0565H64.67V125.462H57.8138ZM61.2121 90.8236C60.0197 90.8236 58.9863 90.3863 58.1119 89.5119C57.2375 88.6375 56.8003 87.6041 56.8003 86.4118C56.8003 85.2194 57.2375 84.186 58.1119 83.3116C58.9863 82.4372 60.0197 82 61.2121 82C62.4442 82 63.4776 82.4372 64.3122 83.3116C65.1866 84.186 65.6238 85.2194 65.6238 86.4118C65.6238 87.6041 65.1866 88.6375 64.3122 89.5119C63.4776 90.3863 62.4442 90.8236 61.2121 90.8236Z" fill="#2962FF"/>
<path d="M0 125.462V107.278C0 104.933 0.556441 102.787 1.66932 100.839C2.7822 98.852 4.3919 97.282 6.49843 96.1294C8.60495 94.937 11.1288 94.3408 14.07 94.3408C15.5008 94.3408 16.8721 94.5197 18.1837 94.8774C19.4953 95.2351 20.7075 95.8114 21.8204 96.6063C22.973 97.3615 23.9468 98.3154 24.7417 99.468H24.8013C25.5963 98.3154 26.5502 97.3615 27.663 96.6063C28.8157 95.8114 30.0478 95.2351 31.3594 94.8774C32.7107 94.5197 34.1018 94.3408 35.5327 94.3408C38.5136 94.3408 41.0375 94.937 43.1043 96.1294C45.2108 97.282 46.8205 98.852 47.9334 100.839C49.0462 102.787 49.6027 104.933 49.6027 107.278V125.462H42.8062V107.278C42.8062 105.966 42.4683 104.774 41.7926 103.701C41.1567 102.628 40.3022 101.773 39.229 101.137C38.1559 100.501 36.9238 100.183 35.5327 100.183C34.1813 100.183 32.9492 100.501 31.8363 101.137C30.7235 101.773 29.8292 102.628 29.1535 103.701C28.5176 104.774 28.1996 105.966 28.1996 107.278V125.462H21.4031V107.278C21.4031 105.966 21.0652 104.774 20.3896 103.701C19.7139 102.628 18.8196 101.773 17.7067 101.137C16.6336 100.501 15.4213 100.183 14.07 100.183C12.7186 100.183 11.4865 100.501 10.3736 101.137C9.3005 101.773 8.4261 102.628 7.75042 103.701C7.11449 104.774 6.79652 105.966 6.79652 107.278V125.462H0Z" fill="#2962FF"/>
<path d="M85.4925 27.932C82.2004 27.8994 78.955 27.1495 75.9824 25.7345C73.0099 24.3195 70.3817 22.2734 68.281 19.7388C66.1803 17.2042 64.6576 14.242 63.8191 11.0588C62.9805 7.87554 62.8463 4.54775 63.4257 1.30732C63.4619 1.11656 63.4471 0.919603 63.3827 0.736406C63.3183 0.553209 63.2067 0.390279 63.059 0.26413C62.9114 0.137981 62.733 0.0531034 62.542 0.0180742C62.351 -0.0169549 62.1541 -0.000880672 61.9713 0.0646711C58.384 1.35593 55.1808 3.53213 52.6591 6.39144C50.1374 9.25075 48.3787 12.7005 47.5462 16.4208C46.7138 20.141 46.8344 24.0112 47.8971 27.6724C48.9598 31.3336 50.9299 34.6671 53.6249 37.3638C56.3199 40.0604 59.6524 42.0329 63.3132 43.0982C66.9741 44.1635 70.8447 44.2871 74.5661 43.4576C78.2874 42.6281 81.739 40.8722 84.6006 38.353C87.4622 35.8338 89.6412 32.6328 90.9353 29.0469C91.0009 28.8641 91.017 28.6672 90.9819 28.4763C90.9469 28.2853 90.862 28.1069 90.7358 27.9593C90.6097 27.8117 90.4467 27.7 90.2635 27.6356C90.0803 27.5712 89.8833 27.5564 89.6925 27.5927C88.3059 27.8348 86.8999 27.9484 85.4925 27.932Z" fill="#2962FF"/>
</svg>
