<svg width="44" height="44" viewBox="0 0 44 44" fill="none" xmlns="http://www.w3.org/2000/svg">
<path d="M38.4925 27.932C35.2004 27.8994 31.955 27.1495 28.9824 25.7345C26.0099 24.3195 23.3817 22.2734 21.281 19.7388C19.1803 17.2042 17.6576 14.242 16.8191 11.0588C15.9805 7.87554 15.8463 4.54775 16.4257 1.30732C16.4619 1.11656 16.4471 0.919603 16.3827 0.736406C16.3183 0.553209 16.2067 0.390279 16.059 0.26413C15.9114 0.137981 15.733 0.0531034 15.542 0.0180742C15.351 -0.0169549 15.1541 -0.000880672 14.9713 0.0646711C11.384 1.35593 8.18084 3.53213 5.65911 6.39144C3.13738 9.25075 1.37871 12.7005 0.546239 16.4208C-0.286236 20.141 -0.165551 24.0112 0.8971 27.6724C1.95975 31.3336 3.92995 34.6671 6.62493 37.3638C9.31991 40.0604 12.6524 42.0329 16.3132 43.0982C19.9741 44.1635 23.8447 44.2871 27.5661 43.4576C31.2874 42.6281 34.739 40.8722 37.6006 38.353C40.4622 35.8338 42.6412 32.6328 43.9353 29.0469C44.0009 28.8641 44.017 28.6672 43.9819 28.4763C43.9469 28.2853 43.862 28.1069 43.7358 27.9593C43.6097 27.8117 43.4467 27.7 43.2635 27.6356C43.0803 27.5712 42.8833 27.5564 42.6925 27.5927C41.3059 27.8348 39.8999 27.9484 38.4925 27.932Z" fill="#2962FF"/>
</svg>
